<svg width="361" height="541" viewBox="0 0 361 541" fill="none" xmlns="http://www.w3.org/2000/svg">
<rect x="0.984894" width="360" height="541" fill="url(#paint0_linear_421_320)"/>
<g opacity="0.6">
<g style="mix-blend-mode:color-dodge" opacity="0.55">
<path d="M29.7056 258.142C29.7056 258.142 74.0994 -81.2241 123.825 161.052C173.551 403.327 181.702 134.831 218.282 23.2011C254.863 -88.4284 288.454 274.801 316.858 208.551C345.262 142.301 329.608 7.94795 354.622 17.4308" stroke="url(#paint1_linear_421_320)" stroke-width="1.12" stroke-miterlimit="10"/>
<path d="M355.078 19.4944C330.421 10.1418 344.668 149.126 315.83 210.898C286.993 272.67 253.611 -81.7283 216.883 29.7878C180.154 141.304 171.928 399.479 122.392 161.466C72.8562 -76.5476 29.1905 260.449 28.7519 260.245" stroke="url(#paint2_linear_421_320)" stroke-width="1.13" stroke-miterlimit="10"/>
<path d="M355.534 21.563C331.23 12.3465 344.073 155.973 314.802 213.256C285.53 270.539 252.355 -75.0344 215.48 36.374C178.605 147.782 170.304 395.63 120.958 161.879C71.6119 -71.8715 28.6742 262.773 27.7982 262.342" stroke="url(#paint3_linear_421_320)" stroke-width="1.13" stroke-miterlimit="10"/>
<path d="M355.99 23.6318C332.038 14.5627 343.477 162.814 313.773 215.619C284.068 268.424 251.102 -68.3573 214.081 42.9604C177.061 154.278 168.679 391.781 119.523 162.293C70.3676 -67.1953 28.1591 265.063 26.8446 264.445" stroke="url(#paint4_linear_421_320)" stroke-width="1.14" stroke-miterlimit="10"/>
<path d="M356.445 25.6895C332.846 16.7394 342.882 169.662 312.745 217.96C282.608 266.259 249.847 -61.6631 212.681 49.5299C175.516 160.723 167.055 387.921 118.09 162.695C69.1256 -62.5303 27.6401 267.37 25.8908 266.542" stroke="url(#paint5_linear_421_320)" stroke-width="1.14" stroke-miterlimit="10"/>
<path d="M356.902 27.7755C333.653 18.9558 342.286 176.509 311.716 220.335C281.146 264.162 248.595 -54.9518 211.282 56.1335C173.968 167.219 165.432 384.09 116.656 163.126C67.88 -57.837 27.1301 269.677 24.9372 268.646" stroke="url(#paint6_linear_421_320)" stroke-width="1.15" stroke-miterlimit="10"/>
<path d="M357.352 29.8442C334.462 21.1548 341.692 183.356 310.687 222.693C279.682 262.031 247.339 -48.2466 209.88 62.7197C172.421 173.686 163.809 380.241 115.221 163.54C66.6343 -53.1609 26.6099 271.984 23.9835 270.748" stroke="url(#paint7_linear_421_320)" stroke-width="1.15" stroke-miterlimit="10"/>
<path d="M357.813 31.9245C335.27 23.3768 341.097 190.209 309.659 225.063C278.222 259.916 246.086 -41.5524 208.48 69.3119C170.875 180.176 162.183 376.403 113.788 163.971C65.3937 -48.4619 26.0961 274.291 23.0298 272.823" stroke="url(#paint8_linear_421_320)" stroke-width="1.16" stroke-miterlimit="10"/>
<path d="M358.268 33.9875C336.084 25.5702 340.501 197.044 308.631 227.409C276.76 257.774 244.833 -34.8698 207.081 75.8868C169.328 186.643 160.559 372.549 112.349 164.367C64.1392 -43.8142 25.5798 276.598 22.0761 274.948" stroke="url(#paint9_linear_421_320)" stroke-width="1.16" stroke-miterlimit="10"/>
<path d="M358.725 36.0566C336.887 27.7754 339.906 203.892 307.598 229.773C275.29 255.654 243.578 -28.1584 205.68 82.4735C167.783 193.105 158.936 368.717 110.92 164.781C62.9037 -39.1547 25.0646 278.905 21.1236 277.051" stroke="url(#paint10_linear_421_320)" stroke-width="1.17" stroke-miterlimit="10"/>
<path d="M359.18 38.1253C337.694 29.9801 339.311 210.733 306.574 232.131C273.837 253.528 242.325 -21.4871 204.281 89.0597C166.236 199.607 157.306 364.851 109.487 165.195C61.667 -34.4616 24.5483 281.212 20.17 279.148" stroke="url(#paint11_linear_421_320)" stroke-width="1.17" stroke-miterlimit="10"/>
<path d="M359.636 40.1943C338.502 32.1794 338.715 217.609 305.545 234.489C272.375 251.369 241.073 -14.7929 202.879 95.6462C164.686 206.085 155.687 361.003 108.052 165.609C60.4175 -29.7853 24.0307 283.507 19.2163 281.24" stroke="url(#paint12_linear_421_320)" stroke-width="1.18" stroke-miterlimit="10"/>
<path d="M360.092 42.269C339.309 34.3845 338.12 224.428 304.517 236.847C270.915 249.266 239.817 -8.09858 201.479 102.21C163.142 212.519 154.064 357.137 106.62 166.006C59.1769 -25.1259 23.5193 285.803 18.2639 283.337" stroke="url(#paint13_linear_421_320)" stroke-width="1.18" stroke-miterlimit="10"/>
<path d="M360.548 44.3378C340.119 36.5894 337.524 231.275 303.489 239.205C269.453 247.135 238.564 -1.40455 200.08 108.836C161.595 219.077 152.44 353.311 105.185 166.442C57.93 -20.427 23.0018 288.127 17.3128 285.452" stroke="url(#paint14_linear_421_320)" stroke-width="1.19" stroke-miterlimit="10"/>
<path d="M361.003 46.4067C340.926 38.7943 336.929 238.116 302.46 241.563C267.99 245.009 237.308 5.2896 198.676 115.4C160.044 225.51 150.815 349.462 103.757 166.856C56.6983 -15.7508 22.4866 290.44 16.3551 287.56" stroke="url(#paint15_linear_421_320)" stroke-width="1.19" stroke-miterlimit="10"/>
<path d="M361.46 48.4755C341.734 40.9934 336.333 244.964 301.432 243.915C266.53 242.866 236.056 11.9723 197.28 121.975C158.503 231.978 149.191 345.614 102.316 167.27C55.4412 -11.0746 21.9702 292.746 15.4002 289.652" stroke="url(#paint16_linear_421_320)" stroke-width="1.2" stroke-miterlimit="10"/>
<path d="M361.915 50.5501C342.543 43.1814 335.738 251.811 300.403 246.284C265.068 240.758 234.802 18.6778 195.878 128.573C156.954 238.468 147.568 341.771 100.882 167.683C54.1955 -6.40393 21.4551 295.053 14.4478 291.755" stroke="url(#paint17_linear_421_320)" stroke-width="1.2" stroke-miterlimit="10"/>
<path d="M362.371 52.6188C343.351 45.4032 335.144 258.658 299.374 248.642C263.604 238.626 233.55 25.3718 194.479 135.159C155.407 244.946 145.944 337.922 99.4487 168.097C52.9538 -1.72785 20.9388 297.36 13.4942 293.857" stroke="url(#paint18_linear_421_320)" stroke-width="1.21" stroke-miterlimit="10"/>
<path d="M362.826 54.688C344.158 47.6084 334.548 265.5 298.347 251C262.145 236.501 232.295 32.0662 193.079 141.746C153.862 251.425 144.319 334.073 98.0194 168.528C51.7195 2.98267 20.4237 299.667 12.5404 295.955" stroke="url(#paint19_linear_421_320)" stroke-width="1.21" stroke-miterlimit="10"/>
<path d="M363.283 56.7569C344.966 49.8134 333.958 272.347 297.318 253.358C260.677 234.37 231.04 38.7604 191.679 148.327C152.317 257.893 142.696 330.225 96.58 168.931C50.4637 7.63632 19.9074 301.974 11.5868 298.058" stroke="url(#paint20_linear_421_320)" stroke-width="1.22" stroke-miterlimit="10"/>
<path d="M363.739 58.8312C345.775 52.0294 333.358 279.194 296.293 255.716C259.227 232.238 229.787 45.4543 190.277 154.924C150.768 264.394 141.072 326.381 95.1469 169.344C49.2219 12.3067 19.3923 304.281 10.6331 300.155" stroke="url(#paint21_linear_421_320)" stroke-width="1.22" stroke-miterlimit="10"/>
<path d="M364.195 60.9004C346.583 54.2233 332.762 286.035 295.26 258.086C257.757 230.136 228.533 52.1487 188.877 161.5C149.222 270.85 139.448 322.533 93.7125 169.758C47.9775 16.9832 18.8708 306.588 9.67941 302.258" stroke="url(#paint22_linear_421_320)" stroke-width="1.23" stroke-miterlimit="10"/>
<path d="M364.651 62.9694C347.391 56.4226 332.167 292.883 294.232 260.438C256.297 227.993 227.279 58.8429 187.478 168.086C147.676 277.329 137.823 318.684 92.2819 170.172C46.7407 21.6596 18.3608 308.895 8.72696 304.361" stroke="url(#paint23_linear_421_320)" stroke-width="1.23" stroke-miterlimit="10"/>
<path d="M365.106 65.0379C348.199 58.6272 331.574 299.73 293.197 262.796C254.82 225.862 226.019 65.5424 186.071 174.672C146.123 283.802 136.194 314.835 90.8387 170.585C45.4836 26.3355 17.8457 311.202 7.77332 306.458" stroke="url(#paint24_linear_421_320)" stroke-width="1.24" stroke-miterlimit="10"/>
<path d="M365.563 67.1126C349.007 60.8322 330.976 306.577 292.176 265.154C253.375 223.731 224.771 72.2253 184.678 181.264C144.584 290.303 134.571 310.998 89.4107 171.005C44.2506 31.0118 17.3293 313.509 6.81958 308.561" stroke="url(#paint25_linear_421_320)" stroke-width="1.24" stroke-miterlimit="10"/>
<path d="M366.022 69.1814C349.819 63.0371 330.384 313.418 291.151 267.512C251.917 221.605 223.521 78.9194 183.287 187.845C143.052 296.771 132.954 307.144 87.9763 171.413C42.9986 35.6824 16.8142 315.816 5.86588 310.664" stroke="url(#paint26_linear_421_320)" stroke-width="1.25" stroke-miterlimit="10"/>
<path d="M366.474 71.2505C350.624 65.2422 329.785 320.266 290.118 269.87C250.45 219.474 222.264 85.6137 181.871 194.426C141.479 303.238 131.327 303.295 86.5445 171.833C41.7619 40.3702 16.2928 318.123 4.91223 312.761" stroke="url(#paint27_linear_421_320)" stroke-width="1.25" stroke-miterlimit="10"/>
<path d="M366.929 73.3023C351.431 67.43 329.19 327.096 289.09 272.216C248.991 217.337 221.006 92.2908 180.477 200.995C139.947 309.7 129.704 299.463 85.1088 172.246C40.5136 45.0293 15.7827 320.436 3.9585 314.864" stroke="url(#paint28_linear_421_320)" stroke-width="1.26" stroke-miterlimit="10"/>
<path d="M367.386 75.3939C352.239 69.6463 328.594 333.96 288.061 274.591C247.528 215.223 219.756 99.0019 179.077 207.599C138.397 316.196 128.077 295.603 83.6745 172.66C39.2718 49.7169 15.2728 322.737 3.00485 316.961" stroke="url(#paint29_linear_421_320)" stroke-width="1.26" stroke-miterlimit="10"/>
<path d="M367.841 77.4628C353.051 71.8513 328 340.802 287.032 276.949C246.064 213.097 218.506 105.696 177.675 214.185C136.845 322.675 126.452 291.755 82.2415 173.063C38.0313 54.3706 14.7513 325.044 2.05121 319.064" stroke="url(#paint30_linear_421_320)" stroke-width="1.27" stroke-miterlimit="10"/>
<path d="M368.297 79.5374C353.856 74.0619 327.405 347.643 286.005 279.313C244.604 210.983 217.248 112.413 176.275 220.772C135.302 329.131 124.832 287.906 80.807 173.488C36.7817 59.0695 14.2348 327.351 1.09738 321.167" stroke="url(#paint31_linear_421_320)" stroke-width="1.27" stroke-miterlimit="10"/>
<path d="M368.753 81.6005C354.663 76.261 326.805 354.496 284.976 281.688C243.146 208.88 215.999 119.107 174.876 227.381C133.752 335.655 123.208 284.063 79.3791 173.924C35.5501 63.7853 13.7198 329.658 0.143768 323.27" stroke="url(#paint32_linear_421_320)" stroke-width="1.28" stroke-miterlimit="10"/>
<path d="M369.209 83.6751C355.471 78.4661 326.214 361.337 283.947 284.023C241.68 206.709 214.741 125.779 173.476 233.939C132.211 342.1 121.584 280.191 77.9396 174.315C34.2955 68.439 13.2034 331.965 -0.809937 325.367" stroke="url(#paint33_linear_421_320)" stroke-width="1.28" stroke-miterlimit="10"/>
<path d="M369.664 85.7722C356.277 80.6708 325.619 368.213 282.919 286.426C240.22 204.64 213.487 132.472 172.075 240.514C130.662 348.555 119.959 276.365 76.5054 174.763C33.0513 73.1605 12.6885 334.272 -1.76349 327.47" stroke="url(#paint34_linear_421_320)" stroke-width="1.29" stroke-miterlimit="10"/>
<path d="M370.121 87.8129C357.088 82.8703 325.023 375.032 281.892 288.745C238.76 202.458 212.233 139.167 170.674 247.112C129.116 355.057 118.336 272.517 75.0709 175.126C31.8055 77.7349 12.1733 336.579 -2.71732 329.567" stroke="url(#paint35_linear_421_320)" stroke-width="1.29" stroke-miterlimit="10"/>
<path d="M370.576 89.8818C357.896 85.0751 324.428 381.879 280.861 291.103C237.295 200.327 210.979 145.861 169.275 253.693C127.57 361.524 116.712 268.662 73.6378 175.557C30.5637 82.4508 11.6569 338.886 -3.67096 331.67" stroke="url(#paint36_linear_421_320)" stroke-width="1.3" stroke-miterlimit="10"/>
<path d="M371.032 91.9562C358.703 87.28 323.832 388.72 279.834 293.461C235.835 198.201 209.726 152.549 167.875 260.285C126.023 368.02 115.09 264.819 72.2035 175.976C29.3167 87.1326 11.1418 341.193 -4.61703 333.767" stroke="url(#paint37_linear_421_320)" stroke-width="1.3" stroke-miterlimit="10"/>
<path d="M371.487 94.025C359.512 89.4905 323.237 395.573 278.805 295.813C234.373 196.053 208.471 159.209 166.479 266.865C124.486 374.521 113.463 260.976 70.7691 176.39C28.0749 91.8031 10.6254 343.499 -5.57709 335.87" stroke="url(#paint38_linear_421_320)" stroke-width="1.31" stroke-miterlimit="10"/>
<path d="M371.944 96.0941C360.32 91.69 322.641 402.415 277.776 298.177C232.91 193.939 207.218 165.938 165.074 273.452C122.929 380.966 111.84 257.128 69.3322 176.804C26.8242 96.4796 10.1104 345.807 -6.52948 337.973" stroke="url(#paint39_linear_421_320)" stroke-width="1.31" stroke-miterlimit="10"/>
<path d="M372.396 98.1686C361.126 93.8891 322.043 409.262 276.746 300.523C231.448 191.784 205.961 172.615 163.671 280.021C121.381 387.428 110.213 253.262 67.8991 177.2C25.5848 101.139 9.59395 348.113 -7.4845 340.07" stroke="url(#paint40_linear_421_320)" stroke-width="1.31" stroke-miterlimit="10"/>
<path d="M372.855 100.237C361.935 96.094 321.452 416.103 275.719 302.898C229.987 189.693 204.71 179.331 162.274 286.625C119.837 393.918 108.597 249.436 66.4672 177.637C24.3379 105.838 9.07882 350.42 -8.44205 342.173" stroke="url(#paint41_linear_421_320)" stroke-width="1.32" stroke-miterlimit="10"/>
<path d="M373.311 102.306C362.744 98.2989 320.856 422.951 274.691 305.256C228.525 187.562 203.461 186.02 160.876 293.228C118.292 400.437 106.969 245.615 65.0342 178.05C23.0999 110.486 8.56255 352.744 -9.39182 344.27" stroke="url(#paint42_linear_421_320)" stroke-width="1.32" stroke-miterlimit="10"/>
<path d="M373.767 104.375C363.552 100.504 320.261 429.798 273.663 307.614C227.065 185.431 202.202 192.714 159.474 299.798C116.745 406.881 105.344 241.738 63.5947 178.464C21.8453 115.19 8.04738 355.012 -10.3456 346.373" stroke="url(#paint43_linear_421_320)" stroke-width="1.33" stroke-miterlimit="10"/>
<path d="M374.222 106.45C364.36 102.709 319.666 436.639 272.634 309.972C225.602 183.305 200.949 199.408 158.071 306.384C115.194 413.36 103.719 237.89 62.1643 178.85C20.6099 119.81 7.53111 357.313 -11.3004 348.448" stroke="url(#paint44_linear_421_320)" stroke-width="1.33" stroke-miterlimit="10"/>
<path d="M374.679 108.519C365.167 104.914 319.07 443.509 271.606 312.33C224.142 181.151 199.697 206.102 156.673 312.971C113.648 419.839 102.099 234.047 60.7324 179.297C19.3655 124.548 7.01597 359.648 -12.2529 350.573" stroke="url(#paint45_linear_421_320)" stroke-width="1.34" stroke-miterlimit="10"/>
<path d="M375.134 110.588C365.976 107.113 318.475 450.334 270.577 314.694C222.68 179.054 198.441 212.797 155.273 319.551C112.104 426.306 100.472 230.198 59.298 179.706C18.1236 129.213 6.5008 361.955 -13.2067 352.676" stroke="url(#paint46_linear_421_320)" stroke-width="1.34" stroke-miterlimit="10"/>
<path d="M375.59 112.656C366.784 109.318 317.879 457.181 269.548 317.052C221.218 176.922 197.188 219.491 153.871 326.121C110.555 432.751 98.8482 226.36 57.865 180.102C16.8818 133.844 5.98579 364.245 -14.159 354.762" stroke="url(#paint47_linear_421_320)" stroke-width="1.35" stroke-miterlimit="10"/>
<path d="M376.045 114.731C367.592 111.523 317.284 464.022 268.521 319.41C219.758 174.797 195.938 226.185 152.471 332.724C109.005 439.264 97.2238 222.501 56.4293 180.539C15.6349 138.577 5.4694 366.569 -15.114 356.876" stroke="url(#paint48_linear_421_320)" stroke-width="1.35" stroke-miterlimit="10"/>
<path d="M376.502 116.8C368.401 113.728 316.689 470.87 267.491 321.768C218.293 172.666 194.68 232.879 151.072 339.311C107.463 445.742 95.597 218.652 54.9963 180.953C14.3956 143.253 4.95307 368.876 -16.0676 358.979" stroke="url(#paint49_linear_421_320)" stroke-width="1.36" stroke-miterlimit="10"/>
<path d="M376.957 118.869C369.208 115.933 316.093 477.717 266.463 324.126C216.833 170.534 193.425 239.573 149.674 345.897C105.923 452.221 93.9763 214.809 53.5618 181.366C13.1473 147.924 4.43533 371.183 -17.0201 361.077" stroke="url(#paint50_linear_421_320)" stroke-width="1.36" stroke-miterlimit="10"/>
<path d="M377.414 120.915C370.019 118.081 315.498 484.541 265.435 326.461C215.373 168.381 192.172 246.239 148.272 352.461C104.371 458.683 92.3521 210.96 52.1276 181.78C11.903 152.601 3.92541 373.49 -17.9738 363.18" stroke="url(#paint51_linear_421_320)" stroke-width="1.37" stroke-miterlimit="10"/>
<path d="M377.869 123.012C370.824 120.348 314.903 491.405 264.405 328.847C213.907 166.289 190.919 252.984 146.87 359.064C102.822 465.145 90.7277 207.111 50.6944 182.217C10.6611 157.322 3.40642 375.82 -18.9275 365.299" stroke="url(#paint52_linear_421_320)" stroke-width="1.37" stroke-miterlimit="10"/>
<path d="M378.325 125.081C371.632 122.542 314.308 498.253 263.377 331.205C212.447 164.158 189.664 259.65 145.471 365.651C101.277 471.652 89.1047 203.263 49.2601 182.608C9.41548 161.953 2.89137 378.104 -19.8812 367.391" stroke="url(#paint53_linear_421_320)" stroke-width="1.38" stroke-miterlimit="10"/>
<path d="M378.78 127.15C372.44 124.747 313.713 505.1 262.35 333.563C210.987 162.026 188.416 266.344 144.071 372.237C99.7253 478.13 87.4803 199.42 47.8257 183.021C8.17107 166.623 2.37498 380.411 -20.8349 369.505" stroke="url(#paint54_linear_421_320)" stroke-width="1.38" stroke-miterlimit="10"/>
<path d="M379.237 129.219C373.244 126.952 313.117 511.942 261.321 335.921C209.525 159.901 187.156 273.038 142.671 378.818C98.1852 484.598 85.8561 195.571 46.3927 183.436C6.92932 171.3 1.85997 382.718 -21.7885 371.586" stroke="url(#paint55_linear_421_320)" stroke-width="1.39" stroke-miterlimit="10"/>
<path d="M379.692 131.293C374.056 129.157 312.522 518.788 260.292 338.279C208.062 157.77 185.903 279.732 141.269 385.41C96.636 491.088 84.2317 191.722 44.9583 183.832C5.68485 175.942 1.34352 385.053 -22.7422 373.682" stroke="url(#paint56_linear_421_320)" stroke-width="1.39" stroke-miterlimit="10"/>
<path d="M380.148 133.385C374.865 131.379 311.926 525.658 259.264 340.66C206.602 155.661 184.65 286.426 139.87 391.997C95.0895 497.567 82.6087 187.873 43.5239 184.268C4.43924 180.664 0.828472 387.32 -23.6959 375.786" stroke="url(#paint57_linear_421_320)" stroke-width="1.4" stroke-miterlimit="10"/>
<path d="M380.604 135.431C375.672 133.561 311.331 532.483 258.235 342.995C205.14 153.507 183.394 293.115 138.47 398.577C93.5454 504.04 80.9842 184.03 42.0908 184.682C3.19729 185.334 0.311998 389.639 -24.6497 377.883" stroke="url(#paint58_linear_421_320)" stroke-width="1.4" stroke-miterlimit="10"/>
<path d="M381.066 137.5C376.476 135.766 310.736 539.324 257.207 345.376C203.678 151.427 182.142 299.832 137.07 405.181C91.9976 510.53 79.3599 180.182 40.6564 185.096C1.95295 190.01 -0.20305 391.946 -25.6033 379.986" stroke="url(#paint59_linear_421_320)" stroke-width="1.41" stroke-miterlimit="10"/>
<path d="M381.515 139.575C377.289 137.971 310.14 546.172 256.184 347.717C202.228 149.262 180.894 306.509 135.674 411.767C90.4536 517.026 77.7369 176.333 39.2221 185.533C0.707333 194.732 -0.719377 394.253 -26.557 382.089" stroke="url(#paint60_linear_421_320)" stroke-width="1.41" stroke-miterlimit="10"/>
<path d="M381.972 141.644C378.097 140.187 309.54 553.019 255.15 350.075C200.76 147.131 179.634 313.231 134.269 418.337C88.9033 523.442 76.1126 172.496 37.7891 185.924C-0.534479 199.352 -1.23445 396.56 -27.5107 384.186" stroke="url(#paint61_linear_421_320)" stroke-width="1.42" stroke-miterlimit="10"/>
<path d="M382.427 143.713C378.905 142.381 308.949 559.86 254.121 352.433C199.293 145.005 178.387 319.897 132.87 424.923C87.3529 529.949 74.4895 168.641 36.3534 186.337C-1.78269 204.034 -1.75081 398.867 -28.4592 386.289" stroke="url(#paint62_linear_421_320)" stroke-width="1.42" stroke-miterlimit="10"/>
<path d="M382.883 145.781C379.712 144.58 308.354 566.707 253.09 354.791C197.825 142.874 177.126 326.591 131.469 431.532C85.8114 536.473 72.8639 164.793 34.9203 186.757C-3.02331 208.721 -2.26597 401.173 -29.4168 388.392" stroke="url(#paint63_linear_421_320)" stroke-width="1.43" stroke-miterlimit="10"/>
<path d="M383.338 147.856C380.521 146.785 307.76 573.538 252.065 357.149C196.369 140.76 175.873 333.28 130.069 438.096C84.2649 542.912 71.2447 160.944 33.4872 187.171C-4.27021 213.397 -2.78103 403.48 -30.3717 390.489" stroke="url(#paint64_linear_421_320)" stroke-width="1.43" stroke-miterlimit="10"/>
<path d="M383.795 149.925C381.329 148.99 307.168 580.402 251.036 359.512C194.903 138.622 174.619 339.974 128.668 444.677C82.7158 549.38 69.6165 157.095 32.0529 187.584C-5.51075 218.074 -3.29737 405.81 -31.3241 392.592" stroke="url(#paint65_linear_421_320)" stroke-width="1.44" stroke-miterlimit="10"/>
<path d="M384.254 151.994C382.141 151.195 306.573 587.243 250.012 361.87C193.451 136.497 173.371 346.668 127.268 451.263C81.164 555.858 67.9921 153.252 30.6236 187.998C-6.74501 222.744 -3.81255 408.1 -32.2779 394.689" stroke="url(#paint66_linear_421_320)" stroke-width="1.44" stroke-miterlimit="10"/>
<path d="M384.706 154.063C382.944 153.4 305.97 594.091 248.978 364.228C191.986 134.366 172.11 353.362 125.866 457.85C79.6225 562.337 66.3678 149.404 29.1854 188.412C-7.99707 227.421 -4.32893 410.407 -33.2316 396.792" stroke="url(#paint67_linear_421_320)" stroke-width="1.45" stroke-miterlimit="10"/>
<path d="M385.162 156.137C383.759 155.599 305.378 600.938 247.95 366.586C190.522 132.234 170.857 360.056 124.468 464.436C78.0786 568.816 64.7422 145.555 27.751 188.826C-9.24016 232.097 -4.84401 412.719 -34.1853 398.895" stroke="url(#paint68_linear_421_320)" stroke-width="1.45" stroke-miterlimit="10"/>
<path d="M385.618 158.206C384.561 157.804 304.784 607.785 246.922 368.944C189.061 130.103 169.603 366.75 123.066 471.023C76.5295 575.295 63.1204 141.7 26.3167 189.239C-10.4871 236.779 -5.36036 415.021 -35.1377 400.992" stroke="url(#paint69_linear_421_320)" stroke-width="1.46" stroke-miterlimit="10"/>
<path d="M386.073 160.275C385.37 160.026 304.185 614.615 245.894 371.302C187.603 127.989 168.35 373.445 121.667 477.609C74.983 581.773 61.4962 137.863 24.8837 189.659C-11.7288 241.455 -5.87537 417.328 -36.0926 403.095" stroke="url(#paint70_linear_421_320)" stroke-width="1.46" stroke-miterlimit="10"/>
<path d="M386.53 162.344C386.177 162.214 303.592 621.468 244.865 373.666C186.138 125.863 167.09 380.139 120.267 484.196C73.4427 588.252 59.873 134.014 23.4492 190.067C-12.9746 246.12 -6.38548 419.629 -37.0464 405.192" stroke="url(#paint71_linear_421_320)" stroke-width="1.47" stroke-miterlimit="10"/>
<path d="M386.985 164.418C386.985 164.418 302.996 628.321 243.837 376.024C184.678 123.726 165.849 386.833 118.867 490.776C71.8847 594.72 58.2487 130.166 22.0149 190.486C-14.219 250.807 -6.912 421.942 -38 407.295" stroke="url(#paint72_linear_421_320)" stroke-width="1.47" stroke-miterlimit="10"/>
</g>
</g>
<defs>
<linearGradient id="paint0_linear_421_320" x1="180.985" y1="0" x2="180.985" y2="541" gradientUnits="userSpaceOnUse">
<stop stop-color="#51B276"/>
<stop offset="1" stop-color="#316D60"/>
</linearGradient>
<linearGradient id="paint1_linear_421_320" x1="-74.4862" y1="173.861" x2="252.783" y2="170.917" gradientUnits="userSpaceOnUse">
<stop stop-color="white"/>
<stop offset="1"/>
</linearGradient>
<linearGradient id="paint2_linear_421_320" x1="-75.1683" y1="175.783" x2="254.734" y2="173.488" gradientUnits="userSpaceOnUse">
<stop stop-color="white"/>
<stop offset="1"/>
</linearGradient>
<linearGradient id="paint3_linear_421_320" x1="-75.1052" y1="177.947" x2="251.52" y2="175.602" gradientUnits="userSpaceOnUse">
<stop stop-color="white"/>
<stop offset="1"/>
</linearGradient>
<linearGradient id="paint4_linear_421_320" x1="-73.5113" y1="179.994" x2="255.91" y2="177.551" gradientUnits="userSpaceOnUse">
<stop stop-color="white"/>
<stop offset="1"/>
</linearGradient>
<linearGradient id="paint5_linear_421_320" x1="-71.8744" y1="192.623" x2="260.404" y2="190.103" gradientUnits="userSpaceOnUse">
<stop stop-color="white"/>
<stop offset="1"/>
</linearGradient>
<linearGradient id="paint6_linear_421_320" x1="-70.1875" y1="195.14" x2="265.172" y2="192.509" gradientUnits="userSpaceOnUse">
<stop stop-color="white"/>
<stop offset="1"/>
</linearGradient>
<linearGradient id="paint7_linear_421_320" x1="-68.5117" y1="197.545" x2="270.042" y2="194.793" gradientUnits="userSpaceOnUse">
<stop stop-color="white"/>
<stop offset="1"/>
</linearGradient>
<linearGradient id="paint8_linear_421_320" x1="-68.3845" y1="200.539" x2="265.695" y2="197.721" gradientUnits="userSpaceOnUse">
<stop stop-color="white"/>
<stop offset="1"/>
</linearGradient>
<linearGradient id="paint9_linear_421_320" x1="-66.617" y1="204.785" x2="270.617" y2="201.829" gradientUnits="userSpaceOnUse">
<stop stop-color="white"/>
<stop offset="1"/>
</linearGradient>
<linearGradient id="paint10_linear_421_320" x1="-64.8215" y1="220.621" x2="275.873" y2="217.555" gradientUnits="userSpaceOnUse">
<stop stop-color="white"/>
<stop offset="1"/>
</linearGradient>
<linearGradient id="paint11_linear_421_320" x1="-62.9645" y1="225.988" x2="281.366" y2="222.761" gradientUnits="userSpaceOnUse">
<stop stop-color="white"/>
<stop offset="1"/>
</linearGradient>
<linearGradient id="paint12_linear_421_320" x1="-62.8533" y1="229.713" x2="275.212" y2="226.406" gradientUnits="userSpaceOnUse">
<stop stop-color="white"/>
<stop offset="1"/>
</linearGradient>
<linearGradient id="paint13_linear_421_320" x1="-60.9787" y1="233.1" x2="280.758" y2="229.606" gradientUnits="userSpaceOnUse">
<stop stop-color="white"/>
<stop offset="1"/>
</linearGradient>
<linearGradient id="paint14_linear_421_320" x1="-59.0419" y1="236.605" x2="286.615" y2="232.903" gradientUnits="userSpaceOnUse">
<stop stop-color="white"/>
<stop offset="1"/>
</linearGradient>
<linearGradient id="paint15_linear_421_320" x1="-57.0163" y1="253.785" x2="293.1" y2="249.911" gradientUnits="userSpaceOnUse">
<stop stop-color="white"/>
<stop offset="1"/>
</linearGradient>
<linearGradient id="paint16_linear_421_320" x1="-54.9742" y1="258.792" x2="300.066" y2="254.662" gradientUnits="userSpaceOnUse">
<stop stop-color="white"/>
<stop offset="1"/>
</linearGradient>
<linearGradient id="paint17_linear_421_320" x1="-54.9154" y1="264.899" x2="290.309" y2="260.664" gradientUnits="userSpaceOnUse">
<stop stop-color="white"/>
<stop offset="1"/>
</linearGradient>
<linearGradient id="paint18_linear_421_320" x1="-52.7436" y1="272.693" x2="297.298" y2="268.151" gradientUnits="userSpaceOnUse">
<stop stop-color="white"/>
<stop offset="1"/>
</linearGradient>
<linearGradient id="paint19_linear_421_320" x1="-50.4593" y1="281.724" x2="305.281" y2="276.825" gradientUnits="userSpaceOnUse">
<stop stop-color="white"/>
<stop offset="1"/>
</linearGradient>
<linearGradient id="paint20_linear_421_320" x1="-48.0106" y1="293.965" x2="314.888" y2="288.642" gradientUnits="userSpaceOnUse">
<stop stop-color="white"/>
<stop offset="1"/>
</linearGradient>
<linearGradient id="paint21_linear_421_320" x1="-48.1557" y1="324.946" x2="297.199" y2="319.65" gradientUnits="userSpaceOnUse">
<stop stop-color="white"/>
<stop offset="1"/>
</linearGradient>
<linearGradient id="paint22_linear_421_320" x1="-45.4225" y1="346.997" x2="306.709" y2="341.201" gradientUnits="userSpaceOnUse">
<stop stop-color="white"/>
<stop offset="1"/>
</linearGradient>
<linearGradient id="paint23_linear_421_320" x1="-42.2863" y1="380.385" x2="318.871" y2="373.972" gradientUnits="userSpaceOnUse">
<stop stop-color="white"/>
<stop offset="1"/>
</linearGradient>
<linearGradient id="paint24_linear_421_320" x1="-38.2031" y1="433.629" x2="337.508" y2="426.385" gradientUnits="userSpaceOnUse">
<stop stop-color="white"/>
<stop offset="1"/>
</linearGradient>
<linearGradient id="paint25_linear_421_320" x1="-32.0233" y1="538.623" x2="369.912" y2="530.147" gradientUnits="userSpaceOnUse">
<stop stop-color="white"/>
<stop offset="1"/>
</linearGradient>
<linearGradient id="paint26_linear_421_320" x1="-28.7162" y1="868.161" x2="296.907" y2="860.836" gradientUnits="userSpaceOnUse">
<stop stop-color="white"/>
<stop offset="1"/>
</linearGradient>
<linearGradient id="paint27_linear_421_320" x1="115.304" y1="6506.19" x2="434.465" y2="6498.22" gradientUnits="userSpaceOnUse">
<stop stop-color="white"/>
<stop offset="1"/>
</linearGradient>
<linearGradient id="paint28_linear_421_320" x1="398.579" y1="1435.88" x2="68.0107" y2="1445.17" gradientUnits="userSpaceOnUse">
<stop stop-color="white"/>
<stop offset="1"/>
</linearGradient>
<linearGradient id="paint29_linear_421_320" x1="379.673" y1="778.956" x2="40.4571" y2="786.222" gradientUnits="userSpaceOnUse">
<stop stop-color="white"/>
<stop offset="1"/>
</linearGradient>
<linearGradient id="paint30_linear_421_320" x1="444.585" y1="576.576" x2="47.1313" y2="586.51" gradientUnits="userSpaceOnUse">
<stop stop-color="white"/>
<stop offset="1"/>
</linearGradient>
<linearGradient id="paint31_linear_421_320" x1="421.046" y1="478.241" x2="37.9685" y2="489.73" gradientUnits="userSpaceOnUse">
<stop stop-color="white"/>
<stop offset="1"/>
</linearGradient>
<linearGradient id="paint32_linear_421_320" x1="407.711" y1="431.738" x2="30.6494" y2="444.787" gradientUnits="userSpaceOnUse">
<stop stop-color="white"/>
<stop offset="1"/>
</linearGradient>
<linearGradient id="paint33_linear_421_320" x1="399.217" y1="393.93" x2="25.5066" y2="410.742" gradientUnits="userSpaceOnUse">
<stop stop-color="white"/>
<stop offset="1"/>
</linearGradient>
<linearGradient id="paint34_linear_421_320" x1="395.284" y1="367.365" x2="21.7524" y2="391.371" gradientUnits="userSpaceOnUse">
<stop stop-color="white"/>
<stop offset="1"/>
</linearGradient>
<linearGradient id="paint35_linear_421_320" x1="423.214" y1="233.796" x2="11.4031" y2="280.112" gradientUnits="userSpaceOnUse">
<stop stop-color="white"/>
<stop offset="1"/>
</linearGradient>
<linearGradient id="paint36_linear_421_320" x1="466.695" y1="212.383" x2="72.0015" y2="389.946" gradientUnits="userSpaceOnUse">
<stop stop-color="white"/>
<stop offset="1"/>
</linearGradient>
<linearGradient id="paint37_linear_421_320" x1="342.111" y1="183.381" x2="80.4773" y2="65.6788" gradientUnits="userSpaceOnUse">
<stop stop-color="white"/>
<stop offset="1"/>
</linearGradient>
<linearGradient id="paint38_linear_421_320" x1="358.138" y1="222.388" x2="21.4193" y2="184.518" gradientUnits="userSpaceOnUse">
<stop stop-color="white"/>
<stop offset="1"/>
</linearGradient>
<linearGradient id="paint39_linear_421_320" x1="376.153" y1="231.604" x2="11.9129" y2="208.195" gradientUnits="userSpaceOnUse">
<stop stop-color="white"/>
<stop offset="1"/>
</linearGradient>
<linearGradient id="paint40_linear_421_320" x1="373.401" y1="235.541" x2="4.68683" y2="218.954" gradientUnits="userSpaceOnUse">
<stop stop-color="white"/>
<stop offset="1"/>
</linearGradient>
<linearGradient id="paint41_linear_421_320" x1="369.842" y1="238.037" x2="-0.893749" y2="225.208" gradientUnits="userSpaceOnUse">
<stop stop-color="white"/>
<stop offset="1"/>
</linearGradient>
<linearGradient id="paint42_linear_421_320" x1="365.926" y1="239.506" x2="-5.78995" y2="229.055" gradientUnits="userSpaceOnUse">
<stop stop-color="white"/>
<stop offset="1"/>
</linearGradient>
<linearGradient id="paint43_linear_421_320" x1="362.134" y1="238.958" x2="-10.3176" y2="229.65" gradientUnits="userSpaceOnUse">
<stop stop-color="white"/>
<stop offset="1"/>
</linearGradient>
<linearGradient id="paint44_linear_421_320" x1="368.365" y1="241.178" x2="-14.6231" y2="232.973" gradientUnits="userSpaceOnUse">
<stop stop-color="white"/>
<stop offset="1"/>
</linearGradient>
<linearGradient id="paint45_linear_421_320" x1="363.944" y1="242.787" x2="-18.8955" y2="235.611" gradientUnits="userSpaceOnUse">
<stop stop-color="white"/>
<stop offset="1"/>
</linearGradient>
<linearGradient id="paint46_linear_421_320" x1="359.81" y1="244.355" x2="-23.0327" y2="237.976" gradientUnits="userSpaceOnUse">
<stop stop-color="white"/>
<stop offset="1"/>
</linearGradient>
<linearGradient id="paint47_linear_421_320" x1="355.743" y1="245.544" x2="-27.0476" y2="239.804" gradientUnits="userSpaceOnUse">
<stop stop-color="white"/>
<stop offset="1"/>
</linearGradient>
<linearGradient id="paint48_linear_421_320" x1="359.446" y1="248.581" x2="-31.8062" y2="243.081" gradientUnits="userSpaceOnUse">
<stop stop-color="white"/>
<stop offset="1"/>
</linearGradient>
<linearGradient id="paint49_linear_421_320" x1="355.215" y1="250.115" x2="-35.8192" y2="245.089" gradientUnits="userSpaceOnUse">
<stop stop-color="white"/>
<stop offset="1"/>
</linearGradient>
<linearGradient id="paint50_linear_421_320" x1="351.198" y1="251.337" x2="-39.7774" y2="246.709" gradientUnits="userSpaceOnUse">
<stop stop-color="white"/>
<stop offset="1"/>
</linearGradient>
<linearGradient id="paint51_linear_421_320" x1="347.329" y1="252.799" x2="-43.6992" y2="248.508" gradientUnits="userSpaceOnUse">
<stop stop-color="white"/>
<stop offset="1"/>
</linearGradient>
<linearGradient id="paint52_linear_421_320" x1="349.353" y1="256.051" x2="-48.8408" y2="251.98" gradientUnits="userSpaceOnUse">
<stop stop-color="white"/>
<stop offset="1"/>
</linearGradient>
<linearGradient id="paint53_linear_421_320" x1="345.342" y1="262.703" x2="-52.8107" y2="258.809" gradientUnits="userSpaceOnUse">
<stop stop-color="white"/>
<stop offset="1"/>
</linearGradient>
<linearGradient id="paint54_linear_421_320" x1="341.41" y1="266.203" x2="-56.7311" y2="262.547" gradientUnits="userSpaceOnUse">
<stop stop-color="white"/>
<stop offset="1"/>
</linearGradient>
<linearGradient id="paint55_linear_421_320" x1="337.636" y1="269.446" x2="-60.6367" y2="266" gradientUnits="userSpaceOnUse">
<stop stop-color="white"/>
<stop offset="1"/>
</linearGradient>
<linearGradient id="paint56_linear_421_320" x1="333.045" y1="272.831" x2="-65.2706" y2="271.202" gradientUnits="userSpaceOnUse">
<stop stop-color="white"/>
<stop offset="1"/>
</linearGradient>
<linearGradient id="paint57_linear_421_320" x1="333.805" y1="276.034" x2="-70.8282" y2="274.465" gradientUnits="userSpaceOnUse">
<stop stop-color="white"/>
<stop offset="1"/>
</linearGradient>
<linearGradient id="paint58_linear_421_320" x1="330.012" y1="279.297" x2="-74.7883" y2="277.804" gradientUnits="userSpaceOnUse">
<stop stop-color="white"/>
<stop offset="1"/>
</linearGradient>
<linearGradient id="paint59_linear_421_320" x1="326.247" y1="286.578" x2="-78.7197" y2="285.132" gradientUnits="userSpaceOnUse">
<stop stop-color="white"/>
<stop offset="1"/>
</linearGradient>
<linearGradient id="paint60_linear_421_320" x1="322.606" y1="289.882" x2="-82.6552" y2="288.501" gradientUnits="userSpaceOnUse">
<stop stop-color="white"/>
<stop offset="1"/>
</linearGradient>
<linearGradient id="paint61_linear_421_320" x1="322.516" y1="293.193" x2="-88.4458" y2="291.854" gradientUnits="userSpaceOnUse">
<stop stop-color="white"/>
<stop offset="1"/>
</linearGradient>
<linearGradient id="paint62_linear_421_320" x1="318.796" y1="296.361" x2="-92.4207" y2="295.076" gradientUnits="userSpaceOnUse">
<stop stop-color="white"/>
<stop offset="1"/>
</linearGradient>
<linearGradient id="paint63_linear_421_320" x1="315.118" y1="299.569" x2="-96.3668" y2="298.335" gradientUnits="userSpaceOnUse">
<stop stop-color="white"/>
<stop offset="1"/>
</linearGradient>
<linearGradient id="paint64_linear_421_320" x1="311.525" y1="307.28" x2="-100.329" y2="306.077" gradientUnits="userSpaceOnUse">
<stop stop-color="white"/>
<stop offset="1"/>
</linearGradient>
<linearGradient id="paint65_linear_421_320" x1="307.937" y1="310.525" x2="-104.275" y2="309.366" gradientUnits="userSpaceOnUse">
<stop stop-color="white"/>
<stop offset="1"/>
</linearGradient>
<linearGradient id="paint66_linear_421_320" x1="307.121" y1="313.779" x2="-110.348" y2="312.647" gradientUnits="userSpaceOnUse">
<stop stop-color="white"/>
<stop offset="1"/>
</linearGradient>
<linearGradient id="paint67_linear_421_320" x1="303.513" y1="316.923" x2="-114.351" y2="315.83" gradientUnits="userSpaceOnUse">
<stop stop-color="white"/>
<stop offset="1"/>
</linearGradient>
<linearGradient id="paint68_linear_421_320" x1="299.907" y1="320.092" x2="-118.339" y2="319.035" gradientUnits="userSpaceOnUse">
<stop stop-color="white"/>
<stop offset="1"/>
</linearGradient>
<linearGradient id="paint69_linear_421_320" x1="296.377" y1="323.217" x2="-122.344" y2="322.193" gradientUnits="userSpaceOnUse">
<stop stop-color="white"/>
<stop offset="1"/>
</linearGradient>
<linearGradient id="paint70_linear_421_320" x1="295.008" y1="331.304" x2="-128.594" y2="330.29" gradientUnits="userSpaceOnUse">
<stop stop-color="white"/>
<stop offset="1"/>
</linearGradient>
<linearGradient id="paint71_linear_421_320" x1="291.404" y1="334.521" x2="-132.652" y2="333.537" gradientUnits="userSpaceOnUse">
<stop stop-color="white"/>
<stop offset="1"/>
</linearGradient>
<linearGradient id="paint72_linear_421_320" x1="287.766" y1="336.97" x2="-136.785" y2="336.103" gradientUnits="userSpaceOnUse">
<stop stop-color="white"/>
<stop offset="1"/>
</linearGradient>
</defs>
</svg>
