<svg width="421" height="272" viewBox="0 0 421 272" fill="none" xmlns="http://www.w3.org/2000/svg">
<path d="M139 10C139 62.7432 70.4523 137 15.5 137C-62 144.5 -76 78.2432 -76 25.5C-76 -27.2432 -31.4524 -70 23.5 -70C78.4523 -70 139 -70 139 10Z" fill="#BADBA2"/>
<path d="M223.819 59.0773C231.596 53.2641 231.596 43.839 223.819 38.0257C216.042 32.2125 203.434 32.2125 195.657 38.0257C187.88 43.839 187.88 53.2641 195.657 59.0773C203.434 64.8905 216.042 64.8905 223.819 59.0773Z" fill="#FFFEF2"/>
<path d="M357.545 165.268C355.546 172.568 351.983 179.56 347.139 186.093C314.744 229.831 225.963 253.472 180.958 217.589C174.499 212.436 168.938 207.091 164.222 201.611C148.793 183.641 142.616 164.291 144.538 145.957C146.102 131.052 153.022 116.837 164.657 104.595C169.271 99.7285 174.653 95.1689 180.753 91.0116C264.561 33.6522 372.846 109.097 357.545 165.268Z" fill="#75FB4C"/>
<path d="M347.139 186.093C314.743 229.831 225.963 253.472 180.958 217.589C174.499 212.436 168.937 207.09 164.222 201.611C164.119 200.462 164.042 199.274 163.965 198.048C163.145 186.534 163.094 180.518 179.753 179.656C183.828 179.445 190.21 179.043 197.924 178.545C199.308 176.859 203.922 171.112 207.612 165.173C203.947 164.828 165.247 160.996 152.329 152.567C149.715 150.861 147.075 148.562 144.538 145.938C133.876 134.979 124.547 118.408 123.24 115.898C121.856 113.254 121.728 111.166 122.522 107.258C121.933 107.775 116.679 102.621 117.448 100.801C118.729 97.8318 131.236 91.6054 138.208 90.9924C139.438 90.8774 142.923 95.4179 142.129 95.5329C146.486 95.9543 155.174 97.5253 157.148 99.2304C158.019 99.9775 161.12 102.047 164.632 104.595C170.321 108.694 177.062 114.04 177.164 117.028C177.344 121.875 178.318 121.818 180.317 121.952C182.342 122.086 184.007 122.814 183.828 124.577C183.649 126.358 184.007 127.738 188.057 127.259C192.106 126.799 194.823 127.316 195.618 129.826C196.412 132.316 207.484 132.393 211.687 132.451C215.891 132.508 237.266 133.753 239.777 134.884C241.289 124.117 247.056 107.066 247.056 107.066C247.056 107.066 229.474 102.698 229.73 100.591C229.884 99.4028 243.955 95.3221 253.13 92.7932C253.258 92.7549 258.794 93.253 261.767 92.3334C261.767 92.3334 256.872 102.334 272.583 106.395C272.583 106.395 272.788 108.35 273.916 108.465C274.685 108.541 275.838 108.081 276.35 106.261C276.581 105.438 276.684 104.326 276.581 102.87C276.581 102.87 276.684 102.87 276.889 102.87H276.914C279.503 102.89 281.938 103.081 283.962 103.407C286.782 103.867 288.755 104.633 289.165 105.648C289.806 107.2 288.243 109.02 281.963 109.729C279.605 115.074 279.964 119.749 282.22 119.998C284.706 120.285 285.654 119.672 286.859 119.021C288.063 118.369 289.011 121.684 283.962 124.193C280.015 126.147 275.069 126.895 271.199 124.979C270.225 130.171 269.174 136.014 268.38 141.34C270.174 141.359 296.521 153.908 303.646 156.724C308.259 158.563 317.486 162.778 324.483 168.813C339.707 168.18 344.14 169.042 345.781 177.913C346.165 179.599 346.626 182.472 347.139 186.093Z" fill="#FFFEF2"/>
<path d="M251.541 102.219C251.003 102.047 250.772 101.568 251.003 101.185L252.105 99.3454C252.336 98.943 252.976 98.7706 253.489 98.943C254.027 99.1155 254.258 99.5944 254.027 99.9776L252.925 101.817C252.72 102.219 252.079 102.411 251.541 102.219Z" fill="#202D37"/>
<path d="M258 104.403C257.462 104.23 257.231 103.751 257.462 103.368L258.564 101.529C258.794 101.127 259.435 100.954 259.948 101.127C260.486 101.299 260.717 101.778 260.486 102.161L259.384 104C259.153 104.403 258.538 104.575 258 104.403Z" fill="#202D37"/>
<path d="M213.302 52.5992C212.892 53.3847 212.303 53.9594 211.585 54.3234C210.867 54.6874 209.945 54.8215 208.843 54.7449L207.741 56.814C207.715 56.8714 207.664 56.9098 207.587 56.9481C207.51 56.9672 207.433 56.9672 207.356 56.9481L203.717 55.8561C203.64 55.8369 203.589 55.7986 203.537 55.7411C203.512 55.6836 203.512 55.6262 203.537 55.5687L204.511 53.7295C203.845 53.4996 203.23 53.2889 202.717 53.059C202.64 53.0398 202.615 52.9823 202.589 52.9249C202.563 52.8674 202.563 52.8099 202.589 52.7524L204.05 50.6451C204.101 50.5876 204.152 50.5493 204.255 50.5301C204.357 50.5109 204.434 50.5301 204.511 50.5684C204.716 50.6642 204.921 50.7792 205.152 50.875C205.383 50.9707 205.665 51.1049 206.023 51.239C206.382 51.3922 206.715 51.5072 207.049 51.603C207.407 51.7179 207.715 51.7754 207.997 51.7754C208.279 51.7754 208.509 51.7371 208.663 51.6604C208.817 51.5838 208.945 51.5072 209.022 51.4305C209.099 51.3539 209.176 51.2773 209.201 51.2198C209.253 51.1432 209.253 51.0474 209.278 50.9516C209.278 50.8558 209.278 50.7217 209.227 50.5493C209.176 50.3768 209.048 50.1853 208.843 49.9745C208.612 49.7638 208.33 49.553 207.946 49.3615C207.51 49.1316 207.151 48.8634 206.818 48.5377C206.485 48.212 206.228 47.848 205.998 47.4457C205.793 47.0433 205.69 46.5835 205.69 46.0854C205.69 45.5873 205.844 45.07 206.1 44.5528C206.485 43.8248 207.049 43.2883 207.817 42.9435C208.561 42.5987 209.483 42.4454 210.534 42.4837L211.662 40.3572C211.687 40.2997 211.739 40.2614 211.841 40.223C211.918 40.2039 211.995 40.1847 212.072 40.223L215.711 41.3151C215.788 41.3342 215.839 41.3917 215.891 41.4492C215.916 41.5066 215.916 41.5833 215.891 41.6407L214.917 43.4799C215.558 43.6907 216.173 43.9206 216.788 44.1696C216.865 44.1888 216.89 44.2462 216.941 44.3037C216.967 44.3612 216.967 44.4187 216.916 44.4761L215.455 46.5835C215.404 46.641 215.352 46.6793 215.25 46.6985C215.147 46.7176 215.071 46.7176 214.994 46.6793C214.071 46.2195 213.2 45.8555 212.379 45.6065C212.046 45.4915 211.739 45.4341 211.457 45.4341C211.175 45.4341 210.944 45.4724 210.79 45.549C210.637 45.6256 210.509 45.7023 210.406 45.7789C210.329 45.8555 210.252 45.9322 210.227 45.9896C210.201 46.0663 210.175 46.1429 210.15 46.2387C210.15 46.3345 210.15 46.4686 210.201 46.641C210.252 46.8134 210.38 47.005 210.611 47.2158C210.842 47.4265 211.124 47.6372 211.508 47.8288C211.918 48.0587 212.303 48.3269 212.636 48.6526C212.969 48.9783 213.251 49.3423 213.456 49.7446C213.661 50.1469 213.763 50.6067 213.763 51.1049C213.712 51.5838 213.558 52.0819 213.302 52.5992Z" fill="#202D37"/>
<path d="M207.458 57.2358C207.382 57.2358 207.279 57.2167 207.202 57.1975L203.563 56.1055C203.383 56.048 203.255 55.9522 203.178 55.8373C203.101 55.7032 203.101 55.5691 203.178 55.435L204.024 53.8448C203.486 53.6533 202.973 53.4617 202.538 53.2893C202.384 53.2318 202.281 53.1168 202.23 53.0019C202.179 52.8869 202.179 52.7528 202.256 52.6187C202.256 52.6187 202.256 52.5996 202.281 52.5996L203.742 50.4922C203.845 50.3581 203.998 50.2623 204.204 50.224C204.409 50.1856 204.588 50.224 204.767 50.3006C204.972 50.3964 205.177 50.5113 205.382 50.6071C205.588 50.7029 205.869 50.8179 206.228 50.9711C206.561 51.1052 206.895 51.2202 207.202 51.316C207.51 51.4118 207.792 51.4692 208.022 51.4692C208.279 51.4692 208.407 51.4309 208.458 51.3926C208.586 51.3351 208.689 51.2585 208.74 51.2202C208.817 51.1627 208.842 51.1052 208.868 51.0861C208.894 51.0478 208.919 50.9903 208.919 50.9136C208.919 50.8562 208.919 50.7604 208.868 50.5688C208.842 50.4922 208.766 50.3389 208.535 50.109C208.33 49.9174 208.074 49.7258 207.74 49.5534C207.279 49.3235 206.869 49.017 206.51 48.6721C206.151 48.3273 205.869 47.9441 205.639 47.5035C205.408 47.0629 205.28 46.5648 205.306 46.0283C205.306 45.4919 205.459 44.9363 205.767 44.3999C206.177 43.6144 206.818 43.0397 207.638 42.6565C208.381 42.3117 209.278 42.1392 210.303 42.1392L211.329 40.2043C211.405 40.0702 211.508 39.9744 211.687 39.9169C211.867 39.8594 212.046 39.8403 212.226 39.8977L215.865 40.9898C216.044 41.0472 216.172 41.143 216.249 41.2771C216.326 41.4112 216.326 41.5453 216.249 41.6794L215.404 43.2696C215.942 43.4611 216.454 43.6527 216.967 43.8443C217.121 43.9018 217.223 44.0167 217.3 44.1317C217.377 44.2658 217.351 44.419 217.249 44.5532L215.788 46.6605C215.686 46.7947 215.532 46.8713 215.352 46.9288C215.147 46.9671 214.942 46.9479 214.763 46.8521C213.866 46.4115 213.02 46.0475 212.226 45.7984C211.918 45.7026 211.662 45.6452 211.431 45.6452C211.226 45.6452 211.072 45.6643 210.97 45.7218C210.79 45.7984 210.713 45.8559 210.662 45.8942C210.611 45.9325 210.56 45.99 210.534 46.0283C210.508 46.0475 210.508 46.105 210.483 46.2008C210.483 46.2582 210.483 46.354 210.534 46.5264C210.56 46.6606 210.688 46.8138 210.867 46.9862C211.072 47.1778 211.329 47.3694 211.662 47.5418C212.097 47.7909 212.507 48.0782 212.866 48.4231C213.225 48.7679 213.507 49.1511 213.738 49.5917C213.968 50.0324 214.071 50.5305 214.071 51.0669C214.071 51.6033 213.917 52.1398 213.61 52.6953C213.148 53.5383 212.533 54.1514 211.764 54.5537C211.047 54.9177 210.124 55.071 209.048 55.0326L208.048 56.9101C207.971 57.0442 207.843 57.14 207.689 57.1975C207.638 57.2167 207.535 57.2358 207.458 57.2358ZM203.896 55.5882L207.407 56.6419L208.484 54.6303C208.535 54.5154 208.714 54.4387 208.868 54.4579C209.893 54.5345 210.739 54.4004 211.38 54.0939C212.021 53.7682 212.559 53.2318 212.943 52.5038C213.199 52.0248 213.328 51.5459 213.353 51.0861C213.353 50.6263 213.276 50.2048 213.071 49.8216C212.866 49.4385 212.61 49.0936 212.302 48.8063C211.995 48.4997 211.636 48.2507 211.252 48.0399C210.867 47.8292 210.534 47.5993 210.278 47.3694C210.021 47.1203 209.868 46.8904 209.816 46.6797C209.765 46.4881 209.739 46.3157 209.739 46.2008C209.739 46.0666 209.791 45.9517 209.842 45.8559C209.893 45.741 209.996 45.6452 210.098 45.5494C210.201 45.4536 210.355 45.377 210.56 45.2812C210.79 45.1662 211.098 45.1087 211.457 45.1087C211.79 45.1087 212.149 45.1662 212.533 45.3003C213.353 45.5494 214.225 45.9134 215.147 46.3732L216.531 44.3616C215.967 44.1317 215.352 43.9209 214.737 43.7102C214.558 43.6527 214.455 43.4803 214.532 43.3462L215.48 41.5453L211.944 40.4916L210.842 42.5799C210.79 42.6948 210.637 42.7715 210.457 42.7523C209.483 42.714 208.637 42.8672 207.971 43.1738C207.279 43.4803 206.766 43.9784 206.408 44.6298C206.151 45.1087 206.023 45.5877 206.023 46.0475C206.023 46.5073 206.1 46.9288 206.305 47.3119C206.51 47.6951 206.766 48.0399 207.074 48.3465C207.382 48.653 207.74 48.902 208.125 49.1128C208.535 49.3235 208.868 49.5534 209.099 49.7833C209.355 50.0324 209.509 50.2623 209.56 50.473C209.611 50.6646 209.637 50.8179 209.611 50.952C209.611 51.0861 209.56 51.201 209.509 51.316C209.458 51.4118 209.381 51.5076 209.253 51.6033C209.15 51.6991 208.996 51.7949 208.817 51.8907C208.586 52.0057 208.279 52.0631 207.945 52.0631C207.612 52.0631 207.253 51.9865 206.843 51.8716C206.51 51.7758 206.151 51.6417 205.793 51.4884C205.434 51.3351 205.126 51.2202 204.896 51.1052C204.69 51.0094 204.485 50.9136 204.306 50.8179L202.922 52.8295C203.409 53.0402 203.998 53.2509 204.639 53.4617C204.819 53.5191 204.921 53.6916 204.844 53.8257L203.896 55.5882Z" fill="#202D37"/>
<path d="M367.489 93.6745C367.796 94.0385 367.924 94.3834 367.899 94.7091C367.873 95.0348 367.668 95.3605 367.309 95.667L368.104 96.6249C368.129 96.644 368.129 96.6824 368.129 96.7207C368.129 96.759 368.104 96.7782 368.053 96.7973L366.361 97.5828C366.335 97.6019 366.284 97.602 366.233 97.602C366.182 97.602 366.156 97.5828 366.13 97.5445L365.438 96.7015C365.105 96.8356 364.823 96.9506 364.541 97.0464C364.516 97.0655 364.464 97.0655 364.439 97.0464C364.388 97.0272 364.362 97.0081 364.336 96.9889L363.644 95.916C363.619 95.8777 363.619 95.8586 363.644 95.8203C363.67 95.7819 363.696 95.7628 363.747 95.7628C363.875 95.7245 363.977 95.7053 364.106 95.667C364.234 95.6287 364.388 95.5712 364.567 95.5137C364.746 95.4562 364.926 95.3796 365.08 95.3221C365.233 95.2455 365.361 95.1689 365.464 95.0922C365.541 95.0156 365.592 94.9198 365.592 94.8623C365.592 94.7857 365.592 94.7282 365.566 94.6899C365.541 94.6324 365.541 94.5941 365.515 94.575C365.49 94.5367 365.438 94.4983 365.387 94.4792C365.336 94.4409 365.259 94.4025 365.156 94.3642C365.054 94.3259 364.9 94.3068 364.721 94.3068C364.541 94.3068 364.336 94.3451 364.131 94.3834C363.875 94.4409 363.619 94.4792 363.337 94.4792C363.055 94.4792 362.773 94.46 362.491 94.4026C362.209 94.3451 361.927 94.2493 361.671 94.0769C361.389 93.9236 361.158 93.732 360.979 93.483C360.697 93.1573 360.594 92.8124 360.62 92.4867C360.671 92.1611 360.851 91.8354 361.184 91.5288L360.389 90.5518C360.364 90.5326 360.364 90.4943 360.364 90.456C360.364 90.4177 360.389 90.3985 360.441 90.3793L362.132 89.5939C362.158 89.5747 362.209 89.5747 362.26 89.5747C362.312 89.5747 362.337 89.5939 362.363 89.6322L363.055 90.4751C363.362 90.341 363.67 90.2261 363.977 90.1111C364.003 90.092 364.054 90.092 364.106 90.1111C364.157 90.1111 364.182 90.1303 364.208 90.1686L364.9 91.2415C364.926 91.2798 364.926 91.2989 364.9 91.3373C364.874 91.3756 364.849 91.3947 364.823 91.3947C364.285 91.5288 363.824 91.6821 363.439 91.8545C363.285 91.9312 363.157 92.0078 363.08 92.0844C363.004 92.1611 362.952 92.2568 362.952 92.3335C362.952 92.4101 362.952 92.4676 362.952 92.5059C362.978 92.5442 362.978 92.6017 363.004 92.6208C363.029 92.6592 363.08 92.6783 363.132 92.7166C363.183 92.755 363.26 92.7933 363.362 92.8124C363.465 92.8507 363.619 92.8699 363.798 92.8699C363.977 92.8699 364.182 92.8316 364.388 92.7933C364.644 92.7358 364.9 92.6975 365.182 92.6975C365.464 92.6975 365.746 92.7166 366.028 92.7741C366.31 92.8316 366.592 92.9465 366.848 93.0998C367.079 93.2531 367.309 93.4446 367.489 93.6745Z" fill="#202D37"/>
<path d="M366.284 97.8507C366.233 97.8507 366.207 97.8507 366.156 97.8316C366.028 97.8124 365.9 97.7358 365.823 97.64L365.31 97.0269C365.105 97.1036 364.9 97.1802 364.695 97.2568C364.567 97.2952 364.439 97.2952 364.311 97.276C364.183 97.2377 364.08 97.1802 364.003 97.1036C364.003 97.1036 364.003 97.0844 363.978 97.0844L363.286 96.0116C363.209 95.8966 363.209 95.7817 363.26 95.6859C363.311 95.5709 363.439 95.4943 363.593 95.456C363.696 95.4368 363.824 95.3985 363.926 95.3602C364.055 95.3219 364.183 95.2836 364.362 95.2069C364.541 95.1495 364.695 95.092 364.823 95.0153C364.952 94.9579 365.054 94.9004 365.105 94.8429C365.157 94.7854 365.157 94.7663 365.157 94.7663C365.157 94.7088 365.157 94.6705 365.157 94.6705C365.157 94.6513 365.131 94.6322 365.131 94.6322C365.131 94.6322 365.131 94.613 365.08 94.5939C365.08 94.5939 365.028 94.5555 364.926 94.5172C364.9 94.5172 364.849 94.4981 364.67 94.4981C364.516 94.4981 364.362 94.5172 364.183 94.5747C363.901 94.6513 363.593 94.6897 363.286 94.6897C362.978 94.6897 362.671 94.6513 362.337 94.5939C362.004 94.5364 361.671 94.4023 361.363 94.2299C361.056 94.0574 360.8 93.8275 360.569 93.5593C360.261 93.1762 360.108 92.7738 360.159 92.3907C360.21 92.065 360.364 91.7393 360.646 91.4328L359.979 90.6281C359.903 90.5323 359.877 90.4366 359.903 90.3408C359.928 90.2258 360.031 90.13 360.159 90.0726L361.85 89.2871C361.979 89.2296 362.132 89.2104 362.26 89.2296C362.414 89.2488 362.517 89.3254 362.594 89.402L363.106 90.0151C363.311 89.9384 363.516 89.8618 363.747 89.7852C363.875 89.7469 364.003 89.7469 364.131 89.766C364.285 89.8043 364.413 89.881 364.465 89.9768L365.157 91.0496C365.233 91.1454 365.233 91.2604 365.182 91.3753C365.131 91.4903 365.003 91.586 364.849 91.6244C364.362 91.7585 363.926 91.9117 363.568 92.065C363.439 92.1225 363.363 92.1608 363.311 92.2183C363.26 92.2566 363.26 92.2949 363.26 92.2949C363.26 92.3715 363.26 92.3907 363.26 92.4098C363.26 92.429 363.26 92.429 363.286 92.4482C363.286 92.4482 363.286 92.4673 363.311 92.4673C363.311 92.4673 363.363 92.4865 363.465 92.5248C363.491 92.5248 363.568 92.5439 363.721 92.5439C363.875 92.5439 364.029 92.5248 364.208 92.4673C364.49 92.4098 364.798 92.3715 365.105 92.3524C365.413 92.3524 365.746 92.3715 366.054 92.4482C366.387 92.5248 366.72 92.6397 367.028 92.8122C367.335 92.9846 367.591 93.2145 367.822 93.4827C368.155 93.9042 368.309 94.3065 368.283 94.6897C368.258 95.0153 368.078 95.341 367.771 95.6476L368.412 96.433C368.488 96.5288 368.514 96.6246 368.488 96.7396C368.463 96.8545 368.36 96.9312 368.258 96.9886L366.566 97.7741C366.464 97.8316 366.387 97.8507 366.284 97.8507ZM365.439 96.3756C365.567 96.3756 365.695 96.433 365.772 96.5097L366.361 97.2185L367.668 96.6246L367.002 95.82C366.925 95.705 366.925 95.5709 367.053 95.4751C367.361 95.2069 367.54 94.9579 367.566 94.6897C367.591 94.4214 367.463 94.1341 367.207 93.8275C367.028 93.6168 366.848 93.4444 366.617 93.3103C366.387 93.1762 366.156 93.0804 365.925 93.0421C365.669 92.9846 365.439 92.9654 365.208 92.9654C364.977 92.9654 364.747 93.0037 364.516 93.0421C364.26 93.0995 364.029 93.1379 363.798 93.1379C363.568 93.1379 363.363 93.1187 363.209 93.0612C363.081 93.0037 362.952 92.9654 362.876 92.908C362.799 92.8505 362.722 92.793 362.671 92.7355C362.619 92.6781 362.568 92.6014 362.568 92.5248C362.542 92.4482 362.542 92.3715 362.542 92.2757C362.542 92.1416 362.619 92.0075 362.747 91.8734C362.876 91.7585 363.029 91.6627 363.234 91.5669C363.568 91.4136 363.978 91.2795 364.439 91.1454L363.952 90.3982C363.721 90.4749 363.465 90.5707 363.234 90.6665C363.055 90.7431 362.824 90.7048 362.722 90.5707L362.132 89.8618L360.825 90.4557L361.517 91.2987C361.594 91.3945 361.594 91.5286 361.492 91.6244C361.21 91.8926 361.056 92.1608 361.005 92.429C360.979 92.6972 361.056 92.9654 361.312 93.2528C361.492 93.4635 361.697 93.636 361.927 93.7701C362.158 93.9042 362.389 94 362.619 94.0383C362.876 94.0958 363.106 94.1149 363.363 94.1149C363.593 94.1149 363.824 94.0958 364.029 94.0383C364.285 93.9808 364.516 93.9425 364.747 93.9425C364.977 93.9425 365.182 93.9616 365.336 94.0191C365.464 94.0766 365.567 94.1149 365.644 94.1724C365.72 94.2299 365.797 94.2873 365.849 94.3448C365.9 94.4023 365.925 94.4789 365.951 94.5555C365.977 94.6322 365.977 94.7088 365.977 94.8046C365.977 94.9387 365.9 95.0728 365.772 95.2069C365.644 95.3219 365.49 95.4177 365.285 95.5135C365.131 95.5901 364.952 95.6476 364.747 95.7242C364.541 95.7817 364.388 95.8391 364.26 95.8775C364.208 95.8966 364.157 95.8966 364.131 95.9158L364.618 96.6821C364.823 96.6055 365.054 96.5097 365.285 96.4139C365.31 96.3947 365.387 96.3756 365.439 96.3756ZM364.644 91.0879C364.644 91.1071 364.644 91.1071 364.644 91.0879C364.644 91.1071 364.644 91.1071 364.644 91.0879Z" fill="#202D37"/>
<path d="M363.85 103.273C359.928 103.273 354.956 101.281 351.317 92.9085C348.293 85.9158 337.477 71.2598 323.432 70.5127C323.048 70.4935 322.714 70.2828 322.612 69.9954C322.509 69.708 322.689 69.4207 323.022 69.2674C323.919 68.8459 344.91 59.1519 350.343 58.0791C353.265 57.5043 356.494 58.4047 359.723 60.6846C362.722 62.8111 365.567 66.0488 367.976 70.0529C370.821 74.8041 374.025 79.7086 378.151 83.3486C383.302 87.8699 388.48 89.1918 394.041 87.391C394.349 87.2952 394.733 87.3335 394.99 87.5059C395.246 87.6783 395.348 87.9465 395.246 88.1956C392.503 95.1308 370.257 102.66 365.157 103.216C364.695 103.254 364.285 103.273 363.85 103.273ZM326.072 69.459C333.146 70.6085 338.912 74.7849 342.628 78.2909C347.883 83.2145 351.419 88.8661 353.008 92.487C355.93 99.2307 359.928 102.392 364.849 101.874C369.104 101.415 388.018 95.0159 392.683 89.1535C379.074 91.9697 370.206 77.1222 366.31 70.6085C361.748 62.9644 355.52 58.4622 350.804 59.401C346.601 60.2248 331.659 66.9109 326.072 69.459Z" fill="#202D37"/>
<path d="M346.217 67.39C345.883 67.39 345.576 67.2559 345.422 67.026C345.191 66.7004 345.371 66.298 345.807 66.1256C345.832 66.1065 349.574 64.6504 354.315 62.8687C354.751 62.6963 355.289 62.8304 355.52 63.1561C355.751 63.4818 355.571 63.8841 355.136 64.0565C350.42 65.8574 346.678 67.2943 346.652 67.3134C346.499 67.3709 346.345 67.39 346.217 67.39Z" fill="#202D37"/>
<path d="M345.499 71.7585C345.217 71.7585 344.961 71.6627 344.782 71.4903C344.5 71.1837 344.577 70.7623 344.987 70.5515C346.576 69.6894 351.778 67.697 357.109 65.9344C357.571 65.7811 358.083 65.9344 358.288 66.2793C358.493 66.6241 358.288 67.0073 357.827 67.1605C352.675 68.8656 347.498 70.8197 346.037 71.6244C345.884 71.701 345.679 71.7585 345.499 71.7585Z" fill="#202D37"/>
<path d="M352.265 75.8767C351.958 75.8767 351.676 75.7618 351.497 75.5511C351.24 75.2445 351.368 74.823 351.779 74.6315C351.83 74.6123 356.597 72.4091 360.159 71.0106C360.595 70.8382 361.133 70.9723 361.364 71.298C361.595 71.6236 361.415 72.026 360.979 72.1984C357.494 73.5586 352.752 75.7426 352.701 75.7618C352.599 75.8384 352.419 75.8767 352.265 75.8767Z" fill="#202D37"/>
<path d="M356.417 81.2023C356.135 81.2023 355.853 81.1065 355.699 80.934C355.418 80.6275 355.494 80.206 355.905 79.9953C355.93 79.9761 359.211 78.2136 362.286 76.7576C362.696 76.566 363.26 76.6426 363.516 76.9683C363.773 77.2748 363.67 77.6963 363.235 77.8879C360.185 79.3248 356.981 81.0681 356.93 81.0873C356.802 81.1639 356.597 81.2023 356.417 81.2023Z" fill="#202D37"/>
<path d="M369.642 181.399C369.155 181.399 368.745 181.112 368.745 180.748C368.745 180.71 368.745 180.614 368.719 180.499C368.181 175.69 368.796 174.503 369.898 174.177C371.334 173.755 376.459 173.66 377.485 173.64C377.485 173.64 377.485 173.64 377.51 173.64C377.997 173.64 378.407 173.928 378.407 174.292C378.407 174.656 378.023 174.962 377.536 174.981C375.383 175.02 371.718 175.154 370.667 175.384C370.513 175.575 370.103 176.495 370.539 180.365C370.565 180.595 370.565 180.652 370.565 180.71C370.539 181.093 370.129 181.399 369.642 181.399Z" fill="#FFFEF2"/>
<path d="M419.568 180.748C419.543 180.748 419.517 180.748 419.491 180.748C419.004 180.71 418.62 180.384 418.671 180.02C418.825 178.679 418.979 176.323 418.722 175.595C418.21 175.269 415.493 174.981 412.802 174.981C412.315 174.981 411.905 174.675 411.905 174.311C411.905 173.947 412.315 173.64 412.802 173.64C416.006 173.64 419.901 173.909 420.414 175.154C420.875 176.265 420.517 179.503 420.44 180.135C420.414 180.499 420.03 180.748 419.568 180.748Z" fill="#FFFEF2"/>
<path d="M416.288 207.014C414.904 207.014 413.622 206.88 413.186 206.822C412.699 206.765 412.366 206.42 412.443 206.056C412.52 205.692 412.981 205.443 413.468 205.5C416.134 205.807 418.594 205.654 418.85 205.309C418.979 203.834 418.85 201.075 418.85 201.037C418.825 200.673 419.209 200.347 419.722 200.347C420.209 200.347 420.645 200.615 420.645 200.998C420.645 201.113 420.773 203.853 420.645 205.405C420.619 205.788 420.363 206.133 419.927 206.401C419.132 206.88 417.672 207.014 416.288 207.014Z" fill="#FFFEF2"/>
<path d="M376.716 207.397C375.793 207.397 372.641 207.359 371.564 206.918C371.18 206.765 370.129 206.343 370.129 201.017C370.129 200.653 370.539 200.347 371.026 200.347C371.513 200.347 371.923 200.653 371.923 201.017C371.923 202.933 372.154 205.232 372.512 205.769C373.128 205.941 375.101 206.037 376.716 206.037C377.203 206.037 377.613 206.343 377.613 206.707C377.613 207.071 377.228 207.397 376.716 207.397Z" fill="#FFFEF2"/>
<path d="M384.61 190.212C382.431 190.212 380.048 190.174 378.843 190.039C378.407 189.982 377.664 189.905 377.485 189.388C377.023 188.104 376.972 183.66 379.612 181.169C381.303 179.579 385.353 179.196 391.683 180.001C391.837 180.02 391.965 180.039 392.017 180.039C392.35 180.058 392.632 180.192 392.785 180.422C392.888 180.575 393.144 180.939 393.119 185.02C393.093 189.12 392.837 189.407 392.709 189.56C392.427 189.886 392.247 190.116 386.352 190.193C385.814 190.212 385.225 190.212 384.61 190.212ZM379.125 188.718C381.073 188.947 389.095 188.928 391.171 188.698C391.35 187.357 391.376 182.702 391.222 181.323C383.969 180.403 381.714 181.361 381.022 182.012C378.971 183.928 378.869 187.415 379.125 188.718ZM391.965 180.058H391.991H391.965Z" fill="#202D37"/>
<path d="M386.942 187.511H385.43C384.533 187.511 383.789 186.956 383.789 186.285V185.481C383.789 184.81 384.533 184.254 385.43 184.254H386.942C387.839 184.254 388.582 184.81 388.582 185.481V186.285C388.582 186.975 387.839 187.511 386.942 187.511Z" fill="#202D37"/>
<path d="M386.942 187.798H385.43C384.302 187.798 383.405 187.127 383.405 186.284V185.48C383.405 184.637 384.302 183.966 385.43 183.966H386.942C388.07 183.966 388.967 184.637 388.967 185.48V186.284C388.967 187.127 388.044 187.798 386.942 187.798ZM385.43 184.56C384.738 184.56 384.174 184.982 384.174 185.499V186.304C384.174 186.821 384.738 187.242 385.43 187.242H386.942C387.634 187.242 388.198 186.821 388.198 186.304V185.499C388.198 184.982 387.634 184.56 386.942 184.56H385.43Z" fill="#202D37"/>
<path d="M386.942 199.695H385.43C384.533 199.695 383.789 199.14 383.789 198.469V197.665C383.789 196.994 384.533 196.438 385.43 196.438H386.942C387.839 196.438 388.582 196.994 388.582 197.665V198.469C388.582 199.14 387.839 199.695 386.942 199.695Z" fill="#202D37"/>
<path d="M386.942 199.983H385.43C384.302 199.983 383.405 199.312 383.405 198.469V197.665C383.405 196.822 384.302 196.151 385.43 196.151H386.942C388.07 196.151 388.967 196.822 388.967 197.665V198.469C388.967 199.312 388.044 199.983 386.942 199.983ZM385.43 196.726C384.738 196.726 384.174 197.148 384.174 197.665V198.469C384.174 198.987 384.738 199.408 385.43 199.408H386.942C387.634 199.408 388.198 198.987 388.198 198.469V197.665C388.198 197.148 387.634 196.726 386.942 196.726H385.43Z" fill="#202D37"/>
<path d="M404.293 186.917H402.781C401.884 186.917 401.14 186.361 401.14 185.691V184.886C401.14 184.215 401.884 183.66 402.781 183.66H404.293C405.19 183.66 405.933 184.215 405.933 184.886V185.691C405.933 186.361 405.19 186.917 404.293 186.917Z" fill="#202D37"/>
<path d="M404.293 187.204H402.781C401.653 187.204 400.756 186.534 400.756 185.691V184.886C400.756 184.043 401.653 183.373 402.781 183.373H404.293C405.421 183.373 406.318 184.043 406.318 184.886V185.691C406.318 186.515 405.395 187.204 404.293 187.204ZM402.781 183.948C402.089 183.948 401.525 184.369 401.525 184.886V185.691C401.525 186.208 402.089 186.63 402.781 186.63H404.293C404.985 186.63 405.549 186.208 405.549 185.691V184.886C405.549 184.369 404.985 183.948 404.293 183.948H402.781Z" fill="#202D37"/>
<path d="M404.293 199.695H402.781C401.884 199.695 401.14 199.14 401.14 198.469V197.665C401.14 196.994 401.884 196.438 402.781 196.438H404.293C405.19 196.438 405.933 196.994 405.933 197.665V198.469C405.933 199.14 405.19 199.695 404.293 199.695Z" fill="#202D37"/>
<path d="M404.293 199.983H402.781C401.653 199.983 400.756 199.312 400.756 198.469V197.665C400.756 196.822 401.653 196.151 402.781 196.151H404.293C405.421 196.151 406.318 196.822 406.318 197.665V198.469C406.318 199.312 405.395 199.983 404.293 199.983ZM402.781 196.726C402.089 196.726 401.525 197.148 401.525 197.665V198.469C401.525 198.987 402.089 199.408 402.781 199.408H404.293C404.985 199.408 405.549 198.987 405.549 198.469V197.665C405.549 197.148 404.985 196.726 404.293 196.726H402.781Z" fill="#202D37"/>
<path d="M403.55 190.461C401.372 190.461 398.988 190.385 397.86 190.193C396.835 190.021 396.63 189.599 396.656 189.293C396.656 189.139 396.681 188.66 396.681 188.047C396.835 180.212 397.066 180.039 397.501 179.752C398.424 179.139 404.37 179.062 407.83 180.346C410.009 181.15 410.957 183.468 411.393 185.288C411.777 186.994 411.854 189.043 411.546 189.58C411.341 189.944 411.111 190.327 405.216 190.423C404.678 190.442 404.114 190.461 403.55 190.461ZM398.424 188.909C400.398 189.197 408.01 189.158 409.88 188.852C410.009 187.549 409.573 182.511 407.01 181.553C404.319 180.556 400.064 180.595 398.809 180.767C398.578 181.955 398.475 186.495 398.45 188.066C398.45 188.411 398.45 188.699 398.424 188.909Z" fill="#202D37"/>
<path d="M389.325 205.558C386.045 205.558 380.304 205.079 378.458 201.899C376.792 199.025 377.638 194.217 378.202 193.584C378.458 193.278 378.74 192.952 383.2 192.856C385.455 192.818 388.121 192.856 389.966 192.971C391.991 193.086 392.606 193.24 392.836 193.68C393.118 194.159 393.042 197.378 392.99 199.255C392.811 204.37 392.478 204.907 392.35 205.079C392.17 205.367 391.863 205.462 391.709 205.482C391.683 205.482 390.735 205.558 389.325 205.558ZM379.689 194.408C379.381 195.347 378.792 199.121 380.099 201.363C381.79 204.275 388.761 204.332 390.812 204.198C391.145 202.589 391.35 196.017 391.196 194.408C389.274 194.159 381.38 194.063 379.689 194.408Z" fill="#202D37"/>
<path d="M397.706 197.109H397.681C397.194 197.09 396.784 196.783 396.809 196.419C396.835 195.787 396.835 195.25 396.835 194.791C396.835 193.507 396.835 193.028 397.296 192.683C397.629 192.434 397.706 192.377 406.395 192.492C406.882 192.492 407.292 192.798 407.266 193.181C407.266 193.545 406.856 193.833 406.369 193.833C406.369 193.833 406.369 193.833 406.343 193.833C403.319 193.794 399.936 193.775 398.629 193.794C398.603 194.063 398.603 194.427 398.603 194.791C398.603 195.25 398.603 195.806 398.578 196.457C398.578 196.821 398.193 197.109 397.706 197.109Z" fill="#202D37"/>
<path d="M405.523 204.849C405.164 204.849 404.831 204.696 404.703 204.447C404.498 204.102 404.729 203.719 405.164 203.565C407.676 202.761 410.803 201.764 410.265 192.913C410.239 192.549 410.624 192.224 411.111 192.205C411.597 192.185 412.033 192.473 412.059 192.837C412.623 201.86 409.445 203.642 405.882 204.791C405.754 204.83 405.651 204.849 405.523 204.849Z" fill="#202D37"/>
<path d="M399.424 205.271C397.835 205.271 397.168 205.156 396.886 204.696C396.707 204.408 396.681 203.929 396.656 201.573C396.656 201.075 396.63 200.519 396.63 199.945C396.63 199.581 397.015 199.274 397.502 199.255C397.989 199.255 398.399 199.542 398.424 199.906C398.424 200.481 398.45 201.037 398.45 201.554C398.475 202.473 398.475 203.412 398.527 203.91C399.167 203.949 400.372 203.929 400.962 203.91C401.295 203.91 401.577 203.891 401.782 203.891C402.269 203.891 402.679 204.198 402.679 204.562C402.679 204.926 402.269 205.232 401.782 205.232C401.602 205.232 401.346 205.232 401.013 205.251C400.398 205.271 399.859 205.271 399.424 205.271Z" fill="#202D37"/>
<path d="M239.828 135.534C239.803 135.534 239.777 135.534 239.726 135.534C239.239 135.496 238.88 135.17 238.931 134.806C240.264 125.246 245.006 110.629 246.031 107.506C244.57 107.123 241.264 106.261 237.983 105.245C229.782 102.697 228.756 101.471 228.859 100.533C228.936 99.9003 229.038 99.019 245.082 94.3636C252.771 92.1221 260.537 90.0722 260.614 90.053C261.075 89.9381 261.588 90.1105 261.767 90.4554C261.921 90.8002 261.69 91.1834 261.229 91.3175C247.363 94.9767 232.447 99.4022 230.704 100.705C230.935 101.011 232.242 102.027 239.034 104.115C243.186 105.399 247.312 106.414 247.363 106.433C247.799 106.548 248.055 106.893 247.953 107.238C247.902 107.41 242.186 124.346 240.7 134.96C240.674 135.285 240.29 135.534 239.828 135.534Z" fill="#202D37"/>
<path d="M258.769 114.634C258.282 114.634 257.872 114.327 257.872 113.963C257.872 113.599 258.282 113.293 258.769 113.293C263.152 113.293 265.714 111.837 265.945 109.193C265.971 108.829 266.406 108.541 266.893 108.56C267.38 108.58 267.765 108.905 267.739 109.269C267.432 112.622 264.074 114.634 258.769 114.634Z" fill="#202D37"/>
<path d="M268.457 142.03C268.431 142.03 268.38 142.03 268.354 142.03C267.867 141.991 267.508 141.666 267.56 141.282C268.226 136.685 269.174 131.167 270.379 124.883C271.942 116.645 273.378 109.997 273.378 109.921C273.454 109.595 273.839 109.346 274.275 109.365C277.222 109.403 279.785 109.308 281.887 109.059C286.269 108.541 287.704 107.564 288.166 107.028C288.473 106.664 288.55 106.261 288.371 105.84C287.807 104.441 281.605 103.215 273.301 103.618C272.814 103.637 272.378 103.369 272.352 102.985C272.327 102.621 272.686 102.296 273.198 102.277C280.579 101.932 289.011 102.775 290.114 105.457C290.447 106.261 290.293 107.047 289.703 107.756C288.601 109.059 286.09 109.959 282.194 110.4C280.169 110.63 277.786 110.744 275.043 110.725C274.659 112.507 273.454 118.254 272.173 125.094C270.994 131.359 270.046 136.857 269.379 141.436C269.302 141.781 268.918 142.03 268.457 142.03Z" fill="#202D37"/>
<path d="M274.915 107.047C274.48 107.047 274.095 106.798 274.018 106.472C273.942 106.108 274.3 105.763 274.787 105.725C278.401 105.361 282.451 105.495 282.63 105.514C283.117 105.533 283.501 105.84 283.476 106.223C283.45 106.587 283.014 106.874 282.527 106.855C282.476 106.855 278.478 106.702 275.018 107.066C274.992 107.047 274.967 107.047 274.915 107.047Z" fill="#202D37"/>
<path d="M273.557 91.9698C273.557 91.9698 279.887 89.7858 284.603 93.7132C290.088 98.3303 284.167 103.235 284.039 103.388C280.554 102.871 276.658 102.852 276.658 102.852C277.042 107.526 274.479 108.254 273.377 108.139C272.25 108.024 272.66 106.377 272.66 106.377C256.949 102.315 261.844 92.3147 261.844 92.3147C258.871 93.2343 253.335 92.7362 253.207 92.7745C255.001 85.9159 269.507 86.7397 273.557 91.9698Z" fill="#202D37"/>
<path d="M273.583 108.828C273.454 108.828 273.352 108.828 273.224 108.809C272.763 108.752 272.378 108.579 272.122 108.311C271.712 107.89 271.66 107.296 271.686 106.855C266.765 105.476 263.356 103.368 261.588 100.571C259.768 97.7168 260.127 94.8622 260.563 93.3104C257.974 93.7127 254.796 93.5403 253.592 93.4829C253.438 93.4829 253.31 93.4637 253.258 93.4637C253.028 93.4828 252.797 93.4254 252.618 93.3104C252.361 93.1572 252.259 92.9081 252.31 92.6782C253.079 89.8237 255.95 87.8695 260.204 87.3331C265.509 86.6626 271.25 88.3102 273.916 91.1647C275.838 90.7049 281.169 89.8428 285.27 93.2913C290.549 97.736 286.244 102.43 284.783 103.771L284.731 103.809C284.526 104.02 284.168 104.116 283.834 104.077C281.477 103.732 278.914 103.617 277.555 103.56C277.606 105.744 276.991 107.296 275.71 108.177C275.12 108.579 274.326 108.828 273.583 108.828ZM273.557 107.487C273.711 107.487 274.095 107.468 274.531 107.181C275.095 106.798 275.992 105.725 275.761 102.909C275.736 102.717 275.838 102.545 276.017 102.411C276.197 102.276 276.428 102.2 276.684 102.2C276.838 102.2 280.298 102.238 283.681 102.679C285.295 101.089 287.961 97.5444 283.963 94.1725C279.759 90.6474 274.018 92.5633 273.967 92.5824C273.557 92.7357 273.044 92.6016 272.814 92.3142C270.738 89.6512 265.356 88.042 260.537 88.6359C258.666 88.8658 255.514 89.6321 254.361 92.1609C256.078 92.2376 259.486 92.3142 261.511 91.7012C261.844 91.6054 262.229 91.6628 262.485 91.8352C262.741 92.0268 262.818 92.295 262.716 92.5441C262.69 92.5824 260.922 96.3374 263.254 99.9966C264.894 102.564 268.175 104.499 272.993 105.744C273.403 105.859 273.66 106.166 273.583 106.51C273.454 106.874 273.454 107.315 273.557 107.487Z" fill="#202D37"/>
<path d="M284.04 124.193C280.093 126.147 275.146 126.894 271.276 124.978C272.865 116.645 274.275 110.035 274.275 110.035C277.427 110.073 279.99 109.959 282.04 109.709C279.683 115.055 280.041 119.729 282.297 119.978C284.783 120.266 285.731 119.653 286.936 119.001C288.14 118.388 289.063 121.683 284.04 124.193Z" fill="#202D37"/>
<path d="M276.402 126.78C274.378 126.78 272.455 126.377 270.789 125.553C270.507 125.419 270.354 125.151 270.405 124.902C271.968 116.664 273.404 110.016 273.404 109.94C273.48 109.614 273.865 109.365 274.301 109.384C277.248 109.422 279.811 109.327 281.913 109.077C282.22 109.039 282.528 109.135 282.733 109.307C282.938 109.48 282.989 109.729 282.912 109.959C281.016 114.269 281.016 117.871 281.989 119.059C282.143 119.231 282.297 119.346 282.451 119.365C284.399 119.595 285.168 119.193 286.193 118.637L286.449 118.503C286.885 118.273 287.372 118.235 287.833 118.388C288.397 118.58 288.756 119.078 288.833 119.729C288.961 121.013 287.91 123.12 284.578 124.787C281.836 126.109 279.016 126.78 276.402 126.78ZM272.25 124.653C275.403 125.994 279.58 125.63 283.553 123.657C286.193 122.354 286.808 120.936 286.936 120.4C286.987 120.17 287.013 119.978 286.987 119.844C285.885 120.438 284.681 120.975 282.143 120.687C281.656 120.63 280.99 120.419 280.426 119.768C279.093 118.158 279.247 114.461 280.759 110.553C279.068 110.687 277.146 110.763 275.018 110.744C274.659 112.468 273.506 118.005 272.25 124.653Z" fill="#202D37"/>
<path d="M69.9822 75.2062C67.0092 75.2062 63.7286 75.0721 60.2943 74.9188C57.962 74.823 55.5272 74.7273 53.1437 74.6698C52.6567 74.6506 52.2723 74.3441 52.2723 73.9801C52.2979 73.6161 52.708 73.3096 53.1949 73.3287C55.6041 73.3862 58.0389 73.482 60.3712 73.5969C70.5204 74.0184 80.1315 74.4207 81.1054 71.0489C81.2336 70.6083 81.3873 70.0527 81.5668 69.4205C84.4885 59.0751 87.7178 48.2699 89.4606 46.4499C92.2799 43.4804 104.531 45.9135 105.915 46.2008C106.402 46.2966 106.684 46.6606 106.53 47.0246C106.402 47.3886 105.915 47.5994 105.428 47.4844C100.661 46.5074 92.4849 45.5495 90.8959 47.2354C89.1531 49.0746 84.8986 64.0562 83.3096 69.7078C83.1301 70.3401 82.9764 70.8956 82.8482 71.3363C81.9768 74.459 76.8766 75.2062 69.9822 75.2062Z" fill="#202D37"/>
<path d="M61.4145 78.599C62.8458 77.5292 62.8458 75.7946 61.4145 74.7247C59.9833 73.6548 57.6627 73.6548 56.2315 74.7247C54.8002 75.7946 54.8002 77.5292 56.2315 78.599C57.6627 79.6689 59.9833 79.6689 61.4145 78.599Z" fill="#202D37"/>
<path d="M58.8337 79.7087C56.6039 79.7087 54.7842 78.3485 54.7842 76.6818C54.7842 75.015 56.6039 73.6548 58.8337 73.6548C61.0635 73.6548 62.8832 75.015 62.8832 76.6818C62.8832 78.3485 61.0635 79.7087 58.8337 79.7087ZM58.8337 74.2104C57.014 74.2104 55.5531 75.3215 55.5531 76.6626C55.5531 78.0228 57.0396 79.1148 58.8337 79.1148C60.6534 79.1148 62.1143 78.0037 62.1143 76.6626C62.1143 75.3215 60.6534 74.2104 58.8337 74.2104Z" fill="#202D37"/>
<path d="M74.8517 79.6699C76.8758 79.6699 78.5167 78.4433 78.5167 76.9303C78.5167 75.4172 76.8758 74.1907 74.8517 74.1907C72.8276 74.1907 71.1867 75.4172 71.1867 76.9303C71.1867 78.4433 72.8276 79.6699 74.8517 79.6699Z" fill="#202D37"/>
<path d="M74.8518 79.957C72.622 79.957 70.8023 78.5968 70.8023 76.9301C70.8023 75.2633 72.622 73.9031 74.8518 73.9031C77.0815 73.9031 78.9012 75.2633 78.9012 76.9301C78.9012 78.5968 77.0815 79.957 74.8518 79.957ZM74.8518 74.4587C73.0321 74.4587 71.5712 75.5698 71.5712 76.9109C71.5712 78.2711 73.0577 79.3631 74.8518 79.3631C76.6458 79.3631 78.1323 78.252 78.1323 76.9109C78.1323 75.5698 76.6458 74.4587 74.8518 74.4587Z" fill="#202D37"/>
<path d="M52.4516 67.0255C52.1184 67.0255 51.7852 67.0255 51.4777 67.0255C50.9907 67.0255 50.5806 66.719 50.5806 66.355C50.5806 65.9909 50.9907 65.6844 51.4777 65.6844C59.6791 65.7227 83.2326 65.2821 83.4632 65.2629C83.9502 65.2629 84.3603 65.5503 84.3859 65.9143C84.3859 66.2783 84.0014 66.5848 83.5145 66.604C83.2838 66.6232 61.4219 67.0255 52.4516 67.0255Z" fill="#202D37"/>
<path d="M87.769 52.8295C86.2568 52.8295 50.9907 52.6379 44.2501 52.1589C43.7632 52.1206 43.4044 51.7949 43.43 51.4309C43.4813 51.0669 43.917 50.7987 44.4039 50.8179C51.0419 51.2968 87.3845 51.4884 87.769 51.4884C88.2559 51.4884 88.666 51.7949 88.666 52.1589C88.666 52.5229 88.2816 52.8295 87.769 52.8295Z" fill="#202D37"/>
<path d="M53.2722 66.8144C53.0159 66.8144 52.734 66.7187 52.5802 66.5654C50.5555 64.6687 45.6346 56.3541 45.6346 51.6029C45.6346 51.2389 46.0447 50.9324 46.5317 50.9324C47.0186 50.9324 47.4287 51.2389 47.4287 51.6029C47.4287 55.9326 52.1958 64.0365 53.9898 65.7416C54.2974 66.029 54.2205 66.4504 53.8361 66.6803C53.6823 66.7761 53.4773 66.8144 53.2722 66.8144Z" fill="#202D37"/>
<path d="M67.3169 59.6497C61.8834 59.6497 55.5786 59.6497 48.8636 59.6497C48.3767 59.6497 47.9666 59.3431 47.9666 58.9791C47.9666 58.6151 48.3767 58.3086 48.8636 58.3086C68.8803 58.3278 85.3856 58.3086 85.565 58.3086C86.052 58.3086 86.4621 58.6151 86.4621 58.9791C86.4621 59.3431 86.052 59.6497 85.565 59.6497C85.4369 59.6497 78.1069 59.6497 67.3169 59.6497Z" fill="#202D37"/>
<path d="M61.0887 66.8147C60.6786 66.8147 60.2942 66.5848 60.2173 66.2783C59.0127 61.4888 59.6535 52.2737 59.6791 51.8714C59.7047 51.5074 60.1148 51.22 60.6274 51.2392C61.1143 51.2583 61.4988 51.584 61.4731 51.948C61.4731 52.0438 60.8068 61.393 61.9857 66.0292C62.0883 66.3932 61.7551 66.7381 61.2681 66.8147C61.1912 66.8147 61.14 66.8147 61.0887 66.8147Z" fill="#202D37"/>
<path d="M74.0318 66.6038C73.5704 66.6038 73.1604 66.3356 73.1347 65.9908C73.1347 65.9333 72.5196 59.4196 73.6473 51.9862C73.6986 51.6222 74.1599 51.354 74.6469 51.3923C75.1338 51.4306 75.4926 51.7755 75.4414 52.1395C74.3137 59.4387 74.9288 65.8375 74.9288 65.895C74.9544 66.259 74.5956 66.5847 74.1087 66.6038C74.083 66.6038 74.0574 66.6038 74.0318 66.6038Z" fill="#202D37"/>
<path d="M290.908 232.857C290.37 232.857 289.857 232.819 289.396 232.762C288.909 232.704 288.576 232.359 288.653 231.995C288.73 231.631 289.191 231.382 289.678 231.44C292.83 231.804 299.648 230.961 310.13 221.056C329.967 202.319 335.683 191.629 331.915 180.192C327.866 167.892 308.977 159.578 303.287 157.317C300.288 156.129 294.086 153.313 287.499 150.305C279.605 146.723 269.815 142.278 268.405 142.01C268.123 142.029 267.56 142.201 266.945 142.412C264.51 143.197 259.948 144.673 251.772 143.159C244.006 141.741 242.058 138.868 240.777 136.952C240.29 136.224 239.905 135.668 239.367 135.419C237.214 134.442 216.634 133.159 211.739 133.082H211.226C203.178 132.967 195.618 132.507 194.798 129.94C194.362 128.541 193.26 127.315 188.262 127.89C186.237 128.12 184.879 127.948 183.982 127.335C182.957 126.626 182.906 125.495 183.008 124.48C183.059 124.058 183.187 122.756 180.317 122.564L180.163 122.545C177.344 122.373 176.498 121.606 176.344 116.989C176.216 113.483 165.221 105.782 159.942 102.084C158.276 100.915 157.071 100.073 156.533 99.6127C154.918 98.2142 146.896 96.6241 142.078 96.1451C141.591 96.0876 141.232 95.7619 141.309 95.3979C141.386 95.0339 141.821 94.7657 142.308 94.8232C146.204 95.2064 155.559 96.739 157.891 98.7506C158.352 99.1529 159.608 100.034 161.172 101.126C169.296 106.816 178.01 113.215 178.138 116.97C178.215 119.077 178.446 120.303 178.856 120.821C179.087 121.108 179.317 121.166 180.317 121.223L180.471 121.242C183.367 121.434 184.982 122.679 184.802 124.595C184.7 125.572 184.828 126.108 185.212 126.357C185.648 126.664 186.596 126.721 188.006 126.568C189.825 126.357 195.336 125.744 196.566 129.633C196.643 129.902 197.309 130.783 202.205 131.3C205.383 131.645 209.073 131.703 211.303 131.722H211.816C214.891 131.76 237.419 132.929 240.341 134.251C241.315 134.691 241.828 135.438 242.417 136.32C243.622 138.101 245.288 140.554 252.233 141.818C259.845 143.217 263.869 141.914 266.278 141.128C267.201 140.841 267.867 140.611 268.508 140.63C269.636 140.649 274.223 142.661 288.473 149.117C295.034 152.106 301.237 154.922 304.184 156.091C310.053 158.409 329.48 166.992 333.709 179.828C337.631 191.725 331.838 202.722 311.591 221.841C302.185 230.731 295.342 232.857 290.908 232.857Z" fill="#202D37"/>
<path d="M275.223 218.259C274.839 218.259 274.48 218.068 274.352 217.78C272.583 213.144 272.968 212.071 274.608 209.906C275.249 209.083 277.504 207.071 280.4 204.504C285.27 200.174 292.626 193.66 293.574 191.265C294.958 187.779 293.087 182.798 270.379 170.115C269.995 169.885 269.892 169.483 270.2 169.176C270.507 168.889 271.046 168.812 271.456 169.042C293.728 181.476 297.085 187.07 295.291 191.63C294.24 194.273 287.346 200.423 281.784 205.347C279.068 207.761 276.735 209.83 276.197 210.539C274.788 212.378 274.48 213.087 276.12 217.378C276.248 217.742 275.992 218.106 275.505 218.202C275.377 218.259 275.3 218.259 275.223 218.259Z" fill="#202D37"/>
<path d="M207.638 165.843C207.612 165.843 207.561 165.843 207.535 165.843C203.204 165.441 164.811 161.571 151.791 153.084C137.259 143.601 122.599 116.434 122.471 116.166C121.036 113.427 120.856 111.185 121.754 106.97C121.83 106.606 122.292 106.357 122.779 106.415C123.266 106.472 123.599 106.817 123.522 107.181C122.676 111.166 122.804 113.158 124.137 115.687C124.265 115.955 138.746 142.796 152.97 152.088C165.58 160.326 203.486 164.119 207.766 164.521C208.253 164.56 208.612 164.904 208.535 165.268C208.484 165.594 208.074 165.843 207.638 165.843Z" fill="#202D37"/>
<path d="M197.95 179.215C197.796 179.215 197.617 179.176 197.489 179.119C197.078 178.927 196.925 178.506 197.181 178.199C199.129 175.824 208.894 163.62 211.303 156.014C211.405 155.65 211.892 155.42 212.379 155.516C212.866 155.593 213.148 155.957 213.046 156.321C210.585 164.137 200.667 176.513 198.719 178.908C198.539 179.1 198.232 179.215 197.95 179.215Z" fill="#202D37"/>
<path d="M283.988 235.923C283.399 235.923 282.168 235.923 275.505 229.927C273.403 228.03 269.2 224.064 268.995 223.471C268.277 221.421 273.121 218.068 274.633 217.091C274.838 216.957 275.095 216.899 275.351 216.938C275.607 216.957 275.838 217.072 275.966 217.225C279.144 220.827 287.884 230.444 290.062 231.651C290.267 231.766 290.395 231.919 290.421 232.111C290.447 232.302 290.37 232.475 290.216 232.609C289.601 233.165 286.423 235.923 283.988 235.923ZM270.712 223.068C271.071 223.547 273.736 226.21 276.863 229.046C282.322 233.969 283.783 234.525 284.014 234.582C285.064 234.544 286.935 233.318 288.268 232.245C285.09 229.793 277.376 221.248 275.043 218.624C272.685 220.252 270.558 222.283 270.712 223.068Z" fill="#202D37"/>
<path d="M253.181 251.097C252.515 251.097 251.977 250.944 251.618 250.637C251.105 250.216 251.003 249.603 251.362 248.779C250.029 249.354 248.645 249.756 247.748 249.507C247.21 249.354 246.877 249.028 246.748 248.568C246.364 246.92 248.543 245.1 250.875 243.185C252.387 241.92 253.95 240.617 254.489 239.583C255.309 237.935 255.514 236.709 255.514 236.096C255.462 236.115 255.411 236.134 255.36 236.134C252.156 237.054 248.594 237.993 246.774 237.303C246.236 237.092 245.877 236.767 245.723 236.345C245.159 234.774 248.978 232.897 256.975 229.103C261.229 227.092 266.073 224.812 269.328 222.762C269.712 222.532 270.276 222.551 270.584 222.839C270.891 223.126 270.866 223.548 270.481 223.777C267.124 225.885 262.229 228.203 257.923 230.234C255.104 231.575 252.438 232.82 250.465 233.893C247.825 235.33 247.492 235.866 247.466 236C247.492 236.039 247.517 236.058 247.594 236.096C248.876 236.575 253.284 235.291 254.745 234.87C255.565 234.64 255.796 234.563 256.001 234.563C256.36 234.544 256.718 234.659 256.949 234.889C257.769 235.694 257.128 238.127 256.18 240.043C255.539 241.326 253.848 242.725 252.233 244.066C250.439 245.541 248.44 247.227 248.517 248.242C249.26 248.185 251.413 247.265 253.233 246.173C253.566 245.963 254.079 245.982 254.386 246.192C254.719 246.422 254.77 246.786 254.54 247.055C252.874 248.97 252.951 249.603 252.976 249.718C253.156 249.756 253.95 249.775 255.591 249.162C255.949 249.028 256.411 249.085 256.667 249.315C256.795 249.43 257.026 249.583 257.538 249.603C259.768 249.66 264.202 246.997 266.458 245.311C266.791 245.062 267.303 245.043 267.662 245.254C268.021 245.464 268.098 245.848 267.842 246.135C267.15 246.959 266.201 248.434 266.381 249.028V249.047C267.201 248.836 269.687 247.399 273.736 244.104C277.606 240.943 281.169 237.475 283.245 234.87C283.501 234.544 284.039 234.449 284.475 234.64C284.911 234.832 285.039 235.234 284.783 235.56C282.553 238.357 278.632 242.15 274.505 245.464C267.457 251.135 266.124 250.56 265.56 250.311C265.099 250.101 264.766 249.775 264.638 249.373C264.535 249.047 264.561 248.702 264.638 248.319C262.485 249.603 259.64 251.001 257.462 250.963C256.846 250.944 256.308 250.81 255.847 250.58C254.796 250.924 253.899 251.097 253.181 251.097Z" fill="#202D37"/>
<path d="M253.771 247.379C253.515 247.379 253.259 247.303 253.079 247.15C252.746 246.862 252.797 246.441 253.182 246.211C256.821 243.873 260.563 240.732 261.204 239.831C261.434 239.505 261.973 239.371 262.408 239.563C262.844 239.735 263.023 240.138 262.767 240.463C261.947 241.594 258 244.87 254.309 247.226C254.181 247.341 253.976 247.379 253.771 247.379Z" fill="#202D37"/>
<path d="M255.975 250.465C255.693 250.465 255.411 250.369 255.232 250.177C254.95 249.871 255.052 249.449 255.462 249.238C260.204 246.805 265.022 242.265 265.073 242.227C265.381 241.939 265.945 241.882 266.329 242.112C266.714 242.341 266.791 242.763 266.483 243.05C266.278 243.242 261.434 247.802 256.488 250.33C256.334 250.426 256.154 250.465 255.975 250.465Z" fill="#202D37"/>
<path d="M267.047 246.479C266.842 246.479 266.637 246.422 266.458 246.307C266.073 246.058 266.048 245.636 266.381 245.368C266.919 244.889 267.534 244.334 267.816 244.046C267.996 243.874 268.559 243.337 269.251 243.72C269.533 243.874 269.815 244.257 269.431 244.678C269.405 244.717 269.354 244.755 269.303 244.774C269.277 244.793 269.251 244.812 269.226 244.851C268.918 245.138 268.329 245.732 267.739 246.23C267.56 246.403 267.304 246.479 267.047 246.479Z" fill="#202D37"/>
<path d="M165.759 218.643C165.298 218.643 164.914 218.374 164.862 218.03C164.683 216.497 163.812 208.297 163.068 198.086C162.633 191.936 162.479 187.683 164.503 184.56C166.708 181.131 171.398 179.407 179.702 178.985C186.186 178.64 198.591 177.836 212.969 176.897C234.908 175.46 262.203 173.659 277.837 172.97C278.324 172.95 278.76 173.238 278.785 173.602C278.811 173.966 278.426 174.292 277.94 174.311C262.331 175 235.061 176.782 213.123 178.238C198.744 179.177 186.34 180.001 179.83 180.326C172.244 180.729 168.04 182.204 166.144 185.154C164.324 187.97 164.478 192.089 164.888 198.009C165.631 208.201 166.503 216.382 166.656 217.915C166.708 218.279 166.323 218.604 165.836 218.643C165.811 218.643 165.785 218.643 165.759 218.643Z" fill="#202D37"/>
<path d="M167.63 246.326C163.837 246.326 161.582 245.637 160.608 244.257C157.199 239.315 157.712 225.482 158.993 221.153C160.352 216.555 165.196 217.168 168.733 217.608C169.014 217.647 169.271 217.685 169.553 217.704C173.038 218.126 189.39 215.98 195.618 214.811C199.257 214.122 202.461 213.643 204.691 214.773C206.228 215.539 207.125 216.957 207.561 219.218C208.228 222.839 208.843 228.682 209.33 236.077C209.56 239.774 206.51 240.541 197.668 241.805C195.541 242.112 192.67 242.667 189.364 243.319C183.854 244.392 177.6 245.598 172.295 246.135C170.501 246.25 168.963 246.326 167.63 246.326ZM160.736 221.421C159.403 225.942 159.25 239.353 162.197 243.625C162.812 244.506 165.016 245.426 172.013 244.736C177.216 244.219 183.418 243.031 188.877 241.958C192.235 241.307 195.131 240.751 197.309 240.426C206.741 239.085 207.664 238.414 207.51 236.096C207.023 228.739 206.433 222.954 205.767 219.352C205.434 217.532 204.742 216.382 203.691 215.846C202.23 215.099 199.872 215.348 196.054 216.076C190.313 217.168 173.243 219.467 169.271 219.007C168.989 218.969 168.707 218.93 168.451 218.911C164.247 218.394 161.659 218.298 160.736 221.421Z" fill="#202D37"/>
<path d="M193.875 271.5C174.294 271.5 170.655 267.266 169.937 263.645C169.296 260.484 168.092 253.127 167.528 245.694C167.502 245.33 167.887 245.004 168.374 244.985C168.861 244.966 169.296 245.253 169.322 245.617C169.886 252.993 171.09 260.292 171.731 263.434C172.09 265.254 173.295 267.534 179.523 268.933C187.288 270.676 200.821 270.542 219.735 268.492C238.727 266.442 263.408 263.492 285.218 260.886C308.208 258.147 328.045 255.771 334.888 255.215C347.575 254.181 354.7 253.012 353.393 240.943C352.111 229.199 346.652 186.993 345.012 178.008C343.474 169.636 339.527 168.87 324.637 169.483C324.15 169.502 323.714 169.215 323.688 168.851C323.663 168.487 324.047 168.161 324.534 168.142C332.428 167.816 337.349 167.893 340.732 169.196C344.115 170.517 345.883 173.008 346.755 177.817C348.421 186.821 353.88 229.065 355.161 240.828C356.571 253.855 348.523 255.465 335.068 256.557C328.276 257.112 308.439 259.488 285.475 262.227C263.69 264.833 238.983 267.783 219.966 269.833C209.073 271.002 200.564 271.5 193.875 271.5Z" fill="#202D37"/>
<path d="M193.644 234.315C189.954 234.315 186.955 232.073 186.955 229.314C186.955 226.555 189.954 224.314 193.644 224.314C197.335 224.314 200.334 226.555 200.334 229.314C200.334 232.073 197.335 234.315 193.644 234.315ZM193.644 225.655C190.953 225.655 188.749 227.303 188.749 229.314C188.749 231.326 190.953 232.973 193.644 232.973C196.335 232.973 198.54 231.326 198.54 229.314C198.54 227.303 196.335 225.655 193.644 225.655Z" fill="#202D37"/>
<path d="M258.769 223.355C255.078 223.355 252.079 221.114 252.079 218.355C252.079 215.596 255.078 213.355 258.769 213.355C262.459 213.355 265.458 215.596 265.458 218.355C265.458 221.114 262.459 223.355 258.769 223.355ZM258.769 214.696C256.078 214.696 253.874 216.344 253.874 218.355C253.874 220.367 256.078 222.014 258.769 222.014C261.46 222.014 263.664 220.367 263.664 218.355C263.664 216.344 261.46 214.696 258.769 214.696Z" fill="#202D37"/>
<path d="M249.209 213.853C249.107 213.853 248.978 213.834 248.876 213.796C248.415 213.661 248.184 213.259 248.389 212.914C249.414 211.018 252.259 209.543 256.001 208.949C259.615 208.374 264.638 208.604 267.919 210.96C268.277 211.209 268.277 211.65 267.944 211.899C267.611 212.167 267.022 212.167 266.688 211.918C264.407 210.271 260.358 209.619 256.385 210.251C253.233 210.749 250.875 211.937 250.055 213.412C249.901 213.7 249.568 213.853 249.209 213.853Z" fill="#202D37"/>
<path d="M246.518 208.259C246.415 208.259 246.313 208.24 246.21 208.221C245.749 208.087 245.518 207.704 245.672 207.359C246.928 204.868 250.439 202.952 255.078 202.224C260.435 201.401 265.714 202.416 268.867 204.868C269.2 205.136 269.2 205.558 268.841 205.807C268.482 206.056 267.919 206.056 267.585 205.788C264.33 203.259 259.179 202.952 255.463 203.527C251.49 204.14 248.389 205.788 247.364 207.799C247.236 208.087 246.902 208.259 246.518 208.259Z" fill="#202D37"/>
<path d="M241.008 203.565C240.88 203.565 240.751 203.546 240.649 203.507C240.188 203.354 239.983 202.952 240.188 202.626C241.777 199.944 246.031 197.856 251.823 196.898C259.435 195.653 267.304 196.764 271.84 199.752C272.224 200.001 272.25 200.423 271.917 200.691C271.584 200.978 271.02 200.998 270.661 200.749C266.535 198.047 259.282 197.032 252.208 198.201C247.056 199.044 243.161 200.902 241.828 203.162C241.674 203.412 241.341 203.565 241.008 203.565Z" fill="#202D37"/>
<path d="M122.471 107.966C122.266 107.966 122.036 107.928 121.805 107.813C120.37 107.219 115.782 102.659 116.679 100.59C118.14 97.18 131.211 90.9345 138.182 90.3214C138.772 90.2639 139.694 90.4555 141.36 92.3521C142.18 93.2717 143.052 94.4787 143.18 95.1492C143.334 95.8389 142.744 96.1263 142.36 96.1838C140.566 96.4711 126.111 105.188 123.266 107.698C123.086 107.851 122.805 107.966 122.471 107.966ZM138.259 91.6816C131.544 92.333 119.524 98.3295 118.371 101.031C117.909 102.123 120.959 105.59 122.343 106.491C125.444 104.077 137.542 96.4711 141.309 95.0918C140.848 94.1339 139.028 91.9881 138.259 91.6816Z" fill="#202D37"/>
<path d="M115.987 96.3563C115.834 96.3563 115.68 96.318 115.526 96.2605C113.04 95.1877 111.528 92.678 111.656 89.8617C111.733 88.2908 112.297 86.9305 113.296 85.896C109.452 86.0876 103.378 86.0301 102.532 83.6737C101.43 80.6084 108.811 79.0949 115.962 77.6197C116.423 77.5239 116.884 77.4281 117.32 77.3323C115.731 73.3091 113.604 68.9219 112.655 68.4238C112.322 68.2322 111.758 68.0023 111.118 67.715C108.401 66.4888 103.839 64.4581 103.275 61.776C102.916 60.0326 103.557 58.5765 104.992 57.8677C106.12 57.3313 107.53 57.3504 108.709 57.9252C109.298 58.2125 110.733 58.8256 112.425 59.5536C119.422 62.5614 122.856 64.1132 123.497 64.8796C124.394 65.9524 136.081 88.4057 137.388 90.9729C137.567 91.3177 137.337 91.7009 136.875 91.835C136.414 91.9691 135.901 91.7967 135.722 91.4518C130.57 81.5279 122.651 66.4314 121.985 65.5884C121.344 64.937 114.731 62.0825 111.553 60.7223C109.785 59.9559 108.375 59.362 107.735 59.0555C107.145 58.7681 106.479 58.749 105.966 58.998C105.146 59.4003 104.787 60.3583 105.044 61.5652C105.479 63.6343 109.58 65.4735 112.04 66.5655C112.707 66.872 113.296 67.1211 113.706 67.351C115.654 68.4047 118.473 75.4932 119.294 77.6389C119.37 77.8113 119.319 78.0029 119.217 78.1561C119.088 78.3094 118.909 78.4243 118.678 78.4818C117.961 78.6351 117.218 78.7883 116.423 78.9416C111.323 79.9953 103.608 81.5663 104.249 83.348C104.762 84.804 111.477 84.8231 115.834 84.3825C116.269 84.3442 116.679 84.5358 116.807 84.8423C116.936 85.1488 116.731 85.4937 116.346 85.6469C114.629 86.2792 113.527 87.8884 113.424 89.9192C113.322 92.199 114.501 94.2873 116.397 95.111C116.833 95.3026 116.961 95.705 116.731 96.0306C116.602 96.2414 116.295 96.3563 115.987 96.3563Z" fill="#202D37"/>
<path d="M117.525 101.472C117.474 101.472 117.422 101.472 117.371 101.453C115.423 101.204 111.63 99.6137 108.478 97.1806C105.684 95.0157 102.352 91.414 102.429 86.567C102.429 86.203 102.839 85.8965 103.326 85.8965C103.813 85.8965 104.223 86.203 104.223 86.567C104.146 90.9542 107.196 94.2494 109.759 96.2419C112.835 98.6175 116.218 99.9394 117.653 100.131C118.14 100.188 118.473 100.533 118.396 100.897C118.319 101.242 117.935 101.472 117.525 101.472Z" fill="#202D37"/>
<path d="M110.579 80.1873C110.246 80.1873 109.938 80.0532 109.759 79.8041C107.837 76.8538 106.632 73.0413 108.939 71.1446C109.938 70.34 111.938 69.6312 115.961 70.7998C116.423 70.9339 116.653 71.3171 116.474 71.6619C116.295 72.0068 115.782 72.1792 115.321 72.0451C113.629 71.547 111.374 71.1446 110.272 72.0451C108.913 73.1562 109.349 76.1066 111.374 79.2102C111.579 79.5359 111.399 79.9382 110.964 80.1106C110.835 80.1681 110.707 80.1873 110.579 80.1873Z" fill="#202D37"/>
<path d="M105.094 81.969C104.813 81.969 104.505 81.854 104.351 81.6625C102.301 79.3252 101.071 75.8001 102.865 73.8843C103.608 73.0796 105.171 72.2558 108.426 72.8306C108.913 72.9072 109.195 73.2712 109.093 73.6352C108.99 73.9992 108.503 74.21 108.016 74.1333C106.197 73.8076 104.966 73.9801 104.326 74.6506C103.095 75.9725 104.121 78.9612 105.838 80.9153C106.12 81.2218 105.992 81.6433 105.581 81.8349C105.453 81.9307 105.274 81.969 105.094 81.969Z" fill="#202D37"/>
<path d="M106.248 87.8502C104.608 87.8502 102.557 87.2372 100.328 86.0302C97.1753 84.3251 95.6375 80.9533 97.0471 78.8076C97.5341 78.0796 99.0718 76.4895 103.121 77.3899C103.608 77.4857 103.865 77.8689 103.736 78.2329C103.583 78.5969 103.096 78.7885 102.609 78.6927C101.225 78.3861 99.405 78.252 98.6361 79.4207C97.7135 80.8192 98.713 83.5397 101.353 84.9574C104.326 86.5666 106.351 86.7199 107.171 86.3559C107.581 86.1835 107.76 85.8195 107.683 85.3214C107.632 84.9574 107.991 84.6317 108.478 84.5934C108.965 84.555 109.401 84.8233 109.452 85.1873C109.58 86.2218 109.067 87.0647 108.042 87.5245C107.581 87.7353 106.966 87.8502 106.248 87.8502Z" fill="#202D37"/>
<path d="M54.5788 185.787C49.0684 185.787 47.9664 184.541 47.1719 182.204C46.1723 179.235 45.4547 175.556 44.122 166.456C44.0963 166.226 44.0707 166.015 44.0194 165.805L43.8657 164.828C43.5581 162.701 43.3018 161.034 43.2506 159.693C43.0968 155.804 44.6602 154.482 50.1961 153.831C65.9583 151.973 87.2051 150.555 95.2271 150.018C96.0216 149.961 96.688 149.923 97.2006 149.884C101.66 149.578 104.121 150.727 105.479 153.735C106.068 155.038 106.453 156.743 106.709 158.984L106.735 159.176C106.786 159.54 106.402 159.866 105.915 159.904C105.428 159.942 104.992 159.655 104.941 159.291L104.915 159.099C104.684 156.973 104.3 155.364 103.762 154.176C102.66 151.762 100.994 150.996 97.3287 151.225C96.8161 151.264 96.1754 151.302 95.3552 151.36C87.3589 151.896 66.1377 153.295 50.4524 155.153C45.7879 155.708 44.8908 156.456 45.019 159.655C45.0702 160.939 45.3265 162.605 45.6341 164.694L45.7879 165.671C45.8135 165.881 45.8648 166.111 45.8904 166.322C47.1975 175.345 47.9151 178.986 48.889 181.878C49.6835 184.197 50.1192 185.48 67.0603 183.411C67.5473 183.354 68.0086 183.603 68.0855 183.967C68.1624 184.331 67.8292 184.675 67.3422 184.733C61.5244 185.442 57.4493 185.787 54.5788 185.787Z" fill="#202D37"/>
<path d="M105.812 159.023C95.7911 160.039 63.8568 163.257 44.8397 165.269C44.4809 162.912 44.199 161.092 44.1477 159.655C57.8851 158.487 93.3819 155.038 104.633 153.946C105.197 155.211 105.582 156.858 105.812 159.023Z" fill="#202D37"/>
<path d="M44.8397 165.556C44.7629 165.556 44.6603 165.537 44.6091 165.498C44.5322 165.46 44.4809 165.383 44.4553 165.307L44.3784 164.789C44.0709 162.682 43.8146 160.996 43.7633 159.674C43.7633 159.521 43.9171 159.406 44.0965 159.387C58.4234 158.161 96.9957 154.406 104.556 153.678C104.736 153.659 104.915 153.735 104.966 153.869C105.53 155.134 105.94 156.82 106.171 159.023C106.197 159.176 106.043 159.31 105.838 159.329L105.607 159.349C95.2529 160.402 63.7287 163.582 44.8654 165.575C44.891 165.556 44.8654 165.556 44.8397 165.556ZM44.5578 159.923C44.6347 161.188 44.8654 162.759 45.1729 164.732L45.1986 164.962C64.0362 162.989 94.971 159.847 105.402 158.793C105.172 156.896 104.838 155.421 104.351 154.272C96.1499 155.057 58.9616 158.678 44.5578 159.923Z" fill="#202D37"/>
<path d="M54.092 173.41C53.3743 173.41 52.7849 173.372 52.3492 173.314C52.0672 173.276 51.2215 173.123 50.9395 172.567C50.6832 172.031 50.2732 170.958 50.0169 170C49.5555 168.276 49.735 167.701 50.145 167.375C51.3496 166.417 58.6284 165.804 61.2682 165.977C62.3703 166.053 62.9598 166.226 63.2673 166.59C64.0362 167.452 65.292 170.862 63.8055 172.012C62.806 172.74 57.3469 173.41 54.092 173.41ZM52.5542 171.973C53.9894 172.395 61.4989 171.59 62.5241 171.034C62.9598 170.632 62.4984 168.276 61.8321 167.375C61.3451 167.241 59.4998 167.184 56.6037 167.433C53.8357 167.682 52.0416 168.046 51.529 168.237C51.4521 168.812 52.016 170.785 52.5542 171.973ZM50.7858 167.797L51.4265 168.257L50.7858 167.797Z" fill="#202D37"/>
<path d="M174.961 211.554C174.499 211.554 174.089 211.286 174.064 210.922C173.961 209.638 173.833 208.374 173.705 207.128L173.602 206.151C173.577 205.787 173.935 205.462 174.422 205.442C174.909 205.423 175.345 205.691 175.371 206.055L175.473 207.032C175.601 208.278 175.729 209.542 175.832 210.845C175.858 211.209 175.499 211.535 174.986 211.554C175.012 211.554 174.986 211.554 174.961 211.554ZM174.14 201.994C173.653 201.994 173.269 201.707 173.243 201.343C173.192 200.519 173.166 199.772 173.166 199.082C173.166 198.124 173.218 197.281 173.295 196.476C173.32 196.112 173.756 195.825 174.269 195.863C174.755 195.882 175.14 196.208 175.089 196.591C175.012 197.358 174.961 198.162 174.961 199.082C174.961 199.752 174.986 200.48 175.012 201.304C175.037 201.668 174.653 201.994 174.14 201.994C174.166 201.994 174.14 201.994 174.14 201.994ZM175.576 192.568C175.447 192.568 175.319 192.549 175.217 192.511C174.756 192.357 174.576 191.955 174.781 191.629C175.499 190.442 176.498 189.503 177.729 188.832C178.241 188.545 178.907 188.277 179.676 188.028C180.138 187.874 180.65 188.047 180.855 188.372C181.06 188.717 180.83 189.1 180.394 189.254C179.753 189.465 179.215 189.675 178.779 189.905C177.78 190.461 176.985 191.208 176.396 192.185C176.242 192.415 175.909 192.568 175.576 192.568ZM186.212 188.028C185.776 188.028 185.417 187.798 185.34 187.472C185.264 187.108 185.571 186.763 186.058 186.687C187.929 186.438 190.108 186.208 192.491 186.016C192.978 185.978 193.414 186.246 193.465 186.61C193.516 186.974 193.157 187.3 192.67 187.338C190.338 187.51 188.211 187.74 186.391 187.989C186.314 188.028 186.263 188.028 186.212 188.028ZM198.975 187.012C198.514 187.012 198.104 186.744 198.078 186.38C198.053 186.016 198.437 185.69 198.924 185.671C202 185.537 204.46 185.499 205.383 185.499C205.383 185.499 205.383 185.499 205.408 185.499C205.895 185.499 206.305 185.786 206.305 186.15C206.305 186.514 205.921 186.821 205.434 186.84C204.537 186.859 202.102 186.878 199.052 187.012C199.001 187.012 198.975 187.012 198.975 187.012Z" fill="#202D37"/>
<path d="M312.283 250.119C311.822 250.119 311.438 249.87 311.386 249.525C311.335 249.161 311.694 248.816 312.181 248.778C314.334 248.586 316.461 248.395 318.537 248.184C319.024 248.127 319.485 248.395 319.537 248.759C319.613 249.123 319.255 249.468 318.768 249.506C316.692 249.717 314.539 249.908 312.386 250.1C312.36 250.1 312.335 250.119 312.283 250.119ZM325.021 248.855C324.586 248.855 324.201 248.625 324.124 248.28C324.047 247.916 324.381 247.571 324.868 247.514C327.225 247.245 329.353 246.977 331.172 246.709C331.659 246.632 332.121 246.881 332.223 247.245C332.326 247.609 331.992 247.954 331.506 248.031C329.66 248.299 327.533 248.567 325.149 248.835C325.124 248.855 325.073 248.855 325.021 248.855ZM337.605 246.939C337.221 246.939 336.888 246.766 336.76 246.479C336.606 246.134 336.862 245.751 337.323 245.636C337.657 245.559 337.964 245.464 338.22 245.387C339.758 244.908 340.758 244.142 341.373 242.973C341.552 242.628 342.065 242.456 342.526 242.59C342.988 242.724 343.218 243.107 343.039 243.452C342.244 244.985 340.912 246.019 338.912 246.632C338.605 246.728 338.272 246.824 337.887 246.92C337.785 246.92 337.682 246.939 337.605 246.939ZM343.039 239.161C342.552 239.161 342.142 238.873 342.142 238.49C342.116 237.226 341.988 235.674 341.732 233.777C341.68 233.413 342.039 233.087 342.526 233.049C343.013 233.011 343.449 233.279 343.5 233.643C343.756 235.578 343.91 237.168 343.91 238.49C343.936 238.854 343.551 239.161 343.039 239.161ZM341.86 229.62C341.424 229.62 341.04 229.371 340.963 229.045C340.707 227.608 340.425 226.056 340.117 224.409L340.091 224.313C340.015 223.949 340.373 223.604 340.86 223.566C341.347 223.508 341.809 223.777 341.86 224.141L341.885 224.236C342.193 225.884 342.475 227.436 342.731 228.892C342.808 229.256 342.449 229.601 341.962 229.639C341.937 229.62 341.911 229.62 341.86 229.62Z" fill="#202D37"/>
<path d="M199.872 263.319C197.437 263.3 195.259 263.204 193.362 263.032C192.875 262.994 192.516 262.649 192.593 262.285C192.645 261.921 193.106 261.653 193.593 261.71C195.413 261.882 197.514 261.978 199.872 261.997C200.359 261.997 200.769 262.304 200.769 262.668C200.769 263.013 200.359 263.319 199.872 263.319ZM206.254 263.166C205.792 263.166 205.382 262.898 205.357 262.534C205.331 262.17 205.716 261.844 206.203 261.825C207.612 261.768 209.124 261.672 210.713 261.576C211.2 261.538 211.636 261.825 211.687 262.189C211.739 262.553 211.354 262.879 210.867 262.917C209.278 263.032 207.74 263.109 206.305 263.166C206.305 263.166 206.279 263.166 206.254 263.166ZM187.314 261.844C187.185 261.844 187.057 261.825 186.955 261.787C184.597 261.001 182.931 259.89 181.855 258.377C181.624 258.051 181.778 257.649 182.213 257.476C182.649 257.304 183.187 257.419 183.418 257.744C184.315 258.97 185.699 259.89 187.672 260.561C188.134 260.714 188.339 261.116 188.134 261.442C187.98 261.691 187.647 261.844 187.314 261.844ZM181.06 254.123C180.599 254.123 180.214 253.855 180.163 253.51C180.035 252.399 179.984 251.231 179.932 249.985C179.907 249.564 179.907 249.123 179.881 248.683C179.855 248.319 180.24 247.993 180.753 247.993C181.239 247.974 181.675 248.261 181.675 248.644C181.701 249.085 181.701 249.526 181.726 249.947C181.778 251.173 181.829 252.323 181.931 253.395C181.983 253.759 181.598 254.085 181.111 254.123C181.111 254.123 181.086 254.123 181.06 254.123Z" fill="#202D37"/>
<path d="M68.2396 168.889C84.4118 164.176 105.659 159.617 111.451 158.429C117.243 157.222 120.575 155.727 123.522 161.188C126.444 166.648 130.699 175.882 132.365 178.621C134.03 181.361 135.517 183.698 126.085 186.151C116.654 188.603 96.0732 193.469 87.5643 196.189C79.0553 198.91 76.1591 199.791 71.5458 191.745C66.9325 183.698 64.9078 179.215 63.1906 175.288C61.4478 171.322 64.754 169.904 68.2396 168.889Z" fill="#FFFEF2"/>
<path d="M110.814 175.551C113.815 175.017 115.668 172.764 114.953 170.52C114.237 168.277 111.224 166.892 108.222 167.426C105.221 167.961 103.368 170.214 104.083 172.457C104.799 174.701 107.812 176.086 110.814 175.551Z" fill="#FFFEF2"/>
<path d="M109.528 176.342C105.966 176.342 103.044 174.177 103.044 171.495C103.044 168.832 105.94 166.648 109.528 166.648C113.116 166.648 116.013 168.813 116.013 171.495C116.013 174.177 113.091 176.342 109.528 176.342ZM109.528 167.989C106.94 167.989 104.838 169.56 104.838 171.495C104.838 173.43 106.94 175.001 109.528 175.001C112.117 175.001 114.219 173.43 114.219 171.495C114.219 169.56 112.117 167.989 109.528 167.989Z" fill="#202D37"/>
<path d="M117.295 174.713C117.218 174.713 117.141 174.713 117.064 174.713C113.501 174.618 110.682 172.376 110.81 169.713C110.938 167.05 113.937 164.943 117.5 165.039C121.062 165.134 123.881 167.376 123.753 170.039C123.651 172.644 120.754 174.713 117.295 174.713ZM112.604 169.732C112.553 170.671 113.014 171.552 113.86 172.242C114.706 172.932 115.885 173.315 117.115 173.353C118.371 173.391 119.55 173.047 120.473 172.414C121.395 171.782 121.908 170.901 121.959 169.981C122.036 168.046 120.011 166.418 117.423 166.36C114.86 166.284 112.681 167.816 112.604 169.732Z" fill="#202D37"/>
<path d="M115.808 180.825C115.449 180.825 115.09 180.652 114.962 180.365C114.808 180.02 115.039 179.637 115.526 179.503C120.139 178.315 123.83 177.395 123.855 177.395C124.317 177.28 124.829 177.472 124.983 177.817C125.137 178.162 124.88 178.545 124.419 178.66C124.393 178.66 120.703 179.579 116.115 180.767C116.013 180.805 115.91 180.825 115.808 180.825Z" fill="#202D37"/>
<path d="M103.941 183.967C103.582 183.967 103.249 183.813 103.121 183.545C102.942 183.2 103.147 182.817 103.608 182.664C104.889 182.262 106.094 181.898 107.17 181.553C108.606 181.112 110.22 180.633 111.938 180.116C112.399 179.982 112.911 180.154 113.091 180.499C113.27 180.844 113.04 181.227 112.578 181.361C110.861 181.859 109.272 182.357 107.837 182.798C106.76 183.124 105.556 183.507 104.274 183.909C104.172 183.947 104.044 183.967 103.941 183.967Z" fill="#202D37"/>
<path d="M91.7673 187.836C91.4085 187.836 91.1009 187.683 90.9472 187.434C90.7421 187.089 90.9472 186.706 91.4085 186.553C93.9202 185.729 96.765 184.829 99.6355 183.928C100.097 183.775 100.609 183.947 100.814 184.292C101.02 184.637 100.789 185.02 100.328 185.173C97.457 186.074 94.6378 186.993 92.1261 187.798C91.998 187.817 91.8698 187.836 91.7673 187.836Z" fill="#202D37"/>
<path d="M81.7975 191.208C81.4643 191.208 81.1567 191.074 81.003 190.844C80.7723 190.518 80.9517 190.116 81.413 189.943C82.8995 189.388 85.4625 188.507 89.025 187.338C89.4863 187.185 89.9989 187.338 90.2039 187.683C90.409 188.028 90.2039 188.411 89.7426 188.564C86.2057 189.714 83.6941 190.595 82.2075 191.131C82.0538 191.189 81.9256 191.208 81.7975 191.208Z" fill="#202D37"/>
</svg>
