<svg width="442" height="274" viewBox="0 0 442 274" fill="none" xmlns="http://www.w3.org/2000/svg">
<path d="M159.76 12.5C159.76 65.2432 91.2119 139.5 36.2596 139.5C-41.2404 147 -55.2404 80.7432 -55.2404 28C-55.2404 -24.7432 -10.6928 -67.5 44.2596 -67.5C99.2119 -67.5 159.76 -67.5 159.76 12.5Z" fill="#BADBA2"/>
<path d="M244.579 61.5773C252.356 55.7641 252.356 46.339 244.579 40.5257C236.802 34.7125 224.193 34.7125 216.416 40.5257C208.639 46.339 208.639 55.7641 216.416 61.5773C224.193 67.3905 236.802 67.3905 244.579 61.5773Z" fill="white"/>
<path d="M378.304 167.768C376.305 175.068 372.743 182.06 367.899 188.593C335.503 232.331 246.723 255.972 201.717 220.089C195.259 214.936 189.697 209.591 184.981 204.111C169.552 186.141 163.376 166.791 165.298 148.457C166.861 133.552 173.781 119.337 185.417 107.095C190.03 102.229 195.413 97.6689 201.512 93.5116C285.321 36.1522 393.605 111.597 378.304 167.768Z" fill="#75FB4C"/>
<path d="M367.899 188.593C335.503 232.331 246.723 255.972 201.717 220.089C195.259 214.936 189.697 209.59 184.981 204.111C184.879 202.962 184.802 201.774 184.725 200.548C183.905 189.034 183.853 183.018 200.513 182.156C204.588 181.945 210.969 181.543 218.684 181.045C220.068 179.359 224.681 173.612 228.372 167.673C224.707 167.328 186.006 163.496 173.089 155.067C170.475 153.361 167.835 151.062 165.298 148.438C154.636 137.479 145.307 120.908 144 118.398C142.616 115.754 142.487 113.666 143.282 109.758C142.692 110.275 137.438 105.121 138.207 103.301C139.489 100.332 151.996 94.1054 158.967 93.4924C160.197 93.3774 163.683 97.9179 162.889 98.0329C167.246 98.4543 175.934 100.025 177.907 101.73C178.779 102.478 181.88 104.547 185.391 107.095C191.081 111.194 197.821 116.54 197.924 119.528C198.103 124.375 199.077 124.318 201.076 124.452C203.101 124.586 204.767 125.314 204.588 127.077C204.408 128.858 204.767 130.238 208.817 129.759C212.866 129.299 215.583 129.816 216.377 132.326C217.172 134.816 228.244 134.893 232.447 134.951C236.65 135.008 258.025 136.253 260.537 137.384C262.049 126.617 267.816 109.566 267.816 109.566C267.816 109.566 250.234 105.198 250.49 103.091C250.644 101.903 264.714 97.8221 273.89 95.2932C274.018 95.2549 279.554 95.753 282.527 94.8334C282.527 94.8334 277.632 104.834 293.343 108.895C293.343 108.895 293.548 110.85 294.675 110.965C295.444 111.041 296.597 110.581 297.11 108.761C297.341 107.938 297.443 106.826 297.341 105.37C297.341 105.37 297.443 105.37 297.648 105.37H297.674C300.262 105.39 302.697 105.581 304.722 105.907C307.541 106.367 309.515 107.133 309.925 108.148C310.566 109.7 309.002 111.52 302.723 112.229C300.365 117.574 300.724 122.249 302.979 122.498C305.465 122.785 306.414 122.172 307.618 121.521C308.823 120.869 309.771 124.184 304.722 126.693C300.775 128.647 295.829 129.395 291.959 127.479C290.985 132.671 289.934 138.514 289.139 143.84C290.933 143.859 317.28 156.408 324.405 159.224C329.019 161.063 338.245 165.278 345.242 171.313C360.466 170.68 364.9 171.542 366.54 180.413C366.925 182.099 367.386 184.972 367.899 188.593Z" fill="white"/>
<path d="M272.301 104.719C271.762 104.547 271.532 104.068 271.762 103.685L272.865 101.845C273.095 101.443 273.736 101.271 274.249 101.443C274.787 101.615 275.017 102.094 274.787 102.478L273.685 104.317C273.48 104.719 272.839 104.911 272.301 104.719Z" fill="#102126"/>
<path d="M278.759 106.903C278.221 106.73 277.991 106.251 278.221 105.868L279.323 104.029C279.554 103.627 280.195 103.454 280.707 103.627C281.245 103.799 281.476 104.278 281.245 104.661L280.143 106.5C279.913 106.903 279.298 107.075 278.759 106.903Z" fill="#102126"/>
<path d="M234.062 55.0992C233.652 55.8847 233.062 56.4594 232.345 56.8234C231.627 57.1874 230.704 57.3215 229.602 57.2449L228.5 59.314C228.474 59.3714 228.423 59.4098 228.346 59.4481C228.269 59.4672 228.193 59.4672 228.116 59.4481L224.476 58.3561C224.399 58.3369 224.348 58.2986 224.297 58.2411C224.271 58.1836 224.271 58.1262 224.297 58.0687L225.271 56.2295C224.604 55.9996 223.989 55.7889 223.477 55.559C223.4 55.5398 223.374 55.4823 223.349 55.4249C223.323 55.3674 223.323 55.3099 223.349 55.2524L224.809 53.1451C224.861 53.0876 224.912 53.0493 225.014 53.0301C225.117 53.0109 225.194 53.0301 225.271 53.0684C225.476 53.1642 225.681 53.2792 225.912 53.375C226.142 53.4707 226.424 53.6049 226.783 53.739C227.142 53.8922 227.475 54.0072 227.808 54.103C228.167 54.2179 228.474 54.2754 228.756 54.2754C229.038 54.2754 229.269 54.2371 229.423 54.1604C229.577 54.0838 229.705 54.0072 229.782 53.9305C229.858 53.8539 229.935 53.7773 229.961 53.7198C230.012 53.6432 230.012 53.5474 230.038 53.4516C230.038 53.3558 230.038 53.2217 229.987 53.0493C229.935 52.8768 229.807 52.6853 229.602 52.4745C229.372 52.2638 229.09 52.053 228.705 51.8615C228.269 51.6316 227.911 51.3634 227.577 51.0377C227.244 50.712 226.988 50.348 226.757 49.9457C226.552 49.5433 226.45 49.0835 226.45 48.5854C226.45 48.0873 226.604 47.57 226.86 47.0528C227.244 46.3248 227.808 45.7883 228.577 45.4435C229.32 45.0987 230.243 44.9454 231.294 44.9837L232.421 42.8572C232.447 42.7997 232.498 42.7614 232.601 42.723C232.678 42.7039 232.755 42.6847 232.831 42.723L236.471 43.8151C236.548 43.8342 236.599 43.8917 236.65 43.9492C236.676 44.0066 236.676 44.0833 236.65 44.1407L235.676 45.9799C236.317 46.1907 236.932 46.4206 237.547 46.6696C237.624 46.6888 237.65 46.7462 237.701 46.8037C237.727 46.8612 237.727 46.9187 237.675 46.9761L236.215 49.0835C236.163 49.141 236.112 49.1793 236.01 49.1985C235.907 49.2176 235.83 49.2176 235.753 49.1793C234.831 48.7195 233.959 48.3555 233.139 48.1065C232.806 47.9915 232.498 47.9341 232.216 47.9341C231.934 47.9341 231.704 47.9724 231.55 48.049C231.396 48.1256 231.268 48.2023 231.166 48.2789C231.089 48.3555 231.012 48.4322 230.986 48.4896C230.961 48.5663 230.935 48.6429 230.909 48.7387C230.909 48.8345 230.909 48.9686 230.961 49.141C231.012 49.3134 231.14 49.505 231.371 49.7158C231.601 49.9265 231.883 50.1372 232.268 50.3288C232.678 50.5587 233.062 50.8269 233.395 51.1526C233.729 51.4783 234.01 51.8423 234.215 52.2446C234.421 52.6469 234.523 53.1067 234.523 53.6049C234.472 54.0838 234.318 54.5819 234.062 55.0992Z" fill="#102126"/>
<path d="M228.218 59.7358C228.141 59.7358 228.039 59.7167 227.962 59.6975L224.322 58.6055C224.143 58.548 224.015 58.4522 223.938 58.3373C223.861 58.2032 223.861 58.0691 223.938 57.935L224.784 56.3448C224.245 56.1533 223.733 55.9617 223.297 55.7893C223.143 55.7318 223.041 55.6168 222.99 55.5019C222.938 55.3869 222.938 55.2528 223.015 55.1187C223.015 55.1187 223.015 55.0996 223.041 55.0996L224.502 52.9922C224.604 52.8581 224.758 52.7623 224.963 52.724C225.168 52.6856 225.348 52.724 225.527 52.8006C225.732 52.8964 225.937 53.0113 226.142 53.1071C226.347 53.2029 226.629 53.3179 226.988 53.4711C227.321 53.6052 227.654 53.7202 227.962 53.816C228.269 53.9118 228.551 53.9692 228.782 53.9692C229.038 53.9692 229.166 53.9309 229.218 53.8926C229.346 53.8351 229.448 53.7585 229.5 53.7202C229.576 53.6627 229.602 53.6052 229.628 53.5861C229.653 53.5478 229.679 53.4903 229.679 53.4136C229.679 53.3562 229.679 53.2604 229.628 53.0688C229.602 52.9922 229.525 52.8389 229.294 52.609C229.089 52.4174 228.833 52.2258 228.5 52.0534C228.039 51.8235 227.629 51.517 227.27 51.1721C226.911 50.8273 226.629 50.4441 226.398 50.0035C226.168 49.5629 226.04 49.0648 226.065 48.5283C226.065 47.9919 226.219 47.4363 226.527 46.8999C226.937 46.1144 227.577 45.5397 228.397 45.1565C229.141 44.8117 230.038 44.6392 231.063 44.6392L232.088 42.7043C232.165 42.5702 232.267 42.4744 232.447 42.4169C232.626 42.3594 232.806 42.3403 232.985 42.3977L236.625 43.4898C236.804 43.5472 236.932 43.643 237.009 43.7771C237.086 43.9112 237.086 44.0453 237.009 44.1794L236.163 45.7696C236.701 45.9611 237.214 46.1527 237.727 46.3443C237.88 46.4018 237.983 46.5167 238.06 46.6317C238.137 46.7658 238.111 46.919 238.009 47.0532L236.548 49.1605C236.445 49.2947 236.291 49.3713 236.112 49.4288C235.907 49.4671 235.702 49.4479 235.522 49.3521C234.625 48.9115 233.78 48.5475 232.985 48.2984C232.678 48.2026 232.421 48.1452 232.191 48.1452C231.986 48.1452 231.832 48.1643 231.729 48.2218C231.55 48.2984 231.473 48.3559 231.422 48.3942C231.37 48.4325 231.319 48.49 231.294 48.5283C231.268 48.5475 231.268 48.605 231.242 48.7008C231.242 48.7582 231.242 48.854 231.294 49.0264C231.319 49.1606 231.447 49.3138 231.627 49.4862C231.832 49.6778 232.088 49.8694 232.421 50.0418C232.857 50.2909 233.267 50.5782 233.626 50.9231C233.985 51.2679 234.267 51.6511 234.497 52.0917C234.728 52.5324 234.83 53.0305 234.83 53.5669C234.83 54.1033 234.677 54.6398 234.369 55.1953C233.908 56.0383 233.293 56.6514 232.524 57.0537C231.806 57.4177 230.884 57.571 229.807 57.5326L228.808 59.4101C228.731 59.5442 228.602 59.64 228.449 59.6975C228.397 59.7167 228.295 59.7358 228.218 59.7358ZM224.656 58.0882L228.167 59.1419L229.243 57.1303C229.294 57.0154 229.474 56.9387 229.628 56.9579C230.653 57.0345 231.499 56.9004 232.139 56.5939C232.78 56.2682 233.318 55.7318 233.703 55.0038C233.959 54.5248 234.087 54.0459 234.113 53.5861C234.113 53.1263 234.036 52.7048 233.831 52.3216C233.626 51.9385 233.37 51.5936 233.062 51.3063C232.754 50.9997 232.396 50.7507 232.011 50.5399C231.627 50.3292 231.294 50.0993 231.037 49.8694C230.781 49.6203 230.627 49.3904 230.576 49.1797C230.525 48.9881 230.499 48.8157 230.499 48.7008C230.499 48.5666 230.55 48.4517 230.602 48.3559C230.653 48.241 230.755 48.1452 230.858 48.0494C230.96 47.9536 231.114 47.877 231.319 47.7812C231.55 47.6662 231.857 47.6087 232.216 47.6087C232.549 47.6087 232.908 47.6662 233.293 47.8003C234.113 48.0494 234.984 48.4134 235.907 48.8732L237.291 46.8616C236.727 46.6317 236.112 46.4209 235.497 46.2102C235.317 46.1527 235.215 45.9803 235.292 45.8462L236.24 44.0453L232.703 42.9916L231.601 45.0799C231.55 45.1948 231.396 45.2715 231.217 45.2523C230.243 45.214 229.397 45.3672 228.731 45.6738C228.039 45.9803 227.526 46.4784 227.167 47.1298C226.911 47.6087 226.783 48.0877 226.783 48.5475C226.783 49.0073 226.86 49.4288 227.065 49.8119C227.27 50.1951 227.526 50.5399 227.834 50.8465C228.141 51.153 228.5 51.402 228.884 51.6128C229.295 51.8235 229.628 52.0534 229.858 52.2833C230.115 52.5324 230.268 52.7623 230.32 52.973C230.371 53.1646 230.397 53.3179 230.371 53.452C230.371 53.5861 230.32 53.701 230.268 53.816C230.217 53.9118 230.14 54.0076 230.012 54.1033C229.91 54.1991 229.756 54.2949 229.576 54.3907C229.346 54.5057 229.038 54.5631 228.705 54.5631C228.372 54.5631 228.013 54.4865 227.603 54.3716C227.27 54.2758 226.911 54.1417 226.552 53.9884C226.193 53.8351 225.886 53.7202 225.655 53.6052C225.45 53.5094 225.245 53.4136 225.066 53.3179L223.682 55.3295C224.169 55.5402 224.758 55.7509 225.399 55.9617C225.578 56.0191 225.681 56.1916 225.604 56.3257L224.656 58.0882Z" fill="#102126"/>
<path d="M388.248 96.1745C388.556 96.5385 388.684 96.8834 388.658 97.2091C388.633 97.5348 388.428 97.8605 388.069 98.167L388.863 99.1249C388.889 99.144 388.889 99.1824 388.889 99.2207C388.889 99.259 388.863 99.2782 388.812 99.2973L387.121 100.083C387.095 100.102 387.044 100.102 386.992 100.102C386.941 100.102 386.916 100.083 386.89 100.044L386.198 99.2015C385.865 99.3356 385.583 99.4506 385.301 99.5464C385.275 99.5655 385.224 99.5655 385.198 99.5464C385.147 99.5272 385.122 99.5081 385.096 99.4889L384.404 98.416C384.378 98.3777 384.378 98.3586 384.404 98.3203C384.43 98.2819 384.455 98.2628 384.506 98.2628C384.635 98.2245 384.737 98.2053 384.865 98.167C384.993 98.1287 385.147 98.0712 385.327 98.0137C385.506 97.9562 385.685 97.8796 385.839 97.8221C385.993 97.7455 386.121 97.6689 386.224 97.5922C386.3 97.5156 386.352 97.4198 386.352 97.3623C386.352 97.2857 386.352 97.2282 386.326 97.1899C386.3 97.1324 386.3 97.0941 386.275 97.075C386.249 97.0367 386.198 96.9983 386.147 96.9792C386.095 96.9409 386.019 96.9025 385.916 96.8642C385.814 96.8259 385.66 96.8068 385.48 96.8068C385.301 96.8068 385.096 96.8451 384.891 96.8834C384.635 96.9409 384.378 96.9792 384.096 96.9792C383.814 96.9792 383.532 96.96 383.251 96.9026C382.969 96.8451 382.687 96.7493 382.43 96.5769C382.148 96.4236 381.918 96.232 381.738 95.983C381.456 95.6573 381.354 95.3124 381.38 94.9867C381.431 94.6611 381.61 94.3354 381.943 94.0288L381.149 93.0518C381.123 93.0326 381.123 92.9943 381.123 92.956C381.123 92.9177 381.149 92.8985 381.2 92.8793L382.892 92.0939C382.917 92.0747 382.969 92.0747 383.02 92.0747C383.071 92.0747 383.097 92.0939 383.122 92.1322L383.814 92.9751C384.122 92.841 384.43 92.7261 384.737 92.6111C384.763 92.592 384.814 92.592 384.865 92.6111C384.916 92.6111 384.942 92.6303 384.968 92.6686L385.66 93.7415C385.685 93.7798 385.685 93.7989 385.66 93.8373C385.634 93.8756 385.608 93.8947 385.583 93.8947C385.045 94.0288 384.583 94.1821 384.199 94.3545C384.045 94.4312 383.917 94.5078 383.84 94.5844C383.763 94.6611 383.712 94.7568 383.712 94.8335C383.712 94.9101 383.712 94.9676 383.712 95.0059C383.738 95.0442 383.738 95.1017 383.763 95.1208C383.789 95.1592 383.84 95.1783 383.891 95.2166C383.943 95.255 384.019 95.2933 384.122 95.3124C384.224 95.3507 384.378 95.3699 384.558 95.3699C384.737 95.3699 384.942 95.3316 385.147 95.2933C385.403 95.2358 385.66 95.1975 385.942 95.1975C386.224 95.1975 386.506 95.2166 386.787 95.2741C387.069 95.3316 387.351 95.4465 387.608 95.5998C387.838 95.7531 388.069 95.9446 388.248 96.1745Z" fill="#102126"/>
<path d="M387.044 100.351C386.993 100.351 386.967 100.351 386.916 100.332C386.788 100.312 386.659 100.236 386.583 100.14L386.07 99.5269C385.865 99.6036 385.66 99.6802 385.455 99.7568C385.327 99.7952 385.199 99.7952 385.07 99.776C384.942 99.7377 384.84 99.6802 384.763 99.6036C384.763 99.6036 384.763 99.5844 384.737 99.5844L384.045 98.5116C383.968 98.3966 383.968 98.2817 384.02 98.1859C384.071 98.0709 384.199 97.9943 384.353 97.956C384.455 97.9368 384.583 97.8985 384.686 97.8602C384.814 97.8219 384.942 97.7836 385.122 97.7069C385.301 97.6495 385.455 97.592 385.583 97.5153C385.711 97.4579 385.814 97.4004 385.865 97.3429C385.916 97.2854 385.916 97.2663 385.916 97.2663C385.916 97.2088 385.916 97.1705 385.916 97.1705C385.916 97.1513 385.891 97.1322 385.891 97.1322C385.891 97.1322 385.891 97.113 385.839 97.0939C385.839 97.0939 385.788 97.0555 385.686 97.0172C385.66 97.0172 385.609 96.9981 385.429 96.9981C385.275 96.9981 385.122 97.0172 384.942 97.0747C384.66 97.1513 384.353 97.1897 384.045 97.1897C383.738 97.1897 383.43 97.1513 383.097 97.0939C382.764 97.0364 382.431 96.9023 382.123 96.7299C381.815 96.5574 381.559 96.3275 381.329 96.0593C381.021 95.6762 380.867 95.2738 380.918 94.8907C380.97 94.565 381.123 94.2393 381.405 93.9328L380.739 93.1281C380.662 93.0323 380.637 92.9366 380.662 92.8408C380.688 92.7258 380.79 92.63 380.918 92.5726L382.61 91.7871C382.738 91.7296 382.892 91.7104 383.02 91.7296C383.174 91.7488 383.276 91.8254 383.353 91.902L383.866 92.5151C384.071 92.4384 384.276 92.3618 384.507 92.2852C384.635 92.2469 384.763 92.2469 384.891 92.266C385.045 92.3043 385.173 92.381 385.224 92.4768L385.916 93.5496C385.993 93.6454 385.993 93.7604 385.942 93.8753C385.891 93.9903 385.762 94.086 385.609 94.1244C385.122 94.2585 384.686 94.4117 384.327 94.565C384.199 94.6225 384.122 94.6608 384.071 94.7183C384.02 94.7566 384.02 94.7949 384.02 94.7949C384.02 94.8715 384.02 94.8907 384.02 94.9098C384.02 94.929 384.02 94.929 384.045 94.9482C384.045 94.9482 384.045 94.9673 384.071 94.9673C384.071 94.9673 384.122 94.9865 384.225 95.0248C384.25 95.0248 384.327 95.0439 384.481 95.0439C384.635 95.0439 384.789 95.0248 384.968 94.9673C385.25 94.9098 385.557 94.8715 385.865 94.8524C386.172 94.8524 386.506 94.8715 386.813 94.9482C387.146 95.0248 387.48 95.1397 387.787 95.3122C388.095 95.4846 388.351 95.7145 388.582 95.9827C388.915 96.4042 389.069 96.8065 389.043 97.1897C389.017 97.5153 388.838 97.841 388.53 98.1476L389.171 98.933C389.248 99.0288 389.274 99.1246 389.248 99.2396C389.222 99.3545 389.12 99.4312 389.017 99.4886L387.326 100.274C387.223 100.332 387.146 100.351 387.044 100.351ZM386.198 98.8756C386.326 98.8756 386.454 98.933 386.531 99.0097L387.121 99.7185L388.428 99.1246L387.762 98.32C387.685 98.205 387.685 98.0709 387.813 97.9751C388.12 97.7069 388.3 97.4579 388.325 97.1897C388.351 96.9214 388.223 96.6341 387.967 96.3275C387.787 96.1168 387.608 95.9444 387.377 95.8103C387.146 95.6762 386.916 95.5804 386.685 95.5421C386.429 95.4846 386.198 95.4654 385.967 95.4654C385.737 95.4654 385.506 95.5037 385.275 95.5421C385.019 95.5995 384.788 95.6379 384.558 95.6379C384.327 95.6379 384.122 95.6187 383.968 95.5612C383.84 95.5037 383.712 95.4654 383.635 95.408C383.558 95.3505 383.481 95.293 383.43 95.2355C383.379 95.1781 383.328 95.1014 383.328 95.0248C383.302 94.9482 383.302 94.8715 383.302 94.7757C383.302 94.6416 383.379 94.5075 383.507 94.3734C383.635 94.2585 383.789 94.1627 383.994 94.0669C384.327 93.9136 384.737 93.7795 385.199 93.6454L384.712 92.8982C384.481 92.9749 384.225 93.0707 383.994 93.1665C383.815 93.2431 383.584 93.2048 383.481 93.0707L382.892 92.3618L381.585 92.9557L382.277 93.7987C382.354 93.8945 382.354 94.0286 382.251 94.1244C381.969 94.3926 381.815 94.6608 381.764 94.929C381.739 95.1972 381.815 95.4654 382.072 95.7528C382.251 95.9635 382.456 96.136 382.687 96.2701C382.918 96.4042 383.148 96.5 383.379 96.5383C383.635 96.5958 383.866 96.6149 384.122 96.6149C384.353 96.6149 384.583 96.5958 384.788 96.5383C385.045 96.4808 385.275 96.4425 385.506 96.4425C385.737 96.4425 385.942 96.4616 386.096 96.5191C386.224 96.5766 386.326 96.6149 386.403 96.6724C386.48 96.7299 386.557 96.7873 386.608 96.8448C386.659 96.9023 386.685 96.9789 386.711 97.0555C386.736 97.1322 386.736 97.2088 386.736 97.3046C386.736 97.4387 386.659 97.5728 386.531 97.7069C386.403 97.8219 386.249 97.9177 386.044 98.0135C385.891 98.0901 385.711 98.1476 385.506 98.2242C385.301 98.2817 385.147 98.3391 385.019 98.3775C384.968 98.3966 384.917 98.3966 384.891 98.4158L385.378 99.1821C385.583 99.1055 385.814 99.0097 386.044 98.9139C386.07 98.8947 386.147 98.8756 386.198 98.8756ZM385.404 93.5879C385.404 93.6071 385.404 93.6071 385.404 93.5879C385.404 93.6071 385.404 93.6071 385.404 93.5879Z" fill="#102126"/>
<path d="M384.609 105.773C380.688 105.773 375.716 103.781 372.076 95.4085C369.052 88.4158 358.237 73.7598 344.192 73.0127C343.807 72.9935 343.474 72.7828 343.371 72.4954C343.269 72.208 343.448 71.9207 343.782 71.7674C344.679 71.3459 365.669 61.6519 371.103 60.5791C374.024 60.0043 377.254 60.9047 380.483 63.1846C383.482 65.3111 386.326 68.5488 388.736 72.5529C391.58 77.3041 394.784 82.2086 398.911 85.8486C404.062 90.3699 409.239 91.6918 414.801 89.891C415.108 89.7952 415.493 89.8335 415.749 90.0059C416.005 90.1783 416.108 90.4465 416.005 90.6956C413.263 97.6308 391.017 105.16 385.916 105.716C385.455 105.754 385.045 105.773 384.609 105.773ZM346.831 71.959C353.905 73.1085 359.672 77.2849 363.388 80.7909C368.642 85.7145 372.179 91.3661 373.768 94.987C376.69 101.731 380.688 104.892 385.609 104.374C389.863 103.915 408.778 97.5159 413.442 91.6535C399.833 94.4697 390.965 79.6222 387.07 73.1085C382.508 65.4644 376.28 60.9622 371.564 61.901C367.361 62.7248 352.419 69.4109 346.831 71.959Z" fill="#102126"/>
<path d="M366.976 69.89C366.643 69.89 366.335 69.7559 366.182 69.526C365.951 69.2004 366.13 68.798 366.566 68.6256C366.592 68.6065 370.334 67.1504 375.075 65.3687C375.511 65.1963 376.049 65.3304 376.28 65.6561C376.51 65.9818 376.331 66.3841 375.895 66.5565C371.179 68.3574 367.438 69.7943 367.412 69.8134C367.258 69.8709 367.104 69.89 366.976 69.89Z" fill="#102126"/>
<path d="M366.259 74.2585C365.977 74.2585 365.721 74.1627 365.541 73.9903C365.259 73.6837 365.336 73.2623 365.746 73.0515C367.335 72.1894 372.538 70.197 377.869 68.4344C378.33 68.2811 378.843 68.4344 379.048 68.7793C379.253 69.1241 379.048 69.5073 378.587 69.6605C373.435 71.3656 368.258 73.3197 366.797 74.1244C366.643 74.201 366.438 74.2585 366.259 74.2585Z" fill="#102126"/>
<path d="M373.025 78.3767C372.718 78.3767 372.436 78.2618 372.256 78.0511C372 77.7445 372.128 77.323 372.538 77.1315C372.589 77.1123 377.356 74.9091 380.919 73.5106C381.355 73.3382 381.893 73.4723 382.124 73.798C382.354 74.1236 382.175 74.526 381.739 74.6984C378.253 76.0586 373.512 78.2426 373.461 78.2618C373.358 78.3384 373.179 78.3767 373.025 78.3767Z" fill="#102126"/>
<path d="M377.177 83.7023C376.895 83.7023 376.613 83.6065 376.459 83.434C376.177 83.1275 376.254 82.706 376.664 82.4953C376.69 82.4761 379.97 80.7136 383.046 79.2576C383.456 79.066 384.02 79.1426 384.276 79.4683C384.532 79.7748 384.43 80.1963 383.994 80.3879C380.944 81.8248 377.741 83.5681 377.689 83.5873C377.561 83.6639 377.356 83.7023 377.177 83.7023Z" fill="#102126"/>
<path d="M390.402 183.899C389.915 183.899 389.505 183.612 389.505 183.248C389.505 183.21 389.505 183.114 389.479 182.999C388.941 178.19 389.556 177.003 390.658 176.677C392.093 176.255 397.219 176.16 398.244 176.14C398.244 176.14 398.244 176.14 398.27 176.14C398.757 176.14 399.167 176.428 399.167 176.792C399.167 177.156 398.782 177.462 398.296 177.481C396.143 177.52 392.478 177.654 391.427 177.884C391.273 178.075 390.863 178.995 391.299 182.865C391.324 183.095 391.324 183.152 391.324 183.21C391.299 183.593 390.889 183.899 390.402 183.899Z" fill="white"/>
<path d="M440.328 183.248C440.302 183.248 440.277 183.248 440.251 183.248C439.764 183.21 439.38 182.884 439.431 182.52C439.585 181.179 439.738 178.823 439.482 178.095C438.969 177.769 436.253 177.481 433.562 177.481C433.075 177.481 432.665 177.175 432.665 176.811C432.665 176.447 433.075 176.14 433.562 176.14C436.765 176.14 440.661 176.409 441.174 177.654C441.635 178.765 441.276 182.003 441.199 182.635C441.174 182.999 440.789 183.248 440.328 183.248Z" fill="white"/>
<path d="M437.047 209.514C435.663 209.514 434.382 209.38 433.946 209.322C433.459 209.265 433.126 208.92 433.203 208.556C433.28 208.192 433.741 207.943 434.228 208C436.893 208.307 439.354 208.154 439.61 207.809C439.738 206.334 439.61 203.575 439.61 203.537C439.584 203.173 439.969 202.847 440.481 202.847C440.968 202.847 441.404 203.115 441.404 203.498C441.404 203.613 441.532 206.353 441.404 207.905C441.378 208.288 441.122 208.633 440.686 208.901C439.892 209.38 438.431 209.514 437.047 209.514Z" fill="white"/>
<path d="M397.475 209.897C396.553 209.897 393.4 209.859 392.324 209.418C391.939 209.265 390.888 208.843 390.888 203.517C390.888 203.153 391.299 202.847 391.785 202.847C392.272 202.847 392.683 203.153 392.683 203.517C392.683 205.433 392.913 207.732 393.272 208.269C393.887 208.441 395.861 208.537 397.475 208.537C397.962 208.537 398.372 208.843 398.372 209.207C398.372 209.571 397.988 209.897 397.475 209.897Z" fill="white"/>
<path d="M405.369 192.712C403.191 192.712 400.807 192.674 399.603 192.539C399.167 192.482 398.424 192.405 398.244 191.888C397.783 190.604 397.732 186.16 400.372 183.669C402.063 182.079 406.113 181.696 412.443 182.501C412.597 182.52 412.725 182.539 412.776 182.539C413.109 182.558 413.391 182.692 413.545 182.922C413.648 183.075 413.904 183.439 413.878 187.52C413.853 191.62 413.596 191.907 413.468 192.06C413.186 192.386 413.007 192.616 407.112 192.693C406.574 192.712 405.984 192.712 405.369 192.712ZM399.885 191.218C401.832 191.447 409.854 191.428 411.93 191.198C412.11 189.857 412.135 185.202 411.982 183.823C404.729 182.903 402.473 183.861 401.781 184.512C399.731 186.428 399.628 189.915 399.885 191.218ZM412.725 182.558H412.751H412.725Z" fill="#102126"/>
<path d="M407.701 190.011H406.189C405.292 190.011 404.549 189.456 404.549 188.785V187.981C404.549 187.31 405.292 186.754 406.189 186.754H407.701C408.598 186.754 409.342 187.31 409.342 187.981V188.785C409.342 189.475 408.598 190.011 407.701 190.011Z" fill="#102126"/>
<path d="M407.701 190.298H406.189C405.062 190.298 404.165 189.627 404.165 188.784V187.98C404.165 187.137 405.062 186.466 406.189 186.466H407.701C408.829 186.466 409.726 187.137 409.726 187.98V188.784C409.726 189.627 408.803 190.298 407.701 190.298ZM406.189 187.06C405.497 187.06 404.933 187.482 404.933 187.999V188.804C404.933 189.321 405.497 189.742 406.189 189.742H407.701C408.393 189.742 408.957 189.321 408.957 188.804V187.999C408.957 187.482 408.393 187.06 407.701 187.06H406.189Z" fill="#102126"/>
<path d="M407.701 202.195H406.189C405.292 202.195 404.549 201.64 404.549 200.969V200.165C404.549 199.494 405.292 198.938 406.189 198.938H407.701C408.598 198.938 409.342 199.494 409.342 200.165V200.969C409.342 201.64 408.598 202.195 407.701 202.195Z" fill="#102126"/>
<path d="M407.701 202.483H406.189C405.062 202.483 404.165 201.812 404.165 200.969V200.165C404.165 199.322 405.062 198.651 406.189 198.651H407.701C408.829 198.651 409.726 199.322 409.726 200.165V200.969C409.726 201.812 408.803 202.483 407.701 202.483ZM406.189 199.226C405.497 199.226 404.933 199.648 404.933 200.165V200.969C404.933 201.487 405.497 201.908 406.189 201.908H407.701C408.393 201.908 408.957 201.487 408.957 200.969V200.165C408.957 199.648 408.393 199.226 407.701 199.226H406.189Z" fill="#102126"/>
<path d="M425.052 189.417H423.54C422.643 189.417 421.9 188.861 421.9 188.191V187.386C421.9 186.715 422.643 186.16 423.54 186.16H425.052C425.949 186.16 426.693 186.715 426.693 187.386V188.191C426.693 188.861 425.949 189.417 425.052 189.417Z" fill="#102126"/>
<path d="M425.053 189.704H423.54C422.413 189.704 421.516 189.034 421.516 188.191V187.386C421.516 186.543 422.413 185.873 423.54 185.873H425.053C426.18 185.873 427.077 186.543 427.077 187.386V188.191C427.077 189.015 426.155 189.704 425.053 189.704ZM423.54 186.448C422.848 186.448 422.285 186.869 422.285 187.386V188.191C422.285 188.708 422.848 189.13 423.54 189.13H425.053C425.745 189.13 426.308 188.708 426.308 188.191V187.386C426.308 186.869 425.745 186.448 425.053 186.448H423.54Z" fill="#102126"/>
<path d="M425.052 202.195H423.54C422.643 202.195 421.9 201.64 421.9 200.969V200.165C421.9 199.494 422.643 198.938 423.54 198.938H425.052C425.949 198.938 426.693 199.494 426.693 200.165V200.969C426.693 201.64 425.949 202.195 425.052 202.195Z" fill="#102126"/>
<path d="M425.053 202.483H423.54C422.413 202.483 421.516 201.812 421.516 200.969V200.165C421.516 199.322 422.413 198.651 423.54 198.651H425.053C426.18 198.651 427.077 199.322 427.077 200.165V200.969C427.077 201.812 426.155 202.483 425.053 202.483ZM423.54 199.226C422.848 199.226 422.285 199.648 422.285 200.165V200.969C422.285 201.487 422.848 201.908 423.54 201.908H425.053C425.745 201.908 426.308 201.487 426.308 200.969V200.165C426.308 199.648 425.745 199.226 425.053 199.226H423.54Z" fill="#102126"/>
<path d="M424.31 192.961C422.131 192.961 419.748 192.885 418.62 192.693C417.595 192.521 417.39 192.099 417.415 191.793C417.415 191.639 417.441 191.16 417.441 190.547C417.595 182.712 417.825 182.539 418.261 182.252C419.184 181.639 425.13 181.562 428.59 182.846C430.768 183.65 431.717 185.968 432.152 187.788C432.537 189.494 432.614 191.543 432.306 192.08C432.101 192.444 431.87 192.827 425.976 192.923C425.437 192.942 424.873 192.961 424.31 192.961ZM419.184 191.409C421.157 191.697 428.769 191.658 430.64 191.352C430.768 190.049 430.333 185.011 427.77 184.053C425.078 183.056 420.824 183.095 419.568 183.267C419.337 184.455 419.235 188.995 419.209 190.566C419.209 190.911 419.209 191.199 419.184 191.409Z" fill="#102126"/>
<path d="M410.085 208.058C406.804 208.058 401.063 207.579 399.218 204.399C397.552 201.525 398.398 196.717 398.962 196.084C399.218 195.778 399.5 195.452 403.959 195.356C406.215 195.318 408.88 195.356 410.726 195.471C412.75 195.586 413.365 195.74 413.596 196.18C413.878 196.659 413.801 199.878 413.75 201.755C413.57 206.87 413.237 207.407 413.109 207.579C412.93 207.867 412.622 207.962 412.468 207.982C412.443 207.982 411.494 208.058 410.085 208.058ZM400.448 196.908C400.141 197.847 399.551 201.621 400.858 203.863C402.55 206.775 409.521 206.832 411.571 206.698C411.905 205.089 412.11 198.517 411.956 196.908C410.034 196.659 402.14 196.563 400.448 196.908Z" fill="#102126"/>
<path d="M418.466 199.609H418.44C417.953 199.59 417.543 199.283 417.569 198.919C417.594 198.287 417.594 197.75 417.594 197.291C417.594 196.007 417.594 195.528 418.056 195.183C418.389 194.934 418.466 194.877 427.154 194.992C427.641 194.992 428.051 195.298 428.026 195.681C428.026 196.045 427.616 196.333 427.129 196.333C427.129 196.333 427.129 196.333 427.103 196.333C424.079 196.294 420.696 196.275 419.388 196.294C419.363 196.563 419.363 196.927 419.363 197.291C419.363 197.75 419.363 198.306 419.337 198.957C419.337 199.321 418.953 199.609 418.466 199.609Z" fill="#102126"/>
<path d="M426.283 207.349C425.924 207.349 425.591 207.196 425.463 206.947C425.258 206.602 425.488 206.219 425.924 206.065C428.436 205.261 431.563 204.264 431.024 195.413C430.999 195.049 431.383 194.724 431.87 194.705C432.357 194.685 432.793 194.973 432.818 195.337C433.382 204.36 430.204 206.142 426.642 207.291C426.514 207.33 426.411 207.349 426.283 207.349Z" fill="#102126"/>
<path d="M420.183 207.771C418.594 207.771 417.928 207.656 417.646 207.196C417.467 206.908 417.441 206.429 417.415 204.073C417.415 203.575 417.39 203.019 417.39 202.445C417.39 202.081 417.774 201.774 418.261 201.755C418.748 201.755 419.158 202.042 419.184 202.406C419.184 202.981 419.209 203.537 419.209 204.054C419.235 204.973 419.235 205.912 419.286 206.41C419.927 206.449 421.132 206.429 421.721 206.41C422.054 206.41 422.336 206.391 422.541 206.391C423.028 206.391 423.438 206.698 423.438 207.062C423.438 207.426 423.028 207.732 422.541 207.732C422.362 207.732 422.106 207.732 421.772 207.751C421.157 207.771 420.619 207.771 420.183 207.771Z" fill="#102126"/>
<path d="M260.588 138.034C260.562 138.034 260.537 138.034 260.485 138.034C259.999 137.996 259.64 137.67 259.691 137.306C261.024 127.746 265.765 113.129 266.79 110.006C265.329 109.623 262.023 108.761 258.743 107.745C250.541 105.197 249.516 103.971 249.619 103.033C249.695 102.4 249.798 101.519 265.842 96.8636C273.531 94.6221 281.297 92.5722 281.373 92.553C281.835 92.4381 282.347 92.6105 282.527 92.9554C282.681 93.3002 282.45 93.6834 281.989 93.8175C268.123 97.4767 253.207 101.902 251.464 103.205C251.695 103.511 253.002 104.527 259.793 106.615C263.945 107.899 268.072 108.914 268.123 108.933C268.559 109.048 268.815 109.393 268.713 109.738C268.661 109.91 262.946 126.846 261.459 137.46C261.434 137.785 261.049 138.034 260.588 138.034Z" fill="#102126"/>
<path d="M279.528 117.134C279.042 117.134 278.631 116.827 278.631 116.463C278.631 116.099 279.042 115.793 279.528 115.793C283.911 115.793 286.474 114.337 286.705 111.693C286.73 111.329 287.166 111.041 287.653 111.06C288.14 111.08 288.524 111.405 288.499 111.769C288.191 115.122 284.834 117.134 279.528 117.134Z" fill="#102126"/>
<path d="M289.216 144.53C289.191 144.53 289.139 144.53 289.114 144.53C288.627 144.491 288.268 144.166 288.319 143.782C288.986 139.185 289.934 133.667 291.138 127.383C292.702 119.145 294.137 112.497 294.137 112.421C294.214 112.095 294.598 111.846 295.034 111.865C297.982 111.903 300.544 111.808 302.646 111.559C307.029 111.041 308.464 110.064 308.925 109.528C309.233 109.164 309.31 108.761 309.13 108.34C308.567 106.941 302.364 105.715 294.06 106.118C293.573 106.137 293.138 105.869 293.112 105.485C293.086 105.121 293.445 104.796 293.958 104.777C301.339 104.432 309.771 105.275 310.873 107.957C311.206 108.761 311.053 109.547 310.463 110.256C309.361 111.559 306.849 112.459 302.954 112.9C300.929 113.13 298.545 113.244 295.803 113.225C295.419 115.007 294.214 120.754 292.933 127.594C291.754 133.859 290.805 139.357 290.139 143.936C290.062 144.281 289.678 144.53 289.216 144.53Z" fill="#102126"/>
<path d="M295.675 109.547C295.239 109.547 294.855 109.298 294.778 108.972C294.701 108.608 295.06 108.263 295.547 108.225C299.161 107.861 303.21 107.995 303.389 108.014C303.876 108.033 304.261 108.34 304.235 108.723C304.21 109.087 303.774 109.374 303.287 109.355C303.236 109.355 299.238 109.202 295.778 109.566C295.752 109.547 295.726 109.547 295.675 109.547Z" fill="#102126"/>
<path d="M294.316 94.4698C294.316 94.4698 300.647 92.2858 305.363 96.2132C310.847 100.83 304.927 105.735 304.799 105.888C301.313 105.371 297.418 105.352 297.418 105.352C297.802 110.026 295.239 110.754 294.137 110.639C293.009 110.524 293.419 108.877 293.419 108.877C277.708 104.815 282.604 94.8147 282.604 94.8147C279.631 95.7343 274.095 95.2362 273.967 95.2745C275.761 88.4159 290.267 89.2397 294.316 94.4698Z" fill="#102126"/>
<path d="M294.342 111.328C294.214 111.328 294.112 111.328 293.983 111.309C293.522 111.252 293.138 111.079 292.881 110.811C292.471 110.39 292.42 109.796 292.446 109.355C287.525 107.976 284.116 105.868 282.348 103.071C280.528 100.217 280.887 97.3622 281.322 95.8104C278.734 96.2127 275.556 96.0403 274.351 95.9829C274.197 95.9829 274.069 95.9637 274.018 95.9637C273.787 95.9828 273.557 95.9254 273.377 95.8104C273.121 95.6572 273.019 95.4081 273.07 95.1782C273.839 92.3237 276.709 90.3695 280.964 89.8331C286.269 89.1626 292.01 90.8102 294.675 93.6647C296.598 93.2049 301.929 92.3428 306.029 95.7913C311.309 100.236 307.003 104.93 305.542 106.271L305.491 106.309C305.286 106.52 304.927 106.616 304.594 106.577C302.236 106.232 299.673 106.117 298.315 106.06C298.366 108.244 297.751 109.796 296.469 110.677C295.88 111.079 295.085 111.328 294.342 111.328ZM294.317 109.987C294.47 109.987 294.855 109.968 295.291 109.681C295.854 109.298 296.751 108.225 296.521 105.409C296.495 105.217 296.598 105.045 296.777 104.911C296.956 104.776 297.187 104.7 297.443 104.7C297.597 104.7 301.057 104.738 304.44 105.179C306.055 103.589 308.72 100.044 304.722 96.6725C300.519 93.1474 294.778 95.0633 294.727 95.0824C294.317 95.2357 293.804 95.1016 293.573 94.8142C291.497 92.1512 286.115 90.542 281.297 91.1359C279.426 91.3658 276.273 92.1321 275.12 94.6609C276.837 94.7376 280.246 94.8142 282.271 94.2012C282.604 94.1054 282.988 94.1628 283.245 94.3352C283.501 94.5268 283.578 94.795 283.475 95.0441C283.45 95.0824 281.681 98.8374 284.014 102.497C285.654 105.064 288.934 106.999 293.753 108.244C294.163 108.359 294.419 108.666 294.342 109.01C294.214 109.374 294.214 109.815 294.317 109.987Z" fill="#102126"/>
<path d="M304.799 126.693C300.852 128.647 295.906 129.394 292.036 127.478C293.625 119.145 295.034 112.535 295.034 112.535C298.187 112.573 300.75 112.459 302.8 112.209C300.442 117.555 300.801 122.229 303.056 122.478C305.542 122.766 306.491 122.153 307.695 121.501C308.9 120.888 309.823 124.183 304.799 126.693Z" fill="#102126"/>
<path d="M297.162 129.28C295.137 129.28 293.215 128.877 291.549 128.053C291.267 127.919 291.113 127.651 291.165 127.402C292.728 119.164 294.163 112.516 294.163 112.44C294.24 112.114 294.625 111.865 295.06 111.884C298.008 111.922 300.571 111.827 302.672 111.577C302.98 111.539 303.287 111.635 303.492 111.807C303.697 111.98 303.749 112.229 303.672 112.459C301.775 116.769 301.775 120.371 302.749 121.559C302.903 121.731 303.057 121.846 303.21 121.865C305.158 122.095 305.927 121.693 306.952 121.137L307.209 121.003C307.644 120.773 308.131 120.735 308.593 120.888C309.156 121.08 309.515 121.578 309.592 122.229C309.72 123.513 308.669 125.62 305.338 127.287C302.595 128.609 299.776 129.28 297.162 129.28ZM293.01 127.153C296.162 128.494 300.34 128.13 304.312 126.157C306.952 124.854 307.567 123.436 307.696 122.9C307.747 122.67 307.772 122.478 307.747 122.344C306.645 122.938 305.44 123.475 302.903 123.187C302.416 123.13 301.75 122.919 301.186 122.268C299.853 120.658 300.007 116.961 301.519 113.053C299.827 113.187 297.905 113.263 295.778 113.244C295.419 114.968 294.266 120.505 293.01 127.153Z" fill="#102126"/>
<path d="M90.7418 77.7062C87.7688 77.7062 84.4882 77.5721 81.0539 77.4188C78.7216 77.323 76.2868 77.2273 73.9033 77.1698C73.4163 77.1506 73.0319 76.8441 73.0319 76.4801C73.0575 76.1161 73.4676 75.8096 73.9545 75.8287C76.3637 75.8862 78.7985 75.982 81.1308 76.0969C91.28 76.5184 100.891 76.9207 101.865 73.5489C101.993 73.1083 102.147 72.5527 102.326 71.9205C105.248 61.5751 108.477 50.7699 110.22 48.9499C113.039 45.9804 125.29 48.4135 126.674 48.7008C127.161 48.7966 127.443 49.1606 127.289 49.5246C127.161 49.8886 126.674 50.0994 126.187 49.9844C121.42 49.0074 113.244 48.0495 111.655 49.7354C109.913 51.5746 105.658 66.5562 104.069 72.2078C103.89 72.8401 103.736 73.3956 103.608 73.8363C102.736 76.959 97.6361 77.7062 90.7418 77.7062Z" fill="#102126"/>
<path d="M82.1741 81.099C83.6054 80.0292 83.6054 78.2946 82.1741 77.2247C80.7429 76.1548 78.4223 76.1548 76.9911 77.2247C75.5598 78.2946 75.5598 80.0292 76.9911 81.099C78.4223 82.1689 80.7429 82.1689 82.1741 81.099Z" fill="#102126"/>
<path d="M79.5933 82.2087C77.3635 82.2087 75.5438 80.8485 75.5438 79.1818C75.5438 77.515 77.3635 76.1548 79.5933 76.1548C81.823 76.1548 83.6427 77.515 83.6427 79.1818C83.6427 80.8485 81.823 82.2087 79.5933 82.2087ZM79.5933 76.7104C77.7736 76.7104 76.3127 77.8215 76.3127 79.1626C76.3127 80.5228 77.7992 81.6148 79.5933 81.6148C81.413 81.6148 82.8739 80.5037 82.8739 79.1626C82.8739 77.8215 81.413 76.7104 79.5933 76.7104Z" fill="#102126"/>
<path d="M95.6113 82.1699C97.6354 82.1699 99.2763 80.9433 99.2763 79.4303C99.2763 77.9172 97.6354 76.6907 95.6113 76.6907C93.5872 76.6907 91.9463 77.9172 91.9463 79.4303C91.9463 80.9433 93.5872 82.1699 95.6113 82.1699Z" fill="#102126"/>
<path d="M95.6113 82.457C93.3816 82.457 91.5619 81.0968 91.5619 79.4301C91.5619 77.7633 93.3816 76.4031 95.6113 76.4031C97.8411 76.4031 99.6608 77.7633 99.6608 79.4301C99.6608 81.0968 97.8411 82.457 95.6113 82.457ZM95.6113 76.9587C93.7916 76.9587 92.3308 78.0698 92.3308 79.4109C92.3308 80.7711 93.8173 81.8631 95.6113 81.8631C97.4054 81.8631 98.8919 80.752 98.8919 79.4109C98.8919 78.0698 97.4054 76.9587 95.6113 76.9587Z" fill="#102126"/>
<path d="M73.2112 69.5255C72.878 69.5255 72.5448 69.5255 72.2372 69.5255C71.7503 69.5255 71.3402 69.219 71.3402 68.855C71.3402 68.4909 71.7503 68.1844 72.2372 68.1844C80.4387 68.2227 103.992 67.7821 104.223 67.7629C104.71 67.7629 105.12 68.0503 105.145 68.4143C105.145 68.7783 104.761 69.0848 104.274 69.104C104.043 69.1232 82.1815 69.5255 73.2112 69.5255Z" fill="#102126"/>
<path d="M108.529 55.3295C107.016 55.3295 71.7503 55.1379 65.0097 54.6589C64.5228 54.6206 64.164 54.2949 64.1896 53.9309C64.2408 53.5669 64.6765 53.2987 65.1635 53.3179C71.8015 53.7968 108.144 53.9884 108.529 53.9884C109.016 53.9884 109.426 54.2949 109.426 54.6589C109.426 55.0229 109.041 55.3295 108.529 55.3295Z" fill="#102126"/>
<path d="M74.0318 69.3144C73.7755 69.3144 73.4936 69.2187 73.3398 69.0654C71.3151 67.1687 66.3942 58.8541 66.3942 54.1029C66.3942 53.7389 66.8043 53.4324 67.2913 53.4324C67.7782 53.4324 68.1883 53.7389 68.1883 54.1029C68.1883 58.4326 72.9554 66.5365 74.7494 68.2416C75.057 68.529 74.9801 68.9504 74.5957 69.1803C74.4419 69.2761 74.2368 69.3144 74.0318 69.3144Z" fill="#102126"/>
<path d="M88.0764 62.1497C82.643 62.1497 76.3381 62.1497 69.6232 62.1497C69.1363 62.1497 68.7262 61.8431 68.7262 61.4791C68.7262 61.1151 69.1363 60.8086 69.6232 60.8086C89.6398 60.8278 106.145 60.8086 106.325 60.8086C106.812 60.8086 107.222 61.1151 107.222 61.4791C107.222 61.8431 106.812 62.1497 106.325 62.1497C106.196 62.1497 98.8665 62.1497 88.0764 62.1497Z" fill="#102126"/>
<path d="M81.8483 69.3147C81.4382 69.3147 81.0538 69.0848 80.9769 68.7783C79.7723 63.9888 80.413 54.7737 80.4387 54.3714C80.4643 54.0074 80.8744 53.72 81.387 53.7392C81.8739 53.7583 82.2584 54.084 82.2327 54.448C82.2327 54.5438 81.5664 63.893 82.7453 68.5292C82.8478 68.8932 82.5146 69.2381 82.0277 69.3147C81.9508 69.3147 81.8995 69.3147 81.8483 69.3147Z" fill="#102126"/>
<path d="M94.7913 69.1038C94.33 69.1038 93.9199 68.8356 93.8943 68.4908C93.8943 68.4333 93.2792 61.9196 94.4069 54.4862C94.4582 54.1222 94.9195 53.854 95.4065 53.8923C95.8934 53.9306 96.2522 54.2755 96.201 54.6395C95.0733 61.9387 95.6884 68.3375 95.6884 68.395C95.714 68.759 95.3552 69.0847 94.8682 69.1038C94.8426 69.1038 94.817 69.1038 94.7913 69.1038Z" fill="#102126"/>
<path d="M311.668 235.357C311.129 235.357 310.617 235.319 310.156 235.262C309.669 235.204 309.335 234.859 309.412 234.495C309.489 234.131 309.951 233.882 310.437 233.94C313.59 234.304 320.407 233.461 330.89 223.556C350.727 204.819 356.442 194.129 352.675 182.692C348.625 170.392 329.736 162.078 324.047 159.817C321.048 158.629 314.846 155.813 308.259 152.805C300.365 149.223 290.575 144.778 289.165 144.51C288.883 144.529 288.319 144.701 287.704 144.912C285.269 145.697 280.707 147.173 272.531 145.659C264.766 144.241 262.818 141.368 261.536 139.452C261.049 138.724 260.665 138.168 260.127 137.919C257.974 136.942 237.393 135.659 232.498 135.582H231.986C223.938 135.467 216.377 135.007 215.557 132.44C215.121 131.041 214.019 129.815 209.022 130.39C206.997 130.62 205.639 130.448 204.742 129.835C203.716 129.126 203.665 127.995 203.768 126.98C203.819 126.558 203.947 125.256 201.077 125.064L200.923 125.045C198.104 124.873 197.258 124.106 197.104 119.489C196.976 115.983 185.981 108.282 180.701 104.584C179.035 103.415 177.831 102.573 177.292 102.113C175.678 100.714 167.656 99.1241 162.837 98.6451C162.35 98.5876 161.992 98.2619 162.068 97.8979C162.145 97.5339 162.581 97.2657 163.068 97.3232C166.964 97.7064 176.318 99.239 178.651 101.251C179.112 101.653 180.368 102.534 181.931 103.626C190.056 109.316 198.77 115.715 198.898 119.47C198.975 121.577 199.206 122.803 199.616 123.321C199.846 123.608 200.077 123.666 201.077 123.723L201.23 123.742C204.126 123.934 205.741 125.179 205.562 127.095C205.459 128.072 205.587 128.608 205.972 128.857C206.407 129.164 207.356 129.221 208.765 129.068C210.585 128.857 216.095 128.244 217.326 132.133C217.403 132.402 218.069 133.283 222.964 133.8C226.142 134.145 229.833 134.203 232.063 134.222H232.575C235.651 134.26 258.179 135.429 261.101 136.751C262.075 137.191 262.587 137.938 263.177 138.82C264.381 140.601 266.047 143.054 272.993 144.318C280.605 145.717 284.629 144.414 287.038 143.628C287.96 143.341 288.627 143.111 289.268 143.13C290.395 143.149 294.983 145.161 309.233 151.617C315.794 154.606 321.996 157.422 324.944 158.591C330.813 160.909 350.24 169.492 354.469 182.328C358.39 194.225 352.598 205.222 332.351 224.341C322.945 233.231 316.102 235.357 311.668 235.357Z" fill="#102126"/>
<path d="M295.983 220.759C295.598 220.759 295.24 220.568 295.111 220.28C293.343 215.644 293.727 214.571 295.368 212.406C296.008 211.583 298.264 209.571 301.16 207.004C306.03 202.674 313.385 196.16 314.334 193.765C315.718 190.279 313.847 185.298 291.139 172.615C290.754 172.385 290.652 171.983 290.959 171.676C291.267 171.389 291.805 171.312 292.215 171.542C314.487 183.976 317.845 189.57 316.051 194.13C315 196.773 308.106 202.923 302.544 207.847C299.827 210.261 297.495 212.33 296.957 213.039C295.547 214.878 295.24 215.587 296.88 219.878C297.008 220.242 296.752 220.606 296.265 220.702C296.137 220.759 296.06 220.759 295.983 220.759Z" fill="#102126"/>
<path d="M228.397 168.343C228.372 168.343 228.321 168.343 228.295 168.343C223.964 167.941 185.571 164.071 172.551 155.584C158.019 146.101 143.359 118.934 143.231 118.666C141.795 115.927 141.616 113.685 142.513 109.47C142.59 109.106 143.051 108.857 143.538 108.915C144.025 108.972 144.358 109.317 144.282 109.681C143.436 113.666 143.564 115.658 144.897 118.187C145.025 118.455 159.505 145.296 173.73 154.588C186.339 162.826 224.245 166.619 228.526 167.021C229.013 167.06 229.371 167.404 229.294 167.768C229.243 168.094 228.833 168.343 228.397 168.343Z" fill="#102126"/>
<path d="M218.709 181.715C218.556 181.715 218.376 181.676 218.248 181.619C217.838 181.427 217.684 181.006 217.941 180.699C219.888 178.324 229.653 166.12 232.062 158.514C232.165 158.15 232.652 157.92 233.139 158.016C233.626 158.093 233.908 158.457 233.805 158.821C231.345 166.637 221.426 179.013 219.478 181.408C219.299 181.6 218.991 181.715 218.709 181.715Z" fill="#102126"/>
<path d="M304.748 238.423C304.158 238.423 302.928 238.423 296.264 232.427C294.163 230.53 289.959 226.564 289.754 225.971C289.037 223.921 293.881 220.568 295.393 219.591C295.598 219.457 295.854 219.399 296.11 219.438C296.367 219.457 296.597 219.572 296.726 219.725C299.904 223.327 308.643 232.944 310.822 234.151C311.027 234.266 311.155 234.419 311.181 234.611C311.206 234.802 311.129 234.975 310.976 235.109C310.36 235.665 307.182 238.423 304.748 238.423ZM291.472 225.568C291.83 226.047 294.496 228.71 297.623 231.546C303.082 236.469 304.543 237.025 304.773 237.082C305.824 237.044 307.695 235.818 309.028 234.745C305.85 232.293 298.135 223.748 295.803 221.124C293.445 222.752 291.318 224.783 291.472 225.568Z" fill="#102126"/>
<path d="M273.941 253.597C273.275 253.597 272.736 253.444 272.378 253.137C271.865 252.716 271.763 252.103 272.121 251.279C270.789 251.854 269.405 252.256 268.508 252.007C267.969 251.854 267.636 251.528 267.508 251.068C267.124 249.42 269.302 247.6 271.634 245.685C273.147 244.42 274.71 243.117 275.248 242.083C276.068 240.435 276.273 239.209 276.273 238.596C276.222 238.615 276.171 238.634 276.12 238.634C272.916 239.554 269.353 240.493 267.534 239.803C266.995 239.592 266.637 239.267 266.483 238.845C265.919 237.274 269.738 235.397 277.734 231.603C281.989 229.592 286.833 227.312 290.088 225.262C290.472 225.032 291.036 225.051 291.343 225.339C291.651 225.626 291.625 226.048 291.241 226.277C287.883 228.385 282.988 230.703 278.682 232.734C275.863 234.075 273.198 235.32 271.224 236.393C268.584 237.83 268.251 238.366 268.226 238.5C268.251 238.539 268.277 238.558 268.354 238.596C269.635 239.075 274.044 237.791 275.504 237.37C276.325 237.14 276.555 237.063 276.76 237.063C277.119 237.044 277.478 237.159 277.709 237.389C278.529 238.194 277.888 240.627 276.94 242.543C276.299 243.826 274.607 245.225 272.993 246.566C271.199 248.041 269.2 249.727 269.276 250.742C270.02 250.685 272.173 249.765 273.992 248.673C274.325 248.463 274.838 248.482 275.146 248.692C275.479 248.922 275.53 249.286 275.299 249.555C273.633 251.47 273.71 252.103 273.736 252.218C273.915 252.256 274.71 252.275 276.35 251.662C276.709 251.528 277.17 251.585 277.427 251.815C277.555 251.93 277.785 252.083 278.298 252.103C280.528 252.16 284.962 249.497 287.217 247.811C287.55 247.562 288.063 247.543 288.422 247.754C288.78 247.964 288.857 248.348 288.601 248.635C287.909 249.459 286.961 250.934 287.14 251.528V251.547C287.96 251.336 290.446 249.899 294.496 246.604C298.366 243.443 301.928 239.975 304.004 237.37C304.261 237.044 304.799 236.949 305.235 237.14C305.67 237.332 305.798 237.734 305.542 238.06C303.312 240.857 299.391 244.65 295.265 247.964C288.217 253.635 286.884 253.06 286.32 252.811C285.859 252.601 285.526 252.275 285.397 251.873C285.295 251.547 285.321 251.202 285.397 250.819C283.245 252.103 280.4 253.501 278.221 253.463C277.606 253.444 277.068 253.31 276.607 253.08C275.556 253.424 274.659 253.597 273.941 253.597Z" fill="#102126"/>
<path d="M274.531 249.879C274.275 249.879 274.018 249.803 273.839 249.65C273.506 249.362 273.557 248.941 273.941 248.711C277.581 246.373 281.323 243.232 281.963 242.331C282.194 242.005 282.732 241.871 283.168 242.063C283.604 242.235 283.783 242.638 283.527 242.963C282.707 244.094 278.76 247.37 275.069 249.726C274.941 249.841 274.736 249.879 274.531 249.879Z" fill="#102126"/>
<path d="M276.735 252.965C276.453 252.965 276.171 252.869 275.991 252.677C275.709 252.371 275.812 251.949 276.222 251.738C280.963 249.305 285.782 244.765 285.833 244.727C286.141 244.439 286.704 244.382 287.089 244.612C287.473 244.841 287.55 245.263 287.243 245.55C287.038 245.742 282.194 250.302 277.247 252.83C277.093 252.926 276.914 252.965 276.735 252.965Z" fill="#102126"/>
<path d="M287.807 248.979C287.602 248.979 287.397 248.922 287.217 248.807C286.833 248.558 286.807 248.136 287.14 247.868C287.679 247.389 288.294 246.834 288.576 246.546C288.755 246.374 289.319 245.837 290.011 246.22C290.293 246.374 290.575 246.757 290.19 247.178C290.165 247.217 290.114 247.255 290.062 247.274C290.037 247.293 290.011 247.312 289.985 247.351C289.678 247.638 289.088 248.232 288.499 248.73C288.319 248.903 288.063 248.979 287.807 248.979Z" fill="#102126"/>
<path d="M186.519 221.143C186.058 221.143 185.673 220.874 185.622 220.53C185.442 218.997 184.571 210.797 183.828 200.586C183.392 194.436 183.238 190.183 185.263 187.06C187.467 183.631 192.157 181.907 200.461 181.485C206.946 181.14 219.35 180.336 233.728 179.397C255.667 177.96 282.963 176.159 298.597 175.47C299.084 175.45 299.519 175.738 299.545 176.102C299.571 176.466 299.186 176.792 298.699 176.811C283.091 177.5 255.821 179.282 233.882 180.738C219.504 181.677 207.099 182.501 200.59 182.826C193.003 183.229 188.8 184.704 186.903 187.654C185.084 190.47 185.237 194.589 185.648 200.509C186.391 210.701 187.262 218.882 187.416 220.415C187.467 220.779 187.083 221.104 186.596 221.143C186.57 221.143 186.545 221.143 186.519 221.143Z" fill="#102126"/>
<path d="M188.39 248.826C184.597 248.826 182.341 248.137 181.368 246.757C177.959 241.815 178.471 227.982 179.753 223.653C181.111 219.055 185.955 219.668 189.492 220.108C189.774 220.147 190.03 220.185 190.312 220.204C193.798 220.626 210.149 218.48 216.377 217.311C220.017 216.622 223.22 216.143 225.45 217.273C226.988 218.039 227.885 219.457 228.321 221.718C228.987 225.339 229.602 231.182 230.089 238.577C230.32 242.274 227.27 243.041 218.428 244.305C216.301 244.612 213.43 245.167 210.124 245.819C204.613 246.892 198.36 248.098 193.055 248.635C191.261 248.75 189.723 248.826 188.39 248.826ZM181.496 223.921C180.163 228.442 180.009 241.853 182.957 246.125C183.572 247.006 185.776 247.926 192.773 247.236C197.975 246.719 204.178 245.531 209.637 244.458C212.994 243.807 215.89 243.251 218.069 242.926C227.501 241.585 228.423 240.914 228.269 238.596C227.783 231.239 227.193 225.454 226.527 221.852C226.193 220.032 225.501 218.882 224.451 218.346C222.99 217.599 220.632 217.848 216.813 218.576C211.072 219.668 194.003 221.967 190.03 221.507C189.748 221.469 189.466 221.43 189.21 221.411C185.007 220.894 182.418 220.798 181.496 223.921Z" fill="#102126"/>
<path d="M214.635 274C195.054 274 191.414 269.766 190.697 266.145C190.056 262.984 188.851 255.627 188.288 248.194C188.262 247.83 188.646 247.504 189.133 247.485C189.62 247.466 190.056 247.753 190.082 248.117C190.645 255.493 191.85 262.792 192.491 265.934C192.85 267.754 194.054 270.034 200.282 271.433C208.048 273.176 221.58 273.042 240.495 270.992C259.486 268.942 284.167 265.992 305.978 263.386C328.968 260.647 348.805 258.271 355.648 257.715C368.335 256.681 375.46 255.512 374.152 243.443C372.871 231.699 367.412 189.493 365.772 180.508C364.234 172.136 360.287 171.37 345.396 171.983C344.909 172.002 344.473 171.715 344.448 171.351C344.422 170.987 344.807 170.661 345.294 170.642C353.188 170.316 358.108 170.393 361.491 171.696C364.875 173.017 366.643 175.508 367.514 180.317C369.18 189.321 374.639 231.565 375.921 243.328C377.33 256.355 369.283 257.965 355.827 259.057C349.036 259.612 329.198 261.988 306.234 264.727C284.449 267.333 259.742 270.283 240.725 272.333C229.833 273.502 221.324 274 214.635 274Z" fill="#102126"/>
<path d="M214.404 236.815C210.713 236.815 207.715 234.573 207.715 231.814C207.715 229.055 210.713 226.814 214.404 226.814C218.095 226.814 221.093 229.055 221.093 231.814C221.093 234.573 218.095 236.815 214.404 236.815ZM214.404 228.155C211.713 228.155 209.509 229.803 209.509 231.814C209.509 233.826 211.713 235.473 214.404 235.473C217.095 235.473 219.299 233.826 219.299 231.814C219.299 229.803 217.095 228.155 214.404 228.155Z" fill="#102126"/>
<path d="M279.528 225.855C275.838 225.855 272.839 223.614 272.839 220.855C272.839 218.096 275.838 215.855 279.528 215.855C283.219 215.855 286.218 218.096 286.218 220.855C286.218 223.614 283.219 225.855 279.528 225.855ZM279.528 217.196C276.837 217.196 274.633 218.844 274.633 220.855C274.633 222.867 276.837 224.514 279.528 224.514C282.219 224.514 284.424 222.867 284.424 220.855C284.424 218.844 282.219 217.196 279.528 217.196Z" fill="#102126"/>
<path d="M269.969 216.353C269.866 216.353 269.738 216.334 269.635 216.296C269.174 216.161 268.943 215.759 269.148 215.414C270.174 213.518 273.019 212.043 276.76 211.449C280.374 210.874 285.398 211.104 288.678 213.46C289.037 213.709 289.037 214.15 288.704 214.399C288.371 214.667 287.781 214.667 287.448 214.418C285.167 212.771 281.117 212.119 277.145 212.751C273.992 213.249 271.635 214.437 270.814 215.912C270.661 216.2 270.327 216.353 269.969 216.353Z" fill="#102126"/>
<path d="M267.277 210.759C267.175 210.759 267.072 210.74 266.97 210.721C266.509 210.587 266.278 210.204 266.432 209.859C267.688 207.368 271.199 205.452 275.838 204.724C281.194 203.901 286.474 204.916 289.626 207.368C289.96 207.636 289.96 208.058 289.601 208.307C289.242 208.556 288.678 208.556 288.345 208.288C285.09 205.759 279.938 205.452 276.222 206.027C272.25 206.64 269.148 208.288 268.123 210.299C267.995 210.587 267.662 210.759 267.277 210.759Z" fill="#102126"/>
<path d="M261.767 206.065C261.639 206.065 261.511 206.046 261.408 206.007C260.947 205.854 260.742 205.452 260.947 205.126C262.536 202.444 266.791 200.356 272.583 199.398C280.195 198.153 288.063 199.264 292.6 202.252C292.984 202.501 293.01 202.923 292.676 203.191C292.343 203.478 291.779 203.498 291.421 203.249C287.294 200.547 280.041 199.532 272.967 200.701C267.816 201.544 263.92 203.402 262.587 205.662C262.434 205.912 262.1 206.065 261.767 206.065Z" fill="#102126"/>
<path d="M143.231 110.466C143.026 110.466 142.795 110.428 142.565 110.313C141.129 109.719 136.542 105.159 137.439 103.09C138.9 99.68 151.971 93.4345 158.942 92.8214C159.531 92.7639 160.454 92.9555 162.12 94.8521C162.94 95.7717 163.811 96.9787 163.94 97.6492C164.093 98.3389 163.504 98.6263 163.119 98.6838C161.325 98.9711 146.87 107.688 144.025 110.198C143.846 110.351 143.564 110.466 143.231 110.466ZM159.019 94.1816C152.304 94.833 140.284 100.829 139.13 103.531C138.669 104.623 141.719 108.09 143.103 108.991C146.204 106.577 158.301 98.9711 162.069 97.5918C161.607 96.6339 159.788 94.4881 159.019 94.1816Z" fill="#102126"/>
<path d="M136.747 98.8563C136.593 98.8563 136.439 98.818 136.286 98.7605C133.799 97.6877 132.287 95.178 132.416 92.3617C132.492 90.7908 133.056 89.4305 134.056 88.396C130.211 88.5876 124.137 88.5301 123.291 86.1737C122.189 83.1084 129.571 81.5949 136.721 80.1197C137.183 80.0239 137.644 79.9281 138.08 79.8323C136.491 75.8091 134.363 71.4219 133.415 70.9238C133.082 70.7322 132.518 70.5023 131.877 70.215C129.161 68.9888 124.599 66.9581 124.035 64.276C123.676 62.5326 124.317 61.0765 125.752 60.3677C126.88 59.8313 128.289 59.8504 129.468 60.4252C130.058 60.7125 131.493 61.3256 133.184 62.0536C140.181 65.0614 143.616 66.6132 144.256 67.3796C145.153 68.4524 156.84 90.9057 158.147 93.4729C158.327 93.8177 158.096 94.2009 157.635 94.335C157.174 94.4691 156.661 94.2967 156.482 93.9518C151.33 84.0279 143.411 68.9314 142.744 68.0884C142.103 67.437 135.491 64.5825 132.313 63.2223C130.545 62.4559 129.135 61.862 128.494 61.5555C127.905 61.2681 127.238 61.249 126.726 61.498C125.906 61.9003 125.547 62.8583 125.803 64.0652C126.239 66.1343 130.34 67.9735 132.8 69.0655C133.466 69.372 134.056 69.6211 134.466 69.851C136.414 70.9047 139.233 77.9932 140.053 80.1389C140.13 80.3113 140.079 80.5029 139.976 80.6561C139.848 80.8094 139.669 80.9243 139.438 80.9818C138.72 81.1351 137.977 81.2883 137.183 81.4416C132.082 82.4953 124.368 84.0663 125.009 85.848C125.521 87.304 132.236 87.3231 136.593 86.8825C137.029 86.8442 137.439 87.0358 137.567 87.3423C137.695 87.6488 137.49 87.9937 137.106 88.1469C135.389 88.7792 134.286 90.3884 134.184 92.4192C134.081 94.699 135.26 96.7873 137.157 97.611C137.593 97.8026 137.721 98.205 137.49 98.5306C137.362 98.7414 137.054 98.8563 136.747 98.8563Z" fill="#102126"/>
<path d="M138.285 103.972C138.233 103.972 138.182 103.972 138.131 103.953C136.183 103.704 132.39 102.114 129.237 99.6806C126.444 97.5157 123.112 93.914 123.189 89.067C123.189 88.703 123.599 88.3965 124.086 88.3965C124.573 88.3965 124.983 88.703 124.983 89.067C124.906 93.4542 127.956 96.7494 130.519 98.7419C133.594 101.117 136.977 102.439 138.413 102.631C138.9 102.688 139.233 103.033 139.156 103.397C139.079 103.742 138.695 103.972 138.285 103.972Z" fill="#102126"/>
<path d="M131.339 82.6873C131.006 82.6873 130.698 82.5532 130.519 82.3041C128.596 79.3538 127.392 75.5413 129.698 73.6446C130.698 72.84 132.697 72.1312 136.721 73.2998C137.182 73.4339 137.413 73.8171 137.233 74.1619C137.054 74.5068 136.542 74.6792 136.08 74.5451C134.389 74.047 132.133 73.6446 131.031 74.5451C129.673 75.6562 130.109 78.6066 132.133 81.7102C132.338 82.0359 132.159 82.4382 131.723 82.6106C131.595 82.6681 131.467 82.6873 131.339 82.6873Z" fill="#102126"/>
<path d="M125.854 84.469C125.572 84.469 125.265 84.354 125.111 84.1625C123.06 81.8252 121.83 78.3001 123.624 76.3843C124.368 75.5796 125.931 74.7558 129.186 75.3306C129.673 75.4072 129.955 75.7712 129.852 76.1352C129.75 76.4992 129.263 76.71 128.776 76.6333C126.956 76.3076 125.726 76.4801 125.085 77.1506C123.855 78.4725 124.88 81.4612 126.597 83.4153C126.879 83.7218 126.751 84.1433 126.341 84.3349C126.213 84.4307 126.034 84.469 125.854 84.469Z" fill="#102126"/>
<path d="M127.008 90.3502C125.367 90.3502 123.317 89.7372 121.087 88.5302C117.935 86.8251 116.397 83.4533 117.807 81.3076C118.294 80.5796 119.831 78.9895 123.881 79.8899C124.368 79.9857 124.624 80.3689 124.496 80.7329C124.342 81.0969 123.855 81.2885 123.368 81.1927C121.984 80.8861 120.165 80.752 119.396 81.9207C118.473 83.3192 119.473 86.0397 122.112 87.4574C125.085 89.0666 127.11 89.2199 127.93 88.8559C128.34 88.6835 128.52 88.3195 128.443 87.8214C128.392 87.4574 128.75 87.1317 129.237 87.0934C129.724 87.055 130.16 87.3233 130.211 87.6873C130.339 88.7218 129.827 89.5647 128.802 90.0245C128.34 90.2353 127.725 90.3502 127.008 90.3502Z" fill="#102126"/>
<path d="M75.3384 188.287C69.828 188.287 68.726 187.041 67.9314 184.704C66.9319 181.735 66.2143 178.056 64.8815 168.956C64.8559 168.726 64.8303 168.515 64.779 168.305L64.6252 167.328C64.3177 165.201 64.0614 163.534 64.0101 162.193C63.8564 158.304 65.4198 156.982 70.9557 156.331C86.7178 154.473 107.965 153.055 115.987 152.518C116.781 152.461 117.448 152.423 117.96 152.384C122.42 152.078 124.88 153.227 126.238 156.235C126.828 157.538 127.212 159.243 127.469 161.484L127.494 161.676C127.546 162.04 127.161 162.366 126.674 162.404C126.187 162.442 125.752 162.155 125.7 161.791L125.675 161.599C125.444 159.473 125.06 157.864 124.521 156.676C123.419 154.262 121.753 153.496 118.088 153.725C117.576 153.764 116.935 153.802 116.115 153.86C108.118 154.396 86.8972 155.795 71.212 157.653C66.5475 158.208 65.6504 158.956 65.7786 162.155C65.8298 163.439 66.0861 165.105 66.3937 167.194L66.5474 168.171C66.5731 168.381 66.6243 168.611 66.65 168.822C67.9571 177.845 68.6747 181.486 69.6486 184.378C70.4431 186.697 70.8788 187.98 87.8199 185.911C88.3069 185.854 88.7682 186.103 88.8451 186.467C88.922 186.831 88.5888 187.175 88.1018 187.233C82.2839 187.942 78.2089 188.287 75.3384 188.287Z" fill="#102126"/>
<path d="M126.572 161.523C116.551 162.539 84.6163 165.757 65.5993 167.769C65.2405 165.412 64.9585 163.592 64.9073 162.155C78.6447 160.987 114.141 157.538 125.393 156.446C125.957 157.711 126.341 159.358 126.572 161.523Z" fill="#102126"/>
<path d="M65.5993 168.056C65.5224 168.056 65.4199 168.037 65.3687 167.998C65.2918 167.96 65.2405 167.883 65.2149 167.807L65.138 167.289C64.8304 165.182 64.5741 163.496 64.5229 162.174C64.5229 162.021 64.6767 161.906 64.8561 161.887C79.1829 160.661 117.755 156.906 125.316 156.178C125.495 156.159 125.675 156.235 125.726 156.369C126.29 157.634 126.7 159.32 126.931 161.523C126.956 161.676 126.803 161.81 126.597 161.829L126.367 161.849C116.012 162.902 84.4882 166.082 65.625 168.075C65.6506 168.056 65.625 168.056 65.5993 168.056ZM65.3174 162.423C65.3943 163.688 65.625 165.259 65.9325 167.232L65.9581 167.462C84.7958 165.489 115.731 162.347 126.162 161.293C125.931 159.396 125.598 157.921 125.111 156.772C116.91 157.557 79.7212 161.178 65.3174 162.423Z" fill="#102126"/>
<path d="M74.8515 175.91C74.1339 175.91 73.5444 175.872 73.1087 175.814C72.8268 175.776 71.981 175.623 71.6991 175.067C71.4428 174.531 71.0328 173.458 70.7765 172.5C70.3151 170.776 70.4945 170.201 70.9046 169.875C72.1092 168.917 79.388 168.304 82.0278 168.477C83.1299 168.553 83.7193 168.726 84.0269 169.09C84.7958 169.952 86.0516 173.362 84.5651 174.512C83.5656 175.24 78.1065 175.91 74.8515 175.91ZM73.3138 174.473C74.749 174.895 82.2585 174.09 83.2836 173.534C83.7193 173.132 83.258 170.776 82.5916 169.875C82.1047 169.741 80.2594 169.684 77.3632 169.933C74.5953 170.182 72.8012 170.546 72.2886 170.737C72.2117 171.312 72.7756 173.285 73.3138 174.473ZM71.5453 170.297L72.1861 170.757L71.5453 170.297Z" fill="#102126"/>
<path d="M195.72 214.054C195.259 214.054 194.849 213.786 194.823 213.422C194.721 212.138 194.592 210.874 194.464 209.628L194.362 208.651C194.336 208.287 194.695 207.962 195.182 207.942C195.669 207.923 196.105 208.191 196.13 208.555L196.233 209.532C196.361 210.778 196.489 212.042 196.592 213.345C196.617 213.709 196.258 214.035 195.746 214.054C195.771 214.054 195.746 214.054 195.72 214.054ZM194.9 204.494C194.413 204.494 194.029 204.207 194.003 203.843C193.952 203.019 193.926 202.272 193.926 201.582C193.926 200.624 193.977 199.781 194.054 198.976C194.08 198.612 194.516 198.325 195.028 198.363C195.515 198.382 195.9 198.708 195.848 199.091C195.771 199.858 195.72 200.662 195.72 201.582C195.72 202.252 195.746 202.98 195.771 203.804C195.797 204.168 195.413 204.494 194.9 204.494C194.926 204.494 194.9 204.494 194.9 204.494ZM196.335 195.068C196.207 195.068 196.079 195.049 195.976 195.011C195.515 194.857 195.336 194.455 195.541 194.129C196.258 192.942 197.258 192.003 198.488 191.332C199.001 191.045 199.667 190.777 200.436 190.528C200.897 190.374 201.41 190.547 201.615 190.872C201.82 191.217 201.589 191.6 201.154 191.754C200.513 191.965 199.975 192.175 199.539 192.405C198.539 192.961 197.745 193.708 197.155 194.685C197.002 194.915 196.668 195.068 196.335 195.068ZM206.971 190.528C206.536 190.528 206.177 190.298 206.1 189.972C206.023 189.608 206.331 189.263 206.818 189.187C208.689 188.938 210.867 188.708 213.251 188.516C213.738 188.478 214.173 188.746 214.225 189.11C214.276 189.474 213.917 189.8 213.43 189.838C211.098 190.01 208.971 190.24 207.151 190.489C207.074 190.528 207.023 190.528 206.971 190.528ZM219.735 189.512C219.274 189.512 218.864 189.244 218.838 188.88C218.812 188.516 219.197 188.19 219.684 188.171C222.759 188.037 225.22 187.999 226.142 187.999C226.142 187.999 226.142 187.999 226.168 187.999C226.655 187.999 227.065 188.286 227.065 188.65C227.065 189.014 226.681 189.321 226.194 189.34C225.297 189.359 222.862 189.378 219.812 189.512C219.761 189.512 219.735 189.512 219.735 189.512Z" fill="#102126"/>
<path d="M333.043 252.619C332.582 252.619 332.197 252.37 332.146 252.025C332.095 251.661 332.454 251.316 332.941 251.278C335.093 251.086 337.221 250.895 339.297 250.684C339.784 250.627 340.245 250.895 340.296 251.259C340.373 251.623 340.014 251.968 339.527 252.006C337.451 252.217 335.298 252.408 333.146 252.6C333.12 252.6 333.094 252.619 333.043 252.619ZM345.781 251.355C345.345 251.355 344.961 251.125 344.884 250.78C344.807 250.416 345.14 250.071 345.627 250.014C347.985 249.745 350.112 249.477 351.932 249.209C352.419 249.132 352.88 249.381 352.983 249.745C353.085 250.109 352.752 250.454 352.265 250.531C350.42 250.799 348.293 251.067 345.909 251.335C345.883 251.355 345.832 251.355 345.781 251.355ZM358.365 249.439C357.98 249.439 357.647 249.266 357.519 248.979C357.365 248.634 357.622 248.251 358.083 248.136C358.416 248.059 358.724 247.964 358.98 247.887C360.518 247.408 361.517 246.642 362.132 245.473C362.312 245.128 362.824 244.956 363.286 245.09C363.747 245.224 363.978 245.607 363.798 245.952C363.004 247.485 361.671 248.519 359.672 249.132C359.364 249.228 359.031 249.324 358.647 249.42C358.544 249.42 358.442 249.439 358.365 249.439ZM363.798 241.661C363.311 241.661 362.901 241.373 362.901 240.99C362.876 239.726 362.748 238.174 362.491 236.277C362.44 235.913 362.799 235.587 363.286 235.549C363.773 235.511 364.208 235.779 364.26 236.143C364.516 238.078 364.67 239.668 364.67 240.99C364.695 241.354 364.311 241.661 363.798 241.661ZM362.619 232.12C362.184 232.12 361.799 231.871 361.722 231.545C361.466 230.108 361.184 228.556 360.877 226.909L360.851 226.813C360.774 226.449 361.133 226.104 361.62 226.066C362.107 226.008 362.568 226.277 362.619 226.641L362.645 226.736C362.953 228.384 363.235 229.936 363.491 231.392C363.568 231.756 363.209 232.101 362.722 232.139C362.696 232.12 362.671 232.12 362.619 232.12Z" fill="#102126"/>
<path d="M220.632 265.819C218.197 265.8 216.018 265.704 214.122 265.532C213.635 265.494 213.276 265.149 213.353 264.785C213.404 264.421 213.865 264.153 214.352 264.21C216.172 264.382 218.274 264.478 220.632 264.497C221.119 264.497 221.529 264.804 221.529 265.168C221.529 265.513 221.119 265.819 220.632 265.819ZM227.013 265.666C226.552 265.666 226.142 265.398 226.116 265.034C226.091 264.67 226.475 264.344 226.962 264.325C228.372 264.268 229.884 264.172 231.473 264.076C231.96 264.038 232.396 264.325 232.447 264.689C232.498 265.053 232.114 265.379 231.627 265.417C230.038 265.532 228.5 265.609 227.065 265.666C227.065 265.666 227.039 265.666 227.013 265.666ZM208.073 264.344C207.945 264.344 207.817 264.325 207.714 264.287C205.357 263.501 203.691 262.39 202.614 260.877C202.383 260.551 202.537 260.149 202.973 259.976C203.409 259.804 203.947 259.919 204.178 260.244C205.075 261.47 206.459 262.39 208.432 263.061C208.893 263.214 209.098 263.616 208.893 263.942C208.74 264.191 208.406 264.344 208.073 264.344ZM201.82 256.623C201.358 256.623 200.974 256.355 200.923 256.01C200.794 254.899 200.743 253.731 200.692 252.485C200.666 252.064 200.666 251.623 200.641 251.183C200.615 250.819 200.999 250.493 201.512 250.493C201.999 250.474 202.435 250.761 202.435 251.144C202.46 251.585 202.46 252.026 202.486 252.447C202.537 253.673 202.589 254.823 202.691 255.895C202.742 256.259 202.358 256.585 201.871 256.623C201.871 256.623 201.845 256.623 201.82 256.623Z" fill="#102126"/>
<path d="M88.9992 171.389C105.171 166.676 126.418 162.117 132.21 160.929C138.003 159.722 141.335 158.227 144.282 163.688C147.204 169.148 151.458 178.382 153.124 181.121C154.79 183.861 156.277 186.198 146.845 188.651C137.413 191.103 116.833 195.969 108.324 198.689C99.8149 201.41 96.9187 202.291 92.3054 194.245C87.6921 186.198 85.6674 181.715 83.9502 177.788C82.2074 173.822 85.5136 172.404 88.9992 171.389Z" fill="white"/>
<path d="M131.573 178.051C134.575 177.517 136.428 175.264 135.712 173.02C134.997 170.777 131.983 169.392 128.982 169.926C125.98 170.461 124.127 172.714 124.843 174.957C125.558 177.201 128.572 178.586 131.573 178.051Z" fill="white"/>
<path d="M130.288 178.842C126.725 178.842 123.804 176.677 123.804 173.995C123.804 171.332 126.7 169.148 130.288 169.148C133.876 169.148 136.772 171.313 136.772 173.995C136.772 176.677 133.85 178.842 130.288 178.842ZM130.288 170.489C127.699 170.489 125.598 172.06 125.598 173.995C125.598 175.93 127.699 177.501 130.288 177.501C132.876 177.501 134.978 175.93 134.978 173.995C134.978 172.06 132.876 170.489 130.288 170.489Z" fill="#102126"/>
<path d="M138.054 177.213C137.977 177.213 137.9 177.213 137.823 177.213C134.261 177.118 131.442 174.876 131.57 172.213C131.698 169.55 134.697 167.443 138.259 167.539C141.822 167.634 144.641 169.876 144.513 172.539C144.41 175.144 141.514 177.213 138.054 177.213ZM133.364 172.232C133.313 173.171 133.774 174.052 134.62 174.742C135.466 175.432 136.644 175.815 137.875 175.853C139.131 175.891 140.309 175.547 141.232 174.914C142.155 174.282 142.667 173.401 142.719 172.481C142.796 170.546 140.771 168.918 138.182 168.86C135.619 168.784 133.441 170.316 133.364 172.232Z" fill="#102126"/>
<path d="M136.567 183.325C136.208 183.325 135.85 183.152 135.721 182.865C135.568 182.52 135.798 182.137 136.285 182.003C140.899 180.815 144.589 179.895 144.615 179.895C145.076 179.78 145.589 179.972 145.743 180.317C145.896 180.662 145.64 181.045 145.179 181.16C145.153 181.16 141.462 182.079 136.875 183.267C136.772 183.305 136.67 183.325 136.567 183.325Z" fill="#102126"/>
<path d="M124.701 186.467C124.342 186.467 124.009 186.313 123.881 186.045C123.701 185.7 123.906 185.317 124.368 185.164C125.649 184.762 126.854 184.398 127.93 184.053C129.365 183.612 130.98 183.133 132.697 182.616C133.158 182.482 133.671 182.654 133.85 182.999C134.03 183.344 133.799 183.727 133.338 183.861C131.621 184.359 130.032 184.857 128.596 185.298C127.52 185.624 126.315 186.007 125.034 186.409C124.931 186.447 124.803 186.467 124.701 186.467Z" fill="#102126"/>
<path d="M112.527 190.336C112.168 190.336 111.861 190.183 111.707 189.934C111.502 189.589 111.707 189.206 112.168 189.053C114.68 188.229 117.525 187.329 120.395 186.428C120.856 186.275 121.369 186.447 121.574 186.792C121.779 187.137 121.548 187.52 121.087 187.673C118.217 188.574 115.397 189.493 112.886 190.298C112.758 190.317 112.629 190.336 112.527 190.336Z" fill="#102126"/>
<path d="M102.557 193.708C102.224 193.708 101.916 193.574 101.763 193.344C101.532 193.018 101.711 192.616 102.173 192.443C103.659 191.888 106.222 191.007 109.785 189.838C110.246 189.685 110.759 189.838 110.964 190.183C111.169 190.528 110.964 190.911 110.502 191.064C106.965 192.214 104.454 193.095 102.967 193.631C102.813 193.689 102.685 193.708 102.557 193.708Z" fill="#102126"/>
</svg>
