<svg width="214" height="113" viewBox="0 0 214 113" fill="none" xmlns="http://www.w3.org/2000/svg">
<path d="M56.4113 38.6479C57.2459 39.8113 58.0704 40.9762 58.838 42.1546C59.2585 42.7764 59.6673 43.4038 60.1653 44.0084C62.8294 47.2342 65.5681 50.4451 68.0844 53.7054C69.6157 55.7164 71.1076 57.7358 72.56 59.7638L74.7209 62.8089L76.8173 65.8665C77.211 66.4911 77.5094 67.1314 77.7095 67.7812C77.814 68.0453 77.7981 68.3188 77.663 68.579C77.5279 68.8392 77.2775 69.0788 76.9325 69.2778C75.9998 69.8404 74.518 69.7369 73.649 68.9736C73.1068 68.4699 72.6861 67.9323 72.3967 67.3734C71.6911 66.107 70.8861 64.8616 69.9818 63.637C69.0859 62.4107 68.095 61.2039 67.0093 60.0166C66.4112 59.361 65.7134 58.6944 65.4011 58.0025C64.3982 55.7931 62.5228 53.7442 61.1887 51.5965C60.195 50.0005 58.9716 48.4422 57.8861 46.8608L54.9748 42.6316C53.9894 41.225 53.0693 39.804 52.0914 38.3949C51.7399 37.8403 51.4579 37.2742 51.2472 36.7001C51.0735 36.1545 50.9573 35.6043 50.899 35.052C50.8453 34.5635 51.4284 34.467 52.098 34.9003C53.0562 35.5231 53.9308 36.1804 54.7156 36.8675C55.0385 37.1495 55.3319 37.4426 55.602 37.7421C55.8483 38.0469 56.0955 38.3527 56.3412 38.6567L56.4113 38.6479Z" fill="white"/>
<path d="M124.26 34.8959L123.929 36.4779L123.526 38.0576C123.386 38.6164 123.244 39.1781 123.195 39.7405C123.125 40.4909 123.073 41.2417 123.027 41.9925L122.863 44.2435L122.555 48.744L122.148 54.2848L121.8 59.8274C121.735 60.3883 121.595 60.946 121.379 61.4963C121.308 61.7237 121.137 61.9393 120.881 62.1258C120.624 62.3123 120.288 62.4645 119.9 62.5703C118.842 62.8745 117.729 62.5578 117.463 61.8022C117.309 61.3091 117.277 60.8077 117.366 60.3103C117.687 58.0475 117.737 55.7762 117.516 53.5101C117.382 52.8836 117.384 52.251 117.522 51.6247C118.159 49.6952 118.035 47.7354 118.451 45.7989C118.763 44.3608 118.88 42.9086 119.178 41.4678C119.729 38.8994 120.328 36.3357 121.103 33.7841C121.378 32.8137 121.954 31.874 122.81 31.0029C123.178 30.6255 123.787 30.6871 123.943 31.1571C124.158 31.8313 124.288 32.5122 124.334 33.1954C124.352 33.7604 124.307 34.3255 124.198 34.8877L124.26 34.8959Z" fill="white"/>
<path d="M180.896 50.8612C179.784 51.5686 178.665 52.2737 177.539 52.9765C176.911 53.3361 176.324 53.715 175.782 54.1113C174.38 55.1828 173.023 56.271 171.667 57.3587C170.308 58.4453 168.938 59.5263 167.535 60.5949C165.813 61.9128 164.066 63.2206 162.325 64.5306L157.059 68.4452C156.49 68.8346 155.834 69.1859 155.104 69.4913C154.423 69.7984 153.453 69.8052 152.402 69.6471C150.87 69.4169 149.831 68.7129 150.22 68.0606C150.493 67.6488 150.924 67.2713 151.488 66.9522C153.937 65.4638 156.045 63.8284 157.77 62.0796C158.251 61.5955 158.686 61.0654 159.446 60.7049C161.861 59.55 163.431 58.0584 165.56 56.7924C167.135 55.8496 168.537 54.8312 170.077 53.8728C171.451 53.0181 172.836 52.1693 174.233 51.3263L178.526 48.8413C179.639 48.1899 181.031 47.6883 182.585 47.3781C182.739 47.3418 182.909 47.3305 183.075 47.3457C183.24 47.3609 183.394 47.4018 183.515 47.4633C183.636 47.5248 183.72 47.6041 183.755 47.6908C183.791 47.7776 183.776 47.868 183.714 47.9504C183.342 48.5203 182.906 49.0781 182.409 49.6207C181.943 50.0444 181.418 50.4493 180.839 50.8322L180.896 50.8612Z" fill="white"/>
<path d="M193.486 77.5588C193.063 77.6635 192.647 77.7764 192.211 77.8676L190.9 78.1391C190.432 78.2288 189.98 78.3391 189.547 78.4689C188.416 78.8367 187.308 79.2285 186.167 79.5851C185.032 79.949 183.895 80.3093 182.735 80.6467C181.308 81.0631 179.868 81.4663 178.403 81.8437L174.011 82.9767C173.536 83.078 173.028 83.1316 172.515 83.1347C172.014 83.1533 171.452 82.9131 170.903 82.5501C170.103 82.0213 169.754 81.3236 170.204 81.019C170.492 80.838 170.882 80.7101 171.317 80.6537C173.237 80.3514 175.024 79.8511 176.576 79.1817C177.012 78.9966 177.428 78.7631 177.987 78.7258C179.763 78.5974 181.147 78.0381 182.778 77.7508C183.993 77.5415 185.097 77.205 186.298 76.9775C188.437 76.5667 190.55 76.1305 192.721 75.7558C193.614 75.5935 194.582 75.582 195.488 75.7228C195.599 75.7411 195.701 75.772 195.786 75.8133C195.872 75.8545 195.94 75.9052 195.984 75.9617C196.029 76.0182 196.05 76.0792 196.045 76.1404C196.04 76.2015 196.011 76.2614 195.957 76.3159C195.77 76.4558 195.572 76.5927 195.366 76.7249C195.17 76.8569 194.952 76.9797 194.715 77.0921C194.324 77.2572 193.904 77.4029 193.461 77.5276L193.486 77.5588Z" fill="white"/>
<path d="M23.1403 71.9935C24.11 72.288 25.0721 72.5874 26.0267 72.8916C26.5246 73.0593 27.0412 73.211 27.5737 73.3458C29.0185 73.672 30.4592 74.0073 31.8894 74.3573C33.3166 74.7105 34.7171 75.0921 36.091 75.5023C37.7705 76.0163 39.4221 76.5572 41.0279 77.1344C42.634 77.7112 44.2094 78.3109 45.7543 78.9334C46.2158 79.1378 46.6086 79.3819 46.9162 79.6553C47.2396 79.9115 47.1305 80.2896 46.7892 80.7028C46.2909 81.3043 45.236 81.7327 44.4562 81.616C43.9753 81.532 43.5436 81.3838 43.2031 81.1858C41.6017 80.3256 39.6923 79.6421 37.5861 79.1752C37.0045 79.0418 36.3556 78.9426 35.9358 78.6965C34.5942 77.9045 32.7394 77.5237 31.1601 76.9192C30.5696 76.6961 29.9566 76.4901 29.3239 76.302C28.6991 76.1067 28.0628 75.9217 27.4415 75.7223C25.2245 75.0128 22.9851 74.3105 20.6828 73.6625C19.7308 73.3737 18.9796 72.9312 18.5396 72.4001C18.2914 72.155 18.5175 71.8912 19.1274 71.7656L19.7492 71.6759C19.8446 71.6594 19.9451 71.6529 20.0452 71.6569L20.3264 71.6597C20.6975 71.665 21.0676 71.6822 21.4347 71.7111C21.7292 71.7358 22.0178 71.7769 22.2958 71.8339C22.5671 71.897 22.8339 71.9665 23.1065 72.027L23.1403 71.9935Z" fill="white"/>
</svg>
