<svg width="128" height="128" viewBox="0 0 128 128" fill="none" xmlns="http://www.w3.org/2000/svg">
<path d="M20 66C16.6863 66 13.9628 68.696 14.3594 71.9859C15.6923 83.0413 20.6899 93.4005 28.6447 101.355C38.0215 110.732 50.7392 116 64 116C77.2608 116 89.9785 110.732 99.3553 101.355C107.31 93.4006 112.308 83.0414 113.641 71.9859C114.037 68.696 111.314 66 108 66L20 66Z" fill="#316D60"/>
<path d="M64 28C84.9868 28 102 45.0132 102 66C102 86.9868 84.9868 104 64 104C43.0132 104 26 86.9868 26 66C26 45.0132 43.0132 28 64 28Z" fill="url(#paint0_linear_668_390)"/>
<path d="M52 61C52 60.4477 51.5523 60 51 60C50.4477 60 50 60.4477 50 61V76.6C50 77.1523 50.4477 77.6 51 77.6C51.5523 77.6 52 77.1523 52 76.6L52 61Z" fill="white"/>
<path d="M52 81.4C52 80.8477 51.5523 80.4 51 80.4C50.4477 80.4 50 80.8477 50 81.4V83.8C50 84.3523 50.4477 84.8 51 84.8C51.5523 84.8 52 84.3523 52 83.8L52 81.4Z" fill="white"/>
<path d="M77 61.2C77.5523 61.2 78 61.6477 78 62.2V74.2C78 74.7523 77.5523 75.2 77 75.2C76.4477 75.2 76 74.7523 76 74.2V62.2C76 61.6477 76.4477 61.2 77 61.2Z" fill="white"/>
<path d="M78 79C78 78.4477 77.5523 78 77 78C76.4477 78 76 78.4477 76 79V83.8C76 84.3523 76.4477 84.8 77 84.8C77.5523 84.8 78 84.3523 78 83.8V79Z" fill="white"/>
<path d="M64 66C64.5523 66 65 66.4477 65 67V81.4C65 81.9523 64.5523 82.4 64 82.4C63.4477 82.4 63 81.9523 63 81.4V67C63 66.4477 63.4477 66 64 66Z" fill="white"/>
<path d="M65 86.2C65 85.6477 64.5523 85.2 64 85.2C63.4477 85.2 63 85.6477 63 86.2V91C63 91.5523 63.4477 92 64 92C64.5523 92 65 91.5523 65 91V86.2Z" fill="white"/>
<path d="M34 21.25C34 20.1454 33.0999 19.2351 32.007 19.3952C30.8869 19.5593 29.7887 19.8614 28.7381 20.2966C27.0699 20.9876 25.5541 22.0005 24.2773 23.2773C23.0005 24.5541 21.9877 26.0699 21.2967 27.7381C20.8615 28.7887 20.5593 29.8869 20.3952 31.007C20.2351 32.0999 21.1454 33 22.25 33L32 33C33.1046 33 34 32.1045 34 31V21.25Z" fill="url(#paint1_linear_668_390)"/>
<path d="M27.75 15C27.75 13.8954 26.8499 12.9851 25.757 13.1452C24.6369 13.3093 23.5387 13.6114 22.4881 14.0466C20.8199 14.7376 19.3041 15.7505 18.0273 17.0273C16.7505 18.3041 15.7377 19.8199 15.0467 21.4881C14.6115 22.5387 14.3093 23.6369 14.1452 24.757C13.9851 25.8499 14.8954 26.75 16 26.75L25.75 26.75C26.8546 26.75 27.75 25.8545 27.75 24.75V15Z" fill="url(#paint2_linear_668_390)"/>
<path d="M42 32.3845L63.9837 45.0768V70.4615L42 57.7691V32.3845Z" fill="#316D60"/>
<path d="M64 70.4615L85.9837 57.7691V32.3845L64 45.0768V70.4615Z" fill="#316D60"/>
<path d="M64 19.6924L86 32.3847L64 45.077L42 32.3847L64 19.6924Z" fill="#316D60"/>
<path d="M104 28C104 26.3431 105.343 25 107 25C108.657 25 110 26.3431 110 28C110 29.6569 108.657 31 107 31C105.343 31 104 29.6569 104 28Z" fill="#316D60"/>
<path d="M104 18C104 16.3431 105.343 15 107 15C108.657 15 110 16.3431 110 18C110 19.6569 108.657 21 107 21C105.343 21 104 19.6569 104 18Z" fill="#316D60"/>
<path d="M94 18C94 16.3431 95.3431 15 97 15C98.6569 15 100 16.3431 100 18C100 19.6569 98.6569 21 97 21C95.3431 21 94 19.6569 94 18Z" fill="#316D60"/>
<defs>
<linearGradient id="paint0_linear_668_390" x1="64" y1="28" x2="64" y2="104" gradientUnits="userSpaceOnUse">
<stop stop-color="#F3F8FF"/>
<stop offset="1" stop-color="#51B276"/>
</linearGradient>
<linearGradient id="paint1_linear_668_390" x1="35.25" y1="34.875" x2="16.5" y2="15.0833" gradientUnits="userSpaceOnUse">
<stop stop-color="#F3F8FF"/>
<stop offset="1" stop-color="#51B276"/>
</linearGradient>
<linearGradient id="paint2_linear_668_390" x1="29" y1="28.625" x2="10.25" y2="8.83333" gradientUnits="userSpaceOnUse">
<stop stop-color="#F3F8FF"/>
<stop offset="1" stop-color="#51B276"/>
</linearGradient>
</defs>
</svg>
