<svg width="399" height="505" viewBox="0 0 399 505" fill="none" xmlns="http://www.w3.org/2000/svg">
<rect x="40" y="-12" width="360" height="541" fill="url(#paint0_linear_421_70)"/>
<g opacity="0.6">
<g style="mix-blend-mode:color-dodge" opacity="0.55">
<path d="M68.7207 246.142C68.7207 246.142 113.114 -93.2241 162.84 149.052C212.566 391.327 220.717 122.831 257.298 11.2011C293.878 -100.428 327.469 262.801 355.873 196.551C384.277 130.301 368.623 -4.05205 393.637 5.43084" stroke="url(#paint1_linear_421_70)" stroke-width="1.12" stroke-miterlimit="10"/>
<path d="M394.093 7.49436C369.436 -1.85817 383.683 137.126 354.846 198.898C326.008 260.67 292.626 -93.7283 255.898 17.7878C219.169 129.304 210.943 387.479 161.407 149.466C111.871 -88.5476 68.2056 248.449 67.767 248.245" stroke="url(#paint2_linear_421_70)" stroke-width="1.13" stroke-miterlimit="10"/>
<path d="M394.549 9.56301C370.245 0.346526 383.088 143.973 353.817 201.256C324.546 258.539 291.37 -87.0344 254.495 24.374C217.62 135.782 209.319 383.63 159.973 149.879C110.627 -83.8715 67.6893 250.773 66.8134 250.342" stroke="url(#paint3_linear_421_70)" stroke-width="1.13" stroke-miterlimit="10"/>
<path d="M395.005 11.6318C371.053 2.56272 382.492 150.814 352.788 203.619C323.083 256.424 290.117 -80.3573 253.097 30.9604C216.076 142.278 207.694 379.781 158.538 150.293C109.383 -79.1953 67.1742 253.063 65.8597 252.445" stroke="url(#paint4_linear_421_70)" stroke-width="1.14" stroke-miterlimit="10"/>
<path d="M395.46 13.6895C371.861 4.73939 381.897 157.662 351.76 205.96C321.623 254.259 288.862 -73.6631 251.697 37.5299C214.531 148.723 206.07 375.921 157.105 150.695C108.141 -74.5303 66.6552 255.37 64.9059 254.542" stroke="url(#paint5_linear_421_70)" stroke-width="1.14" stroke-miterlimit="10"/>
<path d="M395.917 15.7755C372.669 6.95578 381.301 164.509 350.731 208.335C320.161 252.162 287.61 -66.9518 250.297 44.1335C212.983 155.219 204.447 372.09 155.671 151.126C106.895 -69.837 66.1452 257.677 63.9523 256.646" stroke="url(#paint6_linear_421_70)" stroke-width="1.15" stroke-miterlimit="10"/>
<path d="M396.367 17.8442C373.477 9.15483 380.707 171.356 349.702 210.693C318.697 250.031 286.355 -60.2466 248.895 50.7197C211.436 161.686 202.824 368.241 154.237 151.54C105.649 -65.1609 65.625 259.984 62.9986 258.748" stroke="url(#paint7_linear_421_70)" stroke-width="1.15" stroke-miterlimit="10"/>
<path d="M396.828 19.9245C374.285 11.3768 380.112 178.209 348.675 213.063C317.237 247.916 285.101 -53.5524 247.496 57.3119C209.89 168.176 201.198 364.403 152.804 151.971C104.409 -60.4619 65.1112 262.291 62.0449 260.823" stroke="url(#paint8_linear_421_70)" stroke-width="1.16" stroke-miterlimit="10"/>
<path d="M397.284 21.9875C375.099 13.5702 379.517 185.044 347.646 215.409C315.775 245.774 283.848 -46.8698 246.096 63.8868C208.343 174.643 199.574 360.549 151.364 152.367C103.154 -55.8142 64.5949 264.598 61.0912 262.948" stroke="url(#paint9_linear_421_70)" stroke-width="1.16" stroke-miterlimit="10"/>
<path d="M397.74 24.0566C375.902 15.7754 378.921 191.892 346.613 217.773C314.305 243.654 282.593 -40.1584 244.696 70.4735C206.798 181.105 197.951 356.717 149.935 152.781C101.919 -51.1547 64.0797 266.905 60.1387 265.051" stroke="url(#paint10_linear_421_70)" stroke-width="1.17" stroke-miterlimit="10"/>
<path d="M398.195 26.1253C376.709 17.9801 378.326 198.733 345.589 220.131C312.853 241.528 281.34 -33.4871 243.296 77.0597C205.251 187.607 196.321 352.851 148.502 153.195C100.682 -46.4616 63.5634 269.212 59.1851 267.148" stroke="url(#paint11_linear_421_70)" stroke-width="1.17" stroke-miterlimit="10"/>
<path d="M398.652 28.1943C377.517 20.1794 377.73 205.609 344.56 222.489C311.39 239.369 280.088 -26.7929 241.894 83.6462C203.701 194.085 194.702 349.003 147.067 153.609C99.4326 -41.7853 63.0458 271.507 58.2314 269.24" stroke="url(#paint12_linear_421_70)" stroke-width="1.18" stroke-miterlimit="10"/>
<path d="M399.107 30.269C378.324 22.3845 377.135 212.428 343.533 224.847C309.93 237.266 278.832 -20.0986 240.495 90.2102C202.157 200.519 193.079 345.137 145.636 154.006C98.192 -37.1259 62.5345 273.803 57.279 271.337" stroke="url(#paint13_linear_421_70)" stroke-width="1.18" stroke-miterlimit="10"/>
<path d="M399.563 32.3378C379.134 24.5894 376.539 219.275 342.504 227.205C308.468 235.135 277.579 -13.4046 239.095 96.8362C200.61 207.077 191.455 341.311 144.2 154.442C96.9451 -32.427 62.0169 276.127 56.3279 273.452" stroke="url(#paint14_linear_421_70)" stroke-width="1.19" stroke-miterlimit="10"/>
<path d="M400.018 34.4067C379.941 26.7943 375.944 226.116 341.475 229.563C307.005 233.009 276.323 -6.7104 237.691 103.4C199.059 213.51 189.83 337.462 142.772 154.856C95.7134 -27.7508 61.5017 278.44 55.3703 275.56" stroke="url(#paint15_linear_421_70)" stroke-width="1.19" stroke-miterlimit="10"/>
<path d="M400.475 36.4755C380.749 28.9934 375.349 232.964 340.447 231.915C305.546 230.866 275.071 -0.0277398 236.295 109.975C197.519 219.978 188.206 333.614 141.331 155.27C94.4563 -23.0746 60.9853 280.746 54.4153 277.652" stroke="url(#paint16_linear_421_70)" stroke-width="1.2" stroke-miterlimit="10"/>
<path d="M400.93 38.5501C381.558 31.1814 374.753 239.811 339.418 234.284C304.083 228.758 273.818 6.67784 234.893 116.573C195.969 226.468 186.583 329.771 139.897 155.683C93.2106 -18.4039 60.4702 283.053 53.4629 279.755" stroke="url(#paint17_linear_421_70)" stroke-width="1.2" stroke-miterlimit="10"/>
<path d="M401.386 40.6188C382.366 33.4032 374.159 246.658 338.389 236.642C302.62 226.626 272.566 13.3718 233.494 123.159C194.422 232.946 184.959 325.922 138.464 156.097C91.9689 -13.7279 59.954 285.36 52.5093 281.857" stroke="url(#paint18_linear_421_70)" stroke-width="1.21" stroke-miterlimit="10"/>
<path d="M401.842 42.688C383.173 35.6084 373.564 253.5 337.362 239C301.16 224.501 271.31 20.0662 232.094 129.746C192.878 239.425 183.334 322.073 137.034 156.528C90.7346 -9.01733 59.4388 287.667 51.5555 283.955" stroke="url(#paint19_linear_421_70)" stroke-width="1.21" stroke-miterlimit="10"/>
<path d="M402.298 44.7569C383.982 37.8134 372.973 260.347 336.333 241.358C299.692 222.37 270.055 26.7604 230.694 136.327C191.332 245.893 181.711 318.225 135.595 156.931C89.4788 -4.36368 58.9225 289.974 50.6019 286.058" stroke="url(#paint20_linear_421_70)" stroke-width="1.22" stroke-miterlimit="10"/>
<path d="M402.754 46.8312C384.79 40.0294 372.373 267.194 335.308 243.716C298.243 220.238 268.802 33.4543 229.293 142.924C189.783 252.394 180.087 314.381 134.162 157.344C88.237 0.306677 58.4074 292.281 49.6482 288.155" stroke="url(#paint21_linear_421_70)" stroke-width="1.22" stroke-miterlimit="10"/>
<path d="M403.21 48.9004C385.598 42.2233 371.777 274.035 334.275 246.086C296.772 218.136 267.549 40.1487 227.893 149.5C188.237 258.85 178.463 310.533 132.728 157.758C86.9926 4.98321 57.8859 294.588 48.6945 290.258" stroke="url(#paint22_linear_421_70)" stroke-width="1.23" stroke-miterlimit="10"/>
<path d="M403.666 50.9694C386.407 44.4226 371.182 280.883 333.247 248.438C295.313 215.993 266.294 46.8429 226.493 156.086C186.691 265.329 176.838 306.684 131.297 158.172C85.7558 9.65957 57.3759 296.895 47.7421 292.361" stroke="url(#paint23_linear_421_70)" stroke-width="1.23" stroke-miterlimit="10"/>
<path d="M404.121 53.0379C387.214 46.6272 370.589 287.73 332.212 250.796C293.835 213.862 265.034 53.5424 225.086 162.672C185.138 271.802 175.209 302.835 129.854 158.585C84.4987 14.3355 56.8608 299.202 46.7884 294.458" stroke="url(#paint24_linear_421_70)" stroke-width="1.24" stroke-miterlimit="10"/>
<path d="M404.578 55.1126C388.022 48.8322 369.991 294.577 331.191 253.154C292.39 211.731 263.786 60.2253 223.693 169.264C183.6 278.303 173.586 298.998 128.426 159.005C83.2657 19.0118 56.3444 301.509 45.8347 296.561" stroke="url(#paint25_linear_421_70)" stroke-width="1.24" stroke-miterlimit="10"/>
<path d="M405.037 57.1814C388.834 51.0371 369.399 301.418 330.166 255.512C290.932 209.605 262.536 66.9194 222.302 175.845C182.067 284.771 171.969 295.144 126.991 159.413C82.0137 23.6824 55.8293 303.816 44.881 298.664" stroke="url(#paint26_linear_421_70)" stroke-width="1.25" stroke-miterlimit="10"/>
<path d="M405.489 59.2505C389.639 53.2422 368.8 308.266 329.133 257.87C289.465 207.474 261.279 73.6137 220.887 182.426C180.494 291.238 170.342 291.295 125.56 159.833C80.777 28.3702 55.3079 306.123 43.9273 300.761" stroke="url(#paint27_linear_421_70)" stroke-width="1.25" stroke-miterlimit="10"/>
<path d="M405.944 61.3023C390.446 55.43 368.205 315.096 328.105 260.216C288.006 205.337 260.021 80.2908 219.492 188.995C178.962 297.7 168.719 287.463 124.124 160.246C79.5287 33.0293 54.7978 308.436 42.9736 302.864" stroke="url(#paint28_linear_421_70)" stroke-width="1.26" stroke-miterlimit="10"/>
<path d="M406.401 63.3939C391.254 57.6463 367.609 321.96 327.076 262.591C286.543 203.223 258.771 87.0019 218.092 195.599C177.412 304.196 167.092 283.603 122.69 160.66C78.2869 37.7169 54.2879 310.737 42.02 304.961" stroke="url(#paint29_linear_421_70)" stroke-width="1.26" stroke-miterlimit="10"/>
<path d="M406.856 65.4628C392.066 59.8513 367.015 328.802 326.047 264.949C285.08 201.097 257.521 93.6961 216.691 202.185C175.86 310.675 165.467 279.755 121.257 161.063C77.0464 42.3706 53.7665 313.044 41.0663 307.064" stroke="url(#paint30_linear_421_70)" stroke-width="1.27" stroke-miterlimit="10"/>
<path d="M407.312 67.5374C392.871 62.0619 366.42 335.643 325.02 267.313C283.62 198.983 256.263 100.413 215.291 208.772C174.318 317.131 163.847 275.906 119.822 161.488C75.7968 47.0695 53.2499 315.351 40.1125 309.167" stroke="url(#paint31_linear_421_70)" stroke-width="1.27" stroke-miterlimit="10"/>
<path d="M407.768 69.6005C393.678 64.261 365.821 342.496 323.991 269.688C282.161 196.88 255.014 107.107 213.891 215.381C172.767 323.655 162.223 272.063 118.394 161.924C74.5652 51.7853 52.7349 317.658 39.1589 311.27" stroke="url(#paint32_linear_421_70)" stroke-width="1.28" stroke-miterlimit="10"/>
<path d="M408.224 71.6751C394.486 66.4661 365.229 349.337 322.962 272.023C280.695 194.709 253.756 113.779 212.491 221.939C171.226 330.1 160.599 268.191 116.955 162.315C73.3107 56.439 52.2185 319.965 38.2052 313.367" stroke="url(#paint33_linear_421_70)" stroke-width="1.28" stroke-miterlimit="10"/>
<path d="M408.679 73.7722C395.292 68.6708 364.634 356.213 321.934 274.426C279.235 192.64 252.502 120.472 211.09 228.514C169.677 336.555 158.975 264.365 115.52 162.763C72.0664 61.1605 51.7036 322.272 37.2516 315.47" stroke="url(#paint34_linear_421_70)" stroke-width="1.29" stroke-miterlimit="10"/>
<path d="M409.136 75.8129C396.103 70.8703 364.038 363.032 320.907 276.745C277.775 190.458 251.248 127.167 209.69 235.112C168.131 343.057 157.351 260.517 114.086 163.126C70.8206 65.7349 51.1884 324.579 36.2978 317.567" stroke="url(#paint35_linear_421_70)" stroke-width="1.29" stroke-miterlimit="10"/>
<path d="M409.591 77.8818C396.911 73.0751 363.443 369.879 319.877 279.103C276.31 188.327 249.995 133.861 208.29 241.693C166.585 349.524 155.727 256.662 112.653 163.557C69.5788 70.4508 50.672 326.886 35.3441 319.67" stroke="url(#paint36_linear_421_70)" stroke-width="1.3" stroke-miterlimit="10"/>
<path d="M410.047 79.9562C397.718 75.28 362.847 376.72 318.849 281.461C274.85 186.201 248.741 140.549 206.89 248.285C165.038 356.02 154.105 252.819 111.219 163.976C68.3318 75.1326 50.1569 329.193 34.3981 321.767" stroke="url(#paint37_linear_421_70)" stroke-width="1.3" stroke-miterlimit="10"/>
<path d="M410.503 82.025C398.527 77.4905 362.252 383.573 317.82 283.813C273.388 184.053 247.487 147.209 205.494 254.865C163.501 362.521 152.478 248.976 109.784 164.39C67.09 79.8031 49.6405 331.499 33.438 323.87" stroke="url(#paint38_linear_421_70)" stroke-width="1.31" stroke-miterlimit="10"/>
<path d="M410.959 84.0941C399.335 79.69 361.657 390.415 316.791 286.177C271.926 181.939 246.233 153.938 204.089 261.452C161.944 368.966 150.855 245.128 108.347 164.804C65.8393 84.4796 49.1255 333.807 32.4856 325.973" stroke="url(#paint39_linear_421_70)" stroke-width="1.31" stroke-miterlimit="10"/>
<path d="M411.412 86.1686C400.141 81.8891 361.059 397.262 315.761 288.523C270.463 179.784 244.976 160.615 202.686 268.021C160.396 375.428 149.228 241.262 106.914 165.2C64.5999 89.1387 48.6091 336.113 31.5306 328.07" stroke="url(#paint40_linear_421_70)" stroke-width="1.31" stroke-miterlimit="10"/>
<path d="M411.871 88.2374C400.95 84.094 360.467 404.103 314.734 290.898C269.002 177.693 243.725 167.331 201.289 274.625C158.852 381.918 147.612 237.436 105.482 165.637C63.353 93.8376 48.0939 338.42 30.5731 330.173" stroke="url(#paint41_linear_421_70)" stroke-width="1.32" stroke-miterlimit="10"/>
<path d="M412.326 90.3064C401.759 86.2989 359.872 410.951 313.706 293.256C267.54 175.562 242.476 174.02 199.891 281.228C157.307 388.437 145.984 233.615 104.049 166.05C62.115 98.4856 47.5777 340.744 29.6233 332.27" stroke="url(#paint42_linear_421_70)" stroke-width="1.32" stroke-miterlimit="10"/>
<path d="M412.782 92.3753C402.567 88.5039 359.276 417.798 312.678 295.614C266.08 173.431 241.217 180.714 198.489 287.798C155.76 394.881 144.359 229.738 102.61 166.464C60.8604 103.19 47.0625 343.012 28.6695 334.373" stroke="url(#paint43_linear_421_70)" stroke-width="1.33" stroke-miterlimit="10"/>
<path d="M413.237 94.4498C403.375 90.7088 358.681 424.639 311.649 297.972C264.617 171.305 239.964 187.408 197.086 294.384C154.209 401.36 142.734 225.89 101.179 166.85C59.625 107.81 46.5462 345.313 27.7147 336.448" stroke="url(#paint44_linear_421_70)" stroke-width="1.33" stroke-miterlimit="10"/>
<path d="M413.694 96.5187C404.182 92.9137 358.085 431.509 310.621 300.33C263.157 169.151 238.712 194.102 195.688 300.971C152.663 407.839 141.114 222.047 99.7475 167.297C58.3806 112.548 46.0311 347.648 26.7622 338.573" stroke="url(#paint45_linear_421_70)" stroke-width="1.34" stroke-miterlimit="10"/>
<path d="M414.149 98.5876C404.991 95.113 357.49 438.334 309.592 302.694C261.695 167.054 237.456 200.797 194.288 307.551C151.119 414.306 139.488 218.198 98.3131 167.706C57.1387 117.213 45.5159 349.955 25.8084 340.676" stroke="url(#paint46_linear_421_70)" stroke-width="1.34" stroke-miterlimit="10"/>
<path d="M414.605 100.656C405.799 97.3178 356.894 445.181 308.564 305.052C260.233 164.922 236.203 207.491 192.887 314.121C149.57 420.751 137.863 214.36 96.8801 168.102C55.8969 121.844 45.0009 352.245 24.8561 342.762" stroke="url(#paint47_linear_421_70)" stroke-width="1.35" stroke-miterlimit="10"/>
<path d="M415.061 102.731C406.607 99.5229 356.299 452.022 307.536 307.41C258.773 162.797 234.953 214.185 191.487 320.724C148.02 427.264 136.239 210.501 95.4444 168.539C54.65 126.577 44.4845 354.569 23.9011 344.876" stroke="url(#paint48_linear_421_70)" stroke-width="1.35" stroke-miterlimit="10"/>
<path d="M415.517 104.8C407.416 101.728 355.704 458.87 306.506 309.768C257.308 160.666 233.695 220.879 190.087 327.311C146.478 433.742 134.612 206.652 94.0114 168.953C53.4107 131.253 43.9682 356.876 22.9475 346.979" stroke="url(#paint49_linear_421_70)" stroke-width="1.36" stroke-miterlimit="10"/>
<path d="M415.972 106.869C408.223 103.933 355.108 465.717 305.478 312.126C255.848 158.534 232.44 227.573 188.689 333.897C144.938 440.221 132.991 202.809 92.5769 169.366C52.1624 135.924 43.4504 359.183 21.995 349.077" stroke="url(#paint50_linear_421_70)" stroke-width="1.36" stroke-miterlimit="10"/>
<path d="M416.429 108.915C409.034 106.081 354.513 472.541 304.45 314.461C254.388 156.381 231.187 234.239 187.287 340.461C143.387 446.683 131.367 198.96 91.1427 169.78C50.9181 140.601 42.9405 361.49 21.0414 351.18" stroke="url(#paint51_linear_421_70)" stroke-width="1.37" stroke-miterlimit="10"/>
<path d="M416.884 111.012C409.839 108.348 353.919 479.405 303.42 316.847C252.922 154.289 229.934 240.984 185.886 347.064C141.837 453.145 129.743 195.111 89.7095 170.217C49.6762 145.322 42.4215 363.82 20.0876 353.299" stroke="url(#paint52_linear_421_70)" stroke-width="1.37" stroke-miterlimit="10"/>
<path d="M417.34 113.081C410.647 110.542 353.323 486.253 302.393 319.205C251.462 152.158 228.679 247.65 184.486 353.651C140.292 459.652 128.12 191.263 88.2752 170.608C48.4306 149.953 41.9065 366.104 19.1339 355.391" stroke="url(#paint53_linear_421_70)" stroke-width="1.38" stroke-miterlimit="10"/>
<path d="M417.795 115.15C411.455 112.747 352.728 493.1 301.365 321.563C250.002 150.026 227.431 254.344 183.086 360.237C138.74 466.13 126.495 187.42 86.8408 171.021C47.1862 154.623 41.3901 368.411 18.1802 357.505" stroke="url(#paint54_linear_421_70)" stroke-width="1.38" stroke-miterlimit="10"/>
<path d="M418.252 117.219C412.26 114.952 352.132 499.942 300.336 323.921C248.54 147.901 226.171 261.038 181.686 366.818C137.2 472.598 124.871 183.571 85.4078 171.436C45.9444 159.3 40.8751 370.718 17.2266 359.586" stroke="url(#paint55_linear_421_70)" stroke-width="1.39" stroke-miterlimit="10"/>
<path d="M418.707 119.293C413.072 117.157 351.537 506.788 299.307 326.279C247.077 145.77 224.918 267.732 180.285 373.41C135.651 479.088 123.247 179.722 83.9734 171.832C44.7 163.942 40.3586 373.053 16.2729 361.682" stroke="url(#paint56_linear_421_70)" stroke-width="1.39" stroke-miterlimit="10"/>
<path d="M419.164 121.385C413.88 119.379 350.942 513.658 298.28 328.66C245.617 143.661 223.665 274.426 178.885 379.997C134.105 485.567 121.624 175.873 82.5391 172.268C43.4543 168.664 39.8436 375.32 15.3192 363.786" stroke="url(#paint57_linear_421_70)" stroke-width="1.4" stroke-miterlimit="10"/>
<path d="M419.619 123.431C414.687 121.561 350.346 520.483 297.251 330.995C244.155 141.507 222.409 281.115 177.485 386.577C132.56 492.04 119.999 172.03 81.1059 172.682C42.2124 173.334 39.3271 377.639 14.3654 365.883" stroke="url(#paint58_linear_421_70)" stroke-width="1.4" stroke-miterlimit="10"/>
<path d="M420.082 125.5C415.492 123.766 349.751 527.324 296.222 333.376C242.693 139.427 221.157 287.832 176.085 393.181C131.013 498.53 118.375 168.182 79.6716 173.096C40.9681 178.01 38.8121 379.946 13.4118 367.986" stroke="url(#paint59_linear_421_70)" stroke-width="1.41" stroke-miterlimit="10"/>
<path d="M420.53 127.575C416.304 125.971 349.155 534.172 295.199 335.717C241.243 137.262 219.909 294.509 174.689 399.767C129.469 505.026 116.752 164.333 78.2372 173.533C39.7224 182.732 38.2957 382.253 12.4581 370.089" stroke="url(#paint60_linear_421_70)" stroke-width="1.41" stroke-miterlimit="10"/>
<path d="M420.987 129.644C417.112 128.187 348.555 541.019 294.165 338.075C239.775 135.131 218.649 301.231 173.284 406.337C127.918 511.442 115.128 160.496 76.8042 173.924C38.4806 187.352 37.7807 384.56 11.5045 372.186" stroke="url(#paint61_linear_421_70)" stroke-width="1.42" stroke-miterlimit="10"/>
<path d="M421.442 131.713C417.92 130.381 347.964 547.86 293.136 340.433C238.308 133.005 217.402 307.897 171.885 412.923C126.368 517.949 113.505 156.641 75.3685 174.337C37.2324 192.034 37.2643 386.867 10.5559 374.289" stroke="url(#paint62_linear_421_70)" stroke-width="1.42" stroke-miterlimit="10"/>
<path d="M421.898 133.781C418.727 132.58 347.369 554.707 292.105 342.791C236.84 130.874 216.141 314.591 170.484 419.532C124.826 524.473 111.879 152.793 73.9354 174.757C35.9918 196.721 36.7491 389.173 9.5983 376.392" stroke="url(#paint63_linear_421_70)" stroke-width="1.43" stroke-miterlimit="10"/>
<path d="M422.354 135.856C419.536 134.785 346.775 561.538 291.08 345.149C235.384 128.76 214.888 321.28 169.084 426.096C123.28 530.912 110.26 148.944 72.5023 175.171C34.7449 201.397 36.2341 391.48 8.64337 378.489" stroke="url(#paint64_linear_421_70)" stroke-width="1.43" stroke-miterlimit="10"/>
<path d="M422.81 137.925C420.344 136.99 346.183 568.402 290.051 347.512C233.918 126.622 213.634 327.974 167.683 432.677C121.731 537.38 108.632 145.095 71.068 175.584C33.5044 206.074 35.7177 393.81 7.69098 380.592" stroke="url(#paint65_linear_421_70)" stroke-width="1.44" stroke-miterlimit="10"/>
<path d="M423.269 139.994C421.156 139.195 345.588 575.243 289.027 349.87C232.466 124.497 212.386 334.668 166.283 439.263C120.179 543.858 107.007 141.252 69.6387 175.998C32.2701 210.744 35.2026 396.1 6.73721 382.689" stroke="url(#paint66_linear_421_70)" stroke-width="1.44" stroke-miterlimit="10"/>
<path d="M423.722 142.063C421.959 141.4 344.985 582.091 287.993 352.228C231.001 122.366 211.125 341.362 164.881 445.85C118.638 550.337 105.383 137.404 68.2005 176.412C31.018 215.421 34.6862 398.407 5.78351 384.792" stroke="url(#paint67_linear_421_70)" stroke-width="1.45" stroke-miterlimit="10"/>
<path d="M424.177 144.137C422.774 143.599 344.393 588.938 286.965 354.586C229.537 120.234 209.872 348.056 163.483 452.436C117.094 556.816 103.757 133.555 66.7661 176.826C29.7749 220.097 34.1711 400.719 4.82983 386.895" stroke="url(#paint68_linear_421_70)" stroke-width="1.45" stroke-miterlimit="10"/>
<path d="M424.633 146.206C423.576 145.804 343.799 595.785 285.938 356.944C228.076 118.103 208.619 354.75 162.082 459.023C115.545 563.295 102.136 129.7 65.3318 177.239C28.528 224.779 33.6547 403.021 3.87744 388.992" stroke="url(#paint69_linear_421_70)" stroke-width="1.46" stroke-miterlimit="10"/>
<path d="M425.089 148.275C424.385 148.026 343.2 602.615 284.909 359.302C226.618 115.989 207.365 361.445 160.682 465.609C113.998 569.773 100.511 125.863 63.8988 177.659C27.2863 229.455 33.1397 405.328 2.92255 391.095" stroke="url(#paint70_linear_421_70)" stroke-width="1.46" stroke-miterlimit="10"/>
<path d="M425.545 150.344C425.192 150.214 342.607 609.468 283.88 361.666C225.153 113.863 206.106 368.139 159.282 472.196C112.458 576.252 98.8881 122.014 62.4643 178.067C26.0405 234.12 32.6296 407.629 1.96875 393.192" stroke="url(#paint71_linear_421_70)" stroke-width="1.47" stroke-miterlimit="10"/>
<path d="M426 152.418C426 152.418 342.012 616.321 282.852 364.024C223.693 111.726 204.864 374.833 157.882 478.776C110.9 582.72 97.2638 118.166 61.03 178.486C24.7962 238.807 32.1031 409.942 1.01511 395.295" stroke="url(#paint72_linear_421_70)" stroke-width="1.47" stroke-miterlimit="10"/>
</g>
</g>
<defs>
<linearGradient id="paint0_linear_421_70" x1="220" y1="-12" x2="220" y2="529" gradientUnits="userSpaceOnUse">
<stop stop-color="#51B276"/>
<stop offset="1" stop-color="#316D60"/>
</linearGradient>
<linearGradient id="paint1_linear_421_70" x1="-35.4711" y1="161.861" x2="291.798" y2="158.917" gradientUnits="userSpaceOnUse">
<stop stop-color="white"/>
<stop offset="1"/>
</linearGradient>
<linearGradient id="paint2_linear_421_70" x1="-36.1531" y1="163.783" x2="293.749" y2="161.488" gradientUnits="userSpaceOnUse">
<stop stop-color="white"/>
<stop offset="1"/>
</linearGradient>
<linearGradient id="paint3_linear_421_70" x1="-36.0901" y1="165.947" x2="290.535" y2="163.602" gradientUnits="userSpaceOnUse">
<stop stop-color="white"/>
<stop offset="1"/>
</linearGradient>
<linearGradient id="paint4_linear_421_70" x1="-34.4962" y1="167.994" x2="294.925" y2="165.551" gradientUnits="userSpaceOnUse">
<stop stop-color="white"/>
<stop offset="1"/>
</linearGradient>
<linearGradient id="paint5_linear_421_70" x1="-32.8593" y1="180.623" x2="299.419" y2="178.103" gradientUnits="userSpaceOnUse">
<stop stop-color="white"/>
<stop offset="1"/>
</linearGradient>
<linearGradient id="paint6_linear_421_70" x1="-31.1724" y1="183.14" x2="304.187" y2="180.509" gradientUnits="userSpaceOnUse">
<stop stop-color="white"/>
<stop offset="1"/>
</linearGradient>
<linearGradient id="paint7_linear_421_70" x1="-29.4966" y1="185.545" x2="309.057" y2="182.793" gradientUnits="userSpaceOnUse">
<stop stop-color="white"/>
<stop offset="1"/>
</linearGradient>
<linearGradient id="paint8_linear_421_70" x1="-29.3694" y1="188.539" x2="304.71" y2="185.721" gradientUnits="userSpaceOnUse">
<stop stop-color="white"/>
<stop offset="1"/>
</linearGradient>
<linearGradient id="paint9_linear_421_70" x1="-27.6019" y1="192.785" x2="309.633" y2="189.829" gradientUnits="userSpaceOnUse">
<stop stop-color="white"/>
<stop offset="1"/>
</linearGradient>
<linearGradient id="paint10_linear_421_70" x1="-25.8064" y1="208.621" x2="314.888" y2="205.555" gradientUnits="userSpaceOnUse">
<stop stop-color="white"/>
<stop offset="1"/>
</linearGradient>
<linearGradient id="paint11_linear_421_70" x1="-23.9494" y1="213.988" x2="320.381" y2="210.761" gradientUnits="userSpaceOnUse">
<stop stop-color="white"/>
<stop offset="1"/>
</linearGradient>
<linearGradient id="paint12_linear_421_70" x1="-23.8382" y1="217.713" x2="314.227" y2="214.406" gradientUnits="userSpaceOnUse">
<stop stop-color="white"/>
<stop offset="1"/>
</linearGradient>
<linearGradient id="paint13_linear_421_70" x1="-21.9636" y1="221.1" x2="319.773" y2="217.606" gradientUnits="userSpaceOnUse">
<stop stop-color="white"/>
<stop offset="1"/>
</linearGradient>
<linearGradient id="paint14_linear_421_70" x1="-20.0267" y1="224.605" x2="325.63" y2="220.903" gradientUnits="userSpaceOnUse">
<stop stop-color="white"/>
<stop offset="1"/>
</linearGradient>
<linearGradient id="paint15_linear_421_70" x1="-18.0011" y1="241.785" x2="332.116" y2="237.911" gradientUnits="userSpaceOnUse">
<stop stop-color="white"/>
<stop offset="1"/>
</linearGradient>
<linearGradient id="paint16_linear_421_70" x1="-15.9591" y1="246.792" x2="339.081" y2="242.662" gradientUnits="userSpaceOnUse">
<stop stop-color="white"/>
<stop offset="1"/>
</linearGradient>
<linearGradient id="paint17_linear_421_70" x1="-15.9003" y1="252.899" x2="329.324" y2="248.664" gradientUnits="userSpaceOnUse">
<stop stop-color="white"/>
<stop offset="1"/>
</linearGradient>
<linearGradient id="paint18_linear_421_70" x1="-13.7285" y1="260.693" x2="336.313" y2="256.151" gradientUnits="userSpaceOnUse">
<stop stop-color="white"/>
<stop offset="1"/>
</linearGradient>
<linearGradient id="paint19_linear_421_70" x1="-11.4442" y1="269.724" x2="344.296" y2="264.825" gradientUnits="userSpaceOnUse">
<stop stop-color="white"/>
<stop offset="1"/>
</linearGradient>
<linearGradient id="paint20_linear_421_70" x1="-8.99552" y1="281.965" x2="353.903" y2="276.642" gradientUnits="userSpaceOnUse">
<stop stop-color="white"/>
<stop offset="1"/>
</linearGradient>
<linearGradient id="paint21_linear_421_70" x1="-9.14056" y1="312.946" x2="336.214" y2="307.65" gradientUnits="userSpaceOnUse">
<stop stop-color="white"/>
<stop offset="1"/>
</linearGradient>
<linearGradient id="paint22_linear_421_70" x1="-6.40735" y1="334.997" x2="345.724" y2="329.201" gradientUnits="userSpaceOnUse">
<stop stop-color="white"/>
<stop offset="1"/>
</linearGradient>
<linearGradient id="paint23_linear_421_70" x1="-3.27122" y1="368.385" x2="357.886" y2="361.972" gradientUnits="userSpaceOnUse">
<stop stop-color="white"/>
<stop offset="1"/>
</linearGradient>
<linearGradient id="paint24_linear_421_70" x1="0.811999" y1="421.629" x2="376.523" y2="414.385" gradientUnits="userSpaceOnUse">
<stop stop-color="white"/>
<stop offset="1"/>
</linearGradient>
<linearGradient id="paint25_linear_421_70" x1="6.99178" y1="526.623" x2="408.927" y2="518.147" gradientUnits="userSpaceOnUse">
<stop stop-color="white"/>
<stop offset="1"/>
</linearGradient>
<linearGradient id="paint26_linear_421_70" x1="10.2989" y1="856.161" x2="335.922" y2="848.836" gradientUnits="userSpaceOnUse">
<stop stop-color="white"/>
<stop offset="1"/>
</linearGradient>
<linearGradient id="paint27_linear_421_70" x1="154.32" y1="6494.19" x2="473.48" y2="6486.22" gradientUnits="userSpaceOnUse">
<stop stop-color="white"/>
<stop offset="1"/>
</linearGradient>
<linearGradient id="paint28_linear_421_70" x1="437.594" y1="1423.88" x2="107.026" y2="1433.17" gradientUnits="userSpaceOnUse">
<stop stop-color="white"/>
<stop offset="1"/>
</linearGradient>
<linearGradient id="paint29_linear_421_70" x1="418.688" y1="766.956" x2="79.4722" y2="774.222" gradientUnits="userSpaceOnUse">
<stop stop-color="white"/>
<stop offset="1"/>
</linearGradient>
<linearGradient id="paint30_linear_421_70" x1="483.6" y1="564.576" x2="86.1464" y2="574.51" gradientUnits="userSpaceOnUse">
<stop stop-color="white"/>
<stop offset="1"/>
</linearGradient>
<linearGradient id="paint31_linear_421_70" x1="460.061" y1="466.241" x2="76.9836" y2="477.73" gradientUnits="userSpaceOnUse">
<stop stop-color="white"/>
<stop offset="1"/>
</linearGradient>
<linearGradient id="paint32_linear_421_70" x1="446.726" y1="419.738" x2="69.6645" y2="432.787" gradientUnits="userSpaceOnUse">
<stop stop-color="white"/>
<stop offset="1"/>
</linearGradient>
<linearGradient id="paint33_linear_421_70" x1="438.232" y1="381.93" x2="64.5217" y2="398.742" gradientUnits="userSpaceOnUse">
<stop stop-color="white"/>
<stop offset="1"/>
</linearGradient>
<linearGradient id="paint34_linear_421_70" x1="434.299" y1="355.365" x2="60.7675" y2="379.371" gradientUnits="userSpaceOnUse">
<stop stop-color="white"/>
<stop offset="1"/>
</linearGradient>
<linearGradient id="paint35_linear_421_70" x1="462.23" y1="221.796" x2="50.4182" y2="268.112" gradientUnits="userSpaceOnUse">
<stop stop-color="white"/>
<stop offset="1"/>
</linearGradient>
<linearGradient id="paint36_linear_421_70" x1="505.71" y1="200.383" x2="111.017" y2="377.946" gradientUnits="userSpaceOnUse">
<stop stop-color="white"/>
<stop offset="1"/>
</linearGradient>
<linearGradient id="paint37_linear_421_70" x1="381.126" y1="171.381" x2="119.492" y2="53.6788" gradientUnits="userSpaceOnUse">
<stop stop-color="white"/>
<stop offset="1"/>
</linearGradient>
<linearGradient id="paint38_linear_421_70" x1="397.153" y1="210.388" x2="60.4344" y2="172.518" gradientUnits="userSpaceOnUse">
<stop stop-color="white"/>
<stop offset="1"/>
</linearGradient>
<linearGradient id="paint39_linear_421_70" x1="415.168" y1="219.604" x2="50.928" y2="196.195" gradientUnits="userSpaceOnUse">
<stop stop-color="white"/>
<stop offset="1"/>
</linearGradient>
<linearGradient id="paint40_linear_421_70" x1="412.416" y1="223.541" x2="43.7019" y2="206.954" gradientUnits="userSpaceOnUse">
<stop stop-color="white"/>
<stop offset="1"/>
</linearGradient>
<linearGradient id="paint41_linear_421_70" x1="408.857" y1="226.037" x2="38.1214" y2="213.208" gradientUnits="userSpaceOnUse">
<stop stop-color="white"/>
<stop offset="1"/>
</linearGradient>
<linearGradient id="paint42_linear_421_70" x1="404.941" y1="227.506" x2="33.2252" y2="217.055" gradientUnits="userSpaceOnUse">
<stop stop-color="white"/>
<stop offset="1"/>
</linearGradient>
<linearGradient id="paint43_linear_421_70" x1="401.149" y1="226.958" x2="28.6976" y2="217.65" gradientUnits="userSpaceOnUse">
<stop stop-color="white"/>
<stop offset="1"/>
</linearGradient>
<linearGradient id="paint44_linear_421_70" x1="407.38" y1="229.178" x2="24.392" y2="220.973" gradientUnits="userSpaceOnUse">
<stop stop-color="white"/>
<stop offset="1"/>
</linearGradient>
<linearGradient id="paint45_linear_421_70" x1="402.959" y1="230.787" x2="20.1196" y2="223.611" gradientUnits="userSpaceOnUse">
<stop stop-color="white"/>
<stop offset="1"/>
</linearGradient>
<linearGradient id="paint46_linear_421_70" x1="398.825" y1="232.355" x2="15.9824" y2="225.976" gradientUnits="userSpaceOnUse">
<stop stop-color="white"/>
<stop offset="1"/>
</linearGradient>
<linearGradient id="paint47_linear_421_70" x1="394.758" y1="233.544" x2="11.9675" y2="227.804" gradientUnits="userSpaceOnUse">
<stop stop-color="white"/>
<stop offset="1"/>
</linearGradient>
<linearGradient id="paint48_linear_421_70" x1="398.461" y1="236.581" x2="7.20892" y2="231.081" gradientUnits="userSpaceOnUse">
<stop stop-color="white"/>
<stop offset="1"/>
</linearGradient>
<linearGradient id="paint49_linear_421_70" x1="394.23" y1="238.115" x2="3.19593" y2="233.089" gradientUnits="userSpaceOnUse">
<stop stop-color="white"/>
<stop offset="1"/>
</linearGradient>
<linearGradient id="paint50_linear_421_70" x1="390.213" y1="239.337" x2="-0.762264" y2="234.709" gradientUnits="userSpaceOnUse">
<stop stop-color="white"/>
<stop offset="1"/>
</linearGradient>
<linearGradient id="paint51_linear_421_70" x1="386.344" y1="240.799" x2="-4.68414" y2="236.508" gradientUnits="userSpaceOnUse">
<stop stop-color="white"/>
<stop offset="1"/>
</linearGradient>
<linearGradient id="paint52_linear_421_70" x1="388.369" y1="244.051" x2="-9.82572" y2="239.98" gradientUnits="userSpaceOnUse">
<stop stop-color="white"/>
<stop offset="1"/>
</linearGradient>
<linearGradient id="paint53_linear_421_70" x1="384.357" y1="250.703" x2="-13.7956" y2="246.809" gradientUnits="userSpaceOnUse">
<stop stop-color="white"/>
<stop offset="1"/>
</linearGradient>
<linearGradient id="paint54_linear_421_70" x1="380.425" y1="254.203" x2="-17.716" y2="250.547" gradientUnits="userSpaceOnUse">
<stop stop-color="white"/>
<stop offset="1"/>
</linearGradient>
<linearGradient id="paint55_linear_421_70" x1="376.652" y1="257.446" x2="-21.6216" y2="254" gradientUnits="userSpaceOnUse">
<stop stop-color="white"/>
<stop offset="1"/>
</linearGradient>
<linearGradient id="paint56_linear_421_70" x1="372.06" y1="260.831" x2="-26.2555" y2="259.202" gradientUnits="userSpaceOnUse">
<stop stop-color="white"/>
<stop offset="1"/>
</linearGradient>
<linearGradient id="paint57_linear_421_70" x1="372.82" y1="264.034" x2="-31.8131" y2="262.465" gradientUnits="userSpaceOnUse">
<stop stop-color="white"/>
<stop offset="1"/>
</linearGradient>
<linearGradient id="paint58_linear_421_70" x1="369.027" y1="267.297" x2="-35.7732" y2="265.804" gradientUnits="userSpaceOnUse">
<stop stop-color="white"/>
<stop offset="1"/>
</linearGradient>
<linearGradient id="paint59_linear_421_70" x1="365.262" y1="274.578" x2="-39.7046" y2="273.132" gradientUnits="userSpaceOnUse">
<stop stop-color="white"/>
<stop offset="1"/>
</linearGradient>
<linearGradient id="paint60_linear_421_70" x1="361.621" y1="277.882" x2="-43.6401" y2="276.501" gradientUnits="userSpaceOnUse">
<stop stop-color="white"/>
<stop offset="1"/>
</linearGradient>
<linearGradient id="paint61_linear_421_70" x1="361.531" y1="281.193" x2="-49.4307" y2="279.854" gradientUnits="userSpaceOnUse">
<stop stop-color="white"/>
<stop offset="1"/>
</linearGradient>
<linearGradient id="paint62_linear_421_70" x1="357.811" y1="284.361" x2="-53.4056" y2="283.076" gradientUnits="userSpaceOnUse">
<stop stop-color="white"/>
<stop offset="1"/>
</linearGradient>
<linearGradient id="paint63_linear_421_70" x1="354.133" y1="287.569" x2="-57.3517" y2="286.335" gradientUnits="userSpaceOnUse">
<stop stop-color="white"/>
<stop offset="1"/>
</linearGradient>
<linearGradient id="paint64_linear_421_70" x1="350.54" y1="295.28" x2="-61.3135" y2="294.077" gradientUnits="userSpaceOnUse">
<stop stop-color="white"/>
<stop offset="1"/>
</linearGradient>
<linearGradient id="paint65_linear_421_70" x1="346.952" y1="298.525" x2="-65.2601" y2="297.366" gradientUnits="userSpaceOnUse">
<stop stop-color="white"/>
<stop offset="1"/>
</linearGradient>
<linearGradient id="paint66_linear_421_70" x1="346.136" y1="301.779" x2="-71.3328" y2="300.647" gradientUnits="userSpaceOnUse">
<stop stop-color="white"/>
<stop offset="1"/>
</linearGradient>
<linearGradient id="paint67_linear_421_70" x1="342.528" y1="304.923" x2="-75.3356" y2="303.83" gradientUnits="userSpaceOnUse">
<stop stop-color="white"/>
<stop offset="1"/>
</linearGradient>
<linearGradient id="paint68_linear_421_70" x1="338.922" y1="308.092" x2="-79.3241" y2="307.035" gradientUnits="userSpaceOnUse">
<stop stop-color="white"/>
<stop offset="1"/>
</linearGradient>
<linearGradient id="paint69_linear_421_70" x1="335.392" y1="311.217" x2="-83.329" y2="310.193" gradientUnits="userSpaceOnUse">
<stop stop-color="white"/>
<stop offset="1"/>
</linearGradient>
<linearGradient id="paint70_linear_421_70" x1="334.023" y1="319.304" x2="-89.5788" y2="318.29" gradientUnits="userSpaceOnUse">
<stop stop-color="white"/>
<stop offset="1"/>
</linearGradient>
<linearGradient id="paint71_linear_421_70" x1="330.419" y1="322.521" x2="-93.6366" y2="321.537" gradientUnits="userSpaceOnUse">
<stop stop-color="white"/>
<stop offset="1"/>
</linearGradient>
<linearGradient id="paint72_linear_421_70" x1="326.781" y1="324.97" x2="-97.7695" y2="324.103" gradientUnits="userSpaceOnUse">
<stop stop-color="white"/>
<stop offset="1"/>
</linearGradient>
</defs>
</svg>
