<svg width="408" height="225" viewBox="0 0 408 225" fill="none" xmlns="http://www.w3.org/2000/svg">
<path d="M289.3 179.005C269.621 192.065 234.419 204.708 194.703 210.197C143.179 217.3 84.0871 212.409 41.4262 180.826C38.9216 178.979 36.472 177.028 34.0775 174.999C-50.1708 102.962 37.05 -14.9911 130.381 34.8282C190.271 66.801 218.84 78.4559 296.428 42.997C359.456 14.1981 402.778 103.587 289.3 179.005Z" fill="#51B276"/>
<path d="M404.98 23.7194C401.842 9.82724 349.218 2.41288 331.906 1.29422C314.594 0.175564 294.667 1.06009 295.135 12.9491C295.603 24.8381 297.281 61.5977 297.639 89.6422C294.474 88.5495 291.199 87.613 287.758 86.9626C287.979 85.1676 288.584 83.0083 290.07 80.9271C292.685 77.2329 293.153 72.7582 291.777 72.2379C288.887 67.5812 274.823 67.4511 269.951 69.4803L267.887 70.4949C267.336 69.9226 266.813 69.6364 265.795 70.0266C262.602 71.1973 266.841 79.2361 269.566 82.6441C270.612 83.9708 271.272 85.0115 271.685 85.974C271.272 86 270.832 86.0261 270.419 86.0781C257.208 87.3268 255.997 94.0388 262.575 97.3427C259.355 98.7475 258.446 102.13 263.758 105.902C260.621 106.942 259.988 110.22 262.437 112.302C263.07 112.822 263.978 113.342 265.052 113.81C260.621 115.527 261.281 118.753 266.979 121.147C267.419 121.329 267.859 121.485 268.3 121.641C262.905 135.819 245.4 156.606 249.391 182.777C253.382 208.974 270.694 213.787 284.731 212.721C293.318 212.07 303.942 206.789 310.905 198.1C310.905 198.1 367.08 221.904 380.126 223.699C393.172 225.494 396.75 220.551 399.585 212.851C402.365 205.176 410.154 46.6649 404.98 23.7194Z" fill="#FFFEF2"/>
<path d="M371.98 205.124C369.255 205.124 365.402 204.084 359.897 201.95C341.979 194.978 317.126 186.627 316.878 186.549C316.383 186.393 316.108 185.873 316.3 185.379C316.465 184.91 317.016 184.65 317.539 184.832C317.786 184.91 342.695 193.287 360.64 200.285C368.099 203.199 372.337 203.98 374.374 202.835C376.301 201.742 376.631 198.542 377.099 194.12C377.209 193.105 377.319 192.065 377.457 190.972C380.759 164.124 384.393 77.6752 382.521 56.1606C381.64 46.1187 380.539 40.7595 376.603 37.4296C372.668 34.1256 365.787 32.6168 353.319 29.8591L347.044 28.4803C325.796 23.7976 310.438 20.3896 306.034 23.6935C305.181 24.3439 304.768 25.2284 304.768 26.5032V92.1137C304.768 92.608 304.328 93.0243 303.805 93.0243C303.282 93.0243 302.841 92.608 302.841 92.1137V26.4251C302.841 24.604 303.502 23.1732 304.823 22.1846C309.942 18.3344 324.887 21.6383 347.456 26.6332L353.732 28.012C366.53 30.8217 373.548 32.3566 377.87 35.9987C382.301 39.7189 383.512 45.3903 384.42 55.9525C386.292 77.5452 382.659 164.228 379.328 191.128C379.191 192.221 379.081 193.261 378.97 194.25C378.448 199.193 378.09 202.783 375.31 204.344C374.429 204.864 373.356 205.124 371.98 205.124Z" fill="#202D37"/>
<path d="M384.998 225C383.457 225 381.778 224.87 379.934 224.61C366.915 222.815 312.75 199.921 310.465 198.959C309.97 198.751 309.75 198.204 309.97 197.762C310.19 197.294 310.768 197.086 311.236 197.294C311.786 197.528 367.438 221.046 380.209 222.815C393.117 224.584 396.09 219.459 398.622 212.565C399.998 208.844 402.64 167.454 404.292 123.957C406.301 70.9634 406.218 33.5534 404.016 23.8757C402.75 18.3084 392.209 13.0013 373.521 8.5787C358.796 5.09265 341.594 2.8033 331.823 2.17893C314.401 1.06028 303.199 2.64721 298.548 6.88771C296.786 8.50065 295.988 10.4518 296.071 12.8972C296.126 14.5622 296.236 16.7215 296.346 19.271C297.006 35.4265 298.273 65.5002 298.603 89.6164C298.603 90.1107 298.19 90.5269 297.64 90.5269C297.117 90.5269 296.676 90.1367 296.676 89.6164C296.346 65.5262 295.107 35.4785 294.419 19.323C294.309 16.7735 294.227 14.6143 294.144 12.9493C294.034 10.0095 295.052 7.53809 297.199 5.58694C302.318 0.878171 313.685 -0.812825 331.933 0.357864C345.777 1.24238 402.42 8.18847 405.888 23.5115C409.081 37.6638 407.154 98.5396 406.191 124.035C404.677 163.578 402.007 208.844 400.411 213.163C399.09 216.727 397.411 220.343 394.163 222.581C391.824 224.22 388.851 225 384.998 225Z" fill="#202D37"/>
<path d="M297.254 129.758C295.107 125.674 293.236 121.017 291.859 115.424C288.281 112.718 286.272 108.556 285.639 102.312C285.639 102.312 281.538 102.52 277.768 102.104C282.667 104.862 282.199 109.648 277.245 110.351L277.327 110.871C278.676 111.365 279.199 114.773 276.722 115.684C282.667 121.121 275.731 124.139 268.3 121.641C262.905 135.82 245.4 156.606 249.391 182.777C253.382 208.975 270.694 213.788 284.731 212.721C293.318 212.071 303.942 206.79 310.905 198.1C313.795 194.51 316.052 190.322 317.263 185.639C317.924 183.142 318.282 180.514 318.282 177.73C318.199 153.614 305.759 146.018 297.254 129.758Z" fill="#75FB4C"/>
<path d="M235.409 140.164C234.474 142.818 221.207 144.067 216.226 144.431L216.281 145.159C220.574 145.159 230.4 145.471 230.4 148.307C230.373 151.845 215.125 151.559 215.125 151.559C210.694 160.196 201.17 161.211 200.785 161.263C200.4 161.315 199.326 164.124 199.024 165.555C200.923 166.102 202.079 166.336 202.079 166.336C202.079 166.336 200.4 170.758 199.354 174.114C198.308 177.47 197.95 179.942 199.987 182.257C202.904 185.561 199.244 198.23 194.703 210.223C143.179 217.326 84.087 212.435 41.4261 180.852C54.2244 148.151 73.986 127.651 78.2246 119.742C79.3255 117.713 82.0503 95.47 80.7292 81.89C76.876 83.4769 69.3071 84.9858 65.5915 81.1876C60.6648 76.1146 67.6282 69.0644 74.0686 70.4433H74.0961C74.1512 70.4693 74.2337 70.4693 74.2888 70.4953C76.3255 71.0156 77.8118 72.6546 78.5549 74.1634C79.5457 76.1926 82.6834 77.9357 83.3714 73.8513C84.0595 69.7669 85.9861 69.2986 86.8944 68.6482C87.8302 67.9978 88.7109 63.9654 86.8944 62.5086C89.454 63.159 93.3348 61.3899 92.977 57.3576C95.344 59.2047 101.096 58.8925 102.913 54.678C105.225 56.8633 107.784 56.8633 109.739 55.9787C124.574 63.3151 139.298 71.5359 139.216 72.6546C139.133 73.8513 121.271 80.9534 121.271 80.7973C121.271 80.6413 120.28 118.077 120.83 120.08C130.161 129.498 142.546 144.743 152.565 184.676C152.565 184.728 152.592 184.754 152.592 184.807C152.62 184.963 152.675 185.119 152.702 185.275C154.133 190.764 157.574 195.525 163.326 185.093C163.326 185.093 163.326 185.171 163.326 185.301C167.895 176.976 172.326 170.446 174.39 170.836C174.39 170.836 176.069 163.162 178.794 154.941C180.363 150.232 182.29 145.367 184.436 141.673C193.244 126.532 202.712 120.549 216.061 117.011C231.143 112.978 234.446 120.132 213.06 129.784C220.327 128.119 230.07 127.521 232.492 130.07C236.097 133.869 223.217 136.236 217.024 137.068C227.455 136.496 236.593 136.886 235.409 140.164Z" fill="#FFFEF2"/>
<path d="M37.0779 194.38C36.9954 194.38 36.9128 194.38 36.8027 194.354C36.2798 194.224 36.0045 193.703 36.1421 193.235C45.2798 162.797 61.3258 141.361 70.9039 128.561C73.8764 124.581 76.2434 121.433 77.3718 119.326C78.225 117.713 80.9774 97.1346 79.8764 83.1904C75.748 84.5953 68.647 85.6879 64.8763 81.8116C62.5093 79.3922 62.3167 76.1403 64.3809 73.3567C66.5552 70.4169 71.2342 68.2316 75.6379 69.9747C76.1333 70.1568 76.3535 70.7031 76.1608 71.1714C75.9682 71.6396 75.3902 71.8478 74.8947 71.6657C71.4268 70.2869 67.6837 72.0559 65.9497 74.3973C65.2066 75.3859 63.7754 77.9874 66.28 80.5629C69.4727 83.8408 76.436 82.6441 80.3443 81.0312C80.6196 80.9271 80.9498 80.9271 81.2251 81.0832C81.5003 81.2393 81.6654 81.4994 81.693 81.7856C82.9865 95.0534 80.3994 117.687 79.1058 120.132C77.9223 122.369 75.5278 125.543 72.5002 129.602C62.9772 142.297 47.0688 163.578 38.0137 193.703C37.8761 194.12 37.4908 194.38 37.0779 194.38Z" fill="#202D37"/>
<path d="M68.5639 78.4818C68.1786 78.4818 67.8208 78.2737 67.6832 77.9095C67.4905 77.4412 67.7382 76.9209 68.2061 76.7128C71.8667 75.334 74.0685 75.334 75.1419 75.334C75.6649 75.334 76.1052 75.7502 76.1052 76.2445C76.1052 76.7388 75.6649 77.1551 75.1419 77.1551C74.1236 77.1551 72.2245 77.1551 68.9217 78.4038C68.7841 78.4558 68.674 78.4818 68.5639 78.4818Z" fill="#202D37"/>
<path d="M99.6376 73.3564C99.0046 73.3564 98.4541 72.8621 98.4541 72.2378V69.4021C98.4541 68.8037 98.977 68.2834 99.6376 68.2834C100.271 68.2834 100.821 68.7777 100.821 69.4021V72.2378C100.821 72.8361 100.298 73.3564 99.6376 73.3564Z" fill="#202D37"/>
<path d="M109.629 70.0267C108.996 70.0267 108.445 69.5324 108.445 68.908V66.0984C108.445 65.5 108.968 64.9797 109.629 64.9797C110.262 64.9797 110.812 65.474 110.812 66.0984V68.9341C110.812 69.5324 110.289 70.0267 109.629 70.0267Z" fill="#202D37"/>
<path d="M100.023 85.09C100.023 85.09 99.9957 85.09 100.023 85.09C95.2892 84.9859 91.7938 82.1242 90.858 77.5716C90.7479 77.0773 91.1057 76.609 91.6286 76.5049C92.1516 76.4009 92.647 76.7391 92.7571 77.2334C93.5277 80.9536 96.2525 83.1909 100.051 83.2689C100.574 83.2689 101.014 83.6852 100.986 84.2055C100.986 84.6998 100.546 85.09 100.023 85.09Z" fill="#202D37"/>
<path d="M154.987 195.967C154.546 195.967 154.134 195.68 154.051 195.238C144.17 149.737 131.344 131.995 120.142 120.678C120.032 120.574 119.95 120.444 119.922 120.288C119.812 119.924 119.537 118.935 119.922 99.6579C120.005 94.663 120.142 89.8241 120.198 86.6243C120.253 84.8552 120.28 83.3984 120.308 82.3577C120.335 81.6553 120.335 81.2131 120.363 80.9009C120.363 80.8489 120.363 80.8228 120.363 80.7708H120.39C120.445 80.3025 120.528 80.2245 120.72 80.0684C120.858 79.9643 121.023 79.8863 121.188 79.8603C122.757 79.392 135.308 74.241 138.005 72.524C135.28 70.2866 120.803 62.2479 105.418 54.8075C104.95 54.5734 104.757 54.0271 105.005 53.5848C105.252 53.1426 105.83 52.9605 106.298 53.1946C113.977 56.8888 122.482 61.3114 129.115 64.9795C140.372 71.2232 140.317 72.0037 140.262 72.68C140.207 73.3564 140.152 73.9808 130.821 77.9872C130.739 78.0132 124.766 80.5627 122.317 81.4212C122.179 86.2861 121.436 116.36 121.821 119.638C133.188 131.162 146.097 149.191 156.005 194.874C156.115 195.368 155.785 195.836 155.262 195.941C155.124 195.967 155.069 195.967 154.987 195.967Z" fill="#202D37"/>
<path d="M105.913 134.519C103.601 134.519 99.8577 133.452 95.5916 131.527C91.5457 129.732 85.1603 126.324 77.619 120.419C77.2062 120.106 77.1511 119.534 77.4814 119.144C77.8117 118.754 78.4172 118.702 78.83 119.014C92.2613 129.55 103.436 133.088 106.436 132.646C108.775 132.308 116.041 124.399 120.087 119.482C120.417 119.092 121.023 119.014 121.436 119.326C121.849 119.638 121.931 120.211 121.601 120.601C119.784 122.812 110.509 133.895 106.738 134.441C106.491 134.519 106.188 134.519 105.913 134.519Z" fill="#202D37"/>
<path d="M112.849 149.659C113.898 149.659 114.748 148.856 114.748 147.864C114.748 146.873 113.898 146.069 112.849 146.069C111.8 146.069 110.95 146.873 110.95 147.864C110.95 148.856 111.8 149.659 112.849 149.659Z" fill="#202D37"/>
<path d="M113.207 167.324C113.207 168.052 114.005 168.677 114.996 168.677C115.987 168.677 116.785 168.078 116.785 167.324C116.785 166.569 115.987 165.971 114.996 165.971C114.005 165.971 113.207 166.569 113.207 167.324Z" fill="#202D37"/>
<path d="M115.381 187.694C114.693 188.059 114.555 189.021 115.051 189.828C115.546 190.634 116.482 190.972 117.17 190.608C117.858 190.244 117.996 189.281 117.5 188.475C117.005 187.668 116.069 187.33 115.381 187.694Z" fill="#202D37"/>
<path d="M86.8392 143.858C86.3713 143.858 85.9034 143.78 85.463 143.624C82.408 142.584 80.8667 138.161 78.9125 132.594C78.3896 131.137 77.8667 129.628 77.2887 128.093C77.096 127.625 77.3712 127.105 77.8667 126.922C78.3621 126.74 78.9125 127.001 79.1052 127.469C79.7107 129.03 80.2337 130.539 80.7566 132.021C82.463 136.912 83.9493 141.153 86.1236 141.907C86.8943 142.167 87.8025 141.985 88.931 141.335C92.4814 139.254 96.7751 135.664 96.8301 135.612C97.2154 135.273 97.8485 135.299 98.1787 135.69C98.5365 136.054 98.509 136.652 98.0962 136.964C97.9035 137.12 93.6374 140.711 89.9218 142.87C88.8759 143.52 87.83 143.858 86.8392 143.858Z" fill="#202D37"/>
<path d="M124.436 139.253C122.84 139.253 119.867 138.447 113.73 135.065C113.262 134.805 113.124 134.258 113.372 133.816C113.647 133.374 114.225 133.244 114.693 133.478C122.675 137.875 124.629 137.484 124.932 137.354C125.014 137.328 125.042 137.302 125.042 137.224C125.675 134.857 126.528 127.442 126.528 127.364C126.583 126.87 127.051 126.506 127.601 126.558C128.124 126.61 128.51 127.052 128.454 127.573C128.427 127.885 127.574 135.195 126.913 137.666C126.748 138.317 126.308 138.785 125.675 139.045C125.372 139.175 124.987 139.253 124.436 139.253Z" fill="#202D37"/>
<path d="M111.831 195.967C111.803 195.967 111.803 195.967 111.776 195.967C111.253 195.941 110.84 195.525 110.867 195.004C111.033 192.195 111.088 184.468 109.574 182.387C107.812 179.994 106.711 176.065 108.913 172.293C110.84 169.041 109.574 165.373 108.088 162.199C106.299 158.401 106.491 148.567 107.262 140.632C107.317 140.138 107.785 139.774 108.308 139.8C108.831 139.852 109.216 140.294 109.188 140.788C108.253 150.466 108.5 158.583 109.849 161.445C111.528 165.009 112.904 169.197 110.592 173.152C108.803 176.195 109.711 179.369 111.143 181.32C113.317 184.286 112.849 193.964 112.794 195.056C112.767 195.603 112.326 195.967 111.831 195.967Z" fill="#202D37"/>
<path d="M161.345 190.062C161.207 190.062 161.097 190.036 160.959 189.984C160.464 189.775 160.244 189.255 160.464 188.787C162.336 184.65 165.005 179.942 167.62 176.195C170.813 171.643 172.574 170.342 173.593 169.978C174.391 166.518 178.216 150.44 183.611 141.205C193.051 124.971 203.318 119.43 215.813 116.1C223.024 114.175 227.978 114.617 229.024 117.271C230.345 120.601 224.538 125.57 213.501 130.591C213.033 130.799 212.455 130.617 212.208 130.174C211.987 129.732 212.18 129.186 212.648 128.952C224.428 123.619 227.813 119.43 227.208 117.921C226.795 116.881 223.465 115.944 216.308 117.869C204.281 121.069 194.4 126.428 185.29 142.089C179.51 152.027 175.382 170.81 175.354 170.992C175.244 171.461 174.776 171.773 174.281 171.721C173.868 171.799 172.189 172.944 169.024 177.548C166.547 181.164 164.014 185.639 162.253 189.515C162.06 189.853 161.73 190.062 161.345 190.062Z" fill="#202D37"/>
<path d="M194.125 179.916C194.043 179.916 193.987 179.916 193.905 179.89C180.143 176.742 174.033 171.695 173.785 171.487C173.4 171.149 173.345 170.576 173.703 170.212C174.061 169.848 174.666 169.796 175.052 170.134C175.134 170.212 181.134 175.103 194.345 178.121C194.868 178.251 195.171 178.719 195.061 179.213C194.951 179.656 194.538 179.916 194.125 179.916Z" fill="#202D37"/>
<path d="M199.794 195.967C199.712 195.967 199.629 195.967 199.547 195.941C199.024 195.811 198.721 195.317 198.859 194.822C201.253 186.472 200.565 184.859 199.189 182.725C197.207 179.708 197.455 177.08 198.446 173.828C199.189 171.435 200.262 168.469 200.813 166.96C197.427 166.154 186.776 163.136 178.134 155.591C177.748 155.253 177.721 154.681 178.079 154.317C178.436 153.952 179.042 153.926 179.427 154.265C189.226 162.824 202.134 165.399 202.244 165.425C202.519 165.477 202.767 165.633 202.877 165.867C203.015 166.102 203.042 166.362 202.932 166.622C202.905 166.674 201.253 171.07 200.235 174.348C199.189 177.704 199.327 179.577 200.758 181.763C202.712 184.781 202.987 187.148 200.648 195.291C200.593 195.707 200.207 195.967 199.794 195.967Z" fill="#202D37"/>
<path d="M199.024 166.465C198.969 166.465 198.886 166.465 198.831 166.439C198.308 166.335 197.978 165.841 198.088 165.372C198.253 164.644 198.611 163.551 198.996 162.589C199.629 160.976 200.042 160.455 200.675 160.377C201.666 160.273 210.226 159.051 214.272 151.168C214.437 150.856 214.767 150.648 215.152 150.648C219.666 150.726 227.483 150.257 229.217 148.67C229.437 148.462 229.437 148.332 229.437 148.28C229.437 148.228 229.437 148.098 229.217 147.916C227.455 146.303 219.171 145.939 214.354 146.069C213.831 146.069 213.391 145.679 213.363 145.184C213.336 144.69 213.776 144.274 214.299 144.248C215.648 144.196 227.648 143.91 230.565 146.589C231.226 147.188 231.363 147.838 231.363 148.254C231.363 148.67 231.226 149.321 230.565 149.919C227.978 152.313 218.455 152.443 215.73 152.417C211.492 160.091 203.317 161.756 201.308 162.068C200.95 162.693 200.262 164.514 199.987 165.684C199.877 166.179 199.492 166.465 199.024 166.465Z" fill="#202D37"/>
<path d="M214.162 147.527C214.079 147.527 213.997 147.527 213.914 147.501C213.391 147.371 213.088 146.876 213.226 146.382C213.611 144.951 213.501 137.979 211.877 132.776C211.74 132.282 212.015 131.787 212.538 131.657C213.033 131.527 213.584 131.787 213.722 132.282C215.373 137.537 215.593 144.977 215.098 146.85C214.96 147.266 214.575 147.527 214.162 147.527Z" fill="#202D37"/>
<path d="M213.859 138.291C213.776 138.291 213.721 138.291 213.694 138.291C213.281 138.213 212.978 137.901 212.923 137.511C212.84 137.016 213.226 136.548 213.749 136.47C213.831 136.47 213.886 136.47 213.969 136.47C214.547 136.444 218.648 136.002 223.051 135.117C230.675 133.556 231.941 132.021 232.134 131.579C232.189 131.449 232.327 131.189 231.804 130.669C229.574 128.327 217.987 129.16 210.418 131.423C209.923 131.579 209.372 131.319 209.207 130.825C209.042 130.356 209.317 129.836 209.84 129.68C216.446 127.677 229.905 125.908 233.262 129.446C234.529 130.799 234.143 131.969 233.785 132.542C233.4 133.192 232.244 135.143 222.969 136.99C219.336 137.719 214.877 138.291 213.859 138.291ZM214.794 137.12C214.794 137.146 214.822 137.198 214.822 137.25C214.794 137.198 214.794 137.172 214.794 137.12ZM214.024 136.496C214.106 136.522 214.189 136.548 214.271 136.574C214.216 136.522 214.106 136.496 214.024 136.496Z" fill="#202D37"/>
<path d="M214.327 145.471C213.831 145.471 213.391 145.107 213.363 144.613C213.336 144.118 213.749 143.676 214.272 143.65C214.327 143.65 219.281 143.364 224.318 142.687C233.868 141.387 234.501 139.93 234.501 139.878C234.611 139.592 234.529 139.462 234.446 139.358C233.923 138.707 231.171 137.25 217.052 137.979C216.529 138.005 216.061 137.615 216.033 137.12C216.006 136.626 216.419 136.184 216.941 136.158C231.859 135.377 234.942 136.99 235.988 138.265C236.51 138.915 236.621 139.67 236.318 140.476C235.877 141.673 234.171 143.208 224.565 144.509C219.474 145.211 214.437 145.497 214.382 145.497C214.382 145.471 214.354 145.471 214.327 145.471Z" fill="#202D37"/>
<path d="M199.024 158.687C198.721 158.687 198.419 158.557 198.226 158.297C197.923 157.88 198.033 157.308 198.474 157.022C202.024 154.707 204.088 152.053 204.584 149.113C205.244 145.237 203.125 141.569 201.226 139.201C201.061 138.993 201.006 138.707 201.061 138.473C201.116 138.213 201.308 138.005 201.529 137.875C204.584 136.314 209.318 132.958 209.098 130.668C209.07 130.408 208.85 130.2 208.409 130.044C206.07 129.108 199.822 130.044 194.125 134.311C193.712 134.623 193.107 134.545 192.776 134.155C192.446 133.764 192.529 133.192 192.941 132.88C198.886 128.431 205.987 127.078 209.18 128.353C210.281 128.795 210.942 129.55 211.024 130.512C211.354 134.05 205.767 137.615 203.4 138.967C205.327 141.621 207.198 145.393 206.483 149.452C205.905 152.886 203.565 155.955 199.547 158.557C199.409 158.635 199.217 158.687 199.024 158.687Z" fill="#202D37"/>
<path d="M270.97 100.074C262.437 99.8662 257.841 96.198 257.703 92.712C257.593 89.6682 260.841 86.0781 270.309 85.1676C270.749 85.1155 271.162 85.0895 271.603 85.0635C272.126 85.0115 272.593 85.4017 272.648 85.896C272.703 86.3903 272.291 86.8325 271.768 86.8846C271.355 86.9106 270.942 86.9366 270.529 86.9886C262.382 87.7691 259.575 90.5267 259.658 92.66C259.768 95.2355 263.786 98.0972 271.025 98.2793C271.547 98.3053 271.988 98.7215 271.96 99.2158C271.933 99.6841 271.492 100.074 270.97 100.074Z" fill="#202D37"/>
<path d="M349.713 107.723C343.3 107.723 337.465 107.151 332.236 105.98C324.915 104.341 320.869 102 319.163 100.985C319.025 100.907 318.915 100.855 318.805 100.777C309.502 95.4961 299.428 90.137 287.594 87.8476C287.071 87.7436 286.74 87.2753 286.85 86.781C286.96 86.2867 287.456 85.9745 287.979 86.0786C300.117 88.446 310.355 93.8832 319.796 99.2423C319.906 99.2944 320.016 99.3724 320.153 99.4505C330.392 105.408 345.337 107.255 364.548 104.966C365.071 104.914 365.567 105.252 365.622 105.746C365.677 106.24 365.319 106.709 364.796 106.761C359.484 107.411 354.447 107.723 349.713 107.723Z" fill="#202D37"/>
<path d="M271.685 85.974C272.318 87.4829 272.318 88.8357 272.235 90.9169L271.602 91.047C276.446 93.0762 283.547 92.0616 283.547 92.0616C285.254 91.6453 286.823 91.3592 287.923 91.177C287.923 91.177 287.483 89.408 287.786 86.9626C288.006 85.1675 288.612 83.0082 290.098 80.927C292.74 77.2328 294.116 74.111 292.85 70.9111C290.841 65.8381 272.676 62.8984 265.024 70.4429C262.932 72.5241 264.226 77.0507 269.566 82.618C270.749 83.8667 271.272 85.0114 271.685 85.974Z" fill="#75FB4C"/>
<path d="M275.924 111.339C273.584 111.339 270.612 110.637 267.116 108.92C260.318 105.59 258.942 102.52 258.97 100.543C258.997 98.8261 260.153 97.3432 262.135 96.4847C262.63 96.2766 263.181 96.4847 263.401 96.927C263.621 97.3953 263.401 97.9156 262.933 98.1237C262.19 98.4619 260.924 99.2163 260.896 100.569C260.869 101.532 261.529 104.107 267.997 107.281C274.52 110.481 278.731 109.831 279.887 107.879C280.658 106.579 279.997 104.419 277.217 102.858C276.75 102.598 276.612 102.052 276.887 101.61C277.162 101.167 277.74 101.037 278.208 101.298C282.034 103.457 282.805 106.683 281.566 108.764C280.685 110.325 278.759 111.339 275.924 111.339Z" fill="#202D37"/>
<path d="M274.74 116.854C270.474 116.854 264.144 115.007 261.777 112.978C260.345 111.755 259.712 110.064 260.07 108.477C260.428 106.864 261.666 105.615 263.483 105.043C263.978 104.887 264.529 105.147 264.694 105.615C264.859 106.084 264.611 106.604 264.088 106.76C262.933 107.124 262.162 107.905 261.942 108.841C261.721 109.83 262.134 110.844 263.07 111.625C265.3 113.55 271.878 115.319 275.593 115.007C276.914 114.903 277.41 113.992 277.575 113.264C277.795 112.223 277.437 111.313 277.217 111.209C276.694 111.105 276.391 110.61 276.501 110.116C276.612 109.622 277.134 109.309 277.657 109.44C279.061 109.726 279.667 111.417 279.556 112.952C279.391 115.137 277.905 116.646 275.758 116.828C275.428 116.854 275.098 116.854 274.74 116.854Z" fill="#202D37"/>
<path d="M273.419 123.436C271.3 123.436 268.878 122.968 266.566 121.979C263.07 120.496 261.144 118.623 261.171 116.672C261.199 115.787 261.666 114.122 264.666 112.952C265.162 112.77 265.712 112.978 265.933 113.446C266.125 113.914 265.905 114.435 265.41 114.643C263.951 115.215 263.125 115.943 263.098 116.698C263.098 117.582 264.199 118.987 267.336 120.314C272.015 122.291 276.557 121.849 277.712 120.236C278.346 119.325 277.74 117.921 276.034 116.334C275.648 115.996 275.648 115.397 276.006 115.059C276.364 114.695 276.997 114.695 277.355 115.033C280.712 118.103 280.024 120.262 279.309 121.251C278.29 122.681 276.061 123.436 273.419 123.436Z" fill="#202D37"/>
<path d="M303.777 120.288C303.749 120.288 303.694 120.288 303.667 120.288C291.804 119.04 286.08 113.915 284.758 103.274C281.511 103.379 273.006 103.378 270.969 100.595C270.557 100.049 270.226 99.138 270.777 97.9153C273.419 92.2179 287.869 90.2148 289.52 90.0066C290.043 89.9286 290.538 90.2928 290.593 90.7871C290.676 91.2814 290.291 91.7497 289.768 91.8017C285.612 92.322 274.41 94.5853 272.538 98.6177C272.318 99.112 272.401 99.3461 272.538 99.5282C273.749 101.193 280.878 101.609 285.557 101.375C286.08 101.349 286.52 101.714 286.575 102.208C287.648 112.692 292.492 117.245 303.887 118.441C304.41 118.493 304.795 118.936 304.74 119.456C304.685 119.95 304.272 120.288 303.777 120.288Z" fill="#202D37"/>
<path d="M353.814 134.362C337.933 134.362 324.227 128.353 319.217 126.167C318.419 125.829 317.621 125.465 317.346 125.387C316.905 125.439 315.419 126.037 314.098 126.558C309.97 128.197 303.089 130.928 297.171 130.668C296.648 130.642 296.235 130.226 296.263 129.706C296.291 129.211 296.731 128.821 297.281 128.847C302.758 129.081 309.392 126.454 313.355 124.893C315.832 123.904 316.878 123.514 317.566 123.592C317.951 123.644 318.447 123.852 320.015 124.529C325.768 127.052 343.245 134.7 361.988 131.969C362.511 131.891 363.007 132.229 363.089 132.723C363.172 133.218 362.814 133.686 362.291 133.764C359.429 134.18 356.594 134.362 353.814 134.362Z" fill="#202D37"/>
<path d="M279.419 93.2327C276.584 93.2327 272.868 92.8685 270.089 91.3596C269.621 91.0994 269.483 90.5531 269.731 90.1108C270.006 89.6686 270.584 89.5385 271.052 89.7726C275.511 92.2441 283.3 91.1775 283.382 91.1514C283.905 91.0734 284.401 91.4116 284.483 91.9059C284.566 92.4002 284.208 92.8685 283.685 92.9465C283.547 92.9725 281.786 93.2327 279.419 93.2327Z" fill="#202D37"/>
<path d="M279.942 76.0627C279.034 76.0627 278.043 76.0107 276.97 75.9326C273.612 75.6465 271.107 74.7879 269.291 73.3311C268.878 72.9929 268.823 72.4206 269.18 72.0564C269.538 71.6661 270.144 71.6141 270.529 71.9523C272.015 73.149 274.19 73.8514 277.135 74.1115C283.025 74.6319 286.355 73.4612 288.557 72.3685C289.025 72.1344 289.603 72.3165 289.85 72.7588C290.098 73.201 289.905 73.7473 289.438 73.9815C287.428 74.9961 284.538 76.0627 279.942 76.0627Z" fill="#202D37"/>
<path d="M291.887 175.519C291.887 177.21 291.501 178.589 290.731 179.655C289.96 180.722 288.721 181.476 287.015 181.945V186.393C287.015 186.523 286.96 186.627 286.877 186.731C286.795 186.809 286.657 186.861 286.519 186.861H280.299C280.162 186.861 280.052 186.809 279.941 186.731C279.859 186.653 279.804 186.523 279.804 186.393V182.439C278.648 182.387 277.574 182.309 276.639 182.205C276.529 182.179 276.418 182.127 276.336 182.023C276.253 181.919 276.198 181.815 276.198 181.684L276.694 176.95C276.721 176.794 276.776 176.69 276.886 176.611C276.996 176.533 277.134 176.507 277.299 176.533C277.685 176.611 278.07 176.69 278.483 176.742C278.896 176.794 279.419 176.872 280.052 176.95C280.685 177.028 281.29 177.054 281.841 177.054C282.446 177.08 282.941 177.002 283.382 176.846C283.795 176.69 284.097 176.507 284.263 176.273C284.428 176.039 284.565 175.831 284.62 175.649C284.675 175.467 284.73 175.285 284.73 175.155C284.73 174.999 284.703 174.816 284.62 174.608C284.565 174.426 284.428 174.166 284.235 173.88C284.042 173.594 283.685 173.308 283.217 173.021C282.721 172.735 282.143 172.527 281.428 172.371C280.63 172.189 279.859 171.903 279.116 171.46C278.373 171.044 277.685 170.524 277.052 169.874C276.418 169.249 275.896 168.443 275.51 167.506C275.125 166.57 274.932 165.529 274.932 164.436C274.932 162.875 275.345 161.575 276.198 160.508C277.052 159.441 278.235 158.661 279.831 158.141V153.562C279.831 153.432 279.886 153.328 279.969 153.224C280.052 153.12 280.189 153.068 280.327 153.068H286.547C286.685 153.068 286.795 153.12 286.905 153.224C287.015 153.328 287.07 153.432 287.07 153.562V157.516C288.171 157.568 289.272 157.646 290.373 157.75C290.483 157.776 290.593 157.828 290.703 157.932C290.786 158.037 290.841 158.141 290.813 158.271L290.318 163.005C290.29 163.136 290.235 163.24 290.125 163.344C290.015 163.422 289.877 163.474 289.74 163.422C288.006 163.057 286.437 162.875 285.033 162.875C284.455 162.849 283.96 162.927 283.519 163.084C283.107 163.24 282.804 163.448 282.611 163.682C282.419 163.916 282.308 164.124 282.226 164.306C282.171 164.488 282.116 164.644 282.116 164.827C282.116 164.983 282.143 165.139 282.226 165.347C282.281 165.529 282.419 165.789 282.639 166.075C282.831 166.361 283.189 166.648 283.685 166.934C284.18 167.22 284.758 167.428 285.474 167.584C286.272 167.766 287.042 168.078 287.786 168.495C288.529 168.911 289.217 169.431 289.85 170.082C290.483 170.732 290.978 171.512 291.364 172.449C291.694 173.412 291.887 174.426 291.887 175.519Z" fill="#202D37"/>
<path d="M286.519 187.771H280.299C279.914 187.771 279.556 187.641 279.281 187.381C279.006 187.121 278.868 186.783 278.868 186.419V183.323C278.042 183.271 277.272 183.193 276.556 183.115C276.171 183.063 275.868 182.907 275.62 182.62C275.4 182.36 275.262 182.048 275.262 181.71C275.262 181.684 275.262 181.658 275.262 181.632L275.758 176.897C275.813 176.481 276.033 176.143 276.363 175.908C276.694 175.674 277.134 175.596 277.547 175.674C277.905 175.752 278.29 175.83 278.675 175.882C279.061 175.934 279.584 176.013 280.189 176.091C280.795 176.169 281.345 176.195 281.868 176.195C282.363 176.195 282.749 176.169 283.051 176.039C283.382 175.908 283.464 175.804 283.492 175.778C283.629 175.57 283.712 175.44 283.74 175.362C283.795 175.232 283.795 175.18 283.795 175.154C283.795 175.128 283.795 175.05 283.74 174.894C283.712 174.816 283.657 174.66 283.437 174.374C283.382 174.269 283.189 174.087 282.721 173.827C282.308 173.593 281.813 173.411 281.207 173.281C280.327 173.073 279.446 172.735 278.62 172.266C277.822 171.798 277.051 171.226 276.363 170.523C275.648 169.795 275.07 168.91 274.629 167.844C274.217 166.803 273.996 165.658 273.996 164.436C273.996 162.693 274.492 161.184 275.455 159.961C276.281 158.92 277.437 158.088 278.895 157.516V153.561C278.895 153.197 279.033 152.885 279.281 152.599C279.556 152.313 279.941 152.156 280.327 152.156H286.547C286.932 152.156 287.318 152.313 287.593 152.573C287.868 152.833 288.033 153.197 288.033 153.561V156.657C288.859 156.709 289.657 156.761 290.455 156.865H290.483C290.813 156.917 291.143 157.073 291.363 157.334C291.639 157.62 291.776 158.01 291.721 158.4L291.226 163.109V163.135C291.171 163.499 290.978 163.837 290.648 164.071C290.29 164.332 289.877 164.41 289.464 164.332C287.813 163.993 286.299 163.811 284.951 163.785C284.483 163.785 284.097 163.811 283.795 163.941C283.464 164.071 283.354 164.176 283.327 164.202C283.162 164.436 283.079 164.566 283.079 164.618C283.051 164.696 283.024 164.774 283.024 164.826C283.024 164.826 283.024 164.904 283.079 165.06C283.106 165.112 283.162 165.268 283.382 165.58C283.464 165.684 283.629 165.893 284.125 166.153C284.538 166.387 285.033 166.569 285.639 166.699C286.519 166.907 287.373 167.245 288.198 167.714C289.024 168.156 289.795 168.754 290.483 169.457C291.198 170.185 291.776 171.07 292.189 172.136C292.602 173.177 292.822 174.322 292.822 175.518C292.822 177.391 292.382 178.978 291.474 180.175C290.675 181.242 289.492 182.074 287.923 182.62V186.419C287.923 186.783 287.785 187.121 287.51 187.381C287.262 187.641 286.905 187.771 286.519 187.771ZM280.767 185.95H286.051V181.944C286.051 181.528 286.327 181.19 286.74 181.06C288.198 180.643 289.299 179.993 289.932 179.108C290.593 178.198 290.923 177.001 290.923 175.492C290.923 174.504 290.758 173.593 290.428 172.761C290.097 171.928 289.657 171.252 289.107 170.679C288.529 170.107 287.923 169.639 287.262 169.275C286.602 168.91 285.914 168.624 285.198 168.468C284.428 168.286 283.74 168.026 283.162 167.714C282.556 167.375 282.116 166.985 281.813 166.595C281.565 166.231 281.373 165.919 281.29 165.658C281.18 165.372 281.125 165.112 281.125 164.852C281.125 164.592 281.18 164.306 281.29 164.019C281.4 163.759 281.538 163.499 281.785 163.187C282.088 162.797 282.529 162.485 283.134 162.276C283.684 162.068 284.318 161.99 285.006 162.016C286.299 162.042 287.785 162.198 289.354 162.485L289.74 158.686C288.831 158.608 287.896 158.53 286.96 158.504C286.437 158.478 286.051 158.088 286.051 157.594V154.03H280.767V158.166C280.767 158.556 280.519 158.894 280.134 159.025C278.758 159.493 277.684 160.169 276.969 161.08C276.253 161.99 275.895 163.083 275.895 164.462C275.895 165.45 276.061 166.361 276.418 167.219C276.749 168.052 277.217 168.754 277.739 169.301C278.317 169.873 278.923 170.341 279.584 170.731C280.217 171.096 280.905 171.356 281.62 171.512C282.418 171.694 283.106 171.954 283.684 172.266C284.318 172.631 284.758 172.995 285.033 173.411C285.281 173.775 285.446 174.061 285.529 174.348C285.639 174.634 285.694 174.92 285.694 175.18C285.694 175.44 285.639 175.7 285.529 175.987C285.418 176.247 285.281 176.533 285.061 176.845C284.785 177.235 284.318 177.547 283.74 177.756C283.189 177.964 282.556 178.042 281.84 178.016C281.29 178.016 280.657 177.964 279.969 177.912C279.308 177.834 278.758 177.756 278.345 177.704C278.097 177.678 277.877 177.625 277.629 177.573L277.244 181.398C278.042 181.476 278.923 181.554 279.886 181.58C280.409 181.606 280.795 181.996 280.795 182.49V185.95H280.767ZM289.795 158.218C289.795 158.244 289.795 158.244 289.795 158.218V158.218Z" fill="#202D37"/>
<path d="M237.116 75.0478C236.978 75.0478 236.841 75.0218 236.703 74.9438C236.235 74.7357 236.015 74.1893 236.263 73.7211C236.373 73.5129 246.749 53.273 250.189 46.2749C250.409 45.8066 250.987 45.6245 251.455 45.8326C251.951 46.0408 252.143 46.5871 251.923 47.0294C248.483 54.0535 238.107 74.2934 237.996 74.5015C237.804 74.8657 237.474 75.0478 237.116 75.0478Z" fill="#202D37"/>
<path d="M248.236 72.3165C247.85 72.3165 247.437 72.2644 247.052 72.1604C245.841 71.8222 244.878 70.9637 244.327 69.767C243.804 68.6223 243.749 67.3215 244.162 66.0468C245.015 63.3932 247.685 61.7803 250.135 62.4827C251.346 62.8209 252.309 63.6794 252.859 64.8761C253.382 66.0208 253.437 67.3215 253.025 68.5963C252.337 70.8336 250.327 72.3165 248.236 72.3165ZM248.951 64.1477C247.713 64.1477 246.474 65.1363 246.006 66.5931C245.731 67.4516 245.758 68.3101 246.116 69.0646C246.419 69.741 246.969 70.2352 247.63 70.4174C249.061 70.8336 250.658 69.767 251.208 68.076C251.483 67.2175 251.456 66.359 251.098 65.6045C250.795 64.9281 250.245 64.4338 249.584 64.2517C249.392 64.1737 249.171 64.1477 248.951 64.1477Z" fill="#202D37"/>
<path d="M236.923 59.4128C236.208 59.4128 235.492 59.2567 234.831 58.8925C233.731 58.2941 232.987 57.2535 232.74 55.9787C232.52 54.756 232.767 53.4553 233.455 52.3106C234.914 49.8912 237.942 48.9286 240.143 50.1253C242.373 51.322 242.978 54.2878 241.492 56.6812C240.501 58.4242 238.685 59.4128 236.923 59.4128ZM238.079 51.4521C237.006 51.4521 235.85 52.1285 235.162 53.2471C234.694 54.0276 234.501 54.8861 234.666 55.6666C234.804 56.395 235.217 56.9933 235.822 57.3055C237.116 58.0079 238.932 57.3316 239.868 55.7966C240.804 54.2617 240.529 52.4407 239.235 51.7122C238.877 51.5301 238.492 51.4521 238.079 51.4521Z" fill="#202D37"/>
<path d="M226.217 74.3192C225.666 74.3192 225.253 73.903 225.253 73.4087C225.253 73.0965 225.308 65.9163 225.749 63.4969C225.831 63.0026 226.327 62.6644 226.85 62.7424C227.373 62.8204 227.73 63.2887 227.648 63.783C227.235 66.0463 227.18 73.3306 227.18 73.4087C227.18 73.903 226.74 74.3192 226.217 74.3192Z" fill="#202D37"/>
<path d="M222.859 67.8417C222.364 67.8417 221.951 67.4775 221.896 67.0092C221.841 66.5149 222.254 66.0727 222.776 66.0206C224.951 65.8385 230.07 66.0206 230.29 66.0206C230.813 66.0466 231.226 66.4629 231.226 66.9572C231.199 67.4515 230.786 67.8417 230.235 67.8417C230.18 67.8417 225.006 67.6596 222.942 67.8417C222.914 67.8417 222.887 67.8417 222.859 67.8417Z" fill="#202D37"/>
<path d="M385.961 217.846C385.934 217.846 385.906 217.846 385.879 217.846C385.356 217.794 384.97 217.351 385.025 216.857C393.365 135.95 393.833 35.5825 389.347 27.6218C387.558 24.4739 373.906 19.7132 353.649 15.1605C335.236 11.024 315.86 8.08431 306.585 7.98025C306.062 7.98025 305.621 7.56401 305.621 7.06972C305.621 6.57542 306.062 6.15918 306.585 6.15918C315.997 6.26324 335.539 9.22898 354.062 13.3914C366.64 16.2011 388.136 21.6903 390.998 26.7633C393.888 31.8883 394.356 65.8383 393.833 95.912C393.117 137.146 390.585 181.294 386.897 217.039C386.87 217.481 386.457 217.846 385.961 217.846Z" fill="#202D37"/>
<path d="M102.913 54.6774C109.629 60.9731 118.354 49.1882 108.996 49.3963C115.078 41.0714 102.198 36.4927 99.6379 42.5283C97.8214 38.9642 90.4177 40.1869 91.4085 44.2973C86.5369 39.7967 77.7571 44.6095 79.2433 50.9312C70.4084 49.1622 62.9221 59.9845 72.0873 62.8722C69.4451 64.225 69.1973 69.4021 74.0689 70.4427C76.2157 70.911 77.7846 72.602 78.5277 74.1629C79.5185 76.1921 82.6562 77.9351 83.3442 73.8507C84.0323 69.7663 85.9589 69.298 86.8947 68.6476C87.8305 67.9972 88.7113 63.9649 86.8947 62.508C89.4544 63.1584 93.3351 61.3894 92.9773 57.357C95.3443 59.2041 101.097 58.8919 102.913 54.6774Z" fill="#202D37"/>
<path d="M81.3624 77.2329C79.7936 77.2329 78.3074 75.9061 77.6468 74.5273C77.0138 73.2265 75.6927 71.7176 73.8486 71.3274C71.3165 70.7811 69.6101 69.1421 69.3073 66.9048C69.1146 65.5 69.5 64.1212 70.2982 63.1326C67.1055 61.5456 66.5275 58.814 67.1605 56.6288C68.2339 52.8826 72.8578 49.4225 78.1147 49.8388C77.9771 46.9511 79.6285 44.2455 82.601 42.6846C85.2432 41.3058 88.1882 41.2797 90.5277 42.5025C90.913 41.3057 91.9313 40.3432 93.4451 39.8489C95.4543 39.1985 97.9864 39.4587 99.5553 40.8635C100.519 39.6928 102.005 38.9904 103.766 38.8603C106.574 38.6782 109.464 40.083 110.785 42.2683C111.445 43.387 112.216 45.5983 110.647 48.564C112.959 48.9282 113.702 50.1249 113.95 50.9314C114.5 52.7785 113.124 55.1979 110.757 56.5247C108.28 57.9035 105.555 57.7474 103.243 56.1084C102.253 57.5913 100.684 58.6319 98.7296 59.1002C97.0507 59.4904 95.3167 59.3864 93.913 58.8661C93.6928 60.1929 93.0048 61.3375 91.9038 62.196C90.9956 62.9245 89.8396 63.3667 88.6836 63.4968C88.8763 64.0951 88.9588 64.7715 88.9313 65.526C88.8763 66.9308 88.4084 68.7259 87.4726 69.3762C87.3074 69.5063 87.1148 69.6104 86.9221 69.7145C85.9863 70.2608 84.8304 70.9372 84.3074 73.981C83.8671 76.5565 82.5184 77.1288 81.7203 77.2069C81.6102 77.2329 81.5001 77.2329 81.3624 77.2329ZM77.3441 51.6338C73.4083 51.6338 69.8853 54.2614 69.0596 57.1231C68.3991 59.3864 69.6101 61.1034 72.4174 62.0139C72.7752 62.118 73.0505 62.4302 73.078 62.7944C73.1055 63.1586 72.9129 63.4968 72.5826 63.6789C71.6193 64.1732 71.0688 65.4219 71.2615 66.6967C71.4817 68.1535 72.5826 69.1942 74.3165 69.5844C77.4817 70.2608 79.0505 72.9924 79.4358 73.7988C79.9312 74.8134 80.9496 75.4899 81.5001 75.4378C81.9129 75.3858 82.2707 74.7354 82.4359 73.7208C83.0964 69.8185 84.8854 68.7779 85.9588 68.1796C86.124 68.0755 86.2616 67.9974 86.3717 67.9454C86.5918 67.7633 87.0873 66.5666 87.0322 65.1618C87.0047 64.2773 86.757 63.5748 86.3166 63.2366C85.9588 62.9505 85.8763 62.5082 86.0689 62.118C86.2891 61.7278 86.7295 61.5457 87.1698 61.6497C88.2983 61.9359 89.702 61.5977 90.6653 60.8432C91.3809 60.2709 92.2066 59.2303 92.0414 57.4612C92.0139 57.097 92.2066 56.7588 92.5644 56.5767C92.9222 56.4206 93.335 56.4466 93.6378 56.6808C94.6561 57.4873 96.5552 57.7734 98.2617 57.3572C99.3075 57.1231 101.179 56.3946 102.06 54.3394C102.17 54.0532 102.445 53.8451 102.748 53.7931C103.051 53.7411 103.381 53.8191 103.629 54.0532C106.243 56.5247 108.803 55.5101 109.766 54.9638C111.5 54.0012 112.381 52.3623 112.078 51.4517C111.858 50.6973 110.73 50.281 109.023 50.3331C108.665 50.3331 108.335 50.1509 108.142 49.8648C107.977 49.5526 108.005 49.1884 108.198 48.9022C109.739 46.769 110.069 44.8178 109.106 43.2049C108.17 41.6179 105.968 40.5773 103.904 40.7074C102.968 40.7594 101.289 41.1236 100.546 42.8667C100.408 43.2049 100.078 43.413 99.6929 43.439C99.3075 43.439 98.9498 43.2569 98.7846 42.9187C98.014 41.3838 95.7295 41.0196 94.0781 41.5659C93.4176 41.774 91.9589 42.4504 92.3717 44.0634C92.4543 44.4536 92.2891 44.8698 91.9038 45.0519C91.5185 45.2601 91.0781 45.182 90.7478 44.9219C88.4634 42.8406 85.4359 43.2569 83.5368 44.2715C81.5551 45.3121 79.4634 47.6275 80.179 50.7233C80.2615 51.0355 80.1514 51.3476 79.9313 51.5558C79.7111 51.7639 79.3808 51.868 79.0505 51.8159C78.4725 51.6858 77.8945 51.6338 77.3441 51.6338Z" fill="#202D37"/>
</svg>
