<svg width="72" height="67" viewBox="0 0 72 67" fill="none" xmlns="http://www.w3.org/2000/svg">
<path d="M25.988 12.4065C25.3072 12.3545 24.134 10.905 23.6951 10.3593C23.3711 9.95727 20.0642 6.1644 20.4775 5.86692C20.7856 5.64515 28.7027 12.3894 25.988 12.4065Z" fill="#3B3B3B"/>
<path d="M37.2671 7.72983C37.1811 8.10436 37.0324 8.37739 36.7631 8.42864C36.4355 8.49095 36.123 8.14222 36.0791 7.86852C35.9049 6.8126 36.0496 1.6248 36.7372 1.67505C37.5371 1.73434 37.4349 7.00154 37.2671 7.72983Z" fill="#3B3B3B"/>
<path d="M48.4361 10.8517C46.4619 10.8102 50.9828 5.91781 52.5401 5.00192C53.8786 4.21467 49.7188 9.78673 49.1532 10.4232C49.0744 10.5388 48.9693 10.637 48.8454 10.711C48.7216 10.785 48.5819 10.833 48.4361 10.8517Z" fill="#3B3B3B"/>
<path d="M55.3035 17.7788C55.1994 17.779 55.0975 17.7508 55.0104 17.6976C54.9233 17.6444 54.8549 17.5686 54.8135 17.4796C54.7725 17.3906 54.7602 17.2922 54.7786 17.1969C54.7969 17.1015 54.8452 17.0132 54.9168 16.9429C55.7211 15.9456 59.6116 13.0801 59.9838 13.5089C60.2481 13.813 56.4119 17.8387 55.3035 17.7788Z" fill="#3B3B3B"/>
<path d="M17.9495 16.5259C16.1654 16.4049 11.7215 13.2539 12.0171 12.9179C12.0952 12.8298 12.0581 12.8335 14.2707 13.8559C17.0618 15.1467 17.7479 15.1024 18.3524 15.4914C18.9957 15.9061 18.7844 16.5195 17.9495 16.5259Z" fill="#3B3B3B"/>
<path d="M59.4619 39.6077C58.5698 39.1237 57.5946 38.7863 56.5794 38.6101C54.7913 38.3659 56.0801 39.9622 53.7883 42.0442C52.9826 42.7762 52.2266 42.7011 51.3169 42.2931C50.1768 41.7812 50.6117 40.4951 51.2625 39.4824C52.1543 38.0952 53.6357 37.7823 53.0942 37.6064C44.8405 34.9228 44.5917 34.8209 44.5835 34.8202C44.1875 34.7867 44.199 34.6527 41.8475 40.2637C41.4738 39.5005 39.5694 37.6687 37.4173 38.3404C35.415 38.9655 35.6054 40.4868 35.577 40.8446C35.4168 42.8626 37.9832 44.6652 39.8095 44.015C40.2638 43.8532 39.6633 44.4425 37.3766 49.3123C36.9446 50.2339 36.8921 50.4698 37.7283 51.2299C39.1248 52.5103 40.7963 53.5015 42.633 54.139C44.8592 54.9095 45.873 53.4127 47.2521 51.5984C51.588 45.901 56.6028 46.4524 59.652 40.267C59.6916 40.2137 59.7186 40.1528 59.7305 40.0888C59.7423 40.0248 59.7391 39.9591 59.7211 39.8965C59.7027 39.8339 59.6703 39.7756 59.6257 39.7256C59.5807 39.6757 59.5249 39.6355 59.4619 39.6077ZM58.7513 40.4858C57.4088 42.2522 57.1673 42.8931 55.4735 44.1128C53.3102 45.6709 50.6192 46.8873 48.2875 49.2664C45.7491 51.8567 45.504 53.8147 43.1589 53.4161C42.5563 53.3136 39.6601 52.0828 38.2651 50.6939C37.8997 50.3304 37.7391 50.3254 38.1035 49.5743C39.3451 47.0159 42.1898 42.5762 39.3995 43.2237C38.052 43.5366 36.5555 42.5202 36.3787 41.1427C36.0385 38.4748 40.1022 38.5722 41.5415 40.8127C41.7841 41.1906 42.0303 41.0837 42.3425 40.7457C42.8544 40.1896 44.5169 35.7569 44.5953 35.5438C44.6245 35.4648 44.8715 35.5773 52.1881 37.8734C52.2561 37.8949 52.1496 37.8674 52.0887 37.9032C50.7812 38.6707 48.879 40.801 50.3327 42.5715C51.0347 43.4267 52.9178 43.7969 53.9985 42.9065C55.0119 42.0261 55.7089 40.876 55.994 39.6134C56.0973 39.2315 56.115 39.196 56.5232 39.3397C59.0126 40.2147 58.9136 40.272 58.752 40.4858H58.7513Z" fill="#3B3B3B"/>
<path d="M43.9768 33.1338C41.0392 33.0852 39.0337 33.3505 39.0063 31.5533C38.961 30.2811 38.9872 29.0076 39.0852 27.738C39.2727 25.812 38.7885 24.6965 39.6925 24.2499C40.4787 23.8613 40.707 25.2955 43.1269 24.8342C45.7668 24.3317 44.3631 18.8065 40.0669 22.0101C39.9852 22.077 39.8872 22.1244 39.7814 22.1483C39.6756 22.1723 39.5654 22.1721 39.4596 22.1477C39.3541 22.1234 39.2562 22.0755 39.1748 22.0084C39.0931 21.9413 39.0304 21.8569 38.9916 21.7622C38.5268 20.6634 38.5567 16.958 38.5743 15.7771C38.5927 14.5601 39.1356 14.2629 42.8767 15.1513C53.249 17.6156 55.2171 28.0609 54.2934 32.3087C53.9604 33.8417 52.857 32.9787 50.9378 33.3663C50.212 33.5131 51.2028 34.2286 51.1538 35.3318C51.0703 37.1766 48.708 39.271 46.5375 37.523C46.0602 37.1692 45.7365 36.6667 45.6264 36.1083C45.5166 35.5499 45.6274 34.973 45.9388 34.4849C46.8856 32.9013 46.5584 33.1763 43.9768 33.1338Z" fill="#3B3B3B"/>
<path d="M33.0141 27.1685C33.0141 42.3411 33.6646 42.1766 32.9259 42.4087C32.6508 42.4958 32.3668 42.6204 32.1105 42.3668C31.4265 41.6912 30.0682 41.6607 29.0717 41.9799C26.9956 42.6449 27.4658 46.2632 30.3767 45.7751C31.614 45.5678 32.307 44.8465 32.8715 44.885C33.5876 44.9343 33.2315 45.0442 33.351 52.2165C33.3716 53.4728 33.3294 53.4671 33.6005 53.456C38.1041 53.2771 38.219 53.31 38.3414 53.6868C38.4998 54.2037 38.6074 54.733 38.6632 55.268C38.6823 55.4241 38.6063 55.4583 38.4627 55.4754C34.8872 55.934 31.2711 56.0546 27.6695 55.8362C27.4053 55.8174 27.3282 55.7173 27.3095 55.5012C27.15 53.6453 27.3052 54.6838 25.7108 53.9883C23.6746 53.1002 23.8719 50.7388 23.6948 48.6618C23.1328 42.0724 12.6766 38.3103 19.1076 24.7967C21.8382 19.0575 29.1437 15.8077 32.1587 16.0666C32.9122 16.1316 32.5684 16.4388 32.6649 23.4628C32.665 23.4733 32.6683 23.4836 32.6745 23.4924C32.6806 23.5012 32.6894 23.5082 32.6997 23.5125C32.7099 23.5169 32.7213 23.5184 32.7325 23.517C32.7437 23.5155 32.7542 23.5111 32.7628 23.5043C32.9633 23.3395 33.1624 23.1958 33.3341 23.0417C35.0726 21.4812 37.3078 22.3191 38.0948 23.8048C39.5852 26.6168 36.829 28.7946 34.8933 28.0094C33.2481 27.3417 33.0141 26.9528 33.0141 27.1685ZM23.3085 34.7704C23.7142 34.7449 21.6687 33.1426 23.0421 31.0498C24.9393 28.1588 30.5261 30.7751 28.5746 34.1989C28.4061 34.4947 28.4187 34.5091 28.7679 34.5262C29.7694 34.5747 30.7749 34.4793 31.7742 34.5818C32.3254 34.6381 32.0352 34.8967 31.9978 27.0721C31.9946 26.4094 32.572 25.9079 33.3892 26.3552C33.9047 26.6536 34.4415 26.9189 34.9959 27.1491C35.2396 27.2355 35.4995 27.2751 35.7601 27.2657C36.0208 27.2562 36.2764 27.1979 36.5122 27.0941C36.748 26.9904 36.9586 26.8434 37.1318 26.6619C37.3049 26.4805 37.437 26.2684 37.5198 26.0382C38.183 24.3214 36.3678 22.1918 34.3846 23.1629C33.3496 23.6695 33.3003 24.2983 32.3139 24.3649C31.8401 24.3984 31.9406 24.3907 31.9604 20.7328C31.9827 16.6335 32.1677 16.686 31.703 16.7216C29.058 16.9249 26.1892 18.6106 24.0918 20.1386C17.9664 24.6008 17.2079 35.3091 18.7091 35.09C19.1753 35.0223 19.364 35.019 23.3085 34.7707V34.7704ZM18.4485 35.7282C19.7135 40.8818 24.5397 43.4422 24.9882 48.5891C25.161 50.5737 24.976 52.2942 26.605 53.0574C28.5789 53.982 30.6802 53.4547 32.4341 53.4728C32.7034 53.4754 32.6008 53.4805 32.5504 51.57C32.4064 46.0709 32.468 45.7199 32.2829 45.8522C30.2734 47.2927 28.0468 46.6659 27.3545 45.2448C26.6939 43.8888 27.1241 42.1873 28.5108 41.5494C29.0869 41.3032 29.7163 41.1843 30.35 41.2017C30.9836 41.2191 31.6044 41.3726 32.1638 41.6499C32.2962 41.7203 32.2548 41.6684 32.1998 39.1374C32.1148 35.1982 32.2289 35.355 31.8902 35.3885C30.6263 35.4571 29.3582 35.4072 28.1051 35.2391C27.2476 35.0474 27.7059 34.3503 27.9273 33.8451C29.553 30.1417 22.6547 29.132 23.3423 32.8987C23.5619 34.1031 25.1556 35.1905 23.9144 35.3965C20.8565 35.904 18.3959 35.5034 18.4496 35.7285L18.4485 35.7282Z" fill="#3B3B3B"/>
<path d="M28.3679 61.3644C36.1583 62.3201 38.4641 60.478 38.2589 61.1677C37.9997 62.2156 37.4871 63.1948 36.7602 64.0306C34.9322 65.9968 29.7327 66.1679 28.3679 61.3644Z" fill="#3B3B3B"/>
<path d="M38.3507 56.6335C38.6434 56.5936 38.6992 56.6693 38.6801 56.9152C38.6009 57.9336 38.7719 58.0807 38.4526 58.1115C35.1231 58.49 31.7618 58.5641 28.4168 58.3323C27.7055 58.2924 27.7048 58.2944 27.6 57.6488C27.3239 55.945 28.2689 58.005 38.3507 56.6335Z" fill="#3B3B3B"/>
<path d="M28.3284 60.4515C28.1689 60.4374 28.098 60.3845 28.0702 60.2421C27.8467 59.0874 27.702 59.0137 28.0641 59.0385C33.3158 59.4003 35.6731 59.221 38.2633 58.812C38.7813 58.7299 38.5671 58.7286 38.4703 60.0468C38.412 60.8327 29.2954 60.5379 28.3284 60.4515Z" fill="#3B3B3B"/>
</svg>
