<svg width="28" height="31" viewBox="0 0 28 31" fill="none" xmlns="http://www.w3.org/2000/svg">
<path d="M0.221028 15.7805L3.33837 11.3321C3.51155 11.0723 3.58083 10.7801 3.61547 10.4554C4.16966 4.61077 9.39986 0 15.7731 0C22.5273 0 28 5.1303 28 11.462C28 15.2285 26.0603 18.8977 23.0815 21.3005C22.7352 21.5927 22.4927 21.9823 22.4927 22.4369V28.9959C22.4927 29.5154 22.0771 29.9375 21.5229 30.0025L11.0278 30.8792C10.4043 30.9441 9.88478 30.4571 9.88478 29.8726V25.1969C9.88478 24.9047 9.60769 24.6449 9.29596 24.6449H5.62442C4.4814 24.6449 3.58083 23.8007 3.58083 22.7292V18.1184C3.58083 17.9236 3.40764 17.7287 3.16518 17.7287H1.36405C0.290302 17.7612 -0.367803 16.6248 0.221028 15.7805Z" fill="#3B3B3B"/>
<path d="M16.3277 18.7667V20.1953C16.3277 20.3577 16.1891 20.4876 16.0506 20.4876H14.5612C14.388 20.4876 14.2841 20.3577 14.2841 20.1953V18.7991C12.7602 18.7017 11.5479 17.5977 11.4094 16.2015C11.4094 16.0392 11.5479 15.9093 11.7211 15.9093H13.2104C13.349 15.9093 13.4529 16.0067 13.4875 16.1041C13.5914 16.5262 14.007 16.8509 14.4919 16.8509H15.8081C16.5701 16.8509 17.2975 16.3314 17.3667 15.617C17.4706 14.7728 16.7779 14.0909 15.912 14.0909H14.9422C13.0719 14.0909 11.444 12.8246 11.2362 11.1037C10.9937 9.25288 12.3792 7.69431 14.2495 7.46702V6.0708C14.2495 5.90845 14.388 5.81104 14.5266 5.81104H16.0159C16.1891 5.81104 16.293 5.94092 16.293 6.0708V7.46702C17.817 7.56443 19.0293 8.66842 19.1678 10.0646C19.1678 10.227 19.0293 10.3569 18.8561 10.3569H17.3667C17.2282 10.3569 17.1243 10.2595 17.0896 10.162C16.9857 9.73993 16.5701 9.41523 16.0852 9.41523H14.8037C14.0417 9.41523 13.3143 9.93475 13.2451 10.6491C13.1411 11.4933 13.8339 12.1752 14.7344 12.1752H15.8427C17.9209 12.1752 19.5834 13.8637 19.3756 15.8443C19.2024 17.338 17.8863 18.5069 16.3277 18.7667Z" fill="#80EF80"/>
</svg>
