<svg width="83" height="87" viewBox="0 0 83 87" fill="none" xmlns="http://www.w3.org/2000/svg">
<path d="M42.1067 24.3412C42.2362 24.2927 42.36 24.2459 42.4774 24.2009C42.9785 25.1598 43.6368 26.2573 44.5099 27.4318L44.1344 27.6809C43.441 26.7471 42.7572 25.6649 42.1067 24.3412Z" fill="black"/>
<path d="M34.8468 26.1693C34.8841 27.5403 34.8286 29.1732 34.5709 30.8942C34.5709 30.8966 34.4514 31.6758 34.2939 32.8472H33.7905L33.7963 32.8089C34.1076 30.7493 34.4233 28.6602 34.4068 26.2015C34.538 26.1929 34.6844 26.1824 34.8468 26.1693Z" fill="black"/>
<path d="M27.7822 4.26509C28.2157 5.31966 28.227 6.47319 28.5527 7.54999C28.9827 7.03247 29.4669 6.61801 30.1075 6.45684C32.0451 5.97064 32.2946 6.94665 32.6319 6.49495C33.6324 5.15575 35.9287 4.47346 37.4796 5.30605C37.6181 5.38048 37.7147 5.37095 37.8087 5.23884C38.4674 4.31368 40.3973 4.05947 41.4947 4.74042C41.3842 3.62229 41.0798 2.47559 41.1318 1.39153C41.1339 1.34611 41.402 0.599825 41.5705 1.30935C42.3613 4.64098 43.9724 22.9975 42.7294 23.5881C39.6913 25.0321 37.2409 25.6867 33.7389 25.7929C33.4921 25.8007 33.4193 25.6009 33.3548 25.4189C31.4314 19.9963 28.4249 12.2176 27.4829 4.38493C27.4829 3.91192 27.6224 3.87377 27.7826 4.26374L27.7822 4.26509ZM42.0157 10.9438C42.098 10.8385 41.7766 7.59945 41.6497 7.49231C41.3357 7.22766 41.0187 6.98254 40.5887 6.96483C38.3024 6.87083 38.3323 8.46697 37.7351 7.89451C37.0612 7.24902 35.5228 7.51411 34.6986 7.89451C33.5666 8.4166 33.6657 9.69633 33.1802 9.06392C32.4219 8.07565 30.3032 8.96087 29.3755 10.617C29.2573 10.828 29.2248 10.7236 29.9424 13.397C30.0971 13.9726 30.1053 13.9422 30.3357 13.6272C30.9897 12.732 32.3816 12.3302 33.3721 12.7837C33.6913 12.9299 33.8208 12.8704 34.0308 12.6207C35.0382 11.4236 36.3362 10.9987 37.7901 11.3646C38.3206 11.4981 38.6294 11.5439 39.1071 11.1535C39.9815 10.439 41.0096 10.4631 42.0157 10.9424V10.9438ZM42.4912 17.4822C42.5735 17.3574 42.3535 14.0693 42.3267 13.7911C42.2704 13.2063 40.3419 12.8513 39.3908 13.9254C38.7961 14.5964 38.8693 14.1174 38.3115 13.9064C37.0949 13.4465 35.5735 14.058 34.9642 15.2488C34.8169 15.5361 34.6497 15.5583 34.4518 15.3064C33.7818 14.4529 31.9104 15.1825 31.0676 16.7636C30.9399 17.0033 30.9823 16.8862 31.8632 19.6685C32.1209 20.4829 32.6995 18.0679 35.0369 19.122C35.2478 19.2168 35.3223 19.1042 35.4392 18.959C36.3119 17.8772 37.891 17.4046 39.0794 17.933C39.8754 18.2871 39.5566 17.889 40.2868 17.5208C41.0205 17.1508 41.7593 17.1568 42.4912 17.4827V17.4822ZM42.6649 20.4348C42.6541 19.8501 42.5003 19.6881 41.9239 19.6581C41.2015 19.6209 40.5701 19.8206 40.0855 20.4058C39.6095 20.9805 39.7923 19.7984 37.9637 20.1179C37.2591 20.2414 36.5861 20.4707 36.3085 21.2973C36.2058 21.6033 36.0075 21.6324 35.8052 21.3836C35.2586 20.7108 34.0854 21.1434 33.3266 21.863C32.5488 22.6007 33.0087 22.958 33.6835 25.0076C33.7493 25.2083 33.8571 25.3145 34.0676 25.2954C37.8455 24.9459 41.0828 23.9149 42.363 23.2439C42.7472 23.0428 42.713 23.0619 42.6649 20.4348ZM29.1287 10.0618C29.7233 9.02625 31.6571 7.68571 33.1166 8.49921C33.2357 8.5655 33.3166 8.5464 33.3816 8.44157C33.8416 7.69885 34.5341 7.34842 35.3388 7.18542C37.6619 6.71514 37.7143 7.81556 38.0642 7.47326C40.0989 5.48261 41.7229 7.34841 41.6311 6.63932C41.4579 5.29696 41.677 5.10403 40.8719 4.88475C38.2114 4.16113 38.0534 6.48768 37.3323 5.69963C36.9473 5.27882 34.3054 4.95013 32.8047 6.99389C32.6774 7.16728 32.5393 7.25263 32.3292 7.0992C31.2131 6.2848 29.3569 6.81136 28.7714 8.09609C28.6341 8.47015 28.8718 9.00672 29.1282 10.0613L29.1287 10.0618ZM30.7935 16.3219C31.635 15.0372 33.2214 14.0194 34.3513 14.7594C34.4696 14.837 34.6004 14.8851 34.6986 14.6826C35.3531 13.3385 37.7286 12.9957 38.7502 13.7239C38.8867 13.821 38.9702 13.7915 39.0794 13.6758C39.9139 12.796 40.8905 12.5917 41.988 13.0048C42.4453 13.1768 42.1915 12.8032 42.1798 11.9117C42.1642 10.6941 39.5792 10.7877 38.8871 11.9403C38.5653 12.4759 38.4025 11.9498 37.9451 11.8059C36.5458 11.3656 34.9009 11.9829 34.1127 13.2726C34.0018 13.4542 33.8645 13.5618 33.6826 13.3975C32.9368 12.7229 30.9481 12.8895 30.3167 14.4425C30.2434 14.5959 30.2434 14.5097 30.7922 16.3215L30.7935 16.3219ZM42.5921 18.4024C42.5566 17.8845 42.4462 17.7292 41.9521 17.6643C41.1201 17.5549 40.3423 17.6452 39.8026 18.441C39.5099 18.8723 39.4371 18.3252 38.6229 18.1632C37.4159 17.9226 36.2236 18.4456 35.5315 19.5151C35.4319 19.669 35.35 19.772 35.1746 19.6109C33.8871 18.4278 31.9667 20.0608 32.1746 20.6368C32.5722 21.7377 32.5926 22.1785 32.8606 21.7872C33.3227 21.1126 34.7874 20.181 35.8147 20.9051C35.9789 21.0209 36.0161 20.8956 36.0707 20.7903C36.6857 19.6027 38.7026 19.3558 39.6012 19.9945C40.1578 20.3899 40.2864 18.8868 42.1989 19.3235C42.6654 19.4302 42.6584 19.3712 42.5921 18.4033V18.4024Z" fill="black"/>
<path d="M36.3544 56.9419C36.6566 57.0069 36.6658 56.9928 38.2383 56.7213C38.5192 56.6732 38.7934 56.6165 39.0612 56.5584L39.4934 56.9029C38.4083 57.1794 37.3357 57.5535 36.4544 57.4404C34.826 57.2325 35.6142 55.4089 36.564 54.0084C36.6267 53.9163 36.6896 53.8237 36.7524 53.7311L37.0212 54.1074C36.0042 55.6972 35.5905 56.7781 36.3544 56.9419Z" fill="black"/>
<path d="M21.1533 60.4701C21.5925 60.2595 22.0225 61.1706 22.3058 60.758C22.6447 60.2645 22.9537 59.7806 23.2373 59.3048L23.4908 59.9354C23.3261 60.2582 23.1662 60.5478 23.0459 60.7094C22.1486 61.9169 23.1953 60.8846 26.6037 65.5414C26.9134 65.9645 26.9792 65.7143 27.6466 65.1868C27.8985 64.988 28.1451 64.7983 28.3866 64.6171L28.8076 64.8999C28.1191 65.4211 27.6185 65.8555 27.2902 66.1166C27.191 66.1956 27.1637 66.3267 27.2261 66.4329C28.2478 68.1716 28.683 67.0104 25.5249 71.121C22.7835 74.6892 18.7371 79.4681 15.3728 82.5486C15.1437 82.7584 14.8241 82.4047 15.0528 82.1746L15.0762 82.1514C17.1406 80.0745 21.0675 76.1237 27.327 68.0531C28.2417 66.8742 21.6106 61.1697 21.6015 61.1602C21.1078 60.7289 21.2811 60.8047 20.9524 60.9972C15.2195 64.357 5.75385 72.2991 3.87208 73.3132C1.5797 74.5489 14.7916 63.5244 21.1533 60.4701Z" fill="black"/>
<path d="M26.1373 54.171C25.2777 56.6542 25.0728 56.9297 24.2534 58.3701C24.2288 58.4133 24.1888 58.4936 24.1375 58.6003H23.6429C25.855 54.6127 26.3937 51.1762 28.1135 47.4991C28.2476 47.2126 28.3857 46.9153 28.5266 46.6147L28.8339 47.0664C27.4539 50.2982 26.1373 54.1655 26.1373 54.171Z" fill="black"/>
<path d="M39.9208 59.3866C40.4365 59.1646 40.9182 59.0025 41.3474 58.875L41.6246 59.2944C39.8638 59.8619 39.3476 60.3081 37.36 60.8152C33.9218 61.6932 31.4157 63.0791 29.7108 64.2486L29.5908 63.756C34.103 60.6917 36.7875 60.7358 39.9208 59.3866Z" fill="black"/>
<path d="M32.2966 46.1717L32.0298 45.8053C32.503 45.0159 33.0087 44.1788 33.4999 43.4369L33.9532 43.5732C33.4207 44.3617 32.8455 45.2951 32.2966 46.1717Z" fill="black"/>
<path d="M35.8507 44.1412L35.4506 43.9509C34.8249 45.0967 33.8695 46.4727 33.1447 47.6153L33.4089 48.0639C34.1657 46.82 35.1848 45.3832 35.8507 44.1412Z" fill="black"/>
<path d="M36.5827 46.0319C35.9949 46.6979 34.8206 48.0661 33.8257 49.0231L33.6655 48.6C34.9586 47.2013 36.2332 45.6833 37.3488 44.4612L37.865 44.6305C37.484 45.0291 37.0578 45.494 36.5827 46.0319Z" fill="black"/>
<path d="M39.0612 45.4377C39.171 45.3155 39.2772 45.1907 39.379 45.0649L39.9041 45.2075C38.8613 46.5417 37.2278 48.1832 35.7981 50.4022L35.2201 50.3908C36.1993 48.7788 38.0728 46.5394 39.0612 45.4377Z" fill="black"/>
<path d="M41.5411 45.8053C40.9209 46.3124 39.9458 47.2703 38.4939 48.8795C37.8674 49.5741 37.3915 50.1193 37.0213 50.5492L36.5826 50.4021C37.8409 48.9091 39.6858 46.681 41.0465 45.5602L41.5411 45.8053Z" fill="black"/>
<path d="M38.3613 51.4005C39.3137 50.0508 40.2969 48.7248 41.3475 47.451C41.5355 47.2236 41.7143 46.9802 41.8724 46.7428L42.0288 47.2535C40.8811 48.8015 39.7075 50.3291 38.7018 51.6983L38.3613 51.4005Z" fill="black"/>
<path d="M23.9943 58.4042C24.4881 58.4129 24.9324 58.8741 24.9272 59.3725C24.9224 59.8138 24.5067 60.2927 24.1316 60.2927C22.8419 60.2927 22.7141 58.382 23.9943 58.4042ZM24.0216 59.8996C24.8904 59.9096 24.6708 58.7107 23.9575 58.7011C23.1892 58.6911 23.1892 59.89 24.0216 59.8996Z" fill="black"/>
<path d="M24.8432 60.7693C24.8523 59.5036 26.6908 59.6571 26.6726 60.8651C26.6539 62.0921 24.8341 62.025 24.8432 60.7693ZM25.712 60.1846C24.9346 60.1564 24.9436 61.3771 25.767 61.4117C26.5444 61.4443 26.5262 60.2141 25.712 60.1846Z" fill="black"/>
<path d="M27.3166 61.5915C27.8103 61.6002 28.2547 62.0614 28.2495 62.5598C28.2447 63.0011 27.829 63.48 27.4539 63.48C26.1641 63.48 26.0364 61.5693 27.3166 61.5915ZM27.3439 63.0869C28.2127 63.0969 27.9931 61.898 27.2798 61.8884C26.5115 61.8784 26.5115 63.0773 27.3439 63.0869Z" fill="black"/>
<path d="M28.0308 64.0651C28.0399 62.7994 29.8784 62.9529 29.8602 64.1609C29.8416 65.3879 28.0217 65.3207 28.0308 64.0651ZM28.8996 63.4803C28.1222 63.4522 28.1313 64.6729 28.9546 64.7074C29.732 64.7401 29.7138 63.5098 28.8996 63.4803Z" fill="black"/>
<path d="M24.3281 32.1362C29.2238 33.1735 32.6864 32.3178 36.8843 32.6969C37.5853 32.7593 38.3446 32.8228 39.0762 32.9043L38.2569 33.2936C34.7488 33.0555 30.2407 33.1858 30.2351 33.1858C27.8856 33.247 25.7591 32.9107 24.2775 32.5621C24.3026 32.3841 24.3182 32.2434 24.3281 32.1362Z" fill="black"/>
<path d="M31.058 44.4605C30.6557 42.792 32.5578 42.8978 34.1494 43.3195C36.0074 43.8168 37.8654 44.3244 39.6984 44.9209L40.9819 45.8324L40.0905 45.56C35.3521 44.0483 31.2182 42.6594 31.4785 44.1727C31.5331 44.4987 31.5426 44.4891 32.3564 45.9368C33.463 47.8925 34.835 49.292 33.8198 51.4684C33.5457 52.0531 32.6951 52.1875 32.1004 51.2863C30.3906 48.7364 29.8232 48.6787 28.4148 46.5601C25.8756 42.7489 23.1675 40.6448 21.4434 39.5076C21.5031 39.4159 21.5689 39.3128 21.637 39.2048C26.8362 42.4515 28.0956 45.8174 30.5824 48.5539C31.7986 49.8963 32.3659 51.1138 32.7592 51.363C33.1069 51.5837 33.3629 51.4784 33.5184 51.0947C34.4967 48.5253 31.5426 46.4739 31.058 44.4605Z" fill="black"/>
<path d="M35.6583 40.9708C35.4574 40.9418 35.4115 41.0761 35.5578 41.2296C35.7342 41.4109 37.0522 41.8898 38.6203 42.4999L38.3771 42.9147C35.8967 41.8889 35.6027 41.893 35.3019 41.4497C34.8247 40.7357 35.2022 40.5139 36.0077 40.5732V41.0261C35.8921 41.0066 35.7757 40.9881 35.6583 40.9708Z" fill="black"/>
<path d="M37.8784 35.9145L38.377 35.6244C39.0128 35.7584 39.7441 35.9004 40.4873 36.0539L40.0905 36.4316L40.0858 36.4305C39.3007 36.2561 38.5311 36.0852 37.8784 35.9145Z" fill="black"/>
<path d="M41.4479 35.1652C41.3055 35.1772 41.15 35.1823 40.9819 35.1796C40.4163 35.1713 39.8943 35.1327 39.4084 35.0888L40.0905 34.6796C40.8048 34.7199 41.454 34.733 41.8659 34.6539L41.4479 35.1652Z" fill="black"/>
<path d="M42.0352 33.5103C42.224 33.5935 42.3786 33.686 42.4908 33.7895C42.6389 33.9258 42.732 34.0825 42.7602 34.2403H42.308C42.25 34.0635 42.0114 33.9147 41.6398 33.7895L42.0352 33.5103Z" fill="black"/>
<path d="M42.308 38.9889L42.6735 38.5967C42.1508 38.514 41.5717 38.3897 40.9819 38.2516L40.4851 38.5967C41.1092 38.746 41.7302 38.8876 42.308 38.9889Z" fill="black"/>
<path d="M36.8844 41.1972L37.5507 40.8638C38.1569 41.021 38.8219 41.227 39.4807 41.4497L39.0762 41.8104C38.3881 41.5807 37.657 41.3678 36.8844 41.1972Z" fill="black"/>
<path d="M0.829956 33.1377C2.71393 33.272 2.80789 34.6671 18.7933 39.465C20.174 39.8795 20.1835 39.8486 20.3117 39.6856C21.5664 38.0859 22.9081 34.125 23.394 32.1117C23.5582 31.4308 23.5664 31.2224 20.5586 29.1973C15.5806 25.8457 15.6915 25.8125 15.4641 26.4267C15.2619 26.9728 14.5667 27.1195 13.9643 26.8198C13.5061 26.592 13.2948 25.822 13.5438 25.2954C13.7616 24.8342 13.7556 24.8519 13.3242 24.5954C9.55894 22.3583 9.71008 22.2357 9.40041 22.6974C8.84867 23.52 7.16697 22.7256 7.57105 21.6043C7.7854 21.0096 7.32201 21.0382 6.30119 20.2791C6.25832 20.2474 6.32331 20.1076 6.42507 20.1339C8.26916 20.6137 20.4295 27.8844 23.8332 31.0858C24.436 31.6527 22.7448 36.186 21.7115 38.1708C20.6231 40.2608 20.5135 40.461 20.0103 40.2989C18.63 39.855 7.30599 37.1639 0.958565 33.3292C0.922211 33.3006 0.858093 33.2911 0.830371 33.1377H0.829956ZM15.1714 26.2156C15.3909 25.6981 15.0241 25.5751 14.4303 25.2378C14.128 25.0662 14.0085 25.103 13.8634 25.4389C13.4121 26.4825 14.769 27.1644 15.1714 26.2156ZM9.17129 22.4477C9.45453 22.1409 9.18992 22.0927 8.34801 21.5752C7.33326 20.9515 8.10071 23.6072 9.17129 22.4477Z" fill="black"/>
<path d="M4.13184 31.3159C4.73558 31.2582 5.19682 31.8815 5.21109 32.5143C5.22367 33.0799 4.68056 33.6646 4.16824 33.6456C2.64071 33.5884 2.61344 31.2968 4.13184 31.3159ZM4.05864 31.6608C3.07986 31.6704 3.14394 33.3351 4.15002 33.3096C5.05563 33.287 5.0829 31.6508 4.05864 31.6608Z" fill="black"/>
<path d="M19.4061 37.5284C19.3971 39.12 17.2247 38.9089 17.2203 37.4612C17.216 36.0712 19.4157 35.8987 19.4061 37.5284ZM19.0588 37.5093C19.0571 37.0781 18.6656 36.6659 18.2723 36.6659C17.9064 36.6659 17.5686 37.0876 17.5772 37.5384C17.5972 38.593 19.0636 38.6315 19.0588 37.5098V37.5093Z" fill="black"/>
<path d="M9.66553 29.5232C9.07996 29.5809 8.57715 28.9958 8.57715 28.3439C8.57715 27.7591 9.07087 27.248 9.63822 27.2412C11.1199 27.2239 11.1567 29.5228 9.66553 29.5228V29.5232ZM8.93405 28.3729C8.93405 29.466 10.4018 29.5232 10.4156 28.4306C10.429 27.376 8.93405 27.2511 8.93405 28.3729Z" fill="black"/>
<path d="M19.8175 31.1626C19.8084 32.7346 17.6642 32.6484 17.6408 31.134C17.6183 29.6767 19.827 29.5424 19.8175 31.1626ZM18.7473 31.9774C19.717 31.9724 19.7075 30.3286 18.6832 30.3286C17.7594 30.3286 17.7413 31.9824 18.7473 31.9774Z" fill="black"/>
<path d="M13.1683 34.3742C13.1549 35.8601 10.9734 35.7933 10.9825 34.288C10.9916 32.7926 13.1826 32.8022 13.1683 34.3742ZM12.034 33.5112C11.083 33.4931 11.1193 35.1233 12.034 35.16C13.031 35.2 13.1042 33.5317 12.034 33.5112Z" fill="black"/>
<path d="M4.40641 26.1676C4.40641 27.7497 2.234 27.6248 2.23878 26.0813C2.24268 24.7104 4.40641 24.586 4.40641 26.1676ZM4.05864 26.1962C4.07208 25.0935 2.59132 25.0168 2.58613 26.1962C2.58136 27.2031 4.04477 27.3084 4.05864 26.1962Z" fill="black"/>
<path d="M44.1327 62.6473L44.1322 62.6469C43.9889 62.6909 43.8486 62.7358 43.71 62.7812C42.7299 61.0035 41.2374 58.8195 38.9339 56.6151C37.1136 54.8704 37.1318 54.2758 34.946 52.1667C34.1777 51.4285 34.4155 50.566 35.001 50.3549C37.1959 49.5786 38.3302 51.1893 40.0405 52.5888C41.3024 53.6148 41.2933 53.6339 41.5952 53.7297C42.7485 54.1123 42.4254 51.1212 41.8195 47.1812C41.7481 46.7155 41.6727 46.2365 41.5952 45.7485L42.231 46.2579V46.7082C42.4375 48.16 42.6086 49.6176 42.7745 51.0748C42.9668 52.7813 42.8204 54.7851 41.2929 54.1428C39.4545 53.376 37.8997 50.0394 35.3388 50.7203C34.9455 50.8256 34.8173 51.0844 34.9819 51.468C35.1647 51.9088 36.2535 52.6565 37.3601 54.0946C39.3479 56.6786 41.9183 58.3365 44.1322 62.6469C44.1327 62.6469 44.1331 62.6468 44.1336 62.6464L44.1327 62.6473Z" fill="black"/>
<path d="M51.5662 61.4697C51.5117 60.0429 51.5537 58.3043 51.8291 56.4625C51.8313 56.4603 51.9296 55.8288 52.0643 54.8478H52.5576C52.2462 56.912 51.9465 59.0243 51.9989 61.5233C51.8664 61.4997 51.7217 61.482 51.5662 61.4697Z" fill="black"/>
<path d="M44.9149 49.8665C45.0335 50.0294 45.1708 50.0008 45.1708 49.7897C45.1647 49.043 45.1149 48.3225 45.0374 47.6316L45.5489 47.9276C45.7373 49.7448 45.6156 51.0095 44.6957 50.1257C44.3258 49.7711 44.3553 49.4661 43.7715 46.9969L44.257 47.1813C44.5584 48.5849 44.7867 49.6862 44.9149 49.8665Z" fill="black"/>
<path d="M45.0119 85.7976C44.4987 83.964 43.0569 77.2054 42.8845 67.4107C42.8196 63.7295 42.5285 63.5965 43.1955 63.3554C47.5433 61.7834 52.1856 61.5246 52.5429 62.1379C54.7772 65.9721 58.8955 80.8176 59.1393 83.1106C59.1692 83.3907 58.9786 83.402 58.8795 83.2304C58.145 81.9616 56.798 75.6243 53.2016 64.9184C52.3801 62.4729 52.2869 62.369 51.7564 62.3876C48.8391 62.4884 50.5282 60.5159 56.0185 83.1432C56.0536 83.2876 56.1376 83.4792 55.9089 83.5459C55.5434 83.6521 55.8742 83.555 53.1467 73.9591C49.8655 62.4157 50.1102 62.438 49.6438 62.4929C47.7698 62.714 47.5966 62.5406 47.7139 63.1543C48.8335 68.9996 51.7369 80.2002 51.9487 83.7761C51.9738 84.2019 51.866 84.4384 51.7222 83.9286C51.1921 82.0496 49.6936 74.3241 48.1895 67.6508C47.1197 62.9051 47.4493 62.7753 46.9911 62.8479C46.2237 62.9696 45.471 63.1562 44.7139 63.3464C44.4571 63.4109 44.5853 63.3754 46.2137 74.266C47.4021 82.2136 48.2627 84.9568 47.9331 85.0417C47.668 85.1098 47.6386 85.0327 47.1557 82.53C43.2904 62.4961 45.2237 63.0817 43.4515 63.8067C43.1492 63.9302 43.2267 63.8544 43.4056 67.9673C43.9032 79.4081 45.4424 84.5074 45.299 85.8466C45.2891 85.9397 45.1106 86.1521 45.0119 85.7985L45.0119 85.7976Z" fill="black"/>
<path d="M47.2378 55.3599C50.5822 55.1107 53.5094 53.7152 58.684 54.5509C58.6576 54.6867 58.6334 54.8197 58.6095 54.9522C56.574 54.683 53.6818 54.5895 50.1283 55.4357C47.7225 56.0109 47.2656 55.6463 44.366 56.3273C43.3417 56.567 42.8021 55.8674 42.9758 55.2441C43.6159 52.9144 45.5275 52.8567 47.6038 52.1858C49.1313 51.6964 49.1404 51.7059 49.3873 51.5048C50.7407 50.4212 45.2166 48.0438 39.9667 45.3595C39.4453 45.0912 38.8234 44.679 38.6861 44.1134C38.0915 41.5631 47.5392 46.4672 48.2621 46.4527C48.463 46.449 48.5181 46.3188 48.3535 46.1939C45.4349 44.103 42.4206 43.3066 40.6817 42.3688L41.1633 42.0593C41.4552 42.2128 41.7714 42.3583 42.0979 42.4851C44.4669 43.4148 50.7961 46.2144 48.3266 46.799C47.7506 46.9334 47.5492 46.6461 44.0646 45.3037C36.9394 42.5614 38.897 44.4693 40.9 45.3514C43.3236 46.4155 45.6558 47.6906 47.9698 48.9849C49.415 49.7902 50.8966 51.0554 49.5246 52.0046C47.8688 53.1455 44.366 52.5798 43.4422 55.1683C43.3049 55.571 43.4331 55.8202 43.8264 55.9065C44.2742 56.0023 45.4816 55.4938 47.2378 55.3599Z" fill="black"/>
<path d="M61.1214 47.3437C59.9781 46.5779 58.6502 45.556 57.3718 44.2772C57.3674 44.2726 55.3271 42.211 53.114 40.2103L53.3145 39.6549C56.0698 41.998 57.988 44.5927 61.3514 46.9551C61.2739 47.0795 61.1972 47.2093 61.1214 47.3437Z" fill="black"/>
<path d="M48.143 38.1415C47.9542 37.9674 47.7978 37.801 47.6714 37.6435L48.143 37.5162C48.632 38.0266 49.4059 38.6565 50.1283 39.2604L50.0733 39.7481C49.4951 39.2873 48.8368 38.7863 48.143 38.1415Z" fill="black"/>
<path d="M49.7074 40.739L49.7992 40.3124C48.8321 39.7042 47.6324 38.9071 46.5176 38.2484L46.1495 38.5948C47.3068 39.2631 48.6251 40.1117 49.7074 40.739Z" fill="black"/>
<path d="M44.366 39.7758L44.7597 39.5179C46.1819 40.5029 48.2811 41.5758 49.3873 42.3687V42.9602C48.1651 41.9842 45.8848 40.8704 44.366 39.7758Z" fill="black"/>
<path d="M49.3873 43.5241C48.1088 43.3215 45.6385 42.2879 44.5765 41.8618C43.7744 41.5419 43.085 41.2868 42.4968 41.0874L43.0529 40.7391C44.8823 41.4238 47.1253 42.4079 49.2323 43.1361L49.3873 43.5241Z" fill="black"/>
<path d="M39.2076 40.7391C39.1064 39.9184 39.7757 39.7954 40.9 40.0509L40.4156 40.5236C39.4638 40.3791 39.3749 40.6662 39.7692 41.0873L39.5131 41.4679C39.3467 41.2489 39.2417 41.0093 39.2076 40.7391Z" fill="black"/>
<path d="M78.7465 64.8318C77.9509 64.8032 73.6257 63.2861 72.5178 62.8666C68.1401 61.2083 64.7252 59.4156 61.8806 57.9388C58.7984 56.3382 58.7533 56.3858 58.8256 55.8679C59.3778 51.9379 60.827 48.3502 61.8166 46.8944C62.7295 45.5511 77.5932 49.0629 79.1302 49.4061C82.2849 50.1102 82.2217 50.1347 82.1485 50.5184C82.0571 50.9977 72.746 48.1709 62.484 47.0096C62.3012 46.9888 62.2289 47.1063 62.1639 47.2398C60.9417 49.7443 59.6909 52.9929 59.3471 55.782C59.302 56.1466 59.3341 56.0104 62.1275 57.4599C62.5489 57.6787 62.383 57.3446 63.5727 54.3058C65.6749 48.9363 65.5788 49.1315 65.7222 48.9658C66.5446 48.0138 64.2678 54.3058 64.2315 54.4111C63.163 57.5144 62.7143 57.7736 63.2527 58.0351C75.397 63.9307 78.2251 63.883 78.7465 64.8322V64.8318Z" fill="black"/>
<path d="M78.6002 15.804C76.8349 16.6093 75.9085 18.949 62.4753 28.1617C61.3419 28.9394 61.3428 28.9267 60.3627 27.9221C58.6004 26.1162 57.1167 24.0806 55.8079 21.9016C55.6173 21.5843 55.6442 21.3945 55.8443 21.1153C59.9184 15.4381 64.7872 10.2611 66.5269 8.20141C74.3191 -1.02037 64.086 9.31454 58.1305 17.1558C54.5918 21.8158 54.9192 21.3364 55.7161 22.7836C57.6338 26.2655 61.0574 29.1496 61.0665 29.1591C61.4463 29.5477 61.6607 29.2068 62.4567 28.6893C73.2186 21.695 78.7462 16.1975 78.5998 15.8044L78.6002 15.804Z" fill="black"/>
<path d="M59.5273 28.2298C54.0123 33.7423 54.0374 37.6641 52.2501 41.4206C51.4653 43.0704 51.2678 44.418 50.9603 44.7761C50.6918 45.0893 50.4125 45.0726 50.1647 44.7475C48.516 42.5846 50.7542 39.7233 50.6585 37.6432C50.5796 35.9268 48.7823 36.615 47.3843 37.5089C45.1413 38.9429 42.9122 40.3952 40.7991 42.0435C39.0525 43.4054 36.4925 44.2023 42.363 39.1672C45.2353 36.704 45.5731 36.6745 45.7563 36.0802C46.5333 33.5585 41.0114 37.8371 39.0521 39.5122C36.7497 41.4806 33.6882 42.0789 39.7931 36.9619C41.1296 35.8415 45.2353 32.5384 43.5246 32.5806C42.1712 32.6138 36.35 37.424 35.7138 35.8978C35.2907 34.8827 41.6207 32.0132 42.9849 30.6826C43.3687 30.3081 43.1768 29.8764 42.6649 29.9159C41.3111 30.0194 37.0005 32.4276 37.0308 31.3636C37.0728 29.8868 48.2717 26.6373 48.2808 26.6373C52.5428 25.3812 55.5398 23.12 55.4757 22.9952C55.4394 22.909 55.3843 22.8322 55.3384 22.7555C50.0612 26.3795 46.2241 26.3332 41.7779 28.2094C39.7753 29.0542 37.2612 30.0798 36.7294 30.9799C36.3097 31.69 36.8398 32.4295 38.5587 31.8429C40.4067 31.2124 41.6593 30.4143 42.894 30.2804C42.4734 31.1048 35.0156 34.298 35.2387 35.7352C35.6713 38.5262 40.8359 34.0193 43.4064 33.07C43.4427 33.0414 43.4978 33.1181 43.4886 33.1467C39.6653 36.7131 34.1222 40.3103 36.1625 41.2191C38.0183 42.0453 40.525 38.0332 45.2903 35.7352C45.4726 35.6472 45.5593 35.7661 45.464 35.9559C45.1292 36.6246 36.2755 42.6455 38.6774 43.4145C39.2088 43.5849 39.8663 43.2324 40.3513 42.8969C45.2262 39.5222 49.988 35.7443 50.1924 37.5189C50.2301 37.8448 50.2176 37.8443 49.8451 39.4745C49.3388 41.6885 48.4189 43.4431 50.0006 45.2078C50.4216 45.6773 51.2722 45.5433 51.5922 44.5078C52.5073 41.5455 53.037 41.3149 53.7871 38.8608C56.0448 31.4784 59.9669 28.5844 59.7014 28.3738C59.6555 28.3161 59.5918 28.2684 59.5277 28.2298H59.5273Z" fill="black"/>
<path d="M57.5092 26.9538C57.2623 27.6729 57.6464 27.7782 57.8933 28.1332C58.4334 28.9095 58.4425 28.9004 57.8292 29.5904C57.4542 30.0126 57.4429 30.014 57.1523 29.5523C57.0141 29.3326 56.8231 29.1687 56.6768 28.9581C56.4299 28.6031 56.1371 28.4115 55.6889 28.3829C54.7924 28.3252 54.1679 27.347 54.3991 26.4272C54.4714 26.1394 54.4762 26.1726 53.6399 24.9795C53.419 24.6645 53.5407 24.6944 54.4446 24.1456C55.1042 23.7448 55.0119 25.128 56.2831 25.2097C56.9873 25.2551 57.6001 26.1685 57.5087 26.9547L57.5092 26.9538ZM57.0336 26.9824C57.1809 25.3336 54.924 25.1516 54.7746 26.6755C54.6135 28.3152 56.8976 28.5068 57.0336 26.9824Z" fill="black"/>
<path d="M55.872 26.8295C55.8876 27.1264 55.3687 26.7241 55.1405 26.5516C55.0855 26.5035 55.0764 26.4173 55.1587 26.3696C55.2591 26.3115 55.8655 26.7051 55.872 26.8299V26.8295Z" fill="black"/>
<path d="M56.1006 26.8294C55.9815 26.4653 56.2471 26.0146 56.4025 26.1103C56.558 26.2061 56.2471 26.6951 56.1006 26.8294Z" fill="black"/>
</svg>
