<svg width="202" height="195" viewBox="0 0 202 195" fill="none" xmlns="http://www.w3.org/2000/svg">
<path d="M0 175C0 186.046 8.95431 195 20 195H180C191.046 195 200 186.046 200 175V104.5C200 93.4543 191.046 84.5 180 84.5H171.5H142C125.431 84.5 112 71.0685 112 54.5V24C112 12.9543 103.046 4 92 4H20C8.9543 4 0 12.9543 0 24V175Z" fill="url(#paint0_linear_369_70)"/>
<ellipse cx="166.5" cy="33.5" rx="35.5" ry="33.5" fill="url(#paint1_linear_369_70)"/>
<path d="M173.173 22.1033C173.03 21.5698 172.482 21.2533 171.948 21.3962L163.255 23.7256C162.722 23.8685 162.405 24.4168 162.548 24.9503C162.691 25.4838 163.239 25.8004 163.773 25.6574L171.5 23.5869L173.571 31.3143C173.714 31.8477 174.262 32.1643 174.795 32.0214C175.329 31.8784 175.646 31.3301 175.503 30.7966L173.173 22.1033ZM161.073 43.6467L173.073 22.8621L171.341 21.8621L159.341 42.6467L161.073 43.6467Z" fill="#3B3B3B"/>
<defs>
<linearGradient id="paint0_linear_369_70" x1="100" y1="195" x2="100" y2="4" gradientUnits="userSpaceOnUse">
<stop stop-color="#51B276" stop-opacity="0.5"/>
<stop offset="1" stop-color="#51B276"/>
</linearGradient>
<linearGradient id="paint1_linear_369_70" x1="166.5" y1="0" x2="166.5" y2="67" gradientUnits="userSpaceOnUse">
<stop stop-color="#51B276"/>
<stop offset="1" stop-color="#51B276" stop-opacity="0.5"/>
</linearGradient>
</defs>
</svg>
