<svg width="14" height="14" viewBox="0 0 14 14" fill="none" xmlns="http://www.w3.org/2000/svg">
<path d="M3.5 6.3L13.125 6.3C13.3571 6.3 13.5796 6.37375 13.7437 6.50502C13.9078 6.6363 14 6.81435 14 7C14 7.18565 13.9078 7.3637 13.7437 7.49497C13.5796 7.62625 13.3571 7.7 13.125 7.7L3.5 7.7V8.4C3.5 8.58565 3.40781 8.7637 3.24372 8.89497C3.07962 9.02625 2.85706 9.1 2.625 9.1C2.39294 9.1 2.17038 9.02625 2.00628 8.89497C1.84219 8.7637 1.75 8.58565 1.75 8.4V7.7H0.875001C0.642937 7.7 0.420376 7.62625 0.256282 7.49497C0.0921869 7.3637 0 7.18565 0 7C0 6.81435 0.0921869 6.6363 0.256282 6.50502C0.420376 6.37375 0.642937 6.3 0.875001 6.3H1.75V5.6C1.75 5.41435 1.84219 5.2363 2.00628 5.10503C2.17038 4.97375 2.39294 4.9 2.625 4.9C2.85706 4.9 3.07962 4.97375 3.24372 5.10503C3.40781 5.2363 3.5 5.41435 3.5 5.6V6.3ZM12.25 11.2H13.125C13.3571 11.2 13.5796 11.2737 13.7437 11.405C13.9078 11.5363 14 11.7143 14 11.9C14 12.0857 13.9078 12.2637 13.7437 12.395C13.5796 12.5263 13.3571 12.6 13.125 12.6H12.25V13.3C12.25 13.4857 12.1578 13.6637 11.9937 13.795C11.8296 13.9263 11.6071 14 11.375 14C11.1429 14 10.9204 13.9263 10.7563 13.795C10.5922 13.6637 10.5 13.4857 10.5 13.3V12.6L0.875001 12.6C0.642937 12.6 0.420376 12.5263 0.256282 12.395C0.0921869 12.2637 0 12.0857 0 11.9C0 11.7143 0.0921869 11.5363 0.256282 11.405C0.420376 11.2737 0.642937 11.2 0.875001 11.2L10.5 11.2V10.5C10.5 10.3143 10.5922 10.1363 10.7563 10.005C10.9204 9.87375 11.1429 9.8 11.375 9.8C11.6071 9.8 11.8296 9.87375 11.9937 10.005C12.1578 10.1363 12.25 10.3143 12.25 10.5V11.2ZM9.625 2.8V3.5C9.625 3.68565 9.53281 3.8637 9.36872 3.99497C9.20462 4.12625 8.98206 4.2 8.75 4.2C8.51794 4.2 8.29538 4.12625 8.13128 3.99497C7.96719 3.8637 7.875 3.68565 7.875 3.5L7.875 2.8L0.875001 2.8C0.642937 2.8 0.420376 2.72625 0.256282 2.59497C0.0921869 2.4637 0 2.28565 0 2.1C0 1.91435 0.0921869 1.7363 0.256282 1.60503C0.420376 1.47375 0.642937 1.4 0.875001 1.4L7.875 1.4V0.7C7.875 0.514348 7.96719 0.336301 8.13128 0.205025C8.29538 0.0737498 8.51794 0 8.75 0C8.98206 0 9.20462 0.0737498 9.36872 0.205025C9.53281 0.336301 9.625 0.514348 9.625 0.7V1.4L13.125 1.4C13.3571 1.4 13.5796 1.47375 13.7437 1.60503C13.9078 1.7363 14 1.91435 14 2.1C14 2.28565 13.9078 2.4637 13.7437 2.59497C13.5796 2.72625 13.3571 2.8 13.125 2.8L9.625 2.8Z" fill="white"/>
</svg>
