<svg width="380" height="175" viewBox="0 0 380 175" fill="none" xmlns="http://www.w3.org/2000/svg">
<path d="M152.94 134.419C153.327 135.703 153.555 149.423 153.419 150.37C153.259 151.318 117.358 169.697 110.733 171.849C104.108 174.021 97.4831 174.751 84.8709 171.237C72.2587 167.723 39.294 156.234 37.1995 153.332C35.1051 150.43 33.9213 138.407 33.9213 138.407C33.9213 138.407 20.8993 137.775 18.008 132.682C16.0957 129.326 3.32414 99.9904 1.73054 95.3512C0.114172 90.7119 -0.181781 89.8433 7.78622 87.3559C15.7542 84.8882 44.1886 76.3994 44.1886 76.3994L46.8522 81.0584C46.8522 81.0584 26.3858 86.2701 22.5156 88.2048C18.6455 90.1394 18.395 93.5152 21.5367 100.523C24.6784 107.551 34.1489 133.353 35.2417 135.485C36.3344 137.617 77.9274 150.331 93.4764 155.464C96.8229 156.569 99.7142 156.905 100.761 156.471C107.864 153.569 129.423 144.645 136.526 141.21C143.629 137.835 152.94 134.419 152.94 134.419Z" fill="#75FB4C"/>
<path d="M349.545 138.427C312.46 172.441 249.08 185.628 210.151 143.086C208.921 141.743 207.715 140.341 206.531 138.9C196.878 127.016 190.982 115.092 188.204 103.484C186.884 98.0357 186.247 92.6463 186.247 87.395C186.087 13.9176 306.495 -37.5285 364.229 37.4493C391.389 72.7272 378.458 111.914 349.545 138.427Z" fill="#51B276"/>
<path d="M349.545 138.427C312.46 172.441 249.08 185.629 210.151 143.086C209.923 141.605 209.672 139.947 209.399 138.091C207.76 127.016 209.9 124.687 210.105 122.89C210.31 121.114 210.31 118.409 208.261 114.856C206.212 111.322 206.576 108.894 206.576 108.894C205.279 108.894 196.901 105.518 194.192 102.794C193.281 103.188 192.097 103.445 190.663 103.504C189.775 103.544 188.956 103.524 188.227 103.465C182.9 103.031 181.807 100.148 183.037 98.0952C179.349 97.3648 178.506 94.7786 179.667 92.5084C181.306 92.0346 182.946 91.5805 184.494 91.1462C183.993 90.0604 184.744 88.7378 186.292 87.3756C187.84 86.0135 190.162 84.6316 192.917 83.3878C191.915 77.1693 190.982 73.3395 190.026 71.089C202.205 71.5628 209.103 73.4184 212.108 75.2939C217.299 78.5512 230.23 103.327 230.23 103.327C230.753 103.109 231.277 102.892 231.755 102.675C231.755 102.675 235.147 106.347 236.308 111.855C240.953 111.855 247.281 119.83 248.078 123.344C248.306 124.351 248.738 125.654 249.239 127.016C262.17 110.315 277.947 90.7909 277.947 90.7909L277.879 52.5123C277.879 52.5123 256.41 49.3537 255.841 47.2414C255.318 45.2672 272.893 34.903 288.647 27.4802C288.191 30.6981 292.084 33.6988 297.776 33.5014C301.282 33.3829 306.586 31.2706 307.588 32.613C308.589 33.9554 306.336 38.0419 308.658 41.7335C310.98 45.4054 314.713 49.4129 316.262 49.5314C317.104 49.6103 319.153 48.6233 320.837 47.2808C326.119 46.8268 331.241 49.0378 330.945 51.387C330.422 55.5722 316.945 56.0855 316.945 56.0855C316.945 56.0855 314.964 73.0236 315.943 87.9679C315.943 87.9679 318.652 90.2579 319.699 92.2123C320.746 94.1667 325.595 100.464 330.945 105.439C337.115 111.282 345.47 122.89 349.545 138.427Z" fill="#FFFEF2"/>
<path d="M288.169 43.9639C287.554 43.806 287.213 43.2532 287.417 42.7202L288.283 40.292C288.465 39.759 289.102 39.4628 289.717 39.6405C290.331 39.7985 290.673 40.3512 290.468 40.8842L289.603 43.3124C289.421 43.8257 288.783 44.1218 288.169 43.9639Z" fill="#202D37"/>
<path d="M296.501 45.366C295.886 45.2081 295.544 44.6553 295.749 44.1223L296.614 41.6941C296.797 41.1611 297.434 40.8649 298.049 41.0426C298.663 41.2006 299.005 41.7533 298.8 42.2863L297.935 44.7145C297.753 45.2278 297.115 45.5239 296.501 45.366Z" fill="#202D37"/>
<path d="M297.23 20.8271C299.142 15.5166 305.198 17.2736 305.676 20.3533C310.32 17.9843 314.372 21.5772 312.824 25.5255C317.605 25.6045 319.768 30.3819 318.174 33.1654C322.773 34.2907 321.976 38.5746 319.722 39.8577C319.836 39.8183 323.274 39.8578 323.274 43.6284C323.274 46.3132 317.741 49.6692 316.193 49.5508C314.645 49.4323 310.912 45.4248 308.59 41.7529C306.268 38.081 308.521 33.9748 307.52 32.6324C306.518 31.29 301.214 33.4023 297.708 33.5208C289.649 33.7774 285.186 27.6378 291.606 23.5908C288.533 21.7549 292.38 17.5895 297.23 20.8271Z" fill="#202D37"/>
<path d="M316.262 50.2414C316.216 50.2414 316.148 50.2414 316.102 50.2414C313.894 50.0638 309.887 45.2666 307.884 42.0882C306.359 39.66 306.655 37.1134 306.859 35.238C306.973 34.3101 307.087 33.3428 306.837 33.0072C306.837 33.0072 306.677 32.8098 305.63 32.9085C304.742 32.9875 303.627 33.2243 302.42 33.481C300.827 33.8166 299.165 34.1719 297.708 34.2114C293.086 34.3693 289.193 32.5137 288.032 29.6117C287.19 27.4993 288.055 25.2883 290.354 23.5511C289.853 23.018 289.626 22.3863 289.694 21.7151C289.808 20.6688 290.65 19.741 291.88 19.2672C293.359 18.7144 295.112 18.8921 296.797 19.7805C297.844 17.7273 299.734 16.6021 301.942 16.76C303.832 16.8982 305.471 17.9642 306.131 19.3659C308.18 18.6157 310.274 18.7934 311.868 19.9186C313.507 21.0834 314.236 22.9786 313.803 24.933C315.67 25.2093 317.263 26.1569 318.311 27.6573C319.426 29.2563 319.745 31.191 319.176 32.7703C320.86 33.402 321.953 34.547 322.226 36.0079C322.431 37.2121 322.067 38.4953 321.293 39.4626C321.589 39.5613 321.885 39.6995 322.158 39.8772C323.023 40.4102 324.048 41.5157 324.048 43.6478C324.048 45.385 322.272 47.0433 321.202 47.8922C319.677 49.0767 317.537 50.2414 316.262 50.2414ZM306.131 31.4871C307.042 31.4871 307.77 31.6845 308.18 32.2373C308.726 32.9677 308.59 34.014 308.453 35.3367C308.248 37.1134 307.998 39.3442 309.273 41.3775C311.8 45.385 315.306 48.7411 316.239 48.82C316.649 48.8595 318.402 48.1686 320.132 46.8064C321.612 45.6417 322.454 44.4769 322.454 43.5886C322.454 42.4831 322.135 41.6737 321.498 41.1406C320.792 40.5484 319.904 40.5089 319.79 40.5089C319.449 40.5484 319.13 40.3905 318.994 40.1141C318.811 39.7982 318.948 39.4231 319.267 39.2257C320.268 38.6532 320.883 37.3108 320.678 36.1461C320.542 35.3367 319.95 34.2509 317.946 33.7771C317.719 33.7179 317.537 33.5797 317.423 33.402C317.332 33.2046 317.332 33.0072 317.446 32.8098C318.174 31.5463 317.969 29.7301 316.967 28.3087C316.421 27.5191 315.146 26.2161 312.801 26.1767C312.551 26.1767 312.3 26.0582 312.164 25.8805C312.027 25.7029 311.982 25.466 312.05 25.2686C312.71 23.5905 312.232 21.8928 310.889 20.9255C309.591 20.0174 307.838 19.9976 306.063 20.886C305.835 21.0044 305.562 21.0044 305.311 20.9057C305.061 20.807 304.902 20.6096 304.879 20.3727C304.697 19.1882 303.354 18.1814 301.851 18.063C300.098 17.9445 298.709 18.9908 297.981 20.9649C297.913 21.1821 297.708 21.34 297.457 21.419C297.207 21.4782 296.934 21.4387 296.729 21.3005C295.249 20.3135 293.724 19.9976 292.54 20.4517C291.834 20.7083 291.356 21.2216 291.288 21.7546C291.242 22.2087 291.493 22.6035 292.039 22.9193C292.244 23.0378 292.38 23.2549 292.38 23.4721C292.38 23.6892 292.267 23.9064 292.062 24.0446C289.762 25.4857 288.852 27.3217 289.558 29.0589C290.468 31.3489 293.792 32.8493 297.662 32.7308C298.937 32.6913 300.531 32.3557 302.056 32.0399C303.604 31.803 305.015 31.4871 306.131 31.4871Z" fill="#202D37"/>
<path d="M350.979 145.81C350.592 145.81 350.251 145.553 350.183 145.218C347.155 127.115 337.912 113.039 330.263 105.913C324.799 100.819 319.95 94.4825 318.88 92.5083C317.901 90.6921 315.306 88.5008 315.283 88.4811C315.146 88.3627 315.055 88.2047 315.055 88.027C314.076 73.2013 316.034 56.2039 316.057 56.0263C316.102 55.6907 316.421 55.4143 316.808 55.4143C321.748 55.2169 329.716 53.9534 330.058 51.3278C330.149 50.5974 329.352 49.9262 328.851 49.6103C326.552 48.0705 321.748 47.2808 317.719 48.6232C317.309 48.7614 316.854 48.5838 316.694 48.2284C316.535 47.8731 316.74 47.4782 317.15 47.34C321.885 45.7607 327.212 46.7873 329.83 48.5245C331.128 49.3931 331.765 50.4394 331.629 51.4857C331.105 55.6907 320.61 56.579 317.559 56.7567C317.241 59.8561 315.784 74.5832 316.626 87.6915C317.309 88.3034 319.403 90.2183 320.337 91.9358C321.338 93.7915 326.165 100.069 331.446 104.985C339.255 112.269 348.68 126.602 351.776 145.04C351.845 145.415 351.549 145.771 351.093 145.83C351.071 145.81 351.025 145.81 350.979 145.81Z" fill="#202D37"/>
<path d="M249.148 127.727C248.988 127.727 248.852 127.688 248.715 127.609C248.351 127.391 248.26 126.957 248.488 126.641C260.622 110.986 275.442 92.5873 277.059 90.5737L276.99 53.0848C275.374 52.8479 271.094 52.1767 266.814 51.3475C263.627 50.7356 261.077 50.1433 259.188 49.6103C255.75 48.643 255.135 47.9718 254.976 47.3993C254.817 46.7873 254.429 45.3659 267.087 37.9629C274.645 33.5408 283.888 28.7831 291.788 25.2297C292.175 25.052 292.653 25.1902 292.858 25.5258C293.063 25.8614 292.904 26.276 292.517 26.4536C284.913 29.8689 275.966 34.4687 268.567 38.7525C259.688 43.905 256.888 46.3925 256.569 47.0834C256.888 47.3795 258.596 48.3468 267.543 50.0643C272.756 51.0712 277.878 51.8213 277.924 51.8213C278.311 51.8806 278.584 52.1569 278.584 52.4925L278.675 90.7908C278.675 90.929 278.629 91.0672 278.538 91.1857C278.379 91.3831 262.625 110.907 249.831 127.411C249.671 127.609 249.421 127.727 249.148 127.727Z" fill="#202D37"/>
<path d="M280.337 162.945C279.904 162.945 279.54 162.649 279.54 162.274C279.404 155.997 279.7 130.135 282.363 118.547C284.867 107.65 286.233 101.372 285.528 98.9439C284.958 97.0092 279.449 92.8043 277.377 91.3435C277.036 91.1066 276.99 90.6722 277.264 90.3761C277.537 90.08 278.038 90.0405 278.379 90.2774C279.176 90.8499 286.256 95.884 287.076 98.6083C287.872 101.333 286.552 107.413 283.934 118.823C281.293 130.293 280.997 155.997 281.134 162.255C281.157 162.61 280.792 162.926 280.337 162.945C280.337 162.945 280.36 162.945 280.337 162.945Z" fill="#202D37"/>
<path d="M298.527 154.457C298.504 154.457 298.504 154.457 298.482 154.457C298.049 154.437 297.708 154.101 297.73 153.726C297.753 153.549 298.914 136.077 299.347 126.483C299.529 122.574 300.439 102.853 301.578 98.5293C302.557 94.8179 314.099 88.1453 315.419 87.3952C315.784 87.178 316.284 87.2767 316.512 87.5926C316.762 87.9084 316.649 88.3427 316.284 88.5401C312.87 90.4945 303.832 96.1406 303.126 98.8254C302.261 102.102 301.396 115.803 300.94 126.523C300.531 136.117 299.347 153.608 299.324 153.785C299.301 154.18 298.96 154.457 298.527 154.457Z" fill="#202D37"/>
<path d="M311.913 108.242C311.799 108.242 311.708 108.242 311.594 108.222C310.433 108.123 309.659 107.432 309.477 106.366C309.159 104.432 307.428 101.609 305.607 100.089C305.288 99.832 305.288 99.378 305.584 99.1214C305.88 98.8647 306.404 98.845 306.7 99.1016C308.794 100.878 310.661 103.919 311.048 106.189C311.139 106.722 311.458 106.82 311.754 106.86C313.393 106.998 317.741 104.59 320.405 98.312C320.564 97.9566 321.019 97.7789 321.429 97.8974C321.839 98.0356 322.044 98.4304 321.907 98.7857C319.38 104.748 314.85 108.242 311.913 108.242Z" fill="#202D37"/>
<path d="M294.588 104.708C291.788 104.708 288.464 104.431 286.006 103.306C285.619 103.129 285.459 102.714 285.664 102.378C285.869 102.043 286.347 101.905 286.734 102.082C291.219 104.116 299.551 103.03 299.62 103.01C300.052 102.951 300.462 103.207 300.53 103.583C300.599 103.958 300.303 104.313 299.87 104.372C299.688 104.412 297.434 104.708 294.588 104.708Z" fill="#202D37"/>
<path d="M276.102 108.143C276.057 108.143 276.011 108.143 275.989 108.143C273.598 108.045 271.162 105.004 270.548 103.919C270.365 103.583 270.525 103.168 270.912 102.991C271.299 102.833 271.777 102.971 271.982 103.307C272.642 104.491 274.691 106.702 276.057 106.761C276.285 106.761 276.603 106.722 276.945 106.248C277.377 105.636 277.81 104.906 278.288 104.136C279.95 101.411 281.657 98.5884 283.911 98.4107C284.344 98.3713 284.731 98.6476 284.776 99.0425C284.822 99.4175 284.503 99.7531 284.048 99.7926C282.659 99.9111 280.952 102.714 279.699 104.787C279.221 105.577 278.743 106.327 278.311 106.978C277.628 107.926 276.763 108.143 276.102 108.143Z" fill="#202D37"/>
<path d="M291.288 59.8361C290.4 59.8361 289.512 59.6979 288.647 59.4017C288.237 59.2636 288.032 58.8687 288.192 58.5134C288.351 58.158 288.806 57.9804 289.216 58.1186C291.219 58.7898 292.859 58.3555 293.883 57.8817C295.545 57.1118 296.842 55.6509 297.275 54.0518C297.366 53.6767 297.799 53.4399 298.231 53.5386C298.664 53.6175 298.937 53.9926 298.823 54.3677C298.277 56.3813 296.706 58.158 294.611 59.1056C293.587 59.5794 292.449 59.8361 291.288 59.8361Z" fill="#202D37"/>
<path d="M318.242 52.9664C317.991 52.9664 317.741 52.8677 317.582 52.6506C317.331 52.3347 317.445 51.9004 317.809 51.6832C319.699 50.5974 324.001 49.8078 326.733 50.4198C327.166 50.5185 327.416 50.8936 327.303 51.2687C327.189 51.6437 326.756 51.8609 326.324 51.7622C323.91 51.2292 320.086 52.0386 318.697 52.848C318.538 52.9269 318.401 52.9664 318.242 52.9664Z" fill="#202D37"/>
<path d="M261.487 144.921C261.077 144.921 260.736 144.665 260.69 144.309C260.417 142.256 259.324 136.551 257.571 134.814C256.911 134.143 256.274 134.281 254.999 134.755C254.293 135.011 253.656 135.268 252.973 135.11C252.586 135.011 251.721 134.814 249.672 130.352C248.556 127.904 247.577 125.219 247.19 123.482C246.416 120.146 240.338 112.565 236.217 112.565C235.785 112.565 235.42 112.249 235.42 111.874C235.42 111.499 235.785 111.183 236.217 111.183C239.336 111.183 242.546 114.125 244.162 115.862C246.484 118.349 248.329 121.311 248.761 123.206C249.581 126.759 252.472 133.037 253.451 133.768C253.633 133.768 254.088 133.59 254.384 133.491C255.454 133.096 257.275 132.425 258.778 133.906C261.214 136.314 262.238 143.836 262.261 144.151C262.307 144.527 261.988 144.882 261.555 144.921C261.533 144.921 261.51 144.921 261.487 144.921Z" fill="#202D37"/>
<path d="M230.162 104.037C229.866 104.037 229.57 103.879 229.433 103.622C224.994 95.1137 215.546 78.3532 211.585 75.8658C209.9 74.8195 204.391 72.3124 189.502 71.7794C189.069 71.7596 188.728 71.4438 188.728 71.0687C188.751 70.6936 189.115 70.3975 189.547 70.3975C204.3 70.9305 210.264 73.3389 212.495 74.7406C217.8 78.0571 230.344 102.043 230.867 103.05C231.049 103.405 230.867 103.8 230.48 103.958C230.389 104.017 230.275 104.037 230.162 104.037Z" fill="#202D37"/>
<path d="M185.29 99.0228C181.488 99.0228 179.826 97.6607 179.143 96.8118C178.096 95.4694 178.073 93.6334 179.052 91.9554C179.257 91.6198 179.735 91.4816 180.122 91.6593C180.509 91.837 180.669 92.2515 180.464 92.5871C179.735 93.8308 179.735 95.1338 180.441 96.0616C181.397 97.2856 183.537 97.8384 186.451 97.6212C190.39 97.3251 193.417 96.1011 194.146 94.5021C194.601 93.515 193.987 92.6266 193.395 92.0739C193.099 91.7975 193.122 91.3632 193.44 91.1065C193.759 90.8499 194.26 90.8696 194.556 91.146C195.831 92.3502 196.195 93.7124 195.626 95.0153C194.67 97.1671 191.278 98.6675 186.588 99.0031C186.155 99.0031 185.723 99.0228 185.29 99.0228Z" fill="#202D37"/>
<path d="M189.684 104.254C185.04 104.254 183.173 102.734 182.467 101.767C181.602 100.602 181.534 99.1216 182.308 97.7989C182.513 97.4633 182.991 97.3251 183.378 97.5028C183.765 97.6804 183.924 98.095 183.72 98.4306C183.196 99.2992 183.241 100.247 183.788 101.017C184.357 101.787 185.996 103.05 190.572 102.853C194.283 102.695 195.763 101.214 195.899 99.9902C196.036 98.7267 194.852 97.6015 192.962 97.1869C192.53 97.0882 192.279 96.7131 192.371 96.3578C192.484 95.9827 192.917 95.7655 193.327 95.8445C196.013 96.417 197.675 98.1345 197.47 100.128C197.265 101.905 195.376 104.037 190.64 104.235C190.322 104.254 190.003 104.254 189.684 104.254Z" fill="#202D37"/>
<path d="M236.24 112.565C235.853 112.565 235.534 112.328 235.466 111.993C234.51 107.432 232.279 104.254 231.413 103.642C225.859 107.334 208.01 109.624 206.576 109.624C205.051 109.624 196.4 106.11 193.577 103.287C193.281 102.991 193.326 102.556 193.645 102.319C193.987 102.063 194.488 102.102 194.761 102.379C197.447 105.063 205.552 108.202 206.553 108.242C207.851 108.242 225.904 105.833 230.639 102.398C230.958 102.181 231.368 102.122 231.778 102.24C233.417 102.754 236.012 106.919 237.014 111.736C237.082 112.111 236.809 112.467 236.376 112.545C236.331 112.565 236.285 112.565 236.24 112.565Z" fill="#202D37"/>
<path d="M211.949 154.299C211.562 154.299 211.243 154.062 211.175 153.726C211.175 153.687 210.241 149.146 208.625 138.19C207.304 129.286 208.374 125.97 209.035 123.976C209.194 123.502 209.308 123.147 209.331 122.831C209.535 121.192 209.558 118.606 207.578 115.191C205.438 111.499 205.779 108.953 205.802 108.834C205.847 108.459 206.257 108.183 206.69 108.242C207.122 108.282 207.441 108.637 207.373 109.012C207.373 109.052 207.1 111.302 208.989 114.559C211.175 118.31 211.129 121.153 210.924 122.969C210.879 123.404 210.742 123.838 210.56 124.351C209.945 126.227 208.944 129.385 210.196 138.012C211.812 148.929 212.745 153.43 212.745 153.489C212.814 153.864 212.541 154.22 212.108 154.299C212.04 154.299 211.994 154.299 211.949 154.299Z" fill="#202D37"/>
<path d="M210.105 123.601C209.695 123.601 209.331 123.324 209.308 122.969C209.285 122.594 209.604 122.258 210.037 122.239C210.241 122.219 229.729 120.896 235.534 111.559C235.739 111.223 236.217 111.105 236.604 111.282C236.991 111.46 237.128 111.874 236.923 112.21C230.731 122.219 210.993 123.561 210.15 123.621C210.128 123.601 210.128 123.601 210.105 123.601Z" fill="#202D37"/>
<path d="M72.8275 84.631C72.6682 84.631 72.5088 84.5915 72.3722 84.5125C72.008 84.2953 71.9169 83.861 72.1901 83.5452C74.1252 81.1762 75.6505 79.2416 76.8798 77.682C80.8411 72.6677 82.0477 71.1476 84.3698 70.7725C85.6674 70.5553 87.6708 70.5751 89.6059 70.5948C91.1995 70.6146 93.6126 70.6343 94.0679 70.4172C94.4322 70.2395 96.4356 68.7984 98.3707 67.4165C106.02 61.9481 108.228 60.5267 109.071 60.4675C110.027 60.4083 111.415 60.9215 112.645 61.3558C113.055 61.5138 113.578 61.6914 113.874 61.7704C115.308 60.9215 122.958 54.8214 127.647 51.0311C127.966 50.7745 128.467 50.7942 128.763 51.0706C129.059 51.347 129.036 51.7813 128.717 52.0379C128.695 52.0576 125.303 54.8214 121.865 57.526C114.716 63.1918 114.398 63.1918 113.965 63.1918C113.555 63.1918 113.009 62.9944 112.007 62.639C111.142 62.3232 109.822 61.8494 109.23 61.8494C109.23 61.8494 109.23 61.8494 109.207 61.8494C108.16 62.185 102.446 66.2912 99.3496 68.5022C96.686 70.3974 95.2973 71.4042 94.842 71.6214C94.068 72.0162 92.4061 72.0162 89.5603 71.9965C87.6935 71.9767 85.7812 71.957 84.6429 72.1346C83.0493 72.3913 82.0704 73.556 78.1775 78.4716C76.9481 80.0312 75.4001 81.9659 73.465 84.3348C73.3284 84.5322 73.078 84.631 72.8275 84.631Z" fill="#202D37"/>
<path d="M124.961 49.7085C124.62 50.1033 128.649 55.5519 129.491 55.394C130.334 55.2361 132.861 49.6295 132.451 49.2149C132.018 48.8201 125.758 48.7806 124.961 49.7085Z" fill="#202D37"/>
<path d="M129.492 55.6901C128.877 55.6901 127.807 54.6635 126.282 52.6302C124.301 49.9848 124.574 49.669 124.688 49.5505C125.189 48.9583 127.079 48.7609 128.581 48.7016C128.627 48.7016 132.201 48.5635 132.702 49.057C132.861 49.2149 132.975 49.4913 132.451 50.8929C132.428 50.9324 130.676 55.4927 129.56 55.7098C129.537 55.6901 129.514 55.6901 129.492 55.6901ZM125.28 49.8466C125.462 50.6363 128.627 54.8412 129.446 55.0978C130.061 54.7425 132.201 50.281 132.155 49.4123C131.29 49.1162 126.122 49.1754 125.28 49.8466Z" fill="#202D37"/>
<path d="M49.8342 91.995C49.4472 91.995 49.1057 91.7383 49.0374 91.4027C47.4893 82.144 43.8924 76.7941 41.1377 73.9513C38.1782 70.8717 35.5373 69.9636 35.5146 69.9636C35.2186 69.8649 35.0137 69.6082 35.0137 69.3319C35.0137 69.0555 35.1959 68.7988 35.5146 68.6804C40.6369 66.8444 49.6521 64.2978 58.4624 62.1657C65.3149 60.5074 73.8293 58.6715 75.5822 59.2637C77.4946 59.8955 87.0562 63.5279 87.6936 72.0167C88.3083 80.1501 89.9702 84.1576 91.3589 86.724C91.541 87.0794 91.3816 87.4742 90.9719 87.6321C90.5621 87.79 90.1068 87.6519 89.9246 87.2965C88.4904 84.6117 86.7602 80.466 86.1228 72.0957C85.5536 64.4557 76.7661 61.1392 75.0131 60.5469C72.9414 59.9152 50.1074 65.2256 37.7001 69.4108C38.8611 70.0425 40.523 71.1481 42.2988 72.984C45.2128 75.965 49.0374 81.5715 50.631 91.2251C50.6993 91.6001 50.3806 91.9555 49.948 92.0147C49.9253 91.995 49.8797 91.995 49.8342 91.995Z" fill="#202D37"/>
<path d="M51.041 71.4245C50.7223 71.4245 50.4263 71.2665 50.3125 70.9902C50.1531 70.6348 50.3353 70.24 50.745 70.0821C57.7341 67.6144 73.8522 63.5477 75.0588 63.6661C75.4914 63.7056 75.8101 64.0609 75.7646 64.436C75.719 64.7914 75.3548 65.0677 74.945 65.048C73.7156 65.127 58.8041 68.7396 51.3597 71.3652C51.2459 71.4047 51.1321 71.4245 51.041 71.4245ZM74.8539 65.048C74.8539 65.048 74.8767 65.048 74.8995 65.048C74.8995 65.048 74.8767 65.048 74.8539 65.048Z" fill="#202D37"/>
<path d="M131.677 122.041C130.926 122.041 129.696 121.824 127.602 121.35C125.553 120.876 123.527 120.304 123.504 120.304C123.094 120.185 122.867 119.79 122.981 119.435C123.117 119.08 123.573 118.882 123.982 118.981C126.942 119.81 130.471 120.639 131.563 120.659C133.339 116.77 139.668 93.5147 140.055 90.3955C138.53 89.5466 128.558 88.2042 126.327 88.1055C125.94 88.6583 125.462 90.7311 125.212 91.7774C125.121 92.2117 125.03 92.6066 124.938 92.9422C124.847 93.3173 124.415 93.5542 123.982 93.4752C123.55 93.3962 123.277 93.0211 123.368 92.6461C123.459 92.3302 123.55 91.9354 123.641 91.5011C124.392 88.1845 124.87 86.7236 126.1 86.7236C126.987 86.7236 139.645 88.0463 141.307 89.5269C141.603 89.7836 141.671 90.0599 141.648 90.2376C141.58 92.5473 134.591 118.349 132.861 121.547C132.702 121.844 132.406 122.041 131.677 122.041Z" fill="#202D37"/>
<path d="M137.528 116.968C137.391 116.968 137.254 116.948 137.141 116.889C136.754 116.711 136.617 116.277 136.822 115.941C141.58 108.499 149.184 96.4366 149.935 94.7191C149.389 94.1664 146.247 92.8239 140.578 91.8566C140.146 91.7776 139.873 91.4223 139.964 91.0472C140.055 90.6721 140.464 90.4352 140.897 90.5142C141.99 90.7116 151.574 92.4291 151.574 94.6994C151.574 95.0152 151.574 95.4495 144.858 106.169C141.58 111.401 138.256 116.573 138.233 116.632C138.074 116.829 137.801 116.968 137.528 116.968Z" fill="#202D37"/>
<path d="M141.762 116.277C141.33 116.277 140.965 115.961 140.965 115.586C140.965 115.25 140.965 115.25 142.9 113.612C143.948 112.723 145.405 111.519 146.975 110.197C150.868 106.959 156.56 102.201 157.903 100.938C157.061 100.207 154.078 98.4307 149.867 96.3183C149.48 96.1209 149.366 95.7064 149.571 95.3708C149.798 95.0352 150.277 94.9364 150.664 95.1141C152.849 96.2196 154.989 97.3646 156.537 98.2925C159.474 100.03 159.861 100.602 159.588 101.234C159.428 101.609 158.449 102.517 148.068 111.184C145.45 113.375 142.741 115.625 142.377 115.961C142.263 116.158 142.035 116.277 141.762 116.277Z" fill="#202D37"/>
<path d="M99.896 174.376C95.7755 174.376 90.9263 173.665 84.6202 171.908C72.6455 168.572 38.8839 157.003 36.5163 153.707C34.3308 150.686 33.1697 138.96 33.1242 138.466C33.0787 138.091 33.4202 137.756 33.8527 137.716C34.2853 137.677 34.6723 137.973 34.7178 138.348C35.0365 141.645 36.2203 150.706 37.8595 152.976C39.6352 155.424 71.1885 166.716 85.0983 170.585C97.3463 174.001 103.88 173.349 110.437 171.197C116.743 169.144 149.981 152.186 152.644 150.094C152.758 148.238 152.508 135.959 152.189 134.636C151.415 133.748 144.084 131.221 135.593 128.299C132.519 127.233 129.013 126.029 125.303 124.726C124.893 124.588 124.688 124.173 124.87 123.818C125.029 123.463 125.507 123.285 125.917 123.443C129.628 124.746 133.134 125.95 136.207 127.016C150.094 131.813 153.373 133.037 153.737 134.242C154.17 135.643 154.374 149.502 154.215 150.449C154.147 150.844 154.101 151.101 148.046 154.398C144.562 156.273 139.895 158.721 134.91 161.248C125.69 165.926 114.557 171.336 111.028 172.5C107.545 173.626 104.085 174.376 99.896 174.376Z" fill="#202D37"/>
<path d="M31.1892 138.782C31.1664 138.782 31.1436 138.782 31.1436 138.782C28.4573 138.624 19.5331 137.716 17.2566 132.939C15.7768 129.8 2.59543 100.306 0.933534 95.5484C0.113969 93.1597 -0.43241 91.5606 0.455453 90.1985C1.34332 88.8166 3.61989 87.9085 7.51283 86.7043C15.3898 84.2563 43.642 75.8465 43.9152 75.7478C44.325 75.6293 44.7803 75.807 44.9169 76.1821C45.0535 76.5374 44.8486 76.9323 44.4161 77.0507C44.1429 77.1297 15.8906 85.5593 8.03644 87.9875C4.07521 89.2114 2.41331 90.0011 1.84416 90.85C1.29779 91.6988 1.73033 92.982 2.4816 95.1141C4.12073 99.852 17.2566 129.247 18.7363 132.366C20.2616 135.564 26.2035 137.045 31.2575 137.361C31.69 137.38 32.0315 137.716 31.986 138.091C31.9632 138.506 31.6217 138.782 31.1892 138.782Z" fill="#202D37"/>
<path d="M15.6399 90.6526H1.6845C1.25195 90.6526 0.887695 90.3368 0.887695 89.9617C0.887695 89.5866 1.25195 89.2708 1.6845 89.2708H15.6399C16.0724 89.2708 16.4367 89.5866 16.4367 89.9617C16.4367 90.3565 16.0724 90.6526 15.6399 90.6526Z" fill="#202D37"/>
<path d="M35.2187 136.216C34.8773 136.216 34.5813 136.038 34.4675 135.742C34.3536 135.465 23.8586 107.729 20.7625 100.819C18.0079 94.6797 17.1883 90.0997 22.1057 87.6517C26.0214 85.6973 45.782 80.6435 46.6244 80.4264C47.0569 80.3277 47.4895 80.5251 47.6033 80.9002C47.7171 81.2753 47.4895 81.6503 47.0569 81.7491C46.852 81.8083 26.6361 86.9608 22.8797 88.8362C19.9657 90.2971 18.8502 92.7253 22.2423 100.306C25.3612 107.255 35.8562 135.031 35.97 135.307C36.1066 135.663 35.8789 136.058 35.4692 136.176C35.3781 136.216 35.287 136.216 35.2187 136.216Z" fill="#202D37"/>
<path d="M97.4374 157.576C97.3008 157.576 97.187 157.556 97.0732 157.497C96.3447 157.181 82.8901 152.759 69.8909 148.475C56.2542 143.994 42.1395 139.354 38.1555 137.953C37.7457 137.815 37.5408 137.4 37.7229 137.045C37.8823 136.689 38.3604 136.512 38.7702 136.67C42.7314 138.051 56.8461 142.691 70.4828 147.172C87.0335 152.621 97.187 155.957 97.8472 156.253C98.2342 156.431 98.3936 156.845 98.1887 157.181C97.9838 157.438 97.7106 157.576 97.4374 157.576Z" fill="#202D37"/>
<path d="M100.738 157.221C100.419 157.221 100.146 157.063 100.01 156.806C99.8275 156.451 100.032 156.056 100.419 155.898C109.321 152.581 128.99 144.112 136.116 140.677C143.173 137.262 152.53 133.847 152.621 133.807C153.031 133.669 153.486 133.827 153.668 134.182C153.828 134.538 153.646 134.933 153.236 135.09C153.145 135.13 143.856 138.506 136.89 141.901C129.719 145.376 109.981 153.865 101.034 157.201C100.943 157.201 100.852 157.221 100.738 157.221Z" fill="#202D37"/>
<path d="M100.124 174.376C99.6912 174.376 99.3497 174.079 99.3269 173.704C99.3269 173.625 99.0082 165.433 99.5546 160.32C99.6001 159.945 99.9871 159.668 100.42 159.688C100.852 159.727 101.171 160.063 101.148 160.438C100.602 165.453 100.921 173.566 100.921 173.645C100.943 174.02 100.602 174.356 100.146 174.356C100.146 174.376 100.124 174.376 100.124 174.376Z" fill="#202D37"/>
<path d="M129.993 144.961C129.901 144.961 129.788 144.941 129.697 144.902C129.537 144.842 113.146 139.038 103.926 136.215C103.516 136.097 103.288 135.702 103.448 135.327C103.584 134.972 104.04 134.774 104.472 134.913C113.715 137.736 130.152 143.559 130.311 143.618C130.721 143.757 130.903 144.171 130.744 144.527C130.584 144.803 130.288 144.961 129.993 144.961Z" fill="#202D37"/>
<path d="M64.1538 121.607C60.3519 121.607 57.4151 120.245 55.389 117.56C53.3173 114.816 52.7254 111.263 52.6115 108.775C52.5888 108.4 52.9303 108.065 53.3628 108.045C53.7954 108.025 54.1824 108.321 54.2051 108.696C54.3645 112.013 55.2524 114.816 56.7321 116.79C58.4623 119.1 61.0349 120.245 64.3359 120.206C64.3359 120.206 64.3359 120.206 64.3587 120.206C64.7912 120.206 65.1555 120.502 65.1555 120.877C65.1555 121.252 64.814 121.568 64.3814 121.587C64.2904 121.607 64.2221 121.607 64.1538 121.607Z" fill="#202D37"/>
<path d="M72.8276 125.575C72.5545 125.575 72.304 125.456 72.1447 125.239C72.1447 125.22 71.234 123.956 70.1185 122.653C69.8453 122.357 69.9364 121.923 70.2779 121.686C70.6194 121.449 71.1202 121.528 71.3934 121.824C72.5772 123.186 73.4651 124.469 73.5106 124.529C73.7383 124.864 73.6244 125.279 73.2374 125.476C73.1236 125.555 72.9642 125.575 72.8276 125.575Z" fill="#202D37"/>
<path d="M76.9258 123.206C76.5615 123.206 76.22 122.969 76.1517 122.653C75.8786 121.469 75.7875 120.087 75.833 118.567C75.8558 118.192 76.22 117.896 76.6526 117.896C77.0851 117.915 77.4494 118.231 77.4266 118.606C77.3811 120.028 77.4949 121.291 77.7226 122.397C77.8136 122.772 77.5177 123.127 77.0851 123.206C77.0168 123.206 76.9713 123.206 76.9258 123.206Z" fill="#202D37"/>
<path d="M81.1141 124.39C80.9775 124.39 80.8181 124.351 80.7043 124.292C80.3401 124.094 80.2035 123.66 80.4311 123.344C81.319 122.1 82.9353 120.422 83.0036 120.343C83.2768 120.047 83.8005 120.008 84.1192 120.264C84.4607 120.501 84.5062 120.955 84.2102 121.232C84.1875 121.251 82.5939 122.91 81.7743 124.055C81.6377 124.272 81.3645 124.39 81.1141 124.39Z" fill="#202D37"/>
<path d="M42.777 139.493C42.3672 139.493 42.0257 139.236 41.9802 138.861C41.9346 138.486 42.2534 138.15 42.6859 138.111C48.0814 137.637 63.8808 132.524 64.0401 132.465C64.4499 132.326 64.9052 132.504 65.0646 132.879C65.224 133.235 65.0191 133.629 64.5865 133.768C63.9263 133.985 48.4229 138.999 42.8225 139.493C42.8225 139.493 42.7997 139.493 42.777 139.493Z" fill="#202D37"/>
<path d="M67.7737 107.689C60.944 109.723 52.3158 111.776 48.9465 112.526C45.5772 113.276 44.0746 114.441 42.2078 109.802C41.2061 107.334 40.1589 104.886 39.2711 102.793C38.7247 101.51 38.2466 100.365 37.8823 99.4374C37.723 99.0426 37.5864 98.6872 37.4498 98.3714C36.5619 96.0814 37.6319 94.0875 39.6808 93.3965C50.0848 89.9418 61.9685 87.2767 65.0191 86.5858C67.3867 86.0527 68.7071 86.0922 70.278 89.3101C70.7333 90.2379 71.2114 91.4224 71.7577 92.9425C71.7805 92.982 71.7805 93.0214 71.8033 93.0412C74.2164 99.9112 75.0815 102.162 75.3775 103.702C75.6962 105.241 74.5807 105.656 67.7737 107.689Z" fill="#FFFEF2"/>
<path d="M45.4861 113.908C43.9153 113.908 42.6631 113.059 41.4338 110.039C40.5004 107.749 39.5442 105.478 38.7019 103.484L38.3149 102.557C37.8368 101.451 37.4498 100.484 37.1083 99.6546C36.9489 99.2598 36.8124 98.9044 36.6758 98.5885C35.6968 96.0616 36.8351 93.6137 39.3849 92.7648C46.2374 90.4748 55.2753 88.0664 64.8142 85.9343C67.6599 85.3026 69.299 85.5987 71.0065 89.0535C71.4618 89.9813 71.9626 91.2053 72.509 92.7648C72.509 92.7846 72.5318 92.8043 72.5318 92.8438L72.5545 92.8833C73.1009 94.4429 73.579 95.7655 73.966 96.8908C75.3319 100.78 75.9011 102.399 76.1515 103.623C76.6068 105.814 74.7856 106.347 68.0242 108.38C61.3083 110.394 52.7256 112.427 49.1286 113.237C48.6961 113.335 48.309 113.434 47.922 113.533C47.0114 113.73 46.2146 113.908 45.4861 113.908ZM66.772 87.0201C66.3167 87.0201 65.8159 87.1385 65.2012 87.2767C55.7307 89.3891 46.761 91.7975 39.954 94.048C38.2011 94.6205 37.4726 96.3183 38.1783 98.1542C38.2921 98.4701 38.4287 98.8057 38.5881 99.2005C38.9068 100.01 39.3166 100.977 39.7947 102.083L40.1817 102.991C41.024 104.985 41.9802 107.275 42.9363 109.565C43.6193 111.263 44.2567 112.171 44.9397 112.427C45.5316 112.664 46.3512 112.447 47.4667 112.151C47.8537 112.052 48.2863 111.934 48.7416 111.835C52.3158 111.045 60.8302 109.012 67.5005 107.018C70.756 106.051 72.8049 105.419 73.8522 104.886C74.7173 104.452 74.6717 104.215 74.6034 103.82C74.3758 102.675 73.8066 101.096 72.4635 97.2659C72.0537 96.1406 71.5984 94.8179 71.052 93.2584L71.0292 93.1597C70.4829 91.6198 70.0275 90.4551 69.5722 89.5865C68.5478 87.5729 67.7737 87.0201 66.772 87.0201Z" fill="#202D37"/>
<path d="M71.7576 92.9622C66.1344 94.4823 49.3106 99.1413 39.2481 102.793C38.7018 101.51 38.2237 100.365 37.8594 99.4374C44.7119 96.871 59.8283 91.3435 70.2778 89.3298C70.7331 90.2577 71.2112 91.4422 71.7576 92.9622Z" fill="#202D37"/>
<path d="M39.2483 103.089C39.2028 103.089 39.1573 103.089 39.1117 103.07C39.0207 103.03 38.9524 102.971 38.9296 102.892L38.7247 102.418C38.2466 101.313 37.8596 100.345 37.5181 99.536C37.4498 99.3978 37.5409 99.2202 37.7002 99.1609C51.8605 93.8702 62.7881 90.455 70.1869 89.0336C70.3463 88.9941 70.5056 89.0731 70.5739 89.2113C71.0293 90.1194 71.5073 91.3236 72.0537 92.8832C72.0992 93.0411 72.0082 93.199 71.8261 93.2583C66.7721 94.6402 49.4929 99.3978 39.3621 103.07C39.3394 103.07 39.2938 103.089 39.2483 103.089ZM38.2922 99.5952C38.6109 100.345 38.9751 101.214 39.3849 102.221L39.4532 102.399C49.4474 98.8056 65.9525 94.2256 71.3252 92.7647C70.8699 91.5013 70.4601 90.4747 70.0731 89.6653C62.7653 91.1065 52.0882 94.4427 38.2922 99.5952Z" fill="#202D37"/>
<path d="M63.8351 102.478C63.2205 102.478 62.8107 102.3 62.5603 101.965C62.5375 101.945 60.6024 99.181 61.513 98.2334C62.196 97.5227 66.0206 96.2987 67.4777 96.2C67.7736 96.1803 68.2289 96.1803 68.5476 96.4369C69.3444 97.0489 69.7998 99.5955 69.7315 100.208C69.6859 100.523 69.5493 100.76 69.2762 100.879C69.0713 100.977 67.7508 101.51 66.4304 101.925C65.3149 102.3 64.4726 102.478 63.8351 102.478ZM63.8124 101.096C64.5636 101.155 67.0451 100.326 68.1379 99.8719C68.0923 99.2797 67.7964 98.0755 67.5459 97.6017C66.5898 97.6609 63.653 98.6085 62.8562 99.0625C62.9245 99.4771 63.3571 100.444 63.8124 101.096Z" fill="#202D37"/>
<path d="M70.7559 135.959C70.3006 135.959 69.9363 135.702 69.8225 135.287C69.5721 134.438 70.4372 132.287 70.7104 131.655C71.2567 130.372 72.0991 128.753 72.9642 128.338C74.5122 127.588 82.4119 128.082 82.9355 128.18C83.277 128.24 83.8006 128.319 84.9162 130.826C85.3715 131.833 85.9406 133.333 86.0317 134.202C86.1 134.833 85.8951 135.228 85.417 135.406C83.9372 135.919 78.6328 135.959 71.2795 135.978L70.7559 135.959ZM77.1075 129.325C75.5139 129.325 74.1024 129.385 73.7382 129.562C73.0325 129.977 71.5982 133.294 71.3933 134.577C76.1514 134.577 82.4802 134.577 84.4381 134.202C84.2787 133.136 83.0494 130.194 82.4575 129.523C81.6379 129.424 79.202 129.325 77.1075 129.325Z" fill="#202D37"/>
<path d="M65.1329 142.434C62.8791 142.434 62.1278 142.375 61.9457 141.704C61.718 140.776 64.3589 135.801 64.837 135.189C65.0874 134.854 65.5427 134.735 66.8859 134.656C68.1835 134.577 70.278 134.557 72.1903 134.597C75.719 134.676 75.9466 134.893 76.1743 135.11C76.5158 135.426 77.6313 137.203 78.1094 138.012C79.8168 140.815 79.6802 141.131 79.5436 141.427C79.4298 141.684 79.1794 141.881 78.8606 141.901C78.5191 141.941 74.4441 142.158 70.6422 142.296C68.3656 142.375 66.5444 142.414 65.224 142.414C65.2012 142.434 65.1784 142.434 65.1329 142.434ZM63.6531 141.033C66.1118 141.171 74.8766 140.776 77.7906 140.598C77.176 139.374 75.5824 136.828 75.0815 136.156C73.7611 135.92 67.3639 135.9 66.0435 136.137C65.4516 137.025 64.0857 139.809 63.6531 141.033Z" fill="#202D37"/>
<path d="M80.4998 141.921C78.8379 141.921 78.246 141.822 78.0638 141.27C77.9956 141.092 77.859 140.677 78.9972 138.032C80.1355 135.406 80.5908 135.11 80.7502 135.012C81.3876 134.597 84.7114 134.459 85.7131 134.439C90.198 134.321 90.972 134.854 91.2224 135.012C92.3835 135.821 94.569 139.73 94.2275 140.737C94.1137 141.072 93.8177 141.289 93.4535 141.329C93.1348 141.368 89.5605 141.586 85.9636 141.743C83.9374 141.842 82.2983 141.882 81.1145 141.901C80.864 141.921 80.6819 141.921 80.4998 141.921ZM79.703 140.539C82.0251 140.638 90.0614 140.204 92.5656 140.046C92.2014 138.98 90.9265 136.63 90.198 136.137C89.3329 135.624 83.004 135.841 81.6836 136.176C81.2283 136.729 80.0672 139.355 79.703 140.539Z" fill="#202D37"/>
<path d="M149.411 127.964C149.07 127.964 148.797 127.944 148.637 127.924C148.273 127.845 148 127.687 147.863 127.45C147.545 126.878 146.702 124.568 146.588 124.311C146.452 123.956 146.679 123.561 147.112 123.443C147.522 123.324 147.977 123.522 148.114 123.897C148.432 124.726 148.91 126.009 149.184 126.621C150.777 126.72 157.379 125.91 158.95 125.496C158.996 124.035 157.584 118.014 157.083 116.79C156.537 116.691 154.534 116.612 147.044 117.461C146.611 117.501 146.201 117.244 146.156 116.869C146.088 116.494 146.406 116.138 146.839 116.099C149.707 115.763 151.961 115.566 153.691 115.448C157.22 115.211 158.017 115.428 158.381 115.941C158.836 116.593 159.815 121.034 159.815 121.074C160.885 125.95 160.498 126.246 160.134 126.522C159.337 127.095 152.075 127.964 149.411 127.964Z" fill="#202D37"/>
<path d="M147.476 120.718C147.112 120.718 146.793 120.501 146.702 120.185C146.611 119.81 146.885 119.435 147.317 119.356C150.732 118.685 158.176 118.27 158.495 118.251C158.928 118.231 159.315 118.507 159.337 118.902C159.36 119.277 159.041 119.613 158.586 119.633C158.518 119.633 150.96 120.067 147.659 120.718C147.59 120.718 147.545 120.718 147.476 120.718Z" fill="#202D37"/>
<path d="M148.023 123.482C147.636 123.482 147.294 123.245 147.226 122.909C147.158 122.534 147.454 122.179 147.886 122.12C151.233 121.646 158.836 121.251 159.155 121.231C159.588 121.212 159.975 121.508 159.998 121.883C160.02 122.258 159.679 122.594 159.246 122.613C159.178 122.613 151.392 123.028 148.114 123.482C148.114 123.482 148.068 123.482 148.023 123.482Z" fill="#202D37"/>
<path d="M122.525 91.5014C122.115 91.5014 121.774 91.225 121.728 90.8697C121.41 87.5531 120.909 82.3217 120.704 80.9793C119.839 80.8411 117.54 80.8805 116.743 81.0385C116.629 81.7689 116.834 84.0589 117.016 85.7764C117.107 86.6845 117.198 87.6321 117.266 88.5599C117.289 88.935 116.97 89.2706 116.515 89.2904C116.083 89.3101 115.695 89.0337 115.673 88.6389C115.604 87.7308 115.513 86.803 115.422 85.8949C114.99 81.5123 114.967 80.4462 115.65 79.9724C116.515 79.3802 120.431 79.4592 121.387 79.6961C121.819 79.8145 122.093 80.0119 122.184 80.2883C122.343 80.7029 122.889 86.2107 123.322 90.7512C123.368 91.1263 123.026 91.4619 122.594 91.5014C122.571 91.5014 122.548 91.5014 122.525 91.5014Z" fill="#202D37"/>
<path d="M131.882 96.6342C132.064 95.9038 105.975 78.0378 102.719 78.2945C100.033 78.5116 78.0638 97.6016 76.9255 100.523C76.5385 101.51 82.1844 101.747 82.799 101.787C82.8673 101.787 83.2316 101.51 83.8235 101.037C85.1212 109.664 88.4222 133.057 89.3328 133.136C90.4028 133.195 126.873 131.359 128.171 130.589C129.218 129.977 127.283 107.689 126.486 99.0822C128.012 99.3783 131.723 97.2857 131.882 96.6342Z" fill="#FFFEF2"/>
<path d="M89.401 133.807C89.3327 133.807 89.2872 133.807 89.2644 133.807C88.5359 133.767 88.2855 133.412 87.6481 130.273C87.3066 128.595 86.8513 126.147 86.3504 123.008C85.417 117.264 84.3698 110.236 83.6186 105.103C83.1632 101.924 82.7762 99.4173 82.6169 98.45C82.5486 98.0749 82.8445 97.7196 83.2771 97.6604C83.7096 97.6011 84.1194 97.8578 84.1877 98.2329C84.3471 99.2199 84.7341 101.747 85.1894 104.925C86.396 113.138 88.8547 129.839 89.7881 132.425C94.0225 132.346 124.142 130.727 127.556 130.017C128.126 127.43 126.532 107.867 125.371 95.7652C125.325 95.3901 125.667 95.0545 126.099 95.015C126.532 94.9755 126.919 95.2717 126.964 95.6467C126.964 95.7257 127.784 104.274 128.444 112.802C129.787 130.431 129.196 130.786 128.604 131.142C128.262 131.339 127.579 131.754 108.706 132.84C100.488 133.333 90.7897 133.807 89.401 133.807Z" fill="#202D37"/>
<path d="M97.9611 133.432C97.5741 133.432 97.2326 133.195 97.1643 132.859C96.3448 128.378 95.548 123.522 95.0244 119.85C93.9771 112.289 94.3869 112.052 94.9105 111.776C95.6163 111.381 98.8035 111.085 99.7596 111.006C104.085 110.65 104.495 111.006 104.723 111.223C104.996 111.479 105.246 111.697 106.544 122.1C107.181 127.134 107.728 132.168 107.75 132.208C107.796 132.583 107.477 132.919 107.045 132.958C106.612 132.998 106.225 132.721 106.18 132.346C105.406 125.377 104.04 114.223 103.539 112.269C102.196 112.131 97.3009 112.585 95.9805 112.901C95.7984 114.559 96.9822 123.147 98.7352 132.662C98.8035 133.037 98.5075 133.392 98.075 133.452C98.0522 133.432 98.0067 133.432 97.9611 133.432Z" fill="#202D37"/>
<path d="M114.534 123.206C113.328 123.206 112.463 122.91 112.167 122.14C111.848 121.291 111.598 119.436 111.484 117.955C111.256 114.777 111.689 114.362 112.235 114.165C113.282 113.79 115.718 113.77 116.447 113.77C119.793 113.79 120.066 114.184 120.249 114.461C120.681 115.132 121.068 120.561 120.476 121.726C120.271 122.12 119.975 122.259 119.748 122.298C119.657 122.318 119.52 122.357 119.338 122.397C117.562 122.871 115.855 123.206 114.534 123.206ZM113.077 115.389C112.872 116.415 113.168 120.442 113.647 121.706C113.738 121.785 114.443 122.199 118.86 121.114C118.928 121.094 118.974 121.094 119.042 121.074C119.338 120.107 119.065 116.395 118.86 115.329C117.813 115.112 114.375 115.092 113.077 115.389Z" fill="#202D37"/>
<path d="M126.145 159.55C123.482 159.55 120.955 158.977 119.088 157.852C117.699 157.003 117.403 155.523 117.995 154.694C118.382 154.161 119.27 153.766 120.499 154.378C123.277 155.74 129.355 155.74 132.747 153.706C134.477 152.66 135.206 151.278 134.91 149.581C134.751 148.653 135.183 148.179 135.479 147.981C135.934 147.666 136.572 147.606 137.187 147.824C137.983 148.1 138.894 148.87 139.144 150.252C139.645 153.134 138.074 155.72 134.705 157.517C132.178 158.879 129.082 159.55 126.145 159.55ZM119.338 155.463C119.315 155.503 119.293 155.602 119.315 155.779C119.384 156.135 119.634 156.49 120.021 156.727C123.413 158.8 129.628 158.622 133.886 156.332C135.502 155.463 138.12 153.549 137.574 150.449C137.483 149.896 137.187 149.423 136.8 149.186C136.663 149.107 136.549 149.067 136.504 149.067C136.481 149.107 136.481 149.205 136.504 149.363C136.913 151.594 135.934 153.489 133.681 154.851C129.697 157.24 123.049 157.201 119.748 155.582C119.52 155.483 119.384 155.463 119.338 155.463Z" fill="#202D37"/>
<path d="M192.871 83.4271C191.869 77.2085 190.936 73.3787 189.98 71.1282C188.842 68.4434 187.635 67.9893 186.132 68.3447C183.059 69.0948 173.475 70.6346 156.878 75.5305C152.781 76.7347 155.717 82.7164 158.04 88.5598C160.339 94.4033 159.77 97.8186 167.078 95.9826C170.014 95.2522 174.863 93.9097 179.644 92.5673C181.283 92.0935 182.922 91.6395 184.471 91.2052C183.469 89.0336 187.339 85.9145 192.871 83.4271Z" fill="#FFFEF2"/>
<path d="M163.777 97.1472C162.866 97.1472 162.092 96.9893 161.454 96.6734C159.701 95.8245 159.11 94.0478 158.29 91.5801C158.017 90.7313 157.698 89.7639 157.288 88.7374C157.061 88.1451 156.81 87.5529 156.583 86.9804C154.852 82.736 153.236 78.7088 154.511 76.4188C154.943 75.6488 155.649 75.1158 156.628 74.8394C169.559 71.0294 178.256 69.2526 182.945 68.2853C184.243 68.0287 185.267 67.8115 185.928 67.6536C188.682 66.9824 189.957 69.0157 190.731 70.8517C191.733 73.2009 192.666 77.1492 193.668 83.2888C193.713 83.5849 193.554 83.8613 193.258 83.9995C187.794 86.4671 184.493 89.3099 185.222 90.8892C185.313 91.0669 185.29 91.2643 185.199 91.442C185.108 91.6196 184.926 91.7381 184.721 91.7973C183.173 92.2316 181.557 92.7054 179.895 93.1594C175.933 94.2847 170.538 95.7851 167.305 96.5945C165.894 96.9893 164.733 97.1472 163.777 97.1472ZM186.929 68.917C186.702 68.917 186.52 68.9565 186.337 69.0157C185.632 69.1934 184.653 69.3908 183.287 69.6672C178.643 70.6148 169.992 72.3915 157.129 76.1819C156.56 76.3595 156.173 76.6359 155.922 77.0505C154.921 78.8272 156.514 82.7557 158.062 86.5461C158.29 87.1383 158.54 87.7306 158.768 88.3228C159.178 89.3691 159.519 90.3562 159.793 91.2248C160.498 93.3766 161.022 94.9164 162.206 95.4889C163.116 95.9233 164.596 95.864 166.827 95.3113C170.037 94.5019 175.41 93.0015 179.371 91.896C180.76 91.5012 182.171 91.1063 183.492 90.7313C183.264 88.4807 186.315 85.6972 191.983 83.0519C191.027 77.2874 190.139 73.576 189.206 71.3847C188.341 69.3118 187.567 68.917 186.929 68.917Z" fill="#202D37"/>
<path d="M189.639 82.0651C189.639 83.822 188 85.2631 185.974 85.2631C185.541 85.2631 185.108 85.2039 184.721 85.0657C184.995 84.6906 185.154 84.2366 185.154 83.7431C185.154 82.4204 183.947 81.3149 182.422 81.2556C182.832 79.8935 184.266 78.8669 185.974 78.8669C187.977 78.8867 189.639 80.3081 189.639 82.0651Z" fill="#202D37"/>
<path d="M182.263 86.9212C180.237 86.9212 178.597 85.4998 178.597 83.7428C178.597 83.1506 178.78 82.5781 179.144 82.0845C179.371 81.7687 179.872 81.6502 180.237 81.8674C180.601 82.0648 180.737 82.4991 180.487 82.815C180.282 83.0914 180.191 83.427 180.191 83.7428C180.191 84.7299 181.124 85.5393 182.263 85.5393C182.991 85.5393 183.629 85.2234 184.016 84.6904C184.221 84.414 184.334 84.0784 184.334 83.7428C184.334 82.7755 183.469 81.9858 182.354 81.9464C182.308 81.9464 182.285 81.9464 182.263 81.9464C181.83 81.9464 181.466 81.6305 181.466 81.2554C181.466 80.8803 181.83 80.5645 182.263 80.5645C182.331 80.5645 182.377 80.5645 182.445 80.5645C184.403 80.6434 185.928 82.0451 185.928 83.7428C185.928 84.3351 185.746 84.9273 185.382 85.4208C184.699 86.3684 183.538 86.9212 182.263 86.9212Z" fill="#202D37"/>
<path d="M161.728 84.2957C161.637 84.2957 161.545 84.2957 161.454 84.276C160.908 84.2167 160.612 83.9798 160.453 83.8022C159.815 83.0323 158.905 80.5448 159.428 79.8539C159.793 79.3801 160.885 78.8866 162.684 78.3733C164.437 77.86 165.575 77.7021 166.053 77.8798C166.964 78.2154 167.761 80.2092 167.897 80.9989C167.943 81.2358 168.079 81.9662 167.51 82.3611C166.941 82.7954 163.503 84.2957 161.728 84.2957ZM161.682 82.9335C162.502 83.0323 165.507 81.907 166.349 81.4135C166.349 80.9199 165.78 79.6367 165.416 79.2024C164.46 79.2814 161.568 80.1105 160.863 80.5843C160.908 81.0581 161.25 82.3216 161.682 82.9335Z" fill="#202D37"/>
<path d="M209.763 103.386C209.672 103.386 209.559 103.366 209.468 103.326C202.501 100.898 200.134 97.1473 199.382 94.4427C198.973 92.9424 198.995 91.6 199.109 90.6129C195.717 92.0935 189.274 93.7123 185.928 92.9621C184.789 92.7055 184.038 92.1922 183.697 91.4618C183.332 90.7116 183.401 89.8825 183.902 88.9941C185.586 85.8947 192.507 82.1044 200.361 80.0118C200.771 79.8933 201.226 80.1105 201.363 80.4658C201.5 80.8212 201.249 81.216 200.839 81.3345C193.623 83.2691 186.816 86.9015 185.359 89.5864C185.063 90.1194 185.017 90.5734 185.199 90.9485C185.359 91.2644 185.746 91.5013 186.36 91.6395C186.838 91.7382 187.385 91.7974 187.999 91.7974C191.847 91.7974 197.971 89.922 199.747 88.698C200.02 88.5006 200.407 88.5006 200.703 88.6783C200.999 88.8559 201.113 89.1718 200.999 89.4679C200.862 89.8035 198.062 97.8975 210.059 102.083C210.469 102.221 210.674 102.635 210.492 102.991C210.378 103.228 210.082 103.386 209.763 103.386Z" fill="#202D37"/>
<path d="M140.419 129.76C145.637 129.76 149.867 126.092 149.867 121.567C149.867 117.042 145.637 113.375 140.419 113.375C135.201 113.375 130.971 117.042 130.971 121.567C130.971 126.092 135.201 129.76 140.419 129.76Z" fill="#FFFEF2"/>
<path d="M140.419 130.451C134.773 130.451 130.175 126.463 130.175 121.567C130.175 116.671 134.773 112.683 140.419 112.683C146.065 112.683 150.664 116.671 150.664 121.567C150.664 126.463 146.065 130.451 140.419 130.451ZM140.419 114.065C135.661 114.065 131.768 117.421 131.768 121.567C131.768 125.693 135.638 129.069 140.419 129.069C145.177 129.069 149.07 125.713 149.07 121.567C149.07 117.421 145.177 114.065 140.419 114.065Z" fill="#202D37"/>
<path d="M143.288 122.594C143.424 123.048 143.402 123.423 143.265 123.759C143.128 124.094 142.832 124.371 142.377 124.608L142.719 125.772C142.719 125.812 142.719 125.831 142.696 125.871C142.673 125.891 142.65 125.91 142.605 125.93L140.806 126.325C140.761 126.325 140.738 126.325 140.692 126.305C140.67 126.286 140.647 126.266 140.624 126.226L140.328 125.18C139.987 125.239 139.668 125.279 139.395 125.318C139.349 125.318 139.326 125.318 139.304 125.298C139.281 125.279 139.258 125.259 139.235 125.219L139.008 123.936C139.008 123.897 139.008 123.857 139.031 123.838C139.053 123.818 139.099 123.798 139.144 123.798C139.258 123.798 139.372 123.798 139.509 123.778C139.622 123.778 139.782 123.759 139.987 123.739C140.169 123.719 140.351 123.699 140.51 123.66C140.692 123.62 140.829 123.581 140.943 123.502C141.057 123.443 141.125 123.364 141.148 123.285C141.171 123.206 141.193 123.147 141.193 123.087C141.193 123.028 141.193 122.989 141.193 122.949C141.17 122.91 141.148 122.87 141.125 122.811C141.079 122.772 141.034 122.712 140.966 122.653C140.897 122.594 140.761 122.535 140.601 122.495C140.442 122.456 140.26 122.436 140.032 122.436C139.782 122.436 139.531 122.416 139.304 122.337C139.053 122.278 138.826 122.179 138.598 122.041C138.37 121.923 138.165 121.745 137.983 121.508C137.801 121.291 137.665 121.015 137.574 120.738C137.46 120.324 137.482 119.949 137.642 119.613C137.801 119.277 138.097 119.001 138.507 118.764L138.165 117.56C138.165 117.52 138.165 117.501 138.188 117.461C138.211 117.422 138.234 117.402 138.279 117.402L140.078 117.007C140.123 117.007 140.146 117.007 140.192 117.027C140.237 117.047 140.26 117.066 140.26 117.106L140.556 118.152C140.875 118.093 141.193 118.053 141.512 118.014C141.558 118.014 141.58 118.014 141.626 118.034C141.671 118.053 141.671 118.073 141.694 118.113L141.922 119.396C141.922 119.435 141.922 119.455 141.876 119.494C141.853 119.534 141.808 119.534 141.762 119.534C141.239 119.554 140.761 119.593 140.374 119.672C140.214 119.712 140.055 119.751 139.964 119.83C139.85 119.889 139.782 119.968 139.759 120.047C139.736 120.126 139.713 120.185 139.691 120.245C139.691 120.304 139.691 120.343 139.691 120.383C139.691 120.422 139.713 120.462 139.759 120.521C139.805 120.561 139.85 120.62 139.941 120.679C140.032 120.738 140.146 120.797 140.305 120.837C140.465 120.876 140.647 120.896 140.875 120.896C141.125 120.896 141.353 120.936 141.603 120.995C141.853 121.054 142.081 121.153 142.309 121.291C142.536 121.429 142.741 121.607 142.923 121.824C143.06 122.041 143.197 122.298 143.288 122.594Z" fill="#202D37"/>
<path d="M140.783 126.601C140.692 126.601 140.601 126.582 140.533 126.542C140.419 126.483 140.351 126.384 140.305 126.285L140.078 125.516C139.85 125.555 139.645 125.575 139.44 125.594C139.326 125.614 139.19 125.575 139.099 125.516C139.008 125.456 138.939 125.358 138.917 125.259V125.239L138.689 123.956C138.666 123.838 138.712 123.719 138.803 123.62C138.894 123.522 139.03 123.482 139.167 123.462C139.281 123.462 139.395 123.462 139.508 123.443C139.622 123.443 139.782 123.423 139.964 123.403C140.146 123.383 140.305 123.364 140.442 123.324C140.578 123.304 140.669 123.265 140.761 123.226C140.829 123.186 140.852 123.147 140.852 123.147C140.874 123.087 140.874 123.048 140.897 123.028C140.897 123.008 140.897 122.989 140.897 122.989C140.897 122.989 140.897 122.969 140.874 122.949C140.874 122.929 140.829 122.91 140.761 122.831C140.738 122.811 140.692 122.771 140.533 122.732C140.396 122.693 140.237 122.673 140.078 122.692C139.804 122.692 139.508 122.653 139.235 122.594C138.962 122.515 138.689 122.416 138.438 122.278C138.165 122.14 137.938 121.923 137.71 121.666C137.505 121.409 137.346 121.113 137.255 120.797C137.118 120.324 137.141 119.889 137.323 119.494C137.482 119.159 137.755 118.882 138.12 118.626L137.824 117.619C137.801 117.52 137.801 117.402 137.869 117.303C137.938 117.204 138.051 117.125 138.165 117.106L139.964 116.711C140.1 116.691 140.214 116.711 140.328 116.75C140.442 116.81 140.533 116.908 140.556 117.007L140.783 117.777C141.011 117.737 141.239 117.718 141.444 117.678C141.58 117.658 141.694 117.698 141.785 117.757C141.899 117.816 141.967 117.935 141.99 118.053L142.218 119.336C142.24 119.455 142.195 119.573 142.126 119.652C142.035 119.751 141.899 119.81 141.762 119.81C141.284 119.83 140.829 119.869 140.442 119.948C140.305 119.968 140.214 120.008 140.146 120.047C140.078 120.087 140.055 120.126 140.055 120.126C140.032 120.205 140.009 120.225 140.009 120.245C140.009 120.264 140.009 120.284 140.009 120.284C140.009 120.284 140.009 120.304 140.032 120.324C140.032 120.324 140.055 120.363 140.146 120.422C140.169 120.442 140.237 120.481 140.374 120.521C140.51 120.56 140.647 120.56 140.829 120.56C141.102 120.56 141.375 120.6 141.648 120.659C141.922 120.738 142.195 120.837 142.445 120.975C142.718 121.133 142.946 121.33 143.151 121.587C143.356 121.844 143.515 122.14 143.606 122.456C143.743 122.969 143.743 123.423 143.583 123.798C143.447 124.134 143.151 124.43 142.764 124.667L143.037 125.634C143.06 125.752 143.06 125.851 142.992 125.95C142.923 126.049 142.809 126.108 142.696 126.147L140.897 126.542C140.852 126.601 140.806 126.601 140.783 126.601ZM140.738 126.029C140.738 126.029 140.715 126.029 140.738 126.029V126.029ZM140.328 124.884C140.487 124.884 140.624 124.983 140.669 125.101L140.92 125.989L142.331 125.673L142.035 124.667C141.99 124.548 142.058 124.41 142.195 124.331C142.582 124.134 142.832 123.897 142.946 123.64C143.06 123.364 143.06 123.028 142.946 122.653C142.878 122.396 142.764 122.179 142.605 121.982C142.445 121.784 142.286 121.646 142.081 121.528C141.876 121.409 141.671 121.33 141.444 121.271C141.239 121.212 141.011 121.192 140.806 121.192C140.556 121.192 140.351 121.172 140.146 121.113C139.941 121.054 139.782 120.995 139.645 120.896C139.531 120.817 139.463 120.738 139.417 120.659C139.372 120.58 139.326 120.521 139.304 120.442C139.281 120.363 139.281 120.284 139.281 120.205C139.281 120.126 139.326 120.047 139.349 119.948C139.417 119.81 139.508 119.692 139.691 119.593C139.827 119.494 140.009 119.435 140.237 119.396C140.601 119.317 141.011 119.277 141.466 119.258L141.307 118.33C141.056 118.369 140.806 118.409 140.556 118.448C140.374 118.488 140.191 118.389 140.146 118.231L139.895 117.343L138.484 117.658L138.78 118.705C138.825 118.823 138.757 118.961 138.643 119.021C138.279 119.218 138.051 119.455 137.915 119.731C137.778 120.008 137.778 120.304 137.869 120.659C137.938 120.916 138.051 121.133 138.211 121.33C138.37 121.528 138.552 121.666 138.734 121.784C138.939 121.903 139.144 121.982 139.372 122.041C139.577 122.1 139.782 122.12 140.009 122.12C140.26 122.12 140.487 122.14 140.669 122.199C140.874 122.258 141.056 122.337 141.17 122.436C141.261 122.515 141.352 122.594 141.398 122.653C141.444 122.732 141.489 122.811 141.512 122.87C141.535 122.949 141.535 123.028 141.535 123.107C141.535 123.186 141.512 123.285 141.466 123.383C141.421 123.522 141.307 123.62 141.125 123.739C140.988 123.838 140.806 123.897 140.578 123.936C140.419 123.976 140.237 123.995 140.032 124.015C139.827 124.035 139.668 124.055 139.554 124.055C139.508 124.055 139.44 124.055 139.395 124.055L139.554 124.983C139.782 124.963 140.009 124.923 140.26 124.864C140.282 124.884 140.305 124.884 140.328 124.884ZM141.717 119.238C141.717 119.238 141.694 119.238 141.717 119.238C141.694 119.238 141.717 119.238 141.717 119.238Z" fill="#202D37"/>
<path d="M76.9255 100.523C76.5385 101.51 82.1844 101.767 82.799 101.787C83.391 101.826 101.717 84.7301 103.334 84.6314C104.95 84.5327 125.007 98.0358 126.145 98.9045C127.283 99.7928 131.723 97.3449 131.882 96.6145C132.064 95.884 105.975 78.0181 102.719 78.2747C100.033 78.5116 78.0638 97.6015 76.9255 100.523Z" fill="#FFFEF2"/>
<path d="M82.8446 102.478C82.8218 102.478 82.7763 102.478 82.7308 102.478H82.6397C77.1077 102.201 76.5613 101.51 76.3109 101.175C76.106 100.918 76.0604 100.602 76.1743 100.306C76.8572 98.549 83.3455 92.5477 88.6726 87.9282C92.1786 84.888 100.579 77.7811 102.651 77.6232C103.243 77.5837 105.018 77.4455 117.927 85.8159C124.392 90.0208 130.971 94.6402 132.292 95.9234C132.451 96.0814 132.77 96.3972 132.679 96.7921C132.451 97.7396 129.788 99.1413 128.194 99.5953C127.033 99.9309 126.168 99.8717 125.621 99.4374C124.028 98.1937 105.884 86.112 103.402 85.3618C101.922 86.0725 94.6145 92.5477 90.2207 96.4565C83.8008 102.102 83.3227 102.478 82.8446 102.478ZM77.8362 100.464C78.2687 100.622 79.4753 100.918 82.5942 101.076C83.3682 100.503 86.2822 97.9371 89.0824 95.4497C99.4636 86.2502 102.264 83.9996 103.288 83.9207C103.789 83.8812 104.631 83.8417 115.4 90.8302C120.75 94.3046 126.054 97.8976 126.691 98.3714C126.828 98.4306 127.602 98.3911 128.991 97.7594C129.901 97.3448 130.584 96.8908 130.926 96.6144C129.628 95.4891 124.369 91.679 117.608 87.2767C107.454 80.6633 103.539 78.9458 102.833 78.9656C101.9 79.1235 96.9821 82.6967 89.6971 88.9942C83.7097 94.1665 78.8151 98.9241 77.8362 100.464Z" fill="#202D37"/>
</svg>
