<svg width="67" height="61" viewBox="0 0 67 61" fill="none" xmlns="http://www.w3.org/2000/svg">
<path d="M32.6625 48.0793C32.7037 41.5709 32.5345 41.5499 33.165 41.5618C33.8313 41.5746 33.6722 41.5395 33.5905 49.2337C33.5456 53.451 33.5365 53.4312 33.4655 53.648C33.4483 53.7191 33.4044 53.7828 33.3414 53.8276C33.2783 53.8725 33.2001 53.8963 33.12 53.8944C33.0399 53.8923 32.9631 53.8652 32.9027 53.8173C32.8422 53.7697 32.802 53.7041 32.7888 53.6321C32.7128 53.3217 32.6598 48.2791 32.6625 48.0793Z" fill="#3B3B3B"/>
<path fill-rule="evenodd" clip-rule="evenodd" d="M19.5199 30.3528C20.4256 30.3203 20.6509 30.3211 20.7014 30.4071C20.7246 30.4466 20.7109 30.5043 20.7094 30.5848C20.6916 31.5495 20.7092 32.1891 20.7209 32.6146C20.7441 33.4591 20.7442 33.4597 20.3975 33.4853C19.7832 33.5308 7.10912 33.8102 6.253 33.8291C6.22345 33.8297 6.20797 33.83 6.20757 33.83C5.19279 33.8416 4.44631 33.8617 3.89718 33.8766C2.44247 33.916 2.37301 33.9178 2.37083 33.622C2.35465 31.35 2.18536 30.7483 2.40304 30.5912C2.4874 30.5305 2.62989 30.5363 2.86194 30.5378C3.25704 30.5403 3.64341 30.5424 4.02126 30.5442C3.85936 30.3926 3.71896 30.1994 3.59725 29.975C2.2332 29.9893 1.83664 30.0427 1.72168 30.2355C1.67433 30.3149 1.67476 30.4179 1.67503 30.5515C1.6764 30.9352 1.67708 31.2808 1.6777 31.5922C1.68298 34.2603 1.68329 34.4138 2.06397 34.4305C4.4778 34.5351 6.55493 34.4619 8.05898 34.4089C9.68601 34.3515 10.6425 34.3177 10.6292 34.5586C10.5214 36.5305 10.58 38.8805 10.6336 40.9774C10.6442 41.3961 10.7632 41.3949 12.8792 41.3763C12.964 41.3754 13.0521 41.3745 13.1434 41.3738C29.1204 41.2412 30.8335 41.0835 30.8786 41.2668C30.8873 41.3019 30.8345 41.3498 30.8093 41.4126C30.0388 43.3191 28.5548 47.9326 27.9842 49.797C26.7935 53.6898 26.7622 54.2598 26.5219 54.3458C26.4766 54.362 26.4238 54.3611 26.3545 54.362C25.5823 54.3711 23.0939 54.4074 22.3345 54.5322C22.2128 54.5584 22.1055 54.6231 22.0316 54.7149C21.9578 54.8067 21.9225 54.9195 21.9319 55.033C21.9413 55.1464 21.9948 55.2532 22.083 55.3337C22.1711 55.4145 22.288 55.4639 22.4125 55.4731C24.0336 55.6067 41.9862 55.2815 43.4505 55.1376C43.5852 55.133 43.7131 55.0821 43.8079 54.9948C43.9031 54.9076 43.958 54.7908 43.9617 54.6682C43.9657 54.5456 43.9182 54.426 43.8287 54.3342C43.7393 54.2421 43.615 54.1845 43.4806 54.1732C43.0056 54.1103 39.9109 54.1329 39.6683 54.1354C39.6034 54.136 39.5528 54.1366 39.5092 54.1207C39.1625 53.9948 39.2704 52.8303 36.0711 42.4084C35.9854 42.129 35.9133 41.9091 35.8567 41.7359C35.6802 41.1976 35.6527 41.1137 35.8259 41.1109C54.2465 40.7995 56.2756 40.9749 56.4187 40.5818C56.4461 40.5058 56.4036 40.4085 56.3949 40.2829C56.3808 40.0779 56.3815 39.8363 56.3822 39.463C56.3838 38.6545 56.3865 37.2286 56.2462 34.224C56.2411 34.117 56.2368 34.0426 56.2723 33.9904C56.4059 33.7952 57.1014 33.9181 60.4337 33.8312C61.1616 33.8123 61.7814 33.798 62.3096 33.7861C65.2329 33.7196 65.3387 33.7171 65.3246 33.3039C65.3179 33.1148 65.3186 32.9894 65.3196 32.8287C65.322 32.4523 65.325 31.8835 65.2379 29.8595C65.2302 29.6807 65.2285 29.567 65.1672 29.4964C65.0154 29.3217 64.4979 29.4107 62.6168 29.4325C62.4658 29.4343 62.3163 29.4361 62.1679 29.4378C62.1435 29.5955 62.1184 29.7575 62.0932 29.9239C63.242 29.9107 64.059 29.8983 64.3277 29.8851C64.3846 29.8823 64.4282 29.8799 64.4617 29.8956C64.6037 29.9621 64.5622 30.3531 64.5622 32.4123C64.5605 33.0644 64.5511 33.0711 63.8108 33.0879C63.7773 33.0885 63.6426 33.0919 63.4229 33.0971C60.8745 33.1572 46.8883 33.4878 46.4769 33.4631C46.3978 33.4582 46.3402 33.4564 46.2983 33.432C46.1251 33.3322 46.2136 32.857 46.1271 30.2755C46.1251 30.2107 47.0588 30.1586 48.5056 30.116C48.4453 29.9194 48.3891 29.7219 48.3368 29.5237C46.1372 29.54 45.6511 29.5896 45.5432 29.8C45.5124 29.8601 45.5124 29.9333 45.5121 30.0226C45.5117 30.211 45.5107 30.3993 45.5097 30.5878C45.5047 31.6038 45.4994 32.6204 45.5791 33.6351C45.5854 33.715 45.5901 33.7815 45.6203 33.8361C45.7952 34.1518 46.828 34.0728 53.9993 33.9401C54.3588 33.9334 54.3524 34.0224 54.3001 34.7328C54.2562 35.3278 54.1805 36.359 54.2613 38.1354C54.2636 38.1884 54.2874 38.232 54.2777 38.2677C54.2117 38.513 52.596 38.4123 32.1429 38.6941C14.0778 38.943 12.6664 39.1742 12.6165 39.0257C12.609 39.0034 12.632 38.9726 12.6342 38.932C12.7169 37.3997 12.6557 36.3023 12.6146 35.5639C12.5663 34.698 12.5456 34.3256 12.8165 34.3247C12.8262 34.3247 18.6729 34.2491 21.1161 34.0987C21.5941 34.0682 21.5934 33.9886 21.3985 30.2804C21.3804 29.9351 21.3496 29.7753 20.9593 29.7847C20.6685 29.7917 20.3822 29.7984 20.1001 29.8049C19.9569 29.999 19.7678 30.1789 19.5199 30.3528ZM38.5759 54.089C38.6037 54.0384 38.5662 53.9578 38.5287 53.8297C36.6483 47.4266 35.8081 44.2497 35.3914 42.6732C34.981 41.1216 34.9807 41.1213 34.8028 41.1222C33.2714 41.1311 33.0393 41.1524 32.9517 41.1607C32.9303 41.1625 32.9175 41.1637 32.8963 41.1637C31.7516 41.1573 31.4955 41.1265 31.416 41.2201C31.3909 41.2494 31.3834 41.2915 31.3711 41.3507C31.0156 43.0636 29.9437 46.4463 29.0195 49.363C28.3577 51.4517 27.7716 53.3015 27.5786 54.1277C27.5653 54.1845 27.5291 54.2281 27.5387 54.261C27.5814 54.4071 28.5377 54.3318 36.5368 54.1936C38.0995 54.1665 38.5119 54.2067 38.5759 54.089ZM49.2483 40.2289C52.5789 40.1813 54.9038 40.1481 55.4254 40.142C55.7761 40.1377 55.7711 40.0843 55.6991 39.3404C55.6274 38.598 55.4894 37.1676 55.5721 34.4116C55.5798 34.1576 55.5835 34.0313 55.5162 33.9709C55.4468 33.909 55.3021 33.9172 55.009 33.9288C54.9564 33.9309 54.9149 33.9325 54.8824 33.9486C54.6944 34.042 54.8016 34.6276 54.7876 38.7021V38.703C54.7855 39.2376 54.7855 39.2727 25.6218 39.4816C21.6497 39.51 18.8446 39.5667 16.8648 39.6064C12.7128 39.6903 12.1907 39.7006 12.1471 39.2257C11.9629 37.2112 12.0078 35.9693 12.0342 35.2397C12.0619 34.4741 12.0691 34.2731 11.7696 34.3357C11.718 34.3467 11.6585 34.3433 11.5993 34.3402C11.4333 34.3317 11.2693 34.3229 11.2848 34.6236C11.3441 35.7689 11.3215 37.0151 11.3017 38.1085C11.2815 39.2242 11.2642 40.1807 11.3394 40.709C11.3471 40.769 37.0473 40.4027 49.2483 40.2289Z" fill="#3B3B3B"/>
<path d="M61.3103 6.81253C62.309 7.09709 62.4021 10.7226 62.4266 11.6751C62.4936 14.3308 61.7378 16.7381 59.2156 18.0725C55.3725 20.1056 61.305 19.9257 62.3957 24.583C62.7642 26.1581 62.4376 27.6379 62.0661 30.1035C62.0527 30.2651 61.9854 30.419 61.8728 30.5446C61.7602 30.6699 61.6081 30.7608 61.437 30.805C57.5758 32.0555 53.0569 32.2242 49.2199 30.8313C49.0534 30.7791 48.9029 30.6916 48.781 30.5754C48.6594 30.4594 48.5703 30.3185 48.5207 30.1645C48.0038 28.5045 47.785 26.7792 47.8731 25.0555C48.1375 22.7375 49.6101 21.3397 51.6251 19.9364C52.8834 19.0607 51.6027 18.4846 50.3431 17.7038C46.7606 15.4834 47.6356 10.1767 47.7743 7.74705C47.8229 6.90311 47.8678 6.85523 48.7659 6.69632C51.9585 6.13055 58.2662 5.9445 61.3103 6.81253ZM55.0844 9.83813C53.0881 9.85826 50.7629 10.0751 48.7492 10.1983C48.5395 10.2111 48.4477 10.3081 48.4577 10.5085C48.7706 17.271 51.2717 16.4941 52.7631 18.2894C53.5849 19.2782 52.9796 20.3634 51.8158 21.0267C50.7005 21.6636 49.0728 23.4207 48.9522 24.7133C48.848 25.542 48.8249 26.3776 48.8835 27.21C48.9214 27.5818 49.0175 27.6864 49.4265 27.7648C52.928 28.4358 61.2343 28.3965 61.442 27.5467C61.507 27.3422 61.5468 27.1317 61.5602 26.919C61.4932 20.5692 55.3855 21.1933 57.1925 18.44C58.368 16.6488 61.4748 17.5476 61.4376 10.4951C61.4353 10.0345 55.9473 9.82928 55.0844 9.83813ZM61.3914 9.49043C61.2547 8.15514 61.2239 7.47072 60.7328 7.38013C57.7848 6.8351 52.0312 6.83601 49.0775 7.3597C48.9723 7.36595 48.8738 7.40865 48.8021 7.47907C48.7304 7.54947 48.6912 7.64222 48.6922 7.7382C48.5354 9.36904 48.4798 9.36294 48.8155 9.33732C52.7035 9.04116 57.6046 8.71329 61.3914 9.49043ZM55.5671 31.11C61.8832 30.8182 61.0856 30.1206 61.3117 28.8857C61.4537 28.1085 59.8209 29.805 50.0781 28.7332C49.7873 28.7027 49.3699 28.5673 49.2326 28.6887C49.0467 28.8524 49.2691 29.2072 49.2621 29.4801C49.2443 30.1511 49.6711 30.4284 50.3227 30.5781C52.0302 31.0015 53.7993 31.1808 55.5671 31.11Z" fill="#3B3B3B"/>
<path d="M53.5028 14.0263C55.9024 14.055 55.1192 13.8379 58.4752 14.0794C59.2909 14.138 58.3941 15.8426 57.3781 16.7405C56.0632 17.9029 55.4656 17.3963 55.4227 18.4229C55.3875 19.2467 55.4271 20.0717 55.541 20.8895C55.7115 22.1055 57.9593 20.8257 60.5794 26.2401C61.241 27.6071 58.291 27.3329 56.1038 27.4345C53.868 27.5382 54.3953 27.6327 50.6841 27.3735C49.4567 27.2874 50.9695 24.8474 51.6509 23.9141C53.8284 20.9303 54.953 22.4303 54.9004 20.2148C54.8576 18.4333 55.0425 17.9514 54.4288 17.7028C53.0888 17.1772 52.0154 16.2112 51.4225 14.9975C50.9568 14.0742 51.8529 14.0065 53.5028 14.0263ZM52.9219 24.6001C52.8509 24.6055 52.7849 24.635 52.7367 24.6828C52.6884 24.7305 52.6616 24.793 52.6616 24.8578C52.6616 24.9227 52.6884 24.9851 52.7367 25.0329C52.7849 25.0806 52.8509 25.1101 52.9219 25.1155C53.2485 25.132 53.3397 24.6876 52.9219 24.6001ZM59.3519 26.043C59.3429 25.753 58.8655 25.6877 58.8551 26.0226C58.8578 26.0795 58.8836 26.1334 58.9275 26.1737C58.9717 26.214 59.0306 26.2378 59.0933 26.2403C59.1556 26.2429 59.2169 26.2241 59.2648 26.1876C59.3127 26.151 59.3439 26.0994 59.3519 26.043ZM57.2883 15.0234C57.2907 14.9958 57.287 14.9681 57.2776 14.9418C57.2682 14.9155 57.2531 14.8912 57.233 14.8702C57.2133 14.8493 57.1892 14.8322 57.1617 14.8199C57.1345 14.8076 57.1051 14.8003 57.0746 14.7985C57.0444 14.7967 57.0139 14.8005 56.9851 14.8095C56.9563 14.8186 56.9299 14.8327 56.9074 14.8511C56.8846 14.8695 56.8662 14.8919 56.8531 14.9169C56.8401 14.9418 56.8324 14.9689 56.831 14.9966C56.8287 15.0241 56.8324 15.0519 56.8418 15.0782C56.8511 15.1045 56.8662 15.1288 56.8863 15.1497C56.9061 15.1706 56.9302 15.1878 56.9577 15.2001C56.9848 15.2124 57.0143 15.2196 57.0448 15.2214C57.0749 15.2232 57.1054 15.2194 57.1342 15.2105C57.163 15.2014 57.1895 15.1873 57.2119 15.1688C57.2347 15.1504 57.2531 15.1281 57.2662 15.1031C57.2793 15.0781 57.287 15.051 57.2883 15.0234ZM53.935 22.506C53.8747 22.5076 53.8174 22.5298 53.7745 22.5682C53.7316 22.6066 53.7062 22.6583 53.7031 22.7131C53.7001 22.7678 53.7199 22.8216 53.7588 22.8636C53.7976 22.9056 53.8522 22.9328 53.9118 22.9397C53.9447 22.9435 53.9778 22.941 54.0093 22.9326C54.0412 22.9241 54.0703 22.9098 54.0958 22.8905C54.1209 22.8712 54.1417 22.8473 54.1564 22.8204C54.1708 22.7935 54.1792 22.7642 54.1809 22.7342C54.1825 22.7042 54.1772 22.6742 54.1654 22.6462C54.1537 22.6181 54.136 22.5926 54.1129 22.5711C54.0897 22.5497 54.0619 22.5328 54.0314 22.5216C54.0006 22.5104 53.9678 22.5051 53.935 22.506ZM56.6186 15.6639C56.5975 15.4342 56.2646 15.4577 56.281 15.6996C56.282 15.721 56.2877 15.7419 56.2977 15.7612C56.3078 15.7805 56.3225 15.7976 56.3403 15.8115C56.358 15.8255 56.3788 15.8359 56.4012 15.8421C56.4237 15.8484 56.4475 15.8503 56.4706 15.8479C56.494 15.8454 56.5165 15.8386 56.5369 15.8278C56.557 15.817 56.5748 15.8025 56.5885 15.7853C56.6026 15.768 56.6123 15.7483 56.6173 15.7274C56.6223 15.7065 56.6227 15.6849 56.618 15.6639H56.6186ZM53.2871 25.9119C53.2201 25.7097 52.9249 25.7524 52.931 25.9253C52.93 25.9478 52.9343 25.9702 52.9434 25.9912C52.9524 26.0121 52.9661 26.0312 52.9836 26.047C53.001 26.0629 53.0221 26.0753 53.0452 26.0834C53.0683 26.0914 53.0928 26.0951 53.1176 26.0941C53.1424 26.093 53.1665 26.0873 53.1886 26.0773C53.2107 26.0673 53.2305 26.0532 53.2462 26.036C53.2623 26.0187 53.274 25.9986 53.2807 25.977C53.2877 25.9554 53.2898 25.9327 53.2864 25.9104L53.2871 25.9119Z" fill="#3B3B3B"/>
<path d="M11.7957 7.77232C11.0412 8.54244 10.0322 8.90905 9.60074 9.15275C8.81517 9.59652 10.2573 9.52363 11.0496 10.7821C11.3448 11.2505 11.2841 11.7806 10.8359 11.3542C10.2741 10.8714 9.68466 10.4159 9.0701 9.98967C7.24502 8.5888 11.8483 8.11697 11.6603 6.82834C11.5337 5.9594 13.7742 5.55192 14.7346 5.49519C15.879 5.429 16.5845 8.19169 18.425 8.24202C19.1529 8.26184 19.8444 8.31735 19.8256 8.9182C19.7616 10.948 19.7023 11.3774 18.8069 11.5034C18.3851 11.5644 13.9675 11.2139 14.9041 13.1702C15.9704 15.3967 17.765 15.8576 19.1208 17.9425C20.5613 20.1571 20.2933 22.6341 20.4105 25.9009C20.503 28.4538 20.8564 29.5271 19.3385 30.4722C17.089 31.8725 15.2636 32.5911 11.8804 32.4084C8.28386 32.2141 5.06786 31.1741 4.3064 30.7538C2.82468 29.9358 2.80358 26.1251 2.80157 24.5476C2.79788 21.615 2.9761 19.5935 5.01794 17.6046C7.0792 15.5965 9.8262 13.9974 11.1176 12.1848C11.1665 12.1158 11.201 12.0194 11.3186 12.0509C11.4463 12.0853 11.4302 12.1942 11.4265 12.2848C11.4111 12.6813 11.4091 12.6813 11.8757 12.6785C15.072 12.6648 13.81 10.9074 18.0833 10.9882C18.8343 11.0023 19.0457 11.0142 19.0571 10.2992C19.0752 9.17593 19.2709 8.7901 18.6823 8.80962C17.5503 8.84744 17.0106 8.59399 16.5208 8.0703C14.9611 6.40226 14.9815 5.95452 14.2093 6.15094C12.404 6.60844 12.0988 6.65876 12.2385 7.11748C12.73 8.73124 13.1739 9.94941 11.9933 11.5266C11.935 11.6043 11.8553 11.7321 11.739 11.6821C11.3809 11.529 12.4697 10.0818 11.7957 7.77232ZM19.5261 24.9816C19.7499 15.7947 15.6984 17.3042 14.2817 13.7143C14.1028 13.2617 13.8579 13.7482 11.0406 13.3401C10.6831 13.2882 10.9984 13.3974 9.11935 15.0036C4.6682 18.8087 2.57946 19.4142 3.79519 27.9746C4.06755 29.8961 4.74961 30.1136 5.93484 30.5223C9.60342 31.7874 14.7601 32.1202 18.5643 29.9687C20.1027 29.0985 19.4414 28.4531 19.5261 24.9816Z" fill="#3B3B3B"/>
<path d="M11.1555 22.9595C11.1729 22.3668 10.1471 22.6386 9.2259 21.8682C7.76161 20.6439 9.01753 18.6837 11.0537 18.3698C11.3481 18.3244 11.2583 18.1951 11.3598 17.4149C11.4034 17.0794 11.7736 16.993 11.9072 17.3816C12.0747 17.8696 11.7853 18.2914 12.2925 18.3143C14.5866 18.4183 14.4938 19.6392 13.8047 19.358C13.3242 19.1781 12.8112 19.081 12.2918 19.0716C12.0908 19.0613 12.0101 19.1372 12.0292 19.3156C12.2516 21.3966 11.8225 21.9478 12.334 22.0951C16.622 23.3288 16.3001 27.1276 12.5782 27.9255C12.0466 28.0395 12.0486 28.0395 12.0332 28.5562C12.043 28.7046 12.0238 28.8534 11.9766 28.9957C11.9473 29.0776 11.8883 29.148 11.8091 29.1953C11.73 29.2425 11.6356 29.2638 11.5414 29.2555C11.4472 29.2473 11.3589 29.21 11.2911 29.1499C11.2233 29.0898 11.1801 29.0104 11.1686 28.925C11.0872 28.071 11.1897 28.0039 10.9143 27.9682C9.43125 27.776 8.06981 26.5316 8.42994 26.1464C8.63094 25.9329 9.93744 26.75 10.7022 26.8894C11.3609 27.0089 11.0289 27.195 11.1555 22.9595ZM12.0664 26.6981C12.0613 26.915 12.1545 26.9482 12.3561 26.9116C15.0639 26.4136 15.0894 24.0718 12.3561 22.9854C11.8838 22.7975 12.1484 23.1016 12.065 26.6981H12.0664ZM11.2225 19.703C11.2225 19.337 11.3009 19.1012 10.9659 19.2113C9.48787 19.6963 9.02054 20.8336 9.92337 21.3863C10.2408 21.5506 10.578 21.681 10.9284 21.7748C11.3917 21.9362 11.0155 21.3417 11.2225 19.703Z" fill="#3B3B3B"/>
</svg>
