<svg width="381" height="495" viewBox="0 0 381 495" fill="none" xmlns="http://www.w3.org/2000/svg">
<g opacity="0.6">
<g style="mix-blend-mode:color-dodge" opacity="0.55">
<path d="M69.5045 246.142C69.5045 246.142 114.422 -93.2241 164.735 149.052C215.047 391.327 223.294 122.831 260.307 11.2011C297.319 -100.428 331.306 262.801 360.046 196.551C388.785 130.301 372.946 -4.05205 398.255 5.43084" stroke="url(#paint0_linear_29_1313)" stroke-width="1.12" stroke-miterlimit="10"/>
<path d="M398.717 7.49423C373.769 -1.85829 388.184 137.126 359.006 198.898C329.828 260.67 296.052 -93.7284 258.89 17.7877C221.728 129.304 213.405 387.479 163.285 149.465C113.164 -88.5477 68.9834 248.449 68.5397 248.245" stroke="url(#paint1_linear_29_1313)" stroke-width="1.13" stroke-miterlimit="10"/>
<path d="M399.178 9.56289C374.587 0.346404 387.581 143.973 357.965 201.256C328.348 258.538 294.782 -87.0345 257.471 24.3739C220.161 135.782 211.762 383.63 161.834 149.879C111.905 -83.8716 68.461 250.773 67.5747 250.342" stroke="url(#paint2_linear_29_1313)" stroke-width="1.13" stroke-miterlimit="10"/>
<path d="M399.639 11.6318C375.405 2.56272 386.979 150.814 356.924 203.619C326.869 256.424 293.514 -80.3573 256.056 30.9604C218.599 142.278 210.118 379.781 160.382 150.293C110.646 -79.1953 67.9399 253.063 66.6099 252.445" stroke="url(#paint3_linear_29_1313)" stroke-width="1.14" stroke-miterlimit="10"/>
<path d="M400.1 13.6895C376.223 4.7394 386.376 157.662 355.884 205.96C325.391 254.259 292.244 -73.6631 254.64 37.5299C217.035 148.723 208.475 375.921 158.932 150.695C109.39 -74.5303 67.4147 255.37 65.6448 254.542" stroke="url(#paint4_linear_29_1313)" stroke-width="1.14" stroke-miterlimit="10"/>
<path d="M400.562 15.7754C377.039 6.95566 385.774 164.509 354.843 208.335C323.912 252.162 290.977 -66.9519 253.223 44.1334C215.469 155.219 206.832 372.089 157.481 151.126C108.129 -69.8371 66.8987 257.677 64.6798 256.645" stroke="url(#paint5_linear_29_1313)" stroke-width="1.15" stroke-miterlimit="10"/>
<path d="M401.017 17.8442C377.857 9.15483 385.173 171.356 353.802 210.693C322.431 250.03 289.707 -60.2466 251.805 50.7197C213.904 161.686 205.19 368.241 156.03 151.54C106.869 -65.1609 66.3723 259.984 63.7148 258.748" stroke="url(#paint6_linear_29_1313)" stroke-width="1.15" stroke-miterlimit="10"/>
<path d="M401.484 19.9245C378.675 11.3768 384.57 178.209 352.762 213.063C320.954 247.916 288.439 -53.5524 250.389 57.3119C212.34 168.176 203.545 364.403 154.58 151.971C105.614 -60.4619 65.8525 262.291 62.75 260.823" stroke="url(#paint7_linear_29_1313)" stroke-width="1.16" stroke-miterlimit="10"/>
<path d="M401.945 21.9876C379.498 13.5704 383.968 185.045 351.721 215.409C319.474 245.774 287.17 -46.8696 248.973 63.8869C210.775 174.643 201.902 360.549 153.123 152.367C104.344 -55.8141 65.33 264.598 61.785 262.948" stroke="url(#paint8_linear_29_1313)" stroke-width="1.16" stroke-miterlimit="10"/>
<path d="M402.406 24.0566C380.311 15.7754 383.365 191.892 350.676 217.773C317.987 243.654 285.901 -40.1583 247.556 70.4735C209.211 181.105 200.26 356.717 151.677 152.781C103.094 -51.1546 64.8088 266.905 60.8213 265.051" stroke="url(#paint9_linear_29_1313)" stroke-width="1.17" stroke-miterlimit="10"/>
<path d="M402.867 26.1254C381.127 17.9802 382.763 198.733 349.64 220.131C316.517 241.528 284.633 -33.487 246.14 77.0598C207.646 187.607 198.611 352.852 150.227 153.195C101.843 -46.4615 64.2864 269.212 59.8564 267.148" stroke="url(#paint10_linear_29_1313)" stroke-width="1.17" stroke-miterlimit="10"/>
<path d="M403.329 28.1943C381.945 20.1794 382.161 205.609 348.599 222.489C315.038 239.369 283.366 -26.7929 244.722 83.6462C206.078 194.085 196.973 349.003 148.776 153.609C100.579 -41.7853 63.7626 271.507 58.8915 269.24" stroke="url(#paint11_linear_29_1313)" stroke-width="1.18" stroke-miterlimit="10"/>
<path d="M403.789 30.2689C382.762 22.3844 381.558 212.428 347.559 224.847C313.561 237.266 282.095 -20.0987 243.305 90.2101C204.516 200.519 195.33 345.137 147.327 154.006C99.3237 -37.126 63.2454 273.803 57.9279 271.337" stroke="url(#paint12_linear_29_1313)" stroke-width="1.18" stroke-miterlimit="10"/>
<path d="M404.251 32.3378C383.581 24.5894 380.956 219.275 346.518 227.205C312.081 235.134 280.827 -13.4045 241.889 96.8362C202.951 207.077 193.687 341.311 145.874 154.442C98.062 -32.427 62.7216 276.127 56.9655 273.452" stroke="url(#paint13_linear_29_1313)" stroke-width="1.19" stroke-miterlimit="10"/>
<path d="M404.712 34.4067C384.398 26.7943 380.353 226.116 345.477 229.563C310.601 233.009 279.557 -6.7104 240.469 103.4C201.381 213.51 192.043 337.462 144.43 154.856C96.8158 -27.7507 62.2003 278.44 55.9966 275.56" stroke="url(#paint14_linear_29_1313)" stroke-width="1.19" stroke-miterlimit="10"/>
<path d="M405.174 36.4755C385.215 28.9934 379.751 232.963 344.438 231.915C309.124 230.866 278.29 -0.0277322 239.056 109.975C199.822 219.978 190.4 333.614 142.972 155.27C95.5439 -23.0746 61.6779 280.746 55.0304 277.652" stroke="url(#paint15_linear_29_1313)" stroke-width="1.2" stroke-miterlimit="10"/>
<path d="M405.634 38.5501C386.033 31.1814 379.148 239.811 343.397 234.284C307.645 228.758 277.022 6.67785 237.638 116.573C198.255 226.468 188.758 329.771 141.521 155.683C94.2835 -18.4039 61.1568 283.053 54.0668 279.755" stroke="url(#paint16_linear_29_1313)" stroke-width="1.2" stroke-miterlimit="10"/>
<path d="M406.096 40.6189C386.851 33.4033 378.547 246.658 342.356 236.642C306.164 226.626 275.755 13.3719 236.222 123.159C196.689 232.946 187.114 325.922 140.071 156.097C93.0271 -13.7277 60.6344 285.36 53.1019 281.857" stroke="url(#paint17_linear_29_1313)" stroke-width="1.21" stroke-miterlimit="10"/>
<path d="M406.556 42.6878C387.668 35.6083 377.945 253.499 341.316 239C304.686 224.501 274.484 20.0661 234.805 129.746C195.127 239.425 185.471 322.073 138.624 156.528C91.7782 -9.01744 60.1131 287.667 52.1368 283.955" stroke="url(#paint18_linear_29_1313)" stroke-width="1.21" stroke-miterlimit="10"/>
<path d="M407.018 44.7569C388.486 37.8134 377.348 260.347 340.275 241.358C303.202 222.37 273.215 26.7604 233.389 136.327C193.563 245.893 183.828 318.225 137.168 156.931C90.5075 -4.36367 59.5906 289.974 51.1719 286.058" stroke="url(#paint19_linear_29_1313)" stroke-width="1.22" stroke-miterlimit="10"/>
<path d="M407.48 46.8312C389.304 40.0294 376.74 267.194 339.237 243.716C301.735 220.238 271.947 33.4543 231.971 142.924C191.996 252.394 182.185 314.381 135.718 157.344C89.2511 0.306687 59.0696 292.281 50.207 288.155" stroke="url(#paint20_linear_29_1313)" stroke-width="1.22" stroke-miterlimit="10"/>
<path d="M407.941 48.9003C390.122 42.2231 376.138 274.035 338.193 246.085C300.248 218.136 270.679 40.1486 230.555 149.499C190.431 258.85 180.542 310.533 134.267 157.758C87.9921 4.9831 58.5419 294.588 49.2421 290.258" stroke="url(#paint21_linear_29_1313)" stroke-width="1.23" stroke-miterlimit="10"/>
<path d="M408.402 50.9693C390.939 44.4225 375.535 280.883 337.153 248.438C298.77 215.993 269.409 46.8428 229.138 156.086C188.867 265.329 178.898 306.684 132.819 158.172C86.7406 9.65946 58.0258 296.895 48.2783 292.361" stroke="url(#paint22_linear_29_1313)" stroke-width="1.23" stroke-miterlimit="10"/>
<path d="M408.863 53.0381C391.756 46.6273 374.935 287.73 336.105 250.796C297.275 213.862 268.135 53.5425 227.715 162.672C187.296 271.802 177.249 302.835 131.359 158.586C85.4688 14.3356 57.5047 299.202 47.3135 294.458" stroke="url(#paint23_linear_29_1313)" stroke-width="1.24" stroke-miterlimit="10"/>
<path d="M409.325 55.1126C392.574 48.8322 374.33 294.577 335.072 253.154C295.814 211.73 266.872 60.2253 226.305 169.264C185.739 278.303 175.607 298.998 129.914 159.005C84.2213 19.0118 56.9822 301.509 46.3485 296.561" stroke="url(#paint24_linear_29_1313)" stroke-width="1.24" stroke-miterlimit="10"/>
<path d="M409.789 57.1814C393.395 51.0371 373.731 301.418 334.035 255.512C294.338 209.605 265.607 66.9194 224.898 175.845C184.188 284.771 173.971 295.144 128.463 159.413C82.9543 23.6824 56.4609 303.816 45.3834 298.664" stroke="url(#paint25_linear_29_1313)" stroke-width="1.25" stroke-miterlimit="10"/>
<path d="M410.247 59.2505C394.21 53.2422 373.125 308.266 332.99 257.87C292.854 207.474 264.336 73.6137 223.466 182.426C182.597 291.238 172.325 291.295 127.014 159.833C81.7032 28.3702 55.9335 306.123 44.4187 300.761" stroke="url(#paint26_linear_29_1313)" stroke-width="1.25" stroke-miterlimit="10"/>
<path d="M410.708 61.3023C395.026 55.43 372.523 315.096 331.95 260.216C291.377 205.337 263.062 80.2908 222.055 188.995C181.047 297.7 170.683 287.463 125.562 160.246C80.4401 33.0293 55.4174 308.436 43.4536 302.864" stroke="url(#paint27_linear_29_1313)" stroke-width="1.26" stroke-miterlimit="10"/>
<path d="M411.17 63.394C395.844 57.6464 371.92 321.96 330.909 262.591C289.898 203.223 261.798 87.002 220.638 195.599C179.479 304.196 169.037 283.603 124.11 160.66C79.1837 37.717 54.9015 310.737 42.4888 304.961" stroke="url(#paint28_linear_29_1313)" stroke-width="1.26" stroke-miterlimit="10"/>
<path d="M411.63 65.4627C396.666 59.8511 371.319 328.801 329.868 264.949C288.417 201.097 260.533 93.6959 219.221 202.185C177.909 310.674 167.392 279.754 122.66 161.062C77.9285 42.3704 54.3738 313.044 41.5238 307.064" stroke="url(#paint29_linear_29_1313)" stroke-width="1.27" stroke-miterlimit="10"/>
<path d="M412.092 67.5372C397.48 62.0618 370.717 335.643 328.828 267.313C286.939 198.983 259.261 100.413 217.804 208.772C176.348 317.131 165.754 275.906 121.209 161.488C76.6643 47.0694 53.8513 315.351 40.5588 309.167" stroke="url(#paint30_linear_29_1313)" stroke-width="1.27" stroke-miterlimit="10"/>
<path d="M412.552 69.6005C398.296 64.261 370.11 342.496 327.787 269.688C285.464 196.88 257.996 107.107 216.388 215.381C174.779 323.655 164.11 272.063 119.764 161.924C75.4181 51.7853 53.3301 317.658 39.5939 311.27" stroke="url(#paint31_linear_29_1313)" stroke-width="1.28" stroke-miterlimit="10"/>
<path d="M413.014 71.6751C399.114 66.4661 369.512 349.337 326.746 272.023C283.98 194.709 256.723 113.779 214.971 221.939C173.219 330.099 162.467 268.191 118.308 162.315C74.1487 56.439 52.8077 319.965 38.6289 313.367" stroke="url(#paint32_linear_29_1313)" stroke-width="1.28" stroke-miterlimit="10"/>
<path d="M413.475 73.7722C399.93 68.6708 368.91 356.213 325.706 274.426C282.503 192.64 255.455 120.472 213.554 228.514C171.652 336.555 160.823 264.365 116.857 162.763C72.8897 61.1605 52.2866 322.272 37.6641 315.47" stroke="url(#paint33_linear_29_1313)" stroke-width="1.29" stroke-miterlimit="10"/>
<path d="M413.937 75.8128C400.75 70.8701 368.307 363.032 324.666 276.745C281.026 190.458 254.186 127.167 212.137 235.112C170.088 343.057 159.181 260.517 115.405 163.126C71.6292 65.7347 51.7653 324.579 36.699 317.567" stroke="url(#paint34_linear_29_1313)" stroke-width="1.29" stroke-miterlimit="10"/>
<path d="M414.397 77.8818C401.568 73.0751 367.705 369.879 323.624 279.103C279.544 188.327 252.918 133.861 210.721 241.693C168.524 349.524 157.538 256.662 113.955 163.557C70.3728 70.4508 51.2429 326.886 35.7341 319.67" stroke="url(#paint35_linear_29_1313)" stroke-width="1.3" stroke-miterlimit="10"/>
<path d="M414.859 79.9562C402.384 75.28 367.102 376.72 322.584 281.461C278.067 186.201 251.649 140.549 209.304 248.285C166.959 356.02 155.897 252.819 112.504 163.976C69.1111 75.1326 50.7217 329.193 34.7769 321.767" stroke="url(#paint36_linear_29_1313)" stroke-width="1.3" stroke-miterlimit="10"/>
<path d="M415.32 82.025C403.202 77.4905 366.5 383.573 321.543 283.813C276.587 184.053 250.38 147.209 207.892 254.865C165.403 362.521 154.251 248.976 111.053 164.39C67.8547 79.8031 50.1993 331.499 33.8055 323.87" stroke="url(#paint37_linear_29_1313)" stroke-width="1.31" stroke-miterlimit="10"/>
<path d="M415.782 84.094C404.02 79.6898 365.897 390.415 320.502 286.177C275.107 181.938 249.112 153.938 206.47 261.452C163.828 368.966 152.609 245.127 109.599 164.803C66.5892 84.4795 49.6781 333.806 32.8419 325.973" stroke="url(#paint38_linear_29_1313)" stroke-width="1.31" stroke-miterlimit="10"/>
<path d="M416.239 86.1686C404.836 81.8891 365.292 397.262 319.46 288.523C273.628 179.784 247.84 160.615 205.051 268.021C162.262 375.428 150.962 241.262 108.149 165.2C65.3352 89.1387 49.1556 336.113 31.8756 328.07" stroke="url(#paint39_linear_29_1313)" stroke-width="1.31" stroke-miterlimit="10"/>
<path d="M416.704 88.2374C405.655 84.094 364.694 404.103 318.421 290.898C272.149 177.693 246.574 167.331 203.637 274.625C160.699 381.918 149.327 237.436 106.7 165.637C64.0735 93.8376 48.6344 338.42 30.9067 330.173" stroke="url(#paint40_linear_29_1313)" stroke-width="1.32" stroke-miterlimit="10"/>
<path d="M417.164 90.3064C406.473 86.2989 364.091 410.951 317.38 293.256C270.67 175.562 245.31 174.02 202.223 281.228C159.136 388.436 147.679 233.615 105.25 166.05C62.821 98.4856 48.112 340.744 29.9458 332.27" stroke="url(#paint41_linear_29_1313)" stroke-width="1.32" stroke-miterlimit="10"/>
<path d="M417.626 92.3753C407.29 88.5039 363.489 417.798 316.341 295.614C269.192 173.431 244.037 180.714 200.804 287.798C157.571 394.881 146.036 229.738 103.794 166.464C61.5514 103.19 47.5907 343.012 28.9807 334.373" stroke="url(#paint42_linear_29_1313)" stroke-width="1.33" stroke-miterlimit="10"/>
<path d="M418.087 94.4497C408.108 90.7087 362.886 424.639 315.3 297.972C267.713 171.305 242.769 187.408 199.385 294.384C156.001 401.36 144.391 225.889 102.346 166.85C60.3015 107.81 47.0683 345.313 28.0145 336.448" stroke="url(#paint43_linear_29_1313)" stroke-width="1.33" stroke-miterlimit="10"/>
<path d="M418.549 96.5188C408.925 92.9139 362.284 431.509 314.26 300.33C266.236 169.151 241.502 194.103 197.97 300.971C154.438 407.839 142.753 222.047 100.898 167.298C59.0424 112.548 46.5472 347.648 27.0509 338.573" stroke="url(#paint44_linear_29_1313)" stroke-width="1.34" stroke-miterlimit="10"/>
<path d="M419.009 98.5876C409.743 95.113 361.681 438.334 313.219 302.694C264.756 167.054 240.231 200.797 196.553 307.551C152.875 414.306 141.107 218.198 99.4462 167.706C57.7859 117.213 46.026 349.955 26.0859 340.676" stroke="url(#paint45_linear_29_1313)" stroke-width="1.34" stroke-miterlimit="10"/>
<path d="M419.471 100.656C410.561 97.3179 361.079 445.181 312.178 305.052C263.276 164.922 238.963 207.491 195.136 314.121C151.308 420.751 139.463 214.36 97.9962 168.102C56.5294 121.844 45.5048 352.245 25.1223 342.762" stroke="url(#paint46_linear_29_1313)" stroke-width="1.35" stroke-miterlimit="10"/>
<path d="M419.931 102.731C411.379 99.5229 360.476 452.022 311.138 307.41C261.799 162.797 237.699 214.185 193.719 320.724C149.739 427.264 137.819 210.501 96.5436 168.539C55.2677 126.577 44.9823 354.569 24.156 344.876" stroke="url(#paint47_linear_29_1313)" stroke-width="1.35" stroke-miterlimit="10"/>
<path d="M420.393 104.8C412.197 101.728 359.874 458.87 310.096 309.768C260.317 160.666 236.426 220.879 192.303 327.311C148.18 433.742 136.173 206.652 95.0937 168.953C54.0139 131.253 44.4599 356.876 23.1912 346.979" stroke="url(#paint48_linear_29_1313)" stroke-width="1.36" stroke-miterlimit="10"/>
<path d="M420.854 106.869C413.013 103.933 359.272 465.717 309.056 312.126C258.84 158.534 235.156 227.573 190.889 333.897C146.621 440.221 134.534 202.809 93.6423 169.366C52.7509 135.924 43.9361 359.183 22.2274 349.077" stroke="url(#paint49_linear_29_1313)" stroke-width="1.36" stroke-miterlimit="10"/>
<path d="M421.316 108.915C413.834 106.081 358.669 472.541 308.016 314.461C257.363 156.381 233.888 234.239 189.47 340.461C145.051 446.683 132.89 198.96 92.1911 169.78C51.4919 140.6 43.4202 361.49 21.2626 351.179" stroke="url(#paint50_linear_29_1313)" stroke-width="1.37" stroke-miterlimit="10"/>
<path d="M421.776 111.012C414.649 108.348 358.068 479.405 306.974 316.847C255.879 154.289 232.62 240.984 188.052 347.064C143.484 453.145 131.247 195.111 90.741 170.217C50.2353 145.322 42.895 363.82 20.2975 353.299" stroke="url(#paint51_linear_29_1313)" stroke-width="1.37" stroke-miterlimit="10"/>
<path d="M422.238 113.081C415.465 110.542 357.466 486.253 305.934 319.205C254.402 152.158 231.351 247.65 186.636 353.651C141.921 459.652 129.605 191.263 89.2898 170.608C48.975 149.953 42.3739 366.104 19.3326 355.391" stroke="url(#paint52_linear_29_1313)" stroke-width="1.38" stroke-miterlimit="10"/>
<path d="M422.699 115.15C416.283 112.747 356.863 493.1 304.894 321.563C252.925 150.026 230.088 254.344 185.219 360.237C140.351 466.13 127.961 187.42 87.8385 171.021C47.7159 154.623 41.8514 368.411 18.3677 357.505" stroke="url(#paint53_linear_29_1313)" stroke-width="1.38" stroke-miterlimit="10"/>
<path d="M423.161 117.219C417.097 114.952 356.261 499.941 303.853 323.921C251.446 147.901 228.813 261.038 183.803 366.818C138.792 472.598 126.318 183.571 86.3886 171.435C46.4595 159.3 41.3304 370.718 17.4028 359.586" stroke="url(#paint54_linear_29_1313)" stroke-width="1.39" stroke-miterlimit="10"/>
<path d="M423.621 119.293C417.919 117.157 355.658 506.788 302.812 326.279C249.966 145.77 227.545 267.732 182.385 373.41C137.225 479.088 124.674 179.722 84.9373 171.832C45.2004 163.942 40.8079 373.053 16.4379 361.682" stroke="url(#paint55_linear_29_1313)" stroke-width="1.39" stroke-miterlimit="10"/>
<path d="M424.083 121.385C418.737 119.379 355.056 513.658 301.772 328.66C248.489 143.661 226.277 274.426 180.969 379.996C135.66 485.567 123.032 175.873 83.486 172.268C43.94 168.664 40.2867 375.32 15.4729 363.785" stroke="url(#paint56_linear_29_1313)" stroke-width="1.4" stroke-miterlimit="10"/>
<path d="M424.543 123.431C419.554 121.561 354.453 520.483 300.731 330.995C247.009 141.507 225.006 281.115 179.552 386.577C134.098 492.04 121.388 172.03 82.0358 172.682C42.6834 173.334 39.7641 377.639 14.5078 365.883" stroke="url(#paint57_linear_29_1313)" stroke-width="1.4" stroke-miterlimit="10"/>
<path d="M425.012 125.5C420.368 123.766 353.851 527.324 299.69 333.376C245.529 139.427 223.74 287.832 178.136 393.181C132.532 498.53 119.745 168.182 80.5847 173.096C41.4244 178.01 39.243 379.945 13.543 367.986" stroke="url(#paint58_linear_29_1313)" stroke-width="1.41" stroke-miterlimit="10"/>
<path d="M425.466 127.575C421.189 125.971 353.249 534.171 298.656 335.717C244.063 137.262 222.477 294.509 176.723 399.767C130.97 505.026 118.103 164.333 79.1335 173.533C40.1642 182.732 38.7206 382.253 12.5781 370.089" stroke="url(#paint59_linear_29_1313)" stroke-width="1.41" stroke-miterlimit="10"/>
<path d="M425.928 129.644C422.007 128.187 352.641 541.019 297.609 338.075C242.578 135.131 221.202 301.231 175.301 406.337C129.401 511.442 116.459 160.496 77.6833 173.924C38.9075 187.352 38.1993 384.559 11.613 372.186" stroke="url(#paint60_linear_29_1313)" stroke-width="1.42" stroke-miterlimit="10"/>
<path d="M426.388 131.713C422.825 130.381 352.044 547.86 296.568 340.433C241.093 133.005 219.94 307.897 173.886 412.923C127.832 517.949 114.817 156.641 76.2308 174.337C37.6447 192.034 37.6769 386.866 10.6533 374.289" stroke="url(#paint61_linear_29_1313)" stroke-width="1.42" stroke-miterlimit="10"/>
<path d="M426.85 133.781C423.642 132.58 351.441 554.707 295.525 342.791C239.608 130.874 218.665 314.591 172.468 419.532C126.272 524.473 113.172 152.793 74.7808 174.757C36.3894 196.721 37.1557 389.173 9.68445 376.392" stroke="url(#paint62_linear_29_1313)" stroke-width="1.43" stroke-miterlimit="10"/>
<path d="M427.311 135.856C424.46 134.785 350.84 561.537 294.488 345.148C238.135 128.759 217.396 321.28 171.052 426.096C124.708 530.912 111.534 148.944 73.3308 175.171C35.1278 201.397 36.6346 391.48 8.71826 378.489" stroke="url(#paint63_linear_29_1313)" stroke-width="1.43" stroke-miterlimit="10"/>
<path d="M427.772 137.925C425.277 136.99 350.241 568.402 293.446 347.512C236.652 126.622 216.128 327.974 169.634 432.677C123.14 537.38 109.886 145.095 71.8796 175.584C33.8726 206.074 36.1121 393.81 7.75464 380.592" stroke="url(#paint64_linear_29_1313)" stroke-width="1.44" stroke-miterlimit="10"/>
<path d="M428.237 139.994C426.099 139.195 349.639 575.243 292.41 349.87C235.182 124.497 214.865 334.668 168.218 439.263C121.57 543.859 108.243 141.252 70.4333 175.998C32.6237 210.744 35.5908 396.1 6.78955 382.689" stroke="url(#paint65_linear_29_1313)" stroke-width="1.44" stroke-miterlimit="10"/>
<path d="M428.695 142.063C426.912 141.399 349.029 582.09 291.364 352.228C233.7 122.366 213.59 341.362 166.8 445.85C120.011 550.337 106.599 137.403 68.9782 176.412C31.357 215.42 35.0684 398.407 5.82471 384.792" stroke="url(#paint66_linear_29_1313)" stroke-width="1.45" stroke-miterlimit="10"/>
<path d="M429.155 144.137C427.736 143.599 348.43 588.938 290.325 354.586C232.219 120.235 212.321 348.056 165.385 452.436C118.448 556.816 104.955 133.555 67.5269 176.826C30.0992 220.097 34.5473 400.72 4.85974 386.895" stroke="url(#paint67_linear_29_1313)" stroke-width="1.45" stroke-miterlimit="10"/>
<path d="M429.617 146.206C428.548 145.804 347.829 595.785 289.285 356.944C230.741 118.103 211.053 354.75 163.967 459.023C116.881 563.295 103.314 129.7 66.0757 177.239C28.8376 224.779 34.0248 403.021 3.89612 388.992" stroke="url(#paint68_linear_29_1313)" stroke-width="1.46" stroke-miterlimit="10"/>
<path d="M430.078 148.275C429.366 148.026 347.223 602.615 288.244 359.302C229.265 115.989 209.785 361.445 162.551 465.609C115.316 569.773 101.67 125.863 64.6259 177.659C27.5813 229.455 33.5038 405.328 2.93005 391.095" stroke="url(#paint69_linear_29_1313)" stroke-width="1.46" stroke-miterlimit="10"/>
<path d="M430.539 150.344C430.182 150.214 346.623 609.468 287.203 361.666C227.782 113.863 208.511 368.139 161.134 472.196C113.758 576.252 100.028 122.014 63.1743 178.067C26.3207 234.12 32.9875 407.629 1.96484 393.192" stroke="url(#paint70_linear_29_1313)" stroke-width="1.47" stroke-miterlimit="10"/>
<path d="M431 152.418C431 152.418 346.02 616.321 286.163 364.024C226.305 111.726 207.254 374.833 159.718 478.776C112.181 582.72 98.3845 118.166 61.7231 178.486C25.0617 238.807 32.4549 409.942 1 395.295" stroke="url(#paint71_linear_29_1313)" stroke-width="1.47" stroke-miterlimit="10"/>
</g>
</g>
<defs>
<linearGradient id="paint0_linear_29_1313" x1="-35.9168" y1="161.861" x2="295.213" y2="158.847" gradientUnits="userSpaceOnUse">
<stop stop-color="white"/>
<stop offset="1"/>
</linearGradient>
<linearGradient id="paint1_linear_29_1313" x1="-36.6068" y1="163.782" x2="297.188" y2="161.433" gradientUnits="userSpaceOnUse">
<stop stop-color="white"/>
<stop offset="1"/>
</linearGradient>
<linearGradient id="paint2_linear_29_1313" x1="-36.5431" y1="165.947" x2="293.936" y2="163.547" gradientUnits="userSpaceOnUse">
<stop stop-color="white"/>
<stop offset="1"/>
</linearGradient>
<linearGradient id="paint3_linear_29_1313" x1="-34.9303" y1="167.994" x2="298.378" y2="165.493" gradientUnits="userSpaceOnUse">
<stop stop-color="white"/>
<stop offset="1"/>
</linearGradient>
<linearGradient id="paint4_linear_29_1313" x1="-33.2741" y1="180.623" x2="302.925" y2="178.044" gradientUnits="userSpaceOnUse">
<stop stop-color="white"/>
<stop offset="1"/>
</linearGradient>
<linearGradient id="paint5_linear_29_1313" x1="-31.5674" y1="183.14" x2="307.749" y2="180.446" gradientUnits="userSpaceOnUse">
<stop stop-color="white"/>
<stop offset="1"/>
</linearGradient>
<linearGradient id="paint6_linear_29_1313" x1="-29.8719" y1="185.545" x2="312.676" y2="182.727" gradientUnits="userSpaceOnUse">
<stop stop-color="white"/>
<stop offset="1"/>
</linearGradient>
<linearGradient id="paint7_linear_29_1313" x1="-29.743" y1="188.539" x2="308.279" y2="185.654" gradientUnits="userSpaceOnUse">
<stop stop-color="white"/>
<stop offset="1"/>
</linearGradient>
<linearGradient id="paint8_linear_29_1313" x1="-27.9547" y1="192.785" x2="313.259" y2="189.759" gradientUnits="userSpaceOnUse">
<stop stop-color="white"/>
<stop offset="1"/>
</linearGradient>
<linearGradient id="paint9_linear_29_1313" x1="-26.138" y1="208.621" x2="318.576" y2="205.483" gradientUnits="userSpaceOnUse">
<stop stop-color="white"/>
<stop offset="1"/>
</linearGradient>
<linearGradient id="paint10_linear_29_1313" x1="-24.2591" y1="213.988" x2="324.134" y2="210.684" gradientUnits="userSpaceOnUse">
<stop stop-color="white"/>
<stop offset="1"/>
</linearGradient>
<linearGradient id="paint11_linear_29_1313" x1="-24.1466" y1="217.713" x2="317.908" y2="214.328" gradientUnits="userSpaceOnUse">
<stop stop-color="white"/>
<stop offset="1"/>
</linearGradient>
<linearGradient id="paint12_linear_29_1313" x1="-22.2499" y1="221.1" x2="323.519" y2="217.523" gradientUnits="userSpaceOnUse">
<stop stop-color="white"/>
<stop offset="1"/>
</linearGradient>
<linearGradient id="paint13_linear_29_1313" x1="-20.2902" y1="224.605" x2="329.444" y2="220.815" gradientUnits="userSpaceOnUse">
<stop stop-color="white"/>
<stop offset="1"/>
</linearGradient>
<linearGradient id="paint14_linear_29_1313" x1="-18.2407" y1="241.784" x2="336.007" y2="237.819" gradientUnits="userSpaceOnUse">
<stop stop-color="white"/>
<stop offset="1"/>
</linearGradient>
<linearGradient id="paint15_linear_29_1313" x1="-16.1745" y1="246.792" x2="343.054" y2="242.563" gradientUnits="userSpaceOnUse">
<stop stop-color="white"/>
<stop offset="1"/>
</linearGradient>
<linearGradient id="paint16_linear_29_1313" x1="-16.115" y1="252.899" x2="333.182" y2="248.563" gradientUnits="userSpaceOnUse">
<stop stop-color="white"/>
<stop offset="1"/>
</linearGradient>
<linearGradient id="paint17_linear_29_1313" x1="-13.9175" y1="260.693" x2="340.254" y2="256.043" gradientUnits="userSpaceOnUse">
<stop stop-color="white"/>
<stop offset="1"/>
</linearGradient>
<linearGradient id="paint18_linear_29_1313" x1="-11.6063" y1="269.724" x2="348.33" y2="264.709" gradientUnits="userSpaceOnUse">
<stop stop-color="white"/>
<stop offset="1"/>
</linearGradient>
<linearGradient id="paint19_linear_29_1313" x1="-9.12883" y1="281.965" x2="358.051" y2="276.515" gradientUnits="userSpaceOnUse">
<stop stop-color="white"/>
<stop offset="1"/>
</linearGradient>
<linearGradient id="paint20_linear_29_1313" x1="-9.2755" y1="312.946" x2="340.153" y2="307.524" gradientUnits="userSpaceOnUse">
<stop stop-color="white"/>
<stop offset="1"/>
</linearGradient>
<linearGradient id="paint21_linear_29_1313" x1="-6.51005" y1="334.996" x2="349.774" y2="329.063" gradientUnits="userSpaceOnUse">
<stop stop-color="white"/>
<stop offset="1"/>
</linearGradient>
<linearGradient id="paint22_linear_29_1313" x1="-3.33696" y1="368.385" x2="362.08" y2="361.819" gradientUnits="userSpaceOnUse">
<stop stop-color="white"/>
<stop offset="1"/>
</linearGradient>
<linearGradient id="paint23_linear_29_1313" x1="0.794501" y1="421.629" x2="380.936" y2="414.213" gradientUnits="userSpaceOnUse">
<stop stop-color="white"/>
<stop offset="1"/>
</linearGradient>
<linearGradient id="paint24_linear_29_1313" x1="7.04723" y1="526.623" x2="413.721" y2="517.946" gradientUnits="userSpaceOnUse">
<stop stop-color="white"/>
<stop offset="1"/>
</linearGradient>
<linearGradient id="paint25_linear_29_1313" x1="10.3932" y1="856.16" x2="339.855" y2="848.662" gradientUnits="userSpaceOnUse">
<stop stop-color="white"/>
<stop offset="1"/>
</linearGradient>
<linearGradient id="paint26_linear_29_1313" x1="156.114" y1="6494.19" x2="479.035" y2="6486.03" gradientUnits="userSpaceOnUse">
<stop stop-color="white"/>
<stop offset="1"/>
</linearGradient>
<linearGradient id="paint27_linear_29_1313" x1="442.73" y1="1423.88" x2="108.268" y2="1433.39" gradientUnits="userSpaceOnUse">
<stop stop-color="white"/>
<stop offset="1"/>
</linearGradient>
<linearGradient id="paint28_linear_29_1313" x1="423.602" y1="766.956" x2="80.3867" y2="774.395" gradientUnits="userSpaceOnUse">
<stop stop-color="white"/>
<stop offset="1"/>
</linearGradient>
<linearGradient id="paint29_linear_29_1313" x1="489.28" y1="564.576" x2="87.1419" y2="574.745" gradientUnits="userSpaceOnUse">
<stop stop-color="white"/>
<stop offset="1"/>
</linearGradient>
<linearGradient id="paint30_linear_29_1313" x1="465.463" y1="466.241" x2="77.8734" y2="478.002" gradientUnits="userSpaceOnUse">
<stop stop-color="white"/>
<stop offset="1"/>
</linearGradient>
<linearGradient id="paint31_linear_29_1313" x1="451.97" y1="419.738" x2="70.4704" y2="433.096" gradientUnits="userSpaceOnUse">
<stop stop-color="white"/>
<stop offset="1"/>
</linearGradient>
<linearGradient id="paint32_linear_29_1313" x1="443.376" y1="381.93" x2="65.2742" y2="399.141" gradientUnits="userSpaceOnUse">
<stop stop-color="white"/>
<stop offset="1"/>
</linearGradient>
<linearGradient id="paint33_linear_29_1313" x1="439.397" y1="355.365" x2="61.4943" y2="379.939" gradientUnits="userSpaceOnUse">
<stop stop-color="white"/>
<stop offset="1"/>
</linearGradient>
<linearGradient id="paint34_linear_29_1313" x1="467.657" y1="221.796" x2="51.1095" y2="269.197" gradientUnits="userSpaceOnUse">
<stop stop-color="white"/>
<stop offset="1"/>
</linearGradient>
<linearGradient id="paint35_linear_29_1313" x1="511.651" y1="200.383" x2="113.889" y2="381.438" gradientUnits="userSpaceOnUse">
<stop stop-color="white"/>
<stop offset="1"/>
</linearGradient>
<linearGradient id="paint36_linear_29_1313" x1="385.597" y1="171.381" x2="121.929" y2="51.364" gradientUnits="userSpaceOnUse">
<stop stop-color="white"/>
<stop offset="1"/>
</linearGradient>
<linearGradient id="paint37_linear_29_1313" x1="401.813" y1="210.388" x2="61.2215" y2="171.63" gradientUnits="userSpaceOnUse">
<stop stop-color="white"/>
<stop offset="1"/>
</linearGradient>
<linearGradient id="paint38_linear_29_1313" x1="420.04" y1="219.604" x2="51.5379" y2="195.641" gradientUnits="userSpaceOnUse">
<stop stop-color="white"/>
<stop offset="1"/>
</linearGradient>
<linearGradient id="paint39_linear_29_1313" x1="417.256" y1="223.541" x2="44.2085" y2="206.561" gradientUnits="userSpaceOnUse">
<stop stop-color="white"/>
<stop offset="1"/>
</linearGradient>
<linearGradient id="paint40_linear_29_1313" x1="413.655" y1="226.037" x2="38.5548" y2="212.904" gradientUnits="userSpaceOnUse">
<stop stop-color="white"/>
<stop offset="1"/>
</linearGradient>
<linearGradient id="paint41_linear_29_1313" x1="409.693" y1="227.506" x2="33.5972" y2="216.807" gradientUnits="userSpaceOnUse">
<stop stop-color="white"/>
<stop offset="1"/>
</linearGradient>
<linearGradient id="paint42_linear_29_1313" x1="405.856" y1="226.958" x2="29.0147" y2="217.429" gradientUnits="userSpaceOnUse">
<stop stop-color="white"/>
<stop offset="1"/>
</linearGradient>
<linearGradient id="paint43_linear_29_1313" x1="412.16" y1="229.178" x2="24.6569" y2="220.778" gradientUnits="userSpaceOnUse">
<stop stop-color="white"/>
<stop offset="1"/>
</linearGradient>
<linearGradient id="paint44_linear_29_1313" x1="407.688" y1="230.788" x2="20.3331" y2="223.441" gradientUnits="userSpaceOnUse">
<stop stop-color="white"/>
<stop offset="1"/>
</linearGradient>
<linearGradient id="paint45_linear_29_1313" x1="403.505" y1="232.355" x2="16.1465" y2="225.825" gradientUnits="userSpaceOnUse">
<stop stop-color="white"/>
<stop offset="1"/>
</linearGradient>
<linearGradient id="paint46_linear_29_1313" x1="399.39" y1="233.544" x2="12.0837" y2="227.668" gradientUnits="userSpaceOnUse">
<stop stop-color="white"/>
<stop offset="1"/>
</linearGradient>
<linearGradient id="paint47_linear_29_1313" x1="403.136" y1="236.581" x2="7.26868" y2="230.95" gradientUnits="userSpaceOnUse">
<stop stop-color="white"/>
<stop offset="1"/>
</linearGradient>
<linearGradient id="paint48_linear_29_1313" x1="398.855" y1="238.115" x2="3.20808" y2="232.97" gradientUnits="userSpaceOnUse">
<stop stop-color="white"/>
<stop offset="1"/>
</linearGradient>
<linearGradient id="paint49_linear_29_1313" x1="394.791" y1="239.337" x2="-0.797048" y2="234.599" gradientUnits="userSpaceOnUse">
<stop stop-color="white"/>
<stop offset="1"/>
</linearGradient>
<linearGradient id="paint50_linear_29_1313" x1="390.876" y1="240.799" x2="-4.76537" y2="236.406" gradientUnits="userSpaceOnUse">
<stop stop-color="white"/>
<stop offset="1"/>
</linearGradient>
<linearGradient id="paint51_linear_29_1313" x1="392.924" y1="244.051" x2="-9.96782" y2="239.883" gradientUnits="userSpaceOnUse">
<stop stop-color="white"/>
<stop offset="1"/>
</linearGradient>
<linearGradient id="paint52_linear_29_1313" x1="388.866" y1="250.703" x2="-13.9846" y2="246.716" gradientUnits="userSpaceOnUse">
<stop stop-color="white"/>
<stop offset="1"/>
</linearGradient>
<linearGradient id="paint53_linear_29_1313" x1="384.887" y1="254.203" x2="-17.9514" y2="250.46" gradientUnits="userSpaceOnUse">
<stop stop-color="white"/>
<stop offset="1"/>
</linearGradient>
<linearGradient id="paint54_linear_29_1313" x1="381.069" y1="257.446" x2="-21.9031" y2="253.918" gradientUnits="userSpaceOnUse">
<stop stop-color="white"/>
<stop offset="1"/>
</linearGradient>
<linearGradient id="paint55_linear_29_1313" x1="376.423" y1="260.831" x2="-26.5922" y2="259.163" gradientUnits="userSpaceOnUse">
<stop stop-color="white"/>
<stop offset="1"/>
</linearGradient>
<linearGradient id="paint56_linear_29_1313" x1="377.193" y1="264.034" x2="-32.2155" y2="262.428" gradientUnits="userSpaceOnUse">
<stop stop-color="white"/>
<stop offset="1"/>
</linearGradient>
<linearGradient id="paint57_linear_29_1313" x1="373.355" y1="267.297" x2="-36.2224" y2="265.769" gradientUnits="userSpaceOnUse">
<stop stop-color="white"/>
<stop offset="1"/>
</linearGradient>
<linearGradient id="paint58_linear_29_1313" x1="369.545" y1="274.578" x2="-40.2001" y2="273.097" gradientUnits="userSpaceOnUse">
<stop stop-color="white"/>
<stop offset="1"/>
</linearGradient>
<linearGradient id="paint59_linear_29_1313" x1="365.862" y1="277.882" x2="-44.182" y2="276.468" gradientUnits="userSpaceOnUse">
<stop stop-color="white"/>
<stop offset="1"/>
</linearGradient>
<linearGradient id="paint60_linear_29_1313" x1="365.77" y1="281.193" x2="-50.0411" y2="279.822" gradientUnits="userSpaceOnUse">
<stop stop-color="white"/>
<stop offset="1"/>
</linearGradient>
<linearGradient id="paint61_linear_29_1313" x1="362.007" y1="284.361" x2="-54.0628" y2="283.045" gradientUnits="userSpaceOnUse">
<stop stop-color="white"/>
<stop offset="1"/>
</linearGradient>
<linearGradient id="paint62_linear_29_1313" x1="358.285" y1="287.569" x2="-58.0555" y2="286.306" gradientUnits="userSpaceOnUse">
<stop stop-color="white"/>
<stop offset="1"/>
</linearGradient>
<linearGradient id="paint63_linear_29_1313" x1="354.65" y1="295.28" x2="-62.0641" y2="294.048" gradientUnits="userSpaceOnUse">
<stop stop-color="white"/>
<stop offset="1"/>
</linearGradient>
<linearGradient id="paint64_linear_29_1313" x1="351.019" y1="298.525" x2="-66.0573" y2="297.339" gradientUnits="userSpaceOnUse">
<stop stop-color="white"/>
<stop offset="1"/>
</linearGradient>
<linearGradient id="paint65_linear_29_1313" x1="350.194" y1="301.779" x2="-72.2017" y2="300.621" gradientUnits="userSpaceOnUse">
<stop stop-color="white"/>
<stop offset="1"/>
</linearGradient>
<linearGradient id="paint66_linear_29_1313" x1="346.543" y1="304.923" x2="-76.2516" y2="303.804" gradientUnits="userSpaceOnUse">
<stop stop-color="white"/>
<stop offset="1"/>
</linearGradient>
<linearGradient id="paint67_linear_29_1313" x1="342.895" y1="308.092" x2="-80.2872" y2="307.01" gradientUnits="userSpaceOnUse">
<stop stop-color="white"/>
<stop offset="1"/>
</linearGradient>
<linearGradient id="paint68_linear_29_1313" x1="339.323" y1="311.217" x2="-84.3394" y2="310.169" gradientUnits="userSpaceOnUse">
<stop stop-color="white"/>
<stop offset="1"/>
</linearGradient>
<linearGradient id="paint69_linear_29_1313" x1="337.938" y1="319.304" x2="-90.6628" y2="318.266" gradientUnits="userSpaceOnUse">
<stop stop-color="white"/>
<stop offset="1"/>
</linearGradient>
<linearGradient id="paint70_linear_29_1313" x1="334.291" y1="322.521" x2="-94.7687" y2="321.514" gradientUnits="userSpaceOnUse">
<stop stop-color="white"/>
<stop offset="1"/>
</linearGradient>
<linearGradient id="paint71_linear_29_1313" x1="330.61" y1="324.97" x2="-98.9503" y2="324.083" gradientUnits="userSpaceOnUse">
<stop stop-color="white"/>
<stop offset="1"/>
</linearGradient>
</defs>
</svg>
